<svg xmlns="http://www.w3.org/2000/svg" viewBox="0 0 901.22 329.33"><defs><style>.cls-1{fill:#fde94a;}</style></defs><title>Asset 1</title><g id="Layer_2" data-name="Layer 2"><g id="Header"><path class="cls-1" d="M0,75V25H19.15V75Zm0,75v-25H19.15v25ZM19.15,25V0h95.74V25Zm0,50h95.74v25H19.15Zm0,75h95.74v25H19.15ZM114.89,50V25H134V50Zm0,100.06v-50H134v50Z"/><path class="cls-1" d="M153.19,175.11V75h19.15v25h95.74V75h19.15V175.11H268.09v-50H172.34v50ZM191.49,50V75H172.34V50Zm0-25h19.15V50H191.49Zm38.3-25V25H210.64V0Zm0,50V25h19.15V50Zm38.3,0V75H248.94V50Z"/><path class="cls-1" d="M306.38,175.11V0h134V25H325.53V75h76.6v25h-76.6v75Z"/><path class="cls-1" d="M459.57,175.11V0h134V25H478.72V75h76.6v25h-76.6v50H593.62v25Z"/><path class="cls-1" d="M689.36,175.11H670.21V25H612.77V0h134V25H689.36Z"/><path class="cls-1" d="M766,25V0h19.15V25Zm19.15,25V25h19.15V50Zm19.15,0H823.4V75H804.26ZM823.4,175.11V75h19.15V175.11ZM842.55,75V50H861.7V75ZM861.7,50V25h19.15V50Zm19.15-25V0H900V25Z"/><path class="cls-1" d="M1.22,329.33V193.46H176v19.41H27.4v38.82H132.1V271.1H27.4v58.23Z"/><path class="cls-1" d="M324.76,329.33V193.46H481.81v19.41H350.93v38.82H481.81V271.1H455.64v19.41H429.46V271.1H350.93v58.23Zm130.88-38.82h26.18v19.41H455.64Zm26.18-38.82V212.87H508v38.82Zm0,58.23H508v19.41H481.81Z"/><path class="cls-1" d="M552.69,251.69V212.87h26.18v38.82Zm0,58.23V290.51h26.18v19.41Zm26.18-97V193.46H709.75v19.41Zm0,38.82H709.75V271.1H578.87Zm0,58.23H709.75v19.41H578.87Zm130.88-77.63V212.87h26.18v19.41Zm0,77.63V271.1h26.18v38.82Z"/><rect class="cls-1" x="227.91" y="193.46" width="27.2" height="135.81"/><path class="cls-1" d="M845.85,329.33H819.68V212.87h-60V193.46H901.22v19.41H845.85Z"/></g></g></svg>