<svg xmlns="http://www.w3.org/2000/svg" viewBox="0 0 221.41 77.56"><defs><style>.cls-1{fill:#3dfffd;}.cls-2{fill:#fde94a;}</style></defs><title>header-2</title><g id="Header"><path class="cls-1" d="M205.47,1.21h5.74V2.82h-5.74Zm-8.61,0h2.87V2.82h-2.87Zm14.35,1.62h2.87v8.09h-2.87Zm-5.74,0v8.09H202.6V2.82Zm-8.61,0v8.09H194V2.82Zm11.48,8.09h2.87v1.62h-2.87Zm-11.48,0h5.74v1.62h-5.74Z"/><path class="cls-1" d="M194,14.15h11.48v1.62H202.6v8.09h2.87v1.62H194V23.87h5.74V15.77H194Zm14.35,3.24h-2.87V15.77h2.87Zm2.87,0V19h-2.87V17.39Zm2.87,3.24h-2.87V19h2.87Zm-5.74,0h2.87v1.62h-2.87Zm0,3.24h-2.87V22.25h2.87Z"/><path class="cls-1" d="M194,27.1h20.09V38.43h-2.87V28.72h-5.74V35.2H202.6V28.72H194Z"/><path class="cls-1" d="M194,40.05h20.09V51.38h-2.87V41.67h-5.74v6.47H202.6V41.67h-5.74v9.71H194Z"/><path class="cls-1" d="M194,59.47V57.86h17.22V53h2.87V64.33h-2.87V59.47Z"/><path class="cls-1" d="M211.21,65.95h2.87v1.62h-2.87Zm-2.87,1.62h2.87v1.62h-2.87Zm0,1.62V70.8h-2.87V69.19ZM194,70.8h11.48v1.62H194Zm11.48,1.62h2.87V74h-2.87ZM208.34,74h2.87v1.62h-2.87Zm2.87,1.62h2.87v1.62h-2.87Z"/><path class="cls-1" d="M176.3,1.31h15.59V16.08h-2.23V3.52h-4.45v8.85H183V3.52H176.3Z"/><path class="cls-1" d="M176.3,28.66h15.59V41.93h-2.23V30.87h-4.45V41.93H183V39.72h-2.23V37.51H183V30.87H176.3Zm4.45,11.06v2.21h-2.23V39.72Zm4.45,2.21h4.45v2.21h-4.45Zm-6.68,0v2.21H176.3V41.93Z"/><path class="cls-1" d="M185.21,47.92h4.45v2.21h-4.45Zm-6.68,0h2.23v2.21h-2.23Zm11.13,2.21h2.23V61.2h-2.23Zm-4.45,0V61.2H183V50.13Zm-6.68,0V61.2H176.3V50.13Zm8.91,11.06h2.23v2.21h-2.23Zm-8.91,0H183v2.21h-4.45Z"/><rect class="cls-1" x="182.95" y="13.83" width="2.3" height="15.58" transform="translate(205.72 -162.48) rotate(90)"/><path class="cls-1" d="M176.3,72.7V70.49h13.36V65.42h2.23v12h-2.23V72.7Z"/><path class="cls-2" d="M0,17.68V5.89H3.59V17.68ZM0,35.35V29.46H3.59v5.89ZM3.59,5.89V0H21.53V5.89Zm0,11.78H21.53v5.89H3.59Zm0,17.68H21.53v5.89H3.59ZM21.53,11.78V5.89h3.59v5.89Zm0,23.57V23.57h3.59V35.35Z"/><path class="cls-2" d="M28.71,41.25V17.68H32.3v5.89H50.24V17.68h3.59V41.25H50.24V29.46H32.3V41.25Zm7.18-29.46v5.89H32.3V11.78Zm0-5.89h3.59v5.89H35.89ZM43.07,0V5.89H39.48V0Zm0,11.78V5.89h3.59v5.89Zm7.18,0v5.89H46.66V11.78Z"/><path class="cls-2" d="M57.42,41.25V0H82.55V5.89H61V17.68H75.37v5.89H61V41.25Z"/><path class="cls-2" d="M86.13,41.25V0h25.12V5.89H89.72V17.68h14.36v5.89H89.72V35.35h21.53v5.89Z"/><path class="cls-2" d="M129.2,41.25h-3.59V5.89H114.85V0H140V5.89H129.2Z"/><path class="cls-2" d="M143.56,5.89V0h3.59V5.89Zm3.59,5.89V5.89h3.59v5.89Zm3.59,0h3.59v5.89h-3.59Zm3.59,29.46V17.68h3.59V41.25Zm3.59-23.57V11.78h3.59v5.89Zm3.59-5.89V5.89h3.59v5.89Zm3.59-5.89V0h3.59V5.89Z"/><path class="cls-2" d="M.23,77.57v-32H33v4.57H5.13v9.14H24.76v4.57H5.13V77.57Z"/><path class="cls-2" d="M60.87,77.57v-32H90.3v4.57H65.77v9.14H90.3v4.57H85.4v4.57H80.49V63.86H65.77V77.57ZM85.4,68.43H90.3V73H85.4Zm4.91-9.14V50.14h4.91v9.14ZM90.3,73h4.91v4.57H90.3Z"/><path class="cls-2" d="M103.59,59.29V50.14h4.91v9.14Zm0,13.72V68.43h4.91V73Zm4.91-22.86V45.57H133v4.57Zm0,9.14H133v4.57H108.49Zm0,13.72H133v4.57H108.49ZM133,54.71V50.14h4.91v4.57ZM133,73V63.86h4.91V73Z"/><rect class="cls-2" x="42.71" y="45.57" width="5.1" height="31.99"/><path class="cls-2" d="M158.53,77.57h-4.91V50.14H142.38V45.57h26.53v4.57H158.53Z"/></g></svg>