<svg xmlns="http://www.w3.org/2000/svg" viewBox="0 0 208.91 21.56"><defs><style>.cls-1{fill:#b74fba;}</style></defs><title>Asset 2</title><g id="Layer_2" data-name="Layer 2"><g id="Header"><path class="cls-1" d="M0,9.19V3.06H2.92V9.19Zm0,9.19V15.31H2.92v3.06ZM2.92,3.06V0H17.49V3.06Zm0,6.13H17.49v3.06H2.92Zm0,9.19H17.49v3.06H2.92ZM17.49,6.13V3.06h2.92V6.13Zm0,12.25V12.25h2.92v6.13Z"/><path class="cls-1" d="M23.33,21.44V9.19h2.92v3.06H40.82V9.19h2.92V21.44H40.82V15.31H26.24v6.13ZM29.16,6.13V9.19H26.24V6.13Zm0-3.06h2.92V6.13H29.16ZM35,0V3.06H32.07V0Zm0,6.13V3.06H37.9V6.13Zm5.83,0V9.19H37.9V6.13Z"/><path class="cls-1" d="M46.65,21.44V0H67.06V3.06H49.57V9.19H61.23v3.06H49.57v9.19Z"/><path class="cls-1" d="M70,21.44V0H90.39V3.06H72.89V9.19H84.56v3.06H72.89v6.13H90.39v3.06Z"/><path class="cls-1" d="M105,21.44h-2.92V3.06H93.3V0h20.41V3.06H105Z"/><path class="cls-1" d="M116.63,3.06V0h2.92V3.06Zm2.92,3.06V3.06h2.92V6.13Zm2.92,0h2.92V9.19h-2.92Zm2.92,15.31V9.19h2.92V21.44Zm2.92-12.25V6.13h2.92V9.19Zm2.92-3.06V3.06h2.92V6.13Zm2.92-3.06V0H137V3.06Z"/><path class="cls-1" d="M146.08,21.56V.38h12.2v3H147.91V9.46h7.31v3h-7.31v9.08Z"/><path class="cls-1" d="M168.67,21.56V.38h11v3H170.5V9.46h9.14v3h-1.83v3H176v-3H170.5v9.08Zm9.14-6.05h1.83v3h-1.83Zm1.83-6.05V3.4h1.83V9.46Zm0,9.08h1.83v3h-1.83Z"/><path class="cls-1" d="M184.58,9.46V3.4h1.83V9.46Zm0,9.08v-3h1.83v3ZM186.41,3.4v-3h9.14v3Zm0,6.05h9.14v3h-9.14Zm0,9.08h9.14v3h-9.14Zm9.14-12.11v-3h1.83v3Zm0,12.11V12.48h1.83v6.05Z"/><rect class="cls-1" x="161.91" y="0.38" width="1.9" height="21.18"/><path class="cls-1" d="M205,21.56h-1.83V3.4H199v-3h9.88v3H205Z"/></g></g></svg>