<svg id="_1170px_grid" data-name="1170px grid" xmlns="http://www.w3.org/2000/svg" viewBox="0 0 1560 272"><defs><style>.cls-1{fill:#ed474e;}.cls-2{fill:#436ca9;}</style></defs><title>encrypt</title><path class="cls-1" d="M10946.74,4573.32v-6.5c0-70.15-48.36-79.89-91.21-79.89l-74.78.15c-7.5,0-12,3-12,12V4728.8c0,7.51,4.5,12,12,12h37.51c7.5,0,12-4.5,12-12l-0.35-68.84h12.76v-6.74h4.41l29.7,77.09c3,7.51,7.5,10.51,13.51,10.51h42c9,0,12-7.51,9-15l-33.52-81C10930.19,4634.71,10946.74,4614.57,10946.74,4573.32Zm-62.32-1.95c0,24-14.28,28.58-26.29,28.58h-28.24V4540.2h28.24c12,0,26.29,4.55,26.29,28.58v2.6Z" transform="translate(-10077.23 -4477.87)"/><path class="cls-1" d="M11099.15,4740h-37.51c-7.5,0-12-4.5-12-12l-0.45-68.19-65.58-158.51c-3-7.51,0-13.51,9-13.51h42c6,0,10.5,1.5,13.5,9l31.89,81,31.13-81c3-7.51,7.5-9,13.5-9h43.52c9,0,12,6,9,13.51l-66.31,158.51,0.29,68.19C11111.16,4735.48,11106.65,4740,11099.15,4740Z" transform="translate(-10077.23 -4477.87)"/><path class="cls-1" d="M10280.58,4499v28.53c0,9-4.5,12-12,12l-90.8.57v45.7l90.51,0.28c7.5,0,12,3,12,12v28.53c0,7.51-4.5,12-12,12l-90.51.44v47.84l91.4-.23c7.5,0,12,3,12,12v30c0,7.51-4.5,12-12,12H10128.1c-7.5,0-12-4.5-12-12V4499c0-7.51,4.5-12,12-12h140.47C10276.07,4487,10280.58,4491.51,10280.58,4499Z" transform="translate(-10077.23 -4477.87)"/><ellipse class="cls-2" cx="229.57" cy="8.77" rx="8.77" ry="8.77"/><ellipse class="cls-2" cx="245.57" cy="24.68" rx="8.77" ry="8.77"/><ellipse class="cls-2" cx="261.93" cy="8.77" rx="8.77" ry="8.77"/><ellipse class="cls-2" cx="277.92" cy="24.68" rx="8.77" ry="8.77"/><ellipse class="cls-2" cx="293.81" cy="8.77" rx="8.77" ry="8.77"/><ellipse class="cls-2" cx="309.81" cy="24.68" rx="8.77" ry="8.77"/><ellipse class="cls-2" cx="325.77" cy="8.77" rx="8.77" ry="8.77"/><ellipse class="cls-2" cx="341.76" cy="24.68" rx="8.77" ry="8.77"/><ellipse class="cls-2" cx="357.66" cy="8.77" rx="8.77" ry="8.77"/><ellipse class="cls-2" cx="373.65" cy="24.68" rx="8.77" ry="8.77"/><ellipse class="cls-2" cx="390.01" cy="8.77" rx="8.77" ry="8.77"/><ellipse class="cls-2" cx="406.01" cy="24.68" rx="8.77" ry="8.77"/><ellipse class="cls-2" cx="421.9" cy="8.77" rx="8.77" ry="8.77"/><ellipse class="cls-2" cx="229.57" cy="40.58" rx="8.77" ry="8.77"/><ellipse class="cls-2" cx="245.57" cy="56.48" rx="8.77" ry="8.77"/><ellipse class="cls-2" cx="229.57" cy="72.39" rx="8.77" ry="8.77"/><ellipse class="cls-2" cx="245.57" cy="88.29" rx="8.77" ry="8.77"/><ellipse class="cls-2" cx="229.57" cy="104.19" rx="8.77" ry="8.77"/><ellipse class="cls-2" cx="245.57" cy="120.1" rx="8.77" ry="8.77"/><ellipse class="cls-2" cx="229.57" cy="136" rx="8.77" ry="8.77"/><ellipse class="cls-2" cx="245.57" cy="151.9" rx="8.77" ry="8.77"/><ellipse class="cls-2" cx="229.57" cy="167.81" rx="8.77" ry="8.77"/><ellipse class="cls-2" cx="245.57" cy="183.71" rx="8.77" ry="8.77"/><ellipse class="cls-2" cx="229.57" cy="199.61" rx="8.77" ry="8.77"/><ellipse class="cls-2" cx="245.57" cy="215.52" rx="8.77" ry="8.77"/><ellipse class="cls-2" cx="229.57" cy="231.42" rx="8.77" ry="8.77"/><ellipse class="cls-2" cx="245.57" cy="247.32" rx="8.77" ry="8.77"/><ellipse class="cls-2" cx="229.57" cy="263.23" rx="8.77" ry="8.77"/><ellipse class="cls-2" cx="261.93" cy="40.58" rx="8.77" ry="8.77"/><ellipse class="cls-2" cx="277.92" cy="56.48" rx="8.77" ry="8.77"/><ellipse class="cls-2" cx="261.93" cy="72.39" rx="8.77" ry="8.77"/><ellipse class="cls-2" cx="277.92" cy="88.29" rx="8.77" ry="8.77"/><ellipse class="cls-2" cx="261.93" cy="104.19" rx="8.77" ry="8.77"/><ellipse class="cls-2" cx="277.92" cy="120.1" rx="8.77" ry="8.77"/><ellipse class="cls-2" cx="261.93" cy="136" rx="8.77" ry="8.77"/><ellipse class="cls-2" cx="277.92" cy="151.9" rx="8.77" ry="8.77"/><ellipse class="cls-2" cx="261.93" cy="167.81" rx="8.77" ry="8.77"/><ellipse class="cls-2" cx="277.92" cy="183.71" rx="8.77" ry="8.77"/><ellipse class="cls-2" cx="261.93" cy="199.61" rx="8.77" ry="8.77"/><ellipse class="cls-2" cx="277.92" cy="215.52" rx="8.77" ry="8.77"/><ellipse class="cls-2" cx="261.93" cy="231.42" rx="8.77" ry="8.77"/><ellipse class="cls-2" cx="277.92" cy="247.32" rx="8.77" ry="8.77"/><ellipse class="cls-2" cx="261.93" cy="263.23" rx="8.77" ry="8.77"/><ellipse class="cls-2" cx="293.81" cy="40.58" rx="8.77" ry="8.77"/><ellipse class="cls-2" cx="309.81" cy="56.48" rx="8.77" ry="8.77"/><ellipse class="cls-2" cx="293.81" cy="72.39" rx="8.77" ry="8.77"/><ellipse class="cls-2" cx="309.81" cy="88.29" rx="8.77" ry="8.77"/><ellipse class="cls-2" cx="293.81" cy="104.19" rx="8.77" ry="8.77"/><ellipse class="cls-2" cx="309.81" cy="120.1" rx="8.77" ry="8.77"/><ellipse class="cls-2" cx="293.02" cy="133.96" rx="9.48" ry="13.73"/><ellipse class="cls-2" cx="293.81" cy="167.81" rx="8.77" ry="8.77"/><ellipse class="cls-2" cx="309.81" cy="183.71" rx="8.77" ry="8.77"/><ellipse class="cls-2" cx="293.81" cy="199.61" rx="8.77" ry="8.77"/><ellipse class="cls-2" cx="309.81" cy="215.52" rx="8.77" ry="8.77"/><ellipse class="cls-2" cx="293.81" cy="231.42" rx="8.77" ry="8.77"/><ellipse class="cls-2" cx="309.81" cy="247.32" rx="8.77" ry="8.77"/><ellipse class="cls-2" cx="293.81" cy="263.23" rx="8.77" ry="8.77"/><ellipse class="cls-2" cx="325.77" cy="40.58" rx="8.77" ry="8.77"/><ellipse class="cls-2" cx="341.76" cy="56.48" rx="8.77" ry="8.77"/><ellipse class="cls-2" cx="325.77" cy="72.39" rx="8.77" ry="8.77"/><ellipse class="cls-2" cx="341.76" cy="88.29" rx="8.77" ry="8.77"/><ellipse class="cls-2" cx="325.77" cy="104.19" rx="8.77" ry="8.77"/><ellipse class="cls-2" cx="347.33" cy="125.15" rx="8.77" ry="8.77"/><ellipse class="cls-2" cx="325.77" cy="136" rx="8.77" ry="8.77"/><ellipse class="cls-2" cx="341.76" cy="151.9" rx="8.77" ry="8.77"/><ellipse class="cls-2" cx="325.77" cy="167.81" rx="8.77" ry="8.77"/><ellipse class="cls-2" cx="341.76" cy="183.71" rx="8.77" ry="8.77"/><ellipse class="cls-2" cx="325.77" cy="199.61" rx="8.77" ry="8.77"/><ellipse class="cls-2" cx="341.76" cy="215.52" rx="8.77" ry="8.77"/><ellipse class="cls-2" cx="325.77" cy="231.42" rx="8.77" ry="8.77"/><ellipse class="cls-2" cx="341.76" cy="247.32" rx="8.77" ry="8.77"/><ellipse class="cls-2" cx="325.77" cy="263.23" rx="8.77" ry="8.77"/><ellipse class="cls-2" cx="357.66" cy="40.58" rx="8.77" ry="8.77"/><ellipse class="cls-2" cx="373.65" cy="56.48" rx="8.77" ry="8.77"/><ellipse class="cls-2" cx="357.66" cy="72.39" rx="8.77" ry="8.77"/><ellipse class="cls-2" cx="373.65" cy="88.29" rx="8.77" ry="8.77"/><ellipse class="cls-2" cx="357.66" cy="104.19" rx="8.77" ry="8.77"/><ellipse class="cls-2" cx="373.65" cy="120.1" rx="8.77" ry="8.77"/><ellipse class="cls-2" cx="373.65" cy="151.9" rx="8.77" ry="8.77"/><ellipse class="cls-2" cx="357.66" cy="167.81" rx="8.77" ry="8.77"/><ellipse class="cls-2" cx="373.65" cy="183.71" rx="8.77" ry="8.77"/><ellipse class="cls-2" cx="357.66" cy="199.61" rx="8.77" ry="8.77"/><ellipse class="cls-2" cx="373.65" cy="215.52" rx="8.77" ry="8.77"/><ellipse class="cls-2" cx="357.66" cy="231.42" rx="8.77" ry="8.77"/><ellipse class="cls-2" cx="373.65" cy="247.32" rx="8.77" ry="8.77"/><ellipse class="cls-2" cx="357.66" cy="263.23" rx="8.77" ry="8.77"/><ellipse class="cls-2" cx="390.01" cy="40.58" rx="8.77" ry="8.77"/><ellipse class="cls-2" cx="406.01" cy="56.48" rx="8.77" ry="8.77"/><ellipse class="cls-2" cx="390.01" cy="72.39" rx="8.77" ry="8.77"/><ellipse class="cls-2" cx="406.01" cy="88.29" rx="8.77" ry="8.77"/><ellipse class="cls-2" cx="390.01" cy="104.19" rx="8.77" ry="8.77"/><ellipse class="cls-2" cx="406.01" cy="120.1" rx="8.77" ry="8.77"/><ellipse class="cls-2" cx="390.01" cy="136" rx="8.77" ry="8.77"/><ellipse class="cls-2" cx="406.01" cy="151.9" rx="8.77" ry="8.77"/><ellipse class="cls-2" cx="390.01" cy="167.81" rx="8.77" ry="8.77"/><ellipse class="cls-2" cx="406.01" cy="183.71" rx="8.77" ry="8.77"/><ellipse class="cls-2" cx="390.01" cy="199.61" rx="8.77" ry="8.77"/><ellipse class="cls-2" cx="406.01" cy="215.52" rx="8.77" ry="8.77"/><ellipse class="cls-2" cx="390.01" cy="231.42" rx="8.77" ry="8.77"/><ellipse class="cls-2" cx="406.01" cy="247.32" rx="8.77" ry="8.77"/><ellipse class="cls-2" cx="390.01" cy="263.23" rx="8.77" ry="8.77"/><ellipse class="cls-2" cx="421.9" cy="40.58" rx="8.77" ry="8.77"/><ellipse class="cls-2" cx="421.9" cy="72.39" rx="8.77" ry="8.77"/><ellipse class="cls-2" cx="421.9" cy="104.19" rx="8.77" ry="8.77"/><ellipse class="cls-2" cx="421.9" cy="136" rx="8.77" ry="8.77"/><ellipse class="cls-2" cx="421.9" cy="167.81" rx="8.77" ry="8.77"/><ellipse class="cls-2" cx="421.9" cy="199.61" rx="8.77" ry="8.77"/><ellipse class="cls-2" cx="421.9" cy="231.42" rx="8.77" ry="8.77"/><ellipse class="cls-2" cx="421.9" cy="263.23" rx="8.77" ry="8.77"/><rect class="cls-2" x="448.89" y="0.89" width="208.99" height="270.22"/><ellipse class="cls-2" cx="1130.89" cy="8.77" rx="8.77" ry="8.77"/><ellipse class="cls-2" cx="1146.89" cy="24.68" rx="8.77" ry="8.77"/><ellipse class="cls-2" cx="1163.25" cy="8.77" rx="8.77" ry="8.77"/><ellipse class="cls-2" cx="1179.24" cy="24.68" rx="8.77" ry="8.77"/><ellipse class="cls-2" cx="1195.13" cy="8.77" rx="8.77" ry="8.77"/><ellipse class="cls-2" cx="1211.13" cy="24.68" rx="8.77" ry="8.77"/><ellipse class="cls-2" cx="1227.09" cy="8.77" rx="8.77" ry="8.77"/><ellipse class="cls-2" cx="1243.08" cy="24.68" rx="8.77" ry="8.77"/><ellipse class="cls-2" cx="1258.98" cy="8.77" rx="8.77" ry="8.77"/><ellipse class="cls-2" cx="1274.97" cy="24.68" rx="8.77" ry="8.77"/><ellipse class="cls-2" cx="1291.33" cy="8.77" rx="8.77" ry="8.77"/><ellipse class="cls-2" cx="1307.33" cy="24.68" rx="8.77" ry="8.77"/><ellipse class="cls-2" cx="1323.22" cy="8.77" rx="8.77" ry="8.77"/><ellipse class="cls-2" cx="1130.89" cy="40.58" rx="8.77" ry="8.77"/><ellipse class="cls-2" cx="1146.89" cy="56.48" rx="8.77" ry="8.77"/><ellipse class="cls-2" cx="1130.89" cy="72.39" rx="8.77" ry="8.77"/><ellipse class="cls-2" cx="1146.89" cy="88.29" rx="8.77" ry="8.77"/><ellipse class="cls-2" cx="1130.89" cy="104.19" rx="8.77" ry="8.77"/><ellipse class="cls-2" cx="1146.89" cy="120.1" rx="8.77" ry="8.77"/><ellipse class="cls-2" cx="1130.89" cy="136" rx="8.77" ry="8.77"/><ellipse class="cls-2" cx="1146.89" cy="151.9" rx="8.77" ry="8.77"/><ellipse class="cls-2" cx="1130.89" cy="167.81" rx="8.77" ry="8.77"/><ellipse class="cls-2" cx="1146.89" cy="183.71" rx="8.77" ry="8.77"/><ellipse class="cls-2" cx="1130.89" cy="199.61" rx="8.77" ry="8.77"/><ellipse class="cls-2" cx="1146.89" cy="215.52" rx="8.77" ry="8.77"/><ellipse class="cls-2" cx="1130.89" cy="231.42" rx="8.77" ry="8.77"/><ellipse class="cls-2" cx="1146.89" cy="247.32" rx="8.77" ry="8.77"/><ellipse class="cls-2" cx="1130.89" cy="263.23" rx="8.77" ry="8.77"/><ellipse class="cls-2" cx="1163.25" cy="40.58" rx="8.77" ry="8.77"/><ellipse class="cls-2" cx="1179.24" cy="56.48" rx="8.77" ry="8.77"/><ellipse class="cls-2" cx="1163.25" cy="72.39" rx="8.77" ry="8.77"/><ellipse class="cls-2" cx="1179.24" cy="88.29" rx="8.77" ry="8.77"/><ellipse class="cls-2" cx="1163.25" cy="104.19" rx="8.77" ry="8.77"/><ellipse class="cls-2" cx="1179.24" cy="120.1" rx="8.77" ry="8.77"/><ellipse class="cls-2" cx="1163.25" cy="136" rx="8.77" ry="8.77"/><ellipse class="cls-2" cx="1179.24" cy="151.9" rx="8.77" ry="8.77"/><ellipse class="cls-2" cx="1163.25" cy="167.81" rx="8.77" ry="8.77"/><ellipse class="cls-2" cx="1179.24" cy="183.71" rx="8.77" ry="8.77"/><ellipse class="cls-2" cx="1163.25" cy="199.61" rx="8.77" ry="8.77"/><ellipse class="cls-2" cx="1179.24" cy="215.52" rx="8.77" ry="8.77"/><ellipse class="cls-2" cx="1163.25" cy="231.42" rx="8.77" ry="8.77"/><ellipse class="cls-2" cx="1179.24" cy="247.32" rx="8.77" ry="8.77"/><ellipse class="cls-2" cx="1163.25" cy="263.23" rx="8.77" ry="8.77"/><ellipse class="cls-2" cx="1195.13" cy="40.58" rx="8.77" ry="8.77"/><ellipse class="cls-2" cx="1211.13" cy="58.65" rx="8.77" ry="8.77"/><ellipse class="cls-2" cx="1243.28" cy="59.89" rx="8.77" ry="8.77"/><ellipse class="cls-2" cx="1196.37" cy="74.86" rx="8.77" ry="8.77"/><ellipse class="cls-2" cx="1212.36" cy="89.53" rx="8.77" ry="8.77"/><ellipse class="cls-2" cx="1196.37" cy="104.19" rx="8.77" ry="8.77"/><ellipse class="cls-2" cx="1211.13" cy="120.1" rx="8.77" ry="8.77"/><ellipse class="cls-2" cx="1195.13" cy="136" rx="8.77" ry="8.77"/><ellipse class="cls-2" cx="1211.13" cy="151.9" rx="8.77" ry="8.77"/><ellipse class="cls-2" cx="1195.13" cy="167.81" rx="8.77" ry="8.77"/><ellipse class="cls-2" cx="1211.13" cy="183.71" rx="8.77" ry="8.77"/><ellipse class="cls-2" cx="1211.13" cy="215.52" rx="8.77" ry="8.77"/><ellipse class="cls-2" cx="1211.13" cy="247.32" rx="8.77" ry="8.77"/><ellipse class="cls-2" cx="1195.13" cy="263.23" rx="8.77" ry="8.77"/><ellipse class="cls-2" cx="1227.09" cy="40.58" rx="8.77" ry="8.77"/><ellipse class="cls-2" cx="1228.33" cy="74.86" rx="8.77" ry="8.77"/><ellipse class="cls-2" cx="1244.32" cy="89.53" rx="8.77" ry="8.77"/><ellipse class="cls-2" cx="1228.33" cy="105.43" rx="8.77" ry="8.77"/><ellipse class="cls-2" cx="1243.08" cy="120.1" rx="8.77" ry="8.77"/><ellipse class="cls-2" cx="1227.09" cy="136" rx="8.77" ry="8.77"/><ellipse class="cls-2" cx="1243.08" cy="151.9" rx="8.77" ry="8.77"/><ellipse class="cls-2" cx="1243.08" cy="183.71" rx="8.77" ry="8.77"/><ellipse class="cls-2" cx="1227.09" cy="199.61" rx="8.77" ry="8.77"/><ellipse class="cls-2" cx="1243.08" cy="215.52" rx="8.77" ry="8.77"/><ellipse class="cls-2" cx="1227.09" cy="231.42" rx="8.77" ry="8.77"/><ellipse class="cls-2" cx="1243.08" cy="247.32" rx="8.77" ry="8.77"/><ellipse class="cls-2" cx="1227.09" cy="263.23" rx="8.77" ry="8.77"/><ellipse class="cls-2" cx="1258.98" cy="40.58" rx="8.77" ry="8.77"/><ellipse class="cls-2" cx="1274.97" cy="56.48" rx="8.77" ry="8.77"/><ellipse class="cls-2" cx="1258.98" cy="74.86" rx="8.77" ry="8.77"/><ellipse class="cls-2" cx="1274.97" cy="88.29" rx="8.77" ry="8.77"/><ellipse class="cls-2" cx="1258.98" cy="104.19" rx="8.77" ry="8.77"/><ellipse class="cls-2" cx="1274.97" cy="120.1" rx="8.77" ry="8.77"/><ellipse class="cls-2" cx="1258.98" cy="136" rx="8.77" ry="8.77"/><ellipse class="cls-2" cx="1274.97" cy="151.9" rx="8.77" ry="8.77"/><ellipse class="cls-2" cx="1258.98" cy="167.81" rx="8.77" ry="8.77"/><ellipse class="cls-2" cx="1274.97" cy="183.71" rx="8.77" ry="8.77"/><ellipse class="cls-2" cx="1258.98" cy="199.61" rx="8.77" ry="8.77"/><ellipse class="cls-2" cx="1274.97" cy="215.52" rx="8.77" ry="8.77"/><ellipse class="cls-2" cx="1258.98" cy="231.42" rx="8.77" ry="8.77"/><ellipse class="cls-2" cx="1274.97" cy="247.32" rx="8.77" ry="8.77"/><ellipse class="cls-2" cx="1258.98" cy="263.23" rx="8.77" ry="8.77"/><ellipse class="cls-2" cx="1291.33" cy="40.58" rx="8.77" ry="8.77"/><ellipse class="cls-2" cx="1307.33" cy="56.48" rx="8.77" ry="8.77"/><ellipse class="cls-2" cx="1291.33" cy="72.39" rx="8.77" ry="8.77"/><ellipse class="cls-2" cx="1307.33" cy="88.29" rx="8.77" ry="8.77"/><ellipse class="cls-2" cx="1291.33" cy="104.19" rx="8.77" ry="8.77"/><ellipse class="cls-2" cx="1307.33" cy="120.1" rx="8.77" ry="8.77"/><ellipse class="cls-2" cx="1291.33" cy="136" rx="8.77" ry="8.77"/><ellipse class="cls-2" cx="1307.33" cy="151.9" rx="8.77" ry="8.77"/><ellipse class="cls-2" cx="1291.33" cy="167.81" rx="8.77" ry="8.77"/><ellipse class="cls-2" cx="1307.33" cy="183.71" rx="8.77" ry="8.77"/><ellipse class="cls-2" cx="1291.33" cy="199.61" rx="8.77" ry="8.77"/><ellipse class="cls-2" cx="1307.33" cy="215.52" rx="8.77" ry="8.77"/><ellipse class="cls-2" cx="1291.33" cy="231.42" rx="8.77" ry="8.77"/><ellipse class="cls-2" cx="1307.33" cy="247.32" rx="8.77" ry="8.77"/><ellipse class="cls-2" cx="1291.33" cy="263.23" rx="8.77" ry="8.77"/><ellipse class="cls-2" cx="1323.22" cy="40.58" rx="8.77" ry="8.77"/><ellipse class="cls-2" cx="1323.22" cy="72.39" rx="8.77" ry="8.77"/><ellipse class="cls-2" cx="1323.22" cy="104.19" rx="8.77" ry="8.77"/><ellipse class="cls-2" cx="1323.22" cy="136" rx="8.77" ry="8.77"/><ellipse class="cls-2" cx="1323.22" cy="167.81" rx="8.77" ry="8.77"/><ellipse class="cls-2" cx="1323.22" cy="199.61" rx="8.77" ry="8.77"/><ellipse class="cls-2" cx="1323.22" cy="231.42" rx="8.77" ry="8.77"/><ellipse class="cls-2" cx="1323.22" cy="263.23" rx="8.77" ry="8.77"/><rect class="cls-2" x="1351.01" y="0.89" width="208.99" height="270.22"/><rect class="cls-2" x="901.27" y="27.08" width="203.81" height="17.34"/><rect class="cls-2" x="901.27" y="126.82" width="203.27" height="17.34"/><rect class="cls-2" x="901.27" y="227.58" width="204.51" height="17.34"/><polygon class="cls-2" points="867.28 0.89 675.32 142.5 675.32 155.76 884.3 1.6 884.3 0.89 867.28 0.89"/><polygon class="cls-2" points="675.32 187.94 884.3 33.78 884.3 20.53 675.32 174.69 675.32 187.94"/><polygon class="cls-2" points="675.32 220.13 884.3 65.97 884.3 52.72 675.32 206.87 675.32 220.13"/><polygon class="cls-2" points="675.32 252.32 884.3 98.16 884.3 84.9 675.32 239.06 675.32 252.32"/><polygon class="cls-2" points="692.75 0.89 675.32 13.75 675.32 27.01 710.72 0.89 692.75 0.89"/><polygon class="cls-2" points="736.38 0.89 675.32 45.94 675.32 59.2 754.35 0.89 736.38 0.89"/><polygon class="cls-2" points="780.02 0.89 675.32 78.13 675.32 91.38 797.99 0.89 780.02 0.89"/><polygon class="cls-2" points="823.65 0.89 675.32 110.31 675.32 123.57 841.62 0.89 823.65 0.89"/><polygon class="cls-2" points="693.48 271.11 884.3 130.34 884.3 117.09 675.5 271.11 693.48 271.11"/><polygon class="cls-2" points="737.11 271.11 884.3 162.53 884.3 149.28 719.14 271.11 737.11 271.11"/><polygon class="cls-2" points="780.74 271.11 884.3 194.72 884.3 181.46 762.77 271.11 780.74 271.11"/><polygon class="cls-2" points="824.38 271.11 884.3 226.91 884.3 213.65 806.4 271.11 824.38 271.11"/><polygon class="cls-2" points="868.01 271.11 884.3 259.09 884.3 245.84 850.04 271.11 868.01 271.11"/><path class="cls-1" d="M10633.41,4691.82h3.25c17.15-.27,26.16-10.78,29.16-27.3,0-7.51,4.5-12,12-12h37.51c7.5,0,12,4.5,12,12-4.5,55.55-31.51,81.07-93.92,80.56-68.17,0-98-37-98-124.71v-13c0-87.69,29.86-124.71,98-124.71,65.41,0.19,90.92,24.22,93.92,90.27,0,7.51-4.5,12-12,12h-37.51c-7.5,0-12-4.5-12-12-1.5-22.52-9-37.53-29.16-37h-3.25c-30.84,0-35.38,27.61-35.38,71.45v13C10598,4664.21,10602.57,4691.82,10633.41,4691.82Z" transform="translate(-10077.23 -4477.87)"/><path class="cls-1" d="M11265.61,4740.81h-39c-7.5,0-12-4.5-12-12V4499.1c0-9,4.5-12,12-12l80.86-.15c42.85,0,91.21,9.74,91.21,79.89v6.5c0,70.15-48.36,79.89-91.21,79.89H11277l0.63,75.58C11277.61,4736.31,11273.11,4740.81,11265.61,4740.81ZM11310,4600c12,0,26.29-4.55,26.29-28.58v-2.6c0-24-14.28-28.58-26.29-28.58H11277V4600H11310Z" transform="translate(-10077.23 -4477.87)"/><path class="cls-1" d="M11550.67,4740.74h-37.51c-7.5,0-12-4.5-12-12l-0.09-188.6-44.93-.57c-7.5,0-12-3-12-12V4499c0-7.51,4.5-12,12-12h151.55c7.5,0,12,3,12,12v28.53c0,7.51-4.5,12-12,12l-44.95.57-0.07,188.6C11562.67,4736.23,11558.17,4740.74,11550.67,4740.74Z" transform="translate(-10077.23 -4477.87)"/><rect class="cls-2" y="27.08" width="203.81" height="17.34"/><rect class="cls-2" y="126.82" width="203.27" height="17.34"/><rect class="cls-2" y="227.58" width="204.51" height="17.34"/><path class="cls-1" d="M10483,4740.74h-41.6a15.69,15.69,0,0,1-14.35-9l-61.91-131.2,1.55,48.72,0.11,79.48c0,7.51-4.3,12-11.48,12h-33c-7.17,0-11.48-3-11.48-12V4499c0-7.51,4.3-12,11.48-12h41.6q8.61,0,12.91,9l62.78,130.5-1.55-48.72,0.46-78.78c0-7.51,4.3-12,11.48-12h33c7.17,0,11.48,3,11.48,12v229.71C10494.47,4736.23,10490.17,4740.74,10483,4740.74Z" transform="translate(-10077.23 -4477.87)"/></svg>