<?xml version="1.0" encoding="UTF-8" standalone="no"?>
<svg width="38px" height="38px" viewBox="0 0 38 38" version="1.1" xmlns="http://www.w3.org/2000/svg" xmlns:xlink="http://www.w3.org/1999/xlink" xmlns:sketch="http://www.bohemiancoding.com/sketch/ns">
    <!-- Generator: Sketch 3.4.4 (17249) - http://www.bohemiancoding.com/sketch -->
    <title>Emoji_2</title>
    <desc>Created with Sketch.</desc>
    <defs></defs>
    <g id="Page-1" stroke="none" stroke-width="1" fill="none" fill-rule="evenodd" sketch:type="MSPage">
        <g id="Emoji_2" sketch:type="MSArtboardGroup">
            <g id="Page-1" sketch:type="MSLayerGroup" transform="translate(2.000000, 2.000000)">
                <path d="M34,17 C34,26.389 26.389,34 17,34 C7.611,34 0,26.389 0,17 C0,7.611 7.611,0 17,0 C26.389,0 34,7.611 34,17" id="Fill-1" fill="#FFCC4D" sketch:type="MSShapeGroup"></path>
                <path d="M17,20 C13.377,20 10.973,19.578 8,19 C7.321,18.869 6,19 6,21 C6,25 10.595,30 17,30 C23.404,30 28,25 28,21 C28,19 26.679,18.868 26,19 C23.027,19.578 20.623,20 17,20" id="Fill-3" fill="#664500" sketch:type="MSShapeGroup"></path>
                <path d="M9,12 C9,12 9,10 11,10 C13,10 13,12 13,12 L13,14 C13,14 13,16 11,16 C9,16 9,14 9,14 L9,12 Z" id="Fill-5" fill="#664500" sketch:type="MSShapeGroup"></path>
                <path d="M21,12 C21,12 21,10 23,10 C25,10 25,12 25,12 L25,14 C25,14 25,16 23,16 C21,16 21,14 21,14 L21,12 Z" id="Fill-7" fill="#664500" sketch:type="MSShapeGroup"></path>
                <path d="M8,21 C8,21 11,22 17,22 C23,22 26,21 26,21 C26,21 24,25 17,25 C10,25 8,21 8,21" id="Fill-9" fill="#FFFFFF" sketch:type="MSShapeGroup"></path>
            </g>
        </g>
    </g>
</svg>