<?xml version="1.0" encoding="UTF-8" standalone="no"?>
<svg width="38px" height="38px" viewBox="0 0 38 38" version="1.1" xmlns="http://www.w3.org/2000/svg" xmlns:xlink="http://www.w3.org/1999/xlink" xmlns:sketch="http://www.bohemiancoding.com/sketch/ns">
    <!-- Generator: Sketch 3.4.4 (17249) - http://www.bohemiancoding.com/sketch -->
    <title>Emoji_1</title>
    <desc>Created with Sketch.</desc>
    <defs></defs>
    <g id="Page-1" stroke="none" stroke-width="1" fill="none" fill-rule="evenodd" sketch:type="MSPage">
        <g id="Emoji_1" sketch:type="MSArtboardGroup">
            <g id="Page-1" sketch:type="MSLayerGroup" transform="translate(2.000000, 1.000000)">
                <path d="M34,17.0181 C34,26.4071 26.389,34.0181 17,34.0181 C7.612,34.0181 0,26.4071 0,17.0181 C0,7.6301 7.612,0.0181 17,0.0181 C26.389,0.0181 34,7.6301 34,17.0181" id="Fill-1" fill="#FFCC4D" sketch:type="MSShapeGroup"></path>
                <path d="M14.457,15.8329 C14.397,15.6979 12.958,12.5359 10,12.5359 C7.043,12.5359 5.603,15.6979 5.543,15.8329 C5.451,16.0399 5.511,16.2819 5.687,16.4239 C5.864,16.5669 6.114,16.5709 6.297,16.4379 C6.31,16.4289 7.559,15.5359 10,15.5359 C12.426,15.5359 13.674,16.4169 13.702,16.4379 C13.79,16.5029 13.896,16.5359 14,16.5359 C14.11,16.5359 14.221,16.4999 14.311,16.4269 C14.49,16.2849 14.549,16.0409 14.457,15.8329" id="Fill-3" fill="#664500" sketch:type="MSShapeGroup"></path>
                <path d="M30,13.5361 C30,17.1261 27.09,20.0361 23.5,20.0361 C19.91,20.0361 17,17.1261 17,13.5361 C17,9.9461 19.91,7.0361 23.5,7.0361 C27.09,7.0361 30,9.9461 30,13.5361" id="Fill-5" fill="#F6F9FA" sketch:type="MSShapeGroup"></path>
                <path d="M26,13.5361 C26,14.9171 24.881,16.0361 23.5,16.0361 C22.119,16.0361 21,14.9171 21,13.5361 C21,12.1551 22.119,11.0361 23.5,11.0361 C24.881,11.0361 26,12.1551 26,13.5361" id="Fill-7" fill="#292F33" sketch:type="MSShapeGroup"></path>
                <path d="M6,22.0361 C6,26.0001 10.596,31.0361 17,31.0361 C23.404,31.0361 28,26.0361 28,22.0361 C28,22.0361 17.667,24.7921 6,22.0361" id="Fill-9" fill="#664500" sketch:type="MSShapeGroup"></path>
                <path d="M11,23.9169 L11,29.9999 C11,32.9999 13,35.9999 17,35.9999 C21,35.9999 23,32.9999 23,29.9999 L23,23.9579 C16.708,25.2499 11,23.9169 11,23.9169" id="Fill-11" fill="#E75A70" sketch:type="MSShapeGroup"></path>
            </g>
        </g>
    </g>
</svg>