<svg id="svgSikg37ujz0" xmlns="http://www.w3.org/2000/svg" width="960" version="1.1" height="168"><desc>Created with Snap</desc><defs></defs><g token="svgSikg37ujz0" class="movieclip"><g transform="matrix(1.022,0,0,15.601,554.65,-2182.8)" token="253" class="shape"><path d="M 0 139.95l0 10.65l125.85 0l0 -10.65l-125.85 0" fill="#5582b7" style=""></path></g><g transform="matrix(1.022,0,0,15.601,831.4,-2182.8)" token="252" class="shape"><path d="M 0 139.95l0 10.65l125.85 0l0 -10.65l-125.85 0" fill="#5582b7" style=""></path></g><g transform="matrix(1.005,0,0,1,435.1,-156.45)" token="251" class="shape"><path d="M 265 161.85q0 -2.25 -1.55 -3.8q-1.6 -1.6 -3.8 -1.6q-2.25 0 -3.8 1.6q-1.6 1.55 -1.6 3.8q0 2.25 1.6 3.85q1.55 1.55 3.8 1.55q2.2 0 3.8 -1.55q1.55 -1.6 1.55 -3.85" fill="#5582b7" style=""></path></g><g transform="matrix(1,0,0,1,446.15,-146.65)" token="250" class="shape"><path d="M 265 161.85q0 -2.25 -1.55 -3.8q-1.6 -1.6 -3.8 -1.6q-2.25 0 -3.8 1.6q-1.6 1.55 -1.6 3.8q0 2.25 1.6 3.85q1.55 1.55 3.8 1.55q2.2 0 3.8 -1.55q1.55 -1.6 1.55 -3.85" fill="#5582b7" style=""></path></g><g transform="matrix(1.005,0,0,1,455,-156.45)" token="249" class="shape"><path d="M 265 161.85q0 -2.25 -1.55 -3.8q-1.6 -1.6 -3.8 -1.6q-2.25 0 -3.8 1.6q-1.6 1.55 -1.6 3.8q0 2.25 1.6 3.85q1.55 1.55 3.8 1.55q2.2 0 3.8 -1.55q1.55 -1.6 1.55 -3.85" fill="#5582b7" style=""></path></g><g transform="matrix(1.005,0,0,1,464.85,-146.65)" token="248" class="shape"><path d="M 265 161.85q0 -2.25 -1.55 -3.8q-1.6 -1.6 -3.8 -1.6q-2.25 0 -3.8 1.6q-1.6 1.55 -1.6 3.8q0 2.25 1.6 3.85q1.55 1.55 3.8 1.55q2.2 0 3.8 -1.55q1.55 -1.6 1.55 -3.85" fill="#5582b7" style=""></path></g><g transform="matrix(1.005,0,0,1,474.6,-156.45)" token="247" class="shape"><path d="M 265 161.85q0 -2.25 -1.55 -3.8q-1.6 -1.6 -3.8 -1.6q-2.25 0 -3.8 1.6q-1.6 1.55 -1.6 3.8q0 2.25 1.6 3.85q1.55 1.55 3.8 1.55q2.2 0 3.8 -1.55q1.55 -1.6 1.55 -3.85" fill="#5582b7" style=""></path></g><g transform="matrix(1.005,0,0,1,484.45,-146.65)" token="246" class="shape"><path d="M 265 161.85q0 -2.25 -1.55 -3.8q-1.6 -1.6 -3.8 -1.6q-2.25 0 -3.8 1.6q-1.6 1.55 -1.6 3.8q0 2.25 1.6 3.85q1.55 1.55 3.8 1.55q2.2 0 3.8 -1.55q1.55 -1.6 1.55 -3.85" fill="#5582b7" style=""></path></g><g transform="matrix(1.005,0,0,1,494.3,-156.45)" token="245" class="shape"><path d="M 265 161.85q0 -2.25 -1.55 -3.8q-1.6 -1.6 -3.8 -1.6q-2.25 0 -3.8 1.6q-1.6 1.55 -1.6 3.8q0 2.25 1.6 3.85q1.55 1.55 3.8 1.55q2.2 0 3.8 -1.55q1.55 -1.6 1.55 -3.85" fill="#5582b7" style=""></path></g><g transform="matrix(1,0,0,1,505.35,-146.65)" token="244" class="shape"><path d="M 265 161.85q0 -2.25 -1.55 -3.8q-1.6 -1.6 -3.8 -1.6q-2.25 0 -3.8 1.6q-1.6 1.55 -1.6 3.8q0 2.25 1.6 3.85q1.55 1.55 3.8 1.55q2.2 0 3.8 -1.55q1.55 -1.6 1.55 -3.85" fill="#5582b7" style=""></path></g><g transform="matrix(1.005,0,0,1,513.9,-156.45)" token="243" class="shape"><path d="M 265 161.85q0 -2.25 -1.55 -3.8q-1.6 -1.6 -3.8 -1.6q-2.25 0 -3.8 1.6q-1.6 1.55 -1.6 3.8q0 2.25 1.6 3.85q1.55 1.55 3.8 1.55q2.2 0 3.8 -1.55q1.55 -1.6 1.55 -3.85" fill="#5582b7" style=""></path></g><g transform="matrix(1.005,0,0,1,523.75,-146.65)" token="242" class="shape"><path d="M 265 161.85q0 -2.25 -1.55 -3.8q-1.6 -1.6 -3.8 -1.6q-2.25 0 -3.8 1.6q-1.6 1.55 -1.6 3.8q0 2.25 1.6 3.85q1.55 1.55 3.8 1.55q2.2 0 3.8 -1.55q1.55 -1.6 1.55 -3.85" fill="#5582b7" style=""></path></g><g transform="matrix(1.005,0,0,1,533.8,-156.45)" token="241" class="shape"><path d="M 265 161.85q0 -2.25 -1.55 -3.8q-1.6 -1.6 -3.8 -1.6q-2.25 0 -3.8 1.6q-1.6 1.55 -1.6 3.8q0 2.25 1.6 3.85q1.55 1.55 3.8 1.55q2.2 0 3.8 -1.55q1.55 -1.6 1.55 -3.85" fill="#5582b7" style=""></path></g><g transform="matrix(1.005,0,0,1,543.65,-146.65)" token="240" class="shape"><path d="M 265 161.85q0 -2.25 -1.55 -3.8q-1.6 -1.6 -3.8 -1.6q-2.25 0 -3.8 1.6q-1.6 1.55 -1.6 3.8q0 2.25 1.6 3.85q1.55 1.55 3.8 1.55q2.2 0 3.8 -1.55q1.55 -1.6 1.55 -3.85" fill="#5582b7" style=""></path></g><g transform="matrix(1.005,0,0,1,553.45,-156.45)" token="239" class="shape"><path d="M 265 161.85q0 -2.25 -1.55 -3.8q-1.6 -1.6 -3.8 -1.6q-2.25 0 -3.8 1.6q-1.6 1.55 -1.6 3.8q0 2.25 1.6 3.85q1.55 1.55 3.8 1.55q2.2 0 3.8 -1.55q1.55 -1.6 1.55 -3.85" fill="#5582b7" style=""></path></g><g transform="matrix(1.005,0,0,1,435.1,-136.9)" token="238" class="shape"><path d="M 265 161.85q0 -2.25 -1.55 -3.8q-1.6 -1.6 -3.8 -1.6q-2.25 0 -3.8 1.6q-1.6 1.55 -1.6 3.8q0 2.25 1.6 3.85q1.55 1.55 3.8 1.55q2.2 0 3.8 -1.55q1.55 -1.6 1.55 -3.85" fill="#5582b7" style=""></path></g><g transform="matrix(1,0,0,1,446.15,-127.1)" token="237" class="shape"><path d="M 265 161.85q0 -2.25 -1.55 -3.8q-1.6 -1.6 -3.8 -1.6q-2.25 0 -3.8 1.6q-1.6 1.55 -1.6 3.8q0 2.25 1.6 3.85q1.55 1.55 3.8 1.55q2.2 0 3.8 -1.55q1.55 -1.6 1.55 -3.85" fill="#5582b7" style=""></path></g><g transform="matrix(1.005,0,0,0.995,435.1,-116.6)" token="236" class="shape"><path d="M 265 161.85q0 -2.25 -1.55 -3.8q-1.6 -1.6 -3.8 -1.6q-2.25 0 -3.8 1.6q-1.6 1.55 -1.6 3.8q0 2.25 1.6 3.85q1.55 1.55 3.8 1.55q2.2 0 3.8 -1.55q1.55 -1.6 1.55 -3.85" fill="#5582b7" style=""></path></g><g transform="matrix(1,0,0,1,446.15,-107.55)" token="235" class="shape"><path d="M 265 161.85q0 -2.25 -1.55 -3.8q-1.6 -1.6 -3.8 -1.6q-2.25 0 -3.8 1.6q-1.6 1.55 -1.6 3.8q0 2.25 1.6 3.85q1.55 1.55 3.8 1.55q2.2 0 3.8 -1.55q1.55 -1.6 1.55 -3.85" fill="#5582b7" style=""></path></g><g transform="matrix(1.005,0,0,1,435.1,-97.75)" token="234" class="shape"><path d="M 265 161.85q0 -2.25 -1.55 -3.8q-1.6 -1.6 -3.8 -1.6q-2.25 0 -3.8 1.6q-1.6 1.55 -1.6 3.8q0 2.25 1.6 3.85q1.55 1.55 3.8 1.55q2.2 0 3.8 -1.55q1.55 -1.6 1.55 -3.85" fill="#5582b7" style=""></path></g><g transform="matrix(1,0,0,0.995,446.15,-87.25)" token="233" class="shape"><path d="M 265 161.85q0 -2.25 -1.55 -3.8q-1.6 -1.6 -3.8 -1.6q-2.25 0 -3.8 1.6q-1.6 1.55 -1.6 3.8q0 2.25 1.6 3.85q1.55 1.55 3.8 1.55q2.2 0 3.8 -1.55q1.55 -1.6 1.55 -3.85" fill="#5582b7" style=""></path></g><g transform="matrix(1.005,0,0,0.995,435.1,-77.5)" token="232" class="shape"><path d="M 265 161.85q0 -2.25 -1.55 -3.8q-1.6 -1.6 -3.8 -1.6q-2.25 0 -3.8 1.6q-1.6 1.55 -1.6 3.8q0 2.25 1.6 3.85q1.55 1.55 3.8 1.55q2.2 0 3.8 -1.55q1.55 -1.6 1.55 -3.85" fill="#5582b7" style=""></path></g><g transform="matrix(1,0,0,1,446.15,-68.45)" token="231" class="shape"><path d="M 265 161.85q0 -2.25 -1.55 -3.8q-1.6 -1.6 -3.8 -1.6q-2.25 0 -3.8 1.6q-1.6 1.55 -1.6 3.8q0 2.25 1.6 3.85q1.55 1.55 3.8 1.55q2.2 0 3.8 -1.55q1.55 -1.6 1.55 -3.85" fill="#5582b7" style=""></path></g><g transform="matrix(1.005,0,0,1,435.1,-58.7)" token="230" class="shape"><path d="M 265 161.85q0 -2.25 -1.55 -3.8q-1.6 -1.6 -3.8 -1.6q-2.25 0 -3.8 1.6q-1.6 1.55 -1.6 3.8q0 2.25 1.6 3.85q1.55 1.55 3.8 1.55q2.2 0 3.8 -1.55q1.55 -1.6 1.55 -3.85" fill="#5582b7" style=""></path></g><g transform="matrix(1,0,0,1,446.15,-48.9)" token="229" class="shape"><path d="M 265 161.85q0 -2.25 -1.55 -3.8q-1.6 -1.6 -3.8 -1.6q-2.25 0 -3.8 1.6q-1.6 1.55 -1.6 3.8q0 2.25 1.6 3.85q1.55 1.55 3.8 1.55q2.2 0 3.8 -1.55q1.55 -1.6 1.55 -3.85" fill="#5582b7" style=""></path></g><g transform="matrix(1.005,0,0,0.995,435.1,-38.4)" token="228" class="shape"><path d="M 265 161.85q0 -2.25 -1.55 -3.8q-1.6 -1.6 -3.8 -1.6q-2.25 0 -3.8 1.6q-1.6 1.55 -1.6 3.8q0 2.25 1.6 3.85q1.55 1.55 3.8 1.55q2.2 0 3.8 -1.55q1.55 -1.6 1.55 -3.85" fill="#5582b7" style=""></path></g><g transform="matrix(1,0,0,1,446.15,-29.35)" token="227" class="shape"><path d="M 265 161.85q0 -2.25 -1.55 -3.8q-1.6 -1.6 -3.8 -1.6q-2.25 0 -3.8 1.6q-1.6 1.55 -1.6 3.8q0 2.25 1.6 3.85q1.55 1.55 3.8 1.55q2.2 0 3.8 -1.55q1.55 -1.6 1.55 -3.85" fill="#5582b7" style=""></path></g><g transform="matrix(1.005,0,0,1,435.1,-19.55)" token="226" class="shape"><path d="M 265 161.85q0 -2.25 -1.55 -3.8q-1.6 -1.6 -3.8 -1.6q-2.25 0 -3.8 1.6q-1.6 1.55 -1.6 3.8q0 2.25 1.6 3.85q1.55 1.55 3.8 1.55q2.2 0 3.8 -1.55q1.55 -1.6 1.55 -3.85" fill="#5582b7" style=""></path></g><g transform="matrix(1,0,0,0.995,446.15,-9.05)" token="225" class="shape"><path d="M 265 161.85q0 -2.25 -1.55 -3.8q-1.6 -1.6 -3.8 -1.6q-2.25 0 -3.8 1.6q-1.6 1.55 -1.6 3.8q0 2.25 1.6 3.85q1.55 1.55 3.8 1.55q2.2 0 3.8 -1.55q1.55 -1.6 1.55 -3.85" fill="#5582b7" style=""></path></g><g transform="matrix(1.005,0,0,1,435.1,0)" token="224" class="shape"><path d="M 265 161.85q0 -2.25 -1.55 -3.8q-1.6 -1.6 -3.8 -1.6q-2.25 0 -3.8 1.6q-1.6 1.55 -1.6 3.8q0 2.25 1.6 3.85q1.55 1.55 3.8 1.55q2.2 0 3.8 -1.55q1.55 -1.6 1.55 -3.85" fill="#5582b7" style=""></path></g><g transform="matrix(1.005,0,0,1,455,-136.9)" token="223" class="shape"><path d="M 265 161.85q0 -2.25 -1.55 -3.8q-1.6 -1.6 -3.8 -1.6q-2.25 0 -3.8 1.6q-1.6 1.55 -1.6 3.8q0 2.25 1.6 3.85q1.55 1.55 3.8 1.55q2.2 0 3.8 -1.55q1.55 -1.6 1.55 -3.85" fill="#5582b7" style=""></path></g><g transform="matrix(1.005,0,0,1,464.85,-127.1)" token="222" class="shape"><path d="M 265 161.85q0 -2.25 -1.55 -3.8q-1.6 -1.6 -3.8 -1.6q-2.25 0 -3.8 1.6q-1.6 1.55 -1.6 3.8q0 2.25 1.6 3.85q1.55 1.55 3.8 1.55q2.2 0 3.8 -1.55q1.55 -1.6 1.55 -3.85" fill="#5582b7" style=""></path></g><g transform="matrix(1.005,0,0,0.995,455,-116.6)" token="221" class="shape"><path d="M 265 161.85q0 -2.25 -1.55 -3.8q-1.6 -1.6 -3.8 -1.6q-2.25 0 -3.8 1.6q-1.6 1.55 -1.6 3.8q0 2.25 1.6 3.85q1.55 1.55 3.8 1.55q2.2 0 3.8 -1.55q1.55 -1.6 1.55 -3.85" fill="#5582b7" style=""></path></g><g transform="matrix(1.005,0,0,1,464.85,-107.55)" token="220" class="shape"><path d="M 265 161.85q0 -2.25 -1.55 -3.8q-1.6 -1.6 -3.8 -1.6q-2.25 0 -3.8 1.6q-1.6 1.55 -1.6 3.8q0 2.25 1.6 3.85q1.55 1.55 3.8 1.55q2.2 0 3.8 -1.55q1.55 -1.6 1.55 -3.85" fill="#5582b7" style=""></path></g><g transform="matrix(1.005,0,0,1,455,-97.75)" token="219" class="shape"><path d="M 265 161.85q0 -2.25 -1.55 -3.8q-1.6 -1.6 -3.8 -1.6q-2.25 0 -3.8 1.6q-1.6 1.55 -1.6 3.8q0 2.25 1.6 3.85q1.55 1.55 3.8 1.55q2.2 0 3.8 -1.55q1.55 -1.6 1.55 -3.85" fill="#5582b7" style=""></path></g><g transform="matrix(1.005,0,0,0.995,464.85,-87.25)" token="218" class="shape"><path d="M 265 161.85q0 -2.25 -1.55 -3.8q-1.6 -1.6 -3.8 -1.6q-2.25 0 -3.8 1.6q-1.6 1.55 -1.6 3.8q0 2.25 1.6 3.85q1.55 1.55 3.8 1.55q2.2 0 3.8 -1.55q1.55 -1.6 1.55 -3.85" fill="#5582b7" style=""></path></g><g transform="matrix(1.005,0,0,0.995,455,-77.5)" token="217" class="shape"><path d="M 265 161.85q0 -2.25 -1.55 -3.8q-1.6 -1.6 -3.8 -1.6q-2.25 0 -3.8 1.6q-1.6 1.55 -1.6 3.8q0 2.25 1.6 3.85q1.55 1.55 3.8 1.55q2.2 0 3.8 -1.55q1.55 -1.6 1.55 -3.85" fill="#5582b7" style=""></path></g><g transform="matrix(1.005,0,0,1,464.85,-68.45)" token="216" class="shape"><path d="M 265 161.85q0 -2.25 -1.55 -3.8q-1.6 -1.6 -3.8 -1.6q-2.25 0 -3.8 1.6q-1.6 1.55 -1.6 3.8q0 2.25 1.6 3.85q1.55 1.55 3.8 1.55q2.2 0 3.8 -1.55q1.55 -1.6 1.55 -3.85" fill="#5582b7" style=""></path></g><g transform="matrix(1.005,0,0,1,455,-58.7)" token="215" class="shape"><path d="M 265 161.85q0 -2.25 -1.55 -3.8q-1.6 -1.6 -3.8 -1.6q-2.25 0 -3.8 1.6q-1.6 1.55 -1.6 3.8q0 2.25 1.6 3.85q1.55 1.55 3.8 1.55q2.2 0 3.8 -1.55q1.55 -1.6 1.55 -3.85" fill="#5582b7" style=""></path></g><g transform="matrix(1.005,0,0,1,464.85,-48.9)" token="214" class="shape"><path d="M 265 161.85q0 -2.25 -1.55 -3.8q-1.6 -1.6 -3.8 -1.6q-2.25 0 -3.8 1.6q-1.6 1.55 -1.6 3.8q0 2.25 1.6 3.85q1.55 1.55 3.8 1.55q2.2 0 3.8 -1.55q1.55 -1.6 1.55 -3.85" fill="#5582b7" style=""></path></g><g transform="matrix(1.005,0,0,0.995,455,-38.4)" token="213" class="shape"><path d="M 265 161.85q0 -2.25 -1.55 -3.8q-1.6 -1.6 -3.8 -1.6q-2.25 0 -3.8 1.6q-1.6 1.55 -1.6 3.8q0 2.25 1.6 3.85q1.55 1.55 3.8 1.55q2.2 0 3.8 -1.55q1.55 -1.6 1.55 -3.85" fill="#5582b7" style=""></path></g><g transform="matrix(1.005,0,0,1,464.85,-29.35)" token="212" class="shape"><path d="M 265 161.85q0 -2.25 -1.55 -3.8q-1.6 -1.6 -3.8 -1.6q-2.25 0 -3.8 1.6q-1.6 1.55 -1.6 3.8q0 2.25 1.6 3.85q1.55 1.55 3.8 1.55q2.2 0 3.8 -1.55q1.55 -1.6 1.55 -3.85" fill="#5582b7" style=""></path></g><g transform="matrix(1.005,0,0,1,455,-19.55)" token="211" class="shape"><path d="M 265 161.85q0 -2.25 -1.55 -3.8q-1.6 -1.6 -3.8 -1.6q-2.25 0 -3.8 1.6q-1.6 1.55 -1.6 3.8q0 2.25 1.6 3.85q1.55 1.55 3.8 1.55q2.2 0 3.8 -1.55q1.55 -1.6 1.55 -3.85" fill="#5582b7" style=""></path></g><g transform="matrix(1.005,0,0,0.995,464.85,-9.05)" token="210" class="shape"><path d="M 265 161.85q0 -2.25 -1.55 -3.8q-1.6 -1.6 -3.8 -1.6q-2.25 0 -3.8 1.6q-1.6 1.55 -1.6 3.8q0 2.25 1.6 3.85q1.55 1.55 3.8 1.55q2.2 0 3.8 -1.55q1.55 -1.6 1.55 -3.85" fill="#5582b7" style=""></path></g><g transform="matrix(1.005,0,0,1,455,0)" token="209" class="shape"><path d="M 265 161.85q0 -2.25 -1.55 -3.8q-1.6 -1.6 -3.8 -1.6q-2.25 0 -3.8 1.6q-1.6 1.55 -1.6 3.8q0 2.25 1.6 3.85q1.55 1.55 3.8 1.55q2.2 0 3.8 -1.55q1.55 -1.6 1.55 -3.85" fill="#5582b7" style=""></path></g><g transform="matrix(1.005,0,0,1,474.6,-136.9)" token="208" class="shape"><path d="M 265 161.85q0 -2.25 -1.55 -3.8q-1.6 -1.6 -3.8 -1.6q-2.25 0 -3.8 1.6q-1.6 1.55 -1.6 3.8q0 2.25 1.6 3.85q1.55 1.55 3.8 1.55q2.2 0 3.8 -1.55q1.55 -1.6 1.55 -3.85" fill="#5582b7" style=""></path></g><g transform="matrix(1.005,0,0,1,484.45,-127.1)" token="207" class="shape"><path d="M 265 161.85q0 -2.25 -1.55 -3.8q-1.6 -1.6 -3.8 -1.6q-2.25 0 -3.8 1.6q-1.6 1.55 -1.6 3.8q0 2.25 1.6 3.85q1.55 1.55 3.8 1.55q2.2 0 3.8 -1.55q1.55 -1.6 1.55 -3.85" fill="#5582b7" style=""></path></g><g transform="matrix(1.005,0,0,0.995,474.6,-116.6)" token="206" class="shape"><path d="M 265 161.85q0 -2.25 -1.55 -3.8q-1.6 -1.6 -3.8 -1.6q-2.25 0 -3.8 1.6q-1.6 1.55 -1.6 3.8q0 2.25 1.6 3.85q1.55 1.55 3.8 1.55q2.2 0 3.8 -1.55q1.55 -1.6 1.55 -3.85" fill="#5582b7" style=""></path></g><g transform="matrix(1.005,0,0,1,484.45,-107.55)" token="205" class="shape"><path d="M 265 161.85q0 -2.25 -1.55 -3.8q-1.6 -1.6 -3.8 -1.6q-2.25 0 -3.8 1.6q-1.6 1.55 -1.6 3.8q0 2.25 1.6 3.85q1.55 1.55 3.8 1.55q2.2 0 3.8 -1.55q1.55 -1.6 1.55 -3.85" fill="#5582b7" style=""></path></g><g transform="matrix(1.005,0,0,1,474.6,-97.75)" token="204" class="shape"><path d="M 265 161.85q0 -2.25 -1.55 -3.8q-1.6 -1.6 -3.8 -1.6q-2.25 0 -3.8 1.6q-1.6 1.55 -1.6 3.8q0 2.25 1.6 3.85q1.55 1.55 3.8 1.55q2.2 0 3.8 -1.55q1.55 -1.6 1.55 -3.85" fill="#5582b7" style=""></path></g><g transform="matrix(1.005,0,0,0.995,484.45,-87.25)" token="203" class="shape"><path d="M 265 161.85q0 -2.25 -1.55 -3.8q-1.6 -1.6 -3.8 -1.6q-2.25 0 -3.8 1.6q-1.6 1.55 -1.6 3.8q0 2.25 1.6 3.85q1.55 1.55 3.8 1.55q2.2 0 3.8 -1.55q1.55 -1.6 1.55 -3.85" fill="#5582b7" style=""></path></g><g transform="matrix(1.005,0,0,0.995,474.6,-77.5)" token="202" class="shape"><path d="M 265 161.85q0 -2.25 -1.55 -3.8q-1.6 -1.6 -3.8 -1.6q-2.25 0 -3.8 1.6q-1.6 1.55 -1.6 3.8q0 2.25 1.6 3.85q1.55 1.55 3.8 1.55q2.2 0 3.8 -1.55q1.55 -1.6 1.55 -3.85" fill="#5582b7" style=""></path></g><g transform="matrix(1.005,0,0,1,484.45,-68.45)" token="201" class="shape"><path d="M 265 161.85q0 -2.25 -1.55 -3.8q-1.6 -1.6 -3.8 -1.6q-2.25 0 -3.8 1.6q-1.6 1.55 -1.6 3.8q0 2.25 1.6 3.85q1.55 1.55 3.8 1.55q2.2 0 3.8 -1.55q1.55 -1.6 1.55 -3.85" fill="#5582b7" style=""></path></g><g transform="matrix(1.005,0,0,1,474.6,-58.7)" token="200" class="shape"><path d="M 265 161.85q0 -2.25 -1.55 -3.8q-1.6 -1.6 -3.8 -1.6q-2.25 0 -3.8 1.6q-1.6 1.55 -1.6 3.8q0 2.25 1.6 3.85q1.55 1.55 3.8 1.55q2.2 0 3.8 -1.55q1.55 -1.6 1.55 -3.85" fill="#5582b7" style=""></path></g><g transform="matrix(1.005,0,0,1,484.45,-48.9)" token="199" class="shape"><path d="M 265 161.85q0 -2.25 -1.55 -3.8q-1.6 -1.6 -3.8 -1.6q-2.25 0 -3.8 1.6q-1.6 1.55 -1.6 3.8q0 2.25 1.6 3.85q1.55 1.55 3.8 1.55q2.2 0 3.8 -1.55q1.55 -1.6 1.55 -3.85" fill="#5582b7" style=""></path></g><g transform="matrix(1.005,0,0,0.995,474.6,-38.4)" token="198" class="shape"><path d="M 265 161.85q0 -2.25 -1.55 -3.8q-1.6 -1.6 -3.8 -1.6q-2.25 0 -3.8 1.6q-1.6 1.55 -1.6 3.8q0 2.25 1.6 3.85q1.55 1.55 3.8 1.55q2.2 0 3.8 -1.55q1.55 -1.6 1.55 -3.85" fill="#5582b7" style=""></path></g><g transform="matrix(1.005,0,0,1,484.45,-29.35)" token="197" class="shape"><path d="M 265 161.85q0 -2.25 -1.55 -3.8q-1.6 -1.6 -3.8 -1.6q-2.25 0 -3.8 1.6q-1.6 1.55 -1.6 3.8q0 2.25 1.6 3.85q1.55 1.55 3.8 1.55q2.2 0 3.8 -1.55q1.55 -1.6 1.55 -3.85" fill="#5582b7" style=""></path></g><g transform="matrix(1.005,0,0,1,474.6,-19.55)" token="196" class="shape"><path d="M 265 161.85q0 -2.25 -1.55 -3.8q-1.6 -1.6 -3.8 -1.6q-2.25 0 -3.8 1.6q-1.6 1.55 -1.6 3.8q0 2.25 1.6 3.85q1.55 1.55 3.8 1.55q2.2 0 3.8 -1.55q1.55 -1.6 1.55 -3.85" fill="#5582b7" style=""></path></g><g transform="matrix(1.005,0,0,0.995,484.45,-9.05)" token="195" class="shape"><path d="M 265 161.85q0 -2.25 -1.55 -3.8q-1.6 -1.6 -3.8 -1.6q-2.25 0 -3.8 1.6q-1.6 1.55 -1.6 3.8q0 2.25 1.6 3.85q1.55 1.55 3.8 1.55q2.2 0 3.8 -1.55q1.55 -1.6 1.55 -3.85" fill="#5582b7" style=""></path></g><g transform="matrix(1.005,0,0,1,474.6,0)" token="194" class="shape"><path d="M 265 161.85q0 -2.25 -1.55 -3.8q-1.6 -1.6 -3.8 -1.6q-2.25 0 -3.8 1.6q-1.6 1.55 -1.6 3.8q0 2.25 1.6 3.85q1.55 1.55 3.8 1.55q2.2 0 3.8 -1.55q1.55 -1.6 1.55 -3.85" fill="#5582b7" style=""></path></g><g transform="matrix(1.005,0,0,1,494.3,-136.9)" token="193" class="shape"><path d="M 265 161.85q0 -2.25 -1.55 -3.8q-1.6 -1.6 -3.8 -1.6q-2.25 0 -3.8 1.6q-1.6 1.55 -1.6 3.8q0 2.25 1.6 3.85q1.55 1.55 3.8 1.55q2.2 0 3.8 -1.55q1.55 -1.6 1.55 -3.85" fill="#5582b7" style=""></path></g><g transform="matrix(1,0,0,1,505.35,-127.1)" token="192" class="shape"><path d="M 265 161.85q0 -2.25 -1.55 -3.8q-1.6 -1.6 -3.8 -1.6q-2.25 0 -3.8 1.6q-1.6 1.55 -1.6 3.8q0 2.25 1.6 3.85q1.55 1.55 3.8 1.55q2.2 0 3.8 -1.55q1.55 -1.6 1.55 -3.85" fill="#5582b7" style=""></path></g><g transform="matrix(1.005,0,0,0.995,494.3,-116.6)" token="191" class="shape"><path d="M 265 161.85q0 -2.25 -1.55 -3.8q-1.6 -1.6 -3.8 -1.6q-2.25 0 -3.8 1.6q-1.6 1.55 -1.6 3.8q0 2.25 1.6 3.85q1.55 1.55 3.8 1.55q2.2 0 3.8 -1.55q1.55 -1.6 1.55 -3.85" fill="#5582b7" style=""></path></g><g transform="matrix(1,0,0,1,505.35,-107.55)" token="190" class="shape"><path d="M 265 161.85q0 -2.25 -1.55 -3.8q-1.6 -1.6 -3.8 -1.6q-2.25 0 -3.8 1.6q-1.6 1.55 -1.6 3.8q0 2.25 1.6 3.85q1.55 1.55 3.8 1.55q2.2 0 3.8 -1.55q1.55 -1.6 1.55 -3.85" fill="#5582b7" style=""></path></g><g transform="matrix(1.005,0,0,1,494.3,-97.75)" token="189" class="shape"><path d="M 265 161.85q0 -2.25 -1.55 -3.8q-1.6 -1.6 -3.8 -1.6q-2.25 0 -3.8 1.6q-1.6 1.55 -1.6 3.8q0 2.25 1.6 3.85q1.55 1.55 3.8 1.55q2.2 0 3.8 -1.55q1.55 -1.6 1.55 -3.85" fill="#5582b7" style=""></path></g><g transform="matrix(1,0,0,0.995,505.35,-87.25)" token="188" class="shape"><path d="M 265 161.85q0 -2.25 -1.55 -3.8q-1.6 -1.6 -3.8 -1.6q-2.25 0 -3.8 1.6q-1.6 1.55 -1.6 3.8q0 2.25 1.6 3.85q1.55 1.55 3.8 1.55q2.2 0 3.8 -1.55q1.55 -1.6 1.55 -3.85" fill="#5582b7" style=""></path></g><g transform="matrix(1.005,0,0,0.995,494.3,-77.5)" token="187" class="shape"><path d="M 265 161.85q0 -2.25 -1.55 -3.8q-1.6 -1.6 -3.8 -1.6q-2.25 0 -3.8 1.6q-1.6 1.55 -1.6 3.8q0 2.25 1.6 3.85q1.55 1.55 3.8 1.55q2.2 0 3.8 -1.55q1.55 -1.6 1.55 -3.85" fill="#5582b7" style=""></path></g><g transform="matrix(1,0,0,1,505.35,-68.45)" token="186" class="shape"><path d="M 265 161.85q0 -2.25 -1.55 -3.8q-1.6 -1.6 -3.8 -1.6q-2.25 0 -3.8 1.6q-1.6 1.55 -1.6 3.8q0 2.25 1.6 3.85q1.55 1.55 3.8 1.55q2.2 0 3.8 -1.55q1.55 -1.6 1.55 -3.85" fill="#5582b7" style=""></path></g><g transform="matrix(1.005,0,0,1,494.3,-58.7)" token="185" class="shape"><path d="M 265 161.85q0 -2.25 -1.55 -3.8q-1.6 -1.6 -3.8 -1.6q-2.25 0 -3.8 1.6q-1.6 1.55 -1.6 3.8q0 2.25 1.6 3.85q1.55 1.55 3.8 1.55q2.2 0 3.8 -1.55q1.55 -1.6 1.55 -3.85" fill="#5582b7" style=""></path></g><g transform="matrix(1,0,0,1,505.35,-48.9)" token="184" class="shape"><path d="M 265 161.85q0 -2.25 -1.55 -3.8q-1.6 -1.6 -3.8 -1.6q-2.25 0 -3.8 1.6q-1.6 1.55 -1.6 3.8q0 2.25 1.6 3.85q1.55 1.55 3.8 1.55q2.2 0 3.8 -1.55q1.55 -1.6 1.55 -3.85" fill="#5582b7" style=""></path></g><g transform="matrix(1.005,0,0,0.995,494.3,-38.4)" token="183" class="shape"><path d="M 265 161.85q0 -2.25 -1.55 -3.8q-1.6 -1.6 -3.8 -1.6q-2.25 0 -3.8 1.6q-1.6 1.55 -1.6 3.8q0 2.25 1.6 3.85q1.55 1.55 3.8 1.55q2.2 0 3.8 -1.55q1.55 -1.6 1.55 -3.85" fill="#5582b7" style=""></path></g><g transform="matrix(1,0,0,1,505.35,-29.35)" token="182" class="shape"><path d="M 265 161.85q0 -2.25 -1.55 -3.8q-1.6 -1.6 -3.8 -1.6q-2.25 0 -3.8 1.6q-1.6 1.55 -1.6 3.8q0 2.25 1.6 3.85q1.55 1.55 3.8 1.55q2.2 0 3.8 -1.55q1.55 -1.6 1.55 -3.85" fill="#5582b7" style=""></path></g><g transform="matrix(1.005,0,0,1,494.3,-19.55)" token="181" class="shape"><path d="M 265 161.85q0 -2.25 -1.55 -3.8q-1.6 -1.6 -3.8 -1.6q-2.25 0 -3.8 1.6q-1.6 1.55 -1.6 3.8q0 2.25 1.6 3.85q1.55 1.55 3.8 1.55q2.2 0 3.8 -1.55q1.55 -1.6 1.55 -3.85" fill="#5582b7" style=""></path></g><g transform="matrix(1,0,0,0.995,505.35,-9.05)" token="180" class="shape"><path d="M 265 161.85q0 -2.25 -1.55 -3.8q-1.6 -1.6 -3.8 -1.6q-2.25 0 -3.8 1.6q-1.6 1.55 -1.6 3.8q0 2.25 1.6 3.85q1.55 1.55 3.8 1.55q2.2 0 3.8 -1.55q1.55 -1.6 1.55 -3.85" fill="#5582b7" style=""></path></g><g transform="matrix(1.005,0,0,1,494.3,0)" token="179" class="shape"><path d="M 265 161.85q0 -2.25 -1.55 -3.8q-1.6 -1.6 -3.8 -1.6q-2.25 0 -3.8 1.6q-1.6 1.55 -1.6 3.8q0 2.25 1.6 3.85q1.55 1.55 3.8 1.55q2.2 0 3.8 -1.55q1.55 -1.6 1.55 -3.85" fill="#5582b7" style=""></path></g><g transform="matrix(1.005,0,0,1,513.9,-136.9)" token="178" class="shape"><path d="M 265 161.85q0 -2.25 -1.55 -3.8q-1.6 -1.6 -3.8 -1.6q-2.25 0 -3.8 1.6q-1.6 1.55 -1.6 3.8q0 2.25 1.6 3.85q1.55 1.55 3.8 1.55q2.2 0 3.8 -1.55q1.55 -1.6 1.55 -3.85" fill="#5582b7" style=""></path></g><g transform="matrix(1.005,0,0,1,523.75,-127.1)" token="177" class="shape"><path d="M 265 161.85q0 -2.25 -1.55 -3.8q-1.6 -1.6 -3.8 -1.6q-2.25 0 -3.8 1.6q-1.6 1.55 -1.6 3.8q0 2.25 1.6 3.85q1.55 1.55 3.8 1.55q2.2 0 3.8 -1.55q1.55 -1.6 1.55 -3.85" fill="#5582b7" style=""></path></g><g transform="matrix(1.005,0,0,0.995,513.9,-116.6)" token="176" class="shape"><path d="M 265 161.85q0 -2.25 -1.55 -3.8q-1.6 -1.6 -3.8 -1.6q-2.25 0 -3.8 1.6q-1.6 1.55 -1.6 3.8q0 2.25 1.6 3.85q1.55 1.55 3.8 1.55q2.2 0 3.8 -1.55q1.55 -1.6 1.55 -3.85" fill="#5582b7" style=""></path></g><g transform="matrix(1.005,0,0,1,523.75,-107.55)" token="175" class="shape"><path d="M 265 161.85q0 -2.25 -1.55 -3.8q-1.6 -1.6 -3.8 -1.6q-2.25 0 -3.8 1.6q-1.6 1.55 -1.6 3.8q0 2.25 1.6 3.85q1.55 1.55 3.8 1.55q2.2 0 3.8 -1.55q1.55 -1.6 1.55 -3.85" fill="#5582b7" style=""></path></g><g transform="matrix(1.005,0,0,1,513.9,-97.75)" token="174" class="shape"><path d="M 265 161.85q0 -2.25 -1.55 -3.8q-1.6 -1.6 -3.8 -1.6q-2.25 0 -3.8 1.6q-1.6 1.55 -1.6 3.8q0 2.25 1.6 3.85q1.55 1.55 3.8 1.55q2.2 0 3.8 -1.55q1.55 -1.6 1.55 -3.85" fill="#5582b7" style=""></path></g><g transform="matrix(1.005,0,0,0.995,523.75,-87.25)" token="173" class="shape"><path d="M 265 161.85q0 -2.25 -1.55 -3.8q-1.6 -1.6 -3.8 -1.6q-2.25 0 -3.8 1.6q-1.6 1.55 -1.6 3.8q0 2.25 1.6 3.85q1.55 1.55 3.8 1.55q2.2 0 3.8 -1.55q1.55 -1.6 1.55 -3.85" fill="#5582b7" style=""></path></g><g transform="matrix(1.005,0,0,0.995,513.9,-77.5)" token="172" class="shape"><path d="M 265 161.85q0 -2.25 -1.55 -3.8q-1.6 -1.6 -3.8 -1.6q-2.25 0 -3.8 1.6q-1.6 1.55 -1.6 3.8q0 2.25 1.6 3.85q1.55 1.55 3.8 1.55q2.2 0 3.8 -1.55q1.55 -1.6 1.55 -3.85" fill="#5582b7" style=""></path></g><g transform="matrix(1.005,0,0,1,523.75,-68.45)" token="171" class="shape"><path d="M 265 161.85q0 -2.25 -1.55 -3.8q-1.6 -1.6 -3.8 -1.6q-2.25 0 -3.8 1.6q-1.6 1.55 -1.6 3.8q0 2.25 1.6 3.85q1.55 1.55 3.8 1.55q2.2 0 3.8 -1.55q1.55 -1.6 1.55 -3.85" fill="#5582b7" style=""></path></g><g transform="matrix(1.005,0,0,1,513.9,-58.7)" token="170" class="shape"><path d="M 265 161.85q0 -2.25 -1.55 -3.8q-1.6 -1.6 -3.8 -1.6q-2.25 0 -3.8 1.6q-1.6 1.55 -1.6 3.8q0 2.25 1.6 3.85q1.55 1.55 3.8 1.55q2.2 0 3.8 -1.55q1.55 -1.6 1.55 -3.85" fill="#5582b7" style=""></path></g><g transform="matrix(1.005,0,0,1,523.75,-48.9)" token="169" class="shape"><path d="M 265 161.85q0 -2.25 -1.55 -3.8q-1.6 -1.6 -3.8 -1.6q-2.25 0 -3.8 1.6q-1.6 1.55 -1.6 3.8q0 2.25 1.6 3.85q1.55 1.55 3.8 1.55q2.2 0 3.8 -1.55q1.55 -1.6 1.55 -3.85" fill="#5582b7" style=""></path></g><g transform="matrix(1.005,0,0,0.995,513.9,-38.4)" token="168" class="shape"><path d="M 265 161.85q0 -2.25 -1.55 -3.8q-1.6 -1.6 -3.8 -1.6q-2.25 0 -3.8 1.6q-1.6 1.55 -1.6 3.8q0 2.25 1.6 3.85q1.55 1.55 3.8 1.55q2.2 0 3.8 -1.55q1.55 -1.6 1.55 -3.85" fill="#5582b7" style=""></path></g><g transform="matrix(1.005,0,0,1,523.75,-29.35)" token="167" class="shape"><path d="M 265 161.85q0 -2.25 -1.55 -3.8q-1.6 -1.6 -3.8 -1.6q-2.25 0 -3.8 1.6q-1.6 1.55 -1.6 3.8q0 2.25 1.6 3.85q1.55 1.55 3.8 1.55q2.2 0 3.8 -1.55q1.55 -1.6 1.55 -3.85" fill="#5582b7" style=""></path></g><g transform="matrix(1.005,0,0,1,513.9,-19.55)" token="166" class="shape"><path d="M 265 161.85q0 -2.25 -1.55 -3.8q-1.6 -1.6 -3.8 -1.6q-2.25 0 -3.8 1.6q-1.6 1.55 -1.6 3.8q0 2.25 1.6 3.85q1.55 1.55 3.8 1.55q2.2 0 3.8 -1.55q1.55 -1.6 1.55 -3.85" fill="#5582b7" style=""></path></g><g transform="matrix(1.005,0,0,0.995,523.75,-9.05)" token="165" class="shape"><path d="M 265 161.85q0 -2.25 -1.55 -3.8q-1.6 -1.6 -3.8 -1.6q-2.25 0 -3.8 1.6q-1.6 1.55 -1.6 3.8q0 2.25 1.6 3.85q1.55 1.55 3.8 1.55q2.2 0 3.8 -1.55q1.55 -1.6 1.55 -3.85" fill="#5582b7" style=""></path></g><g transform="matrix(1.005,0,0,1,513.9,0)" token="164" class="shape"><path d="M 265 161.85q0 -2.25 -1.55 -3.8q-1.6 -1.6 -3.8 -1.6q-2.25 0 -3.8 1.6q-1.6 1.55 -1.6 3.8q0 2.25 1.6 3.85q1.55 1.55 3.8 1.55q2.2 0 3.8 -1.55q1.55 -1.6 1.55 -3.85" fill="#5582b7" style=""></path></g><g transform="matrix(1.005,0,0,1,533.8,-136.9)" token="163" class="shape"><path d="M 265 161.85q0 -2.25 -1.55 -3.8q-1.6 -1.6 -3.8 -1.6q-2.25 0 -3.8 1.6q-1.6 1.55 -1.6 3.8q0 2.25 1.6 3.85q1.55 1.55 3.8 1.55q2.2 0 3.8 -1.55q1.55 -1.6 1.55 -3.85" fill="#5582b7" style=""></path></g><g transform="matrix(1.005,0,0,1,543.65,-127.1)" token="162" class="shape"><path d="M 265 161.85q0 -2.25 -1.55 -3.8q-1.6 -1.6 -3.8 -1.6q-2.25 0 -3.8 1.6q-1.6 1.55 -1.6 3.8q0 2.25 1.6 3.85q1.55 1.55 3.8 1.55q2.2 0 3.8 -1.55q1.55 -1.6 1.55 -3.85" fill="#5582b7" style=""></path></g><g transform="matrix(1.005,0,0,0.995,533.8,-116.6)" token="161" class="shape"><path d="M 265 161.85q0 -2.25 -1.55 -3.8q-1.6 -1.6 -3.8 -1.6q-2.25 0 -3.8 1.6q-1.6 1.55 -1.6 3.8q0 2.25 1.6 3.85q1.55 1.55 3.8 1.55q2.2 0 3.8 -1.55q1.55 -1.6 1.55 -3.85" fill="#5582b7" style=""></path></g><g transform="matrix(1.005,0,0,1,543.65,-107.55)" token="160" class="shape"><path d="M 265 161.85q0 -2.25 -1.55 -3.8q-1.6 -1.6 -3.8 -1.6q-2.25 0 -3.8 1.6q-1.6 1.55 -1.6 3.8q0 2.25 1.6 3.85q1.55 1.55 3.8 1.55q2.2 0 3.8 -1.55q1.55 -1.6 1.55 -3.85" fill="#5582b7" style=""></path></g><g transform="matrix(1.005,0,0,1,533.8,-97.75)" token="159" class="shape"><path d="M 265 161.85q0 -2.25 -1.55 -3.8q-1.6 -1.6 -3.8 -1.6q-2.25 0 -3.8 1.6q-1.6 1.55 -1.6 3.8q0 2.25 1.6 3.85q1.55 1.55 3.8 1.55q2.2 0 3.8 -1.55q1.55 -1.6 1.55 -3.85" fill="#5582b7" style=""></path></g><g transform="matrix(1.005,0,0,0.995,543.65,-87.25)" token="158" class="shape"><path d="M 265 161.85q0 -2.25 -1.55 -3.8q-1.6 -1.6 -3.8 -1.6q-2.25 0 -3.8 1.6q-1.6 1.55 -1.6 3.8q0 2.25 1.6 3.85q1.55 1.55 3.8 1.55q2.2 0 3.8 -1.55q1.55 -1.6 1.55 -3.85" fill="#5582b7" style=""></path></g><g transform="matrix(1.005,0,0,0.995,533.8,-77.5)" token="157" class="shape"><path d="M 265 161.85q0 -2.25 -1.55 -3.8q-1.6 -1.6 -3.8 -1.6q-2.25 0 -3.8 1.6q-1.6 1.55 -1.6 3.8q0 2.25 1.6 3.85q1.55 1.55 3.8 1.55q2.2 0 3.8 -1.55q1.55 -1.6 1.55 -3.85" fill="#5582b7" style=""></path></g><g transform="matrix(1.005,0,0,1,543.65,-68.45)" token="156" class="shape"><path d="M 265 161.85q0 -2.25 -1.55 -3.8q-1.6 -1.6 -3.8 -1.6q-2.25 0 -3.8 1.6q-1.6 1.55 -1.6 3.8q0 2.25 1.6 3.85q1.55 1.55 3.8 1.55q2.2 0 3.8 -1.55q1.55 -1.6 1.55 -3.85" fill="#5582b7" style=""></path></g><g transform="matrix(1.005,0,0,1,533.8,-58.7)" token="155" class="shape"><path d="M 265 161.85q0 -2.25 -1.55 -3.8q-1.6 -1.6 -3.8 -1.6q-2.25 0 -3.8 1.6q-1.6 1.55 -1.6 3.8q0 2.25 1.6 3.85q1.55 1.55 3.8 1.55q2.2 0 3.8 -1.55q1.55 -1.6 1.55 -3.85" fill="#5582b7" style=""></path></g><g transform="matrix(1.005,0,0,1,543.65,-48.9)" token="154" class="shape"><path d="M 265 161.85q0 -2.25 -1.55 -3.8q-1.6 -1.6 -3.8 -1.6q-2.25 0 -3.8 1.6q-1.6 1.55 -1.6 3.8q0 2.25 1.6 3.85q1.55 1.55 3.8 1.55q2.2 0 3.8 -1.55q1.55 -1.6 1.55 -3.85" fill="#5582b7" style=""></path></g><g transform="matrix(1.005,0,0,0.995,533.8,-38.4)" token="153" class="shape"><path d="M 265 161.85q0 -2.25 -1.55 -3.8q-1.6 -1.6 -3.8 -1.6q-2.25 0 -3.8 1.6q-1.6 1.55 -1.6 3.8q0 2.25 1.6 3.85q1.55 1.55 3.8 1.55q2.2 0 3.8 -1.55q1.55 -1.6 1.55 -3.85" fill="#5582b7" style=""></path></g><g transform="matrix(1.005,0,0,1,543.65,-29.35)" token="152" class="shape"><path d="M 265 161.85q0 -2.25 -1.55 -3.8q-1.6 -1.6 -3.8 -1.6q-2.25 0 -3.8 1.6q-1.6 1.55 -1.6 3.8q0 2.25 1.6 3.85q1.55 1.55 3.8 1.55q2.2 0 3.8 -1.55q1.55 -1.6 1.55 -3.85" fill="#5582b7" style=""></path></g><g transform="matrix(1.005,0,0,1,533.8,-19.55)" token="151" class="shape"><path d="M 265 161.85q0 -2.25 -1.55 -3.8q-1.6 -1.6 -3.8 -1.6q-2.25 0 -3.8 1.6q-1.6 1.55 -1.6 3.8q0 2.25 1.6 3.85q1.55 1.55 3.8 1.55q2.2 0 3.8 -1.55q1.55 -1.6 1.55 -3.85" fill="#5582b7" style=""></path></g><g transform="matrix(1.005,0,0,0.995,543.65,-9.05)" token="150" class="shape"><path d="M 265 161.85q0 -2.25 -1.55 -3.8q-1.6 -1.6 -3.8 -1.6q-2.25 0 -3.8 1.6q-1.6 1.55 -1.6 3.8q0 2.25 1.6 3.85q1.55 1.55 3.8 1.55q2.2 0 3.8 -1.55q1.55 -1.6 1.55 -3.85" fill="#5582b7" style=""></path></g><g transform="matrix(1.005,0,0,1,533.8,0)" token="149" class="shape"><path d="M 265 161.85q0 -2.25 -1.55 -3.8q-1.6 -1.6 -3.8 -1.6q-2.25 0 -3.8 1.6q-1.6 1.55 -1.6 3.8q0 2.25 1.6 3.85q1.55 1.55 3.8 1.55q2.2 0 3.8 -1.55q1.55 -1.6 1.55 -3.85" fill="#5582b7" style=""></path></g><g transform="matrix(1.005,0,0,1,553.45,-136.9)" token="148" class="shape"><path d="M 265 161.85q0 -2.25 -1.55 -3.8q-1.6 -1.6 -3.8 -1.6q-2.25 0 -3.8 1.6q-1.6 1.55 -1.6 3.8q0 2.25 1.6 3.85q1.55 1.55 3.8 1.55q2.2 0 3.8 -1.55q1.55 -1.6 1.55 -3.85" fill="#5582b7" style=""></path></g><g transform="matrix(1.005,0,0,0.995,553.45,-116.6)" token="147" class="shape"><path d="M 265 161.85q0 -2.25 -1.55 -3.8q-1.6 -1.6 -3.8 -1.6q-2.25 0 -3.8 1.6q-1.6 1.55 -1.6 3.8q0 2.25 1.6 3.85q1.55 1.55 3.8 1.55q2.2 0 3.8 -1.55q1.55 -1.6 1.55 -3.85" fill="#5582b7" style=""></path></g><g transform="matrix(1.005,0,0,1,553.45,-97.75)" token="146" class="shape"><path d="M 265 161.85q0 -2.25 -1.55 -3.8q-1.6 -1.6 -3.8 -1.6q-2.25 0 -3.8 1.6q-1.6 1.55 -1.6 3.8q0 2.25 1.6 3.85q1.55 1.55 3.8 1.55q2.2 0 3.8 -1.55q1.55 -1.6 1.55 -3.85" fill="#5582b7" style=""></path></g><g transform="matrix(1.005,0,0,0.995,553.45,-77.5)" token="145" class="shape"><path d="M 265 161.85q0 -2.25 -1.55 -3.8q-1.6 -1.6 -3.8 -1.6q-2.25 0 -3.8 1.6q-1.6 1.55 -1.6 3.8q0 2.25 1.6 3.85q1.55 1.55 3.8 1.55q2.2 0 3.8 -1.55q1.55 -1.6 1.55 -3.85" fill="#5582b7" style=""></path></g><g transform="matrix(1.005,0,0,1,553.45,-58.7)" token="144" class="shape"><path d="M 265 161.85q0 -2.25 -1.55 -3.8q-1.6 -1.6 -3.8 -1.6q-2.25 0 -3.8 1.6q-1.6 1.55 -1.6 3.8q0 2.25 1.6 3.85q1.55 1.55 3.8 1.55q2.2 0 3.8 -1.55q1.55 -1.6 1.55 -3.85" fill="#5582b7" style=""></path></g><g transform="matrix(1.005,0,0,0.995,553.45,-38.4)" token="143" class="shape"><path d="M 265 161.85q0 -2.25 -1.55 -3.8q-1.6 -1.6 -3.8 -1.6q-2.25 0 -3.8 1.6q-1.6 1.55 -1.6 3.8q0 2.25 1.6 3.85q1.55 1.55 3.8 1.55q2.2 0 3.8 -1.55q1.55 -1.6 1.55 -3.85" fill="#5582b7" style=""></path></g><g transform="matrix(1.005,0,0,1,553.45,-19.55)" token="142" class="shape"><path d="M 265 161.85q0 -2.25 -1.55 -3.8q-1.6 -1.6 -3.8 -1.6q-2.25 0 -3.8 1.6q-1.6 1.55 -1.6 3.8q0 2.25 1.6 3.85q1.55 1.55 3.8 1.55q2.2 0 3.8 -1.55q1.55 -1.6 1.55 -3.85" fill="#5582b7" style=""></path></g><g transform="matrix(1.005,0,0,1,553.45,0)" token="141" class="shape"><path d="M 265 161.85q0 -2.25 -1.55 -3.8q-1.6 -1.6 -3.8 -1.6q-2.25 0 -3.8 1.6q-1.6 1.55 -1.6 3.8q0 2.25 1.6 3.85q1.55 1.55 3.8 1.55q2.2 0 3.8 -1.55q1.55 -1.6 1.55 -3.85" fill="#5582b7" style=""></path></g><g transform="matrix(1.005,0,0,1,160.15,-156.45)" token="137" class="shape"><path d="M 265 161.85q0 -2.25 -1.55 -3.8q-1.6 -1.6 -3.8 -1.6q-2.25 0 -3.8 1.6q-1.6 1.55 -1.6 3.8q0 2.25 1.6 3.85q1.55 1.55 3.8 1.55q2.2 0 3.8 -1.55q1.55 -1.6 1.55 -3.85" fill="#5582b7" style=""></path></g><g transform="matrix(1,0,0,1,171.2,-146.65)" token="136" class="shape"><path d="M 265 161.85q0 -2.25 -1.55 -3.8q-1.6 -1.6 -3.8 -1.6q-2.25 0 -3.8 1.6q-1.6 1.55 -1.6 3.8q0 2.25 1.6 3.85q1.55 1.55 3.8 1.55q2.2 0 3.8 -1.55q1.55 -1.6 1.55 -3.85" fill="#5582b7" style=""></path></g><g transform="matrix(1.005,0,0,1,180.05,-156.45)" token="135" class="shape"><path d="M 265 161.85q0 -2.25 -1.55 -3.8q-1.6 -1.6 -3.8 -1.6q-2.25 0 -3.8 1.6q-1.6 1.55 -1.6 3.8q0 2.25 1.6 3.85q1.55 1.55 3.8 1.55q2.2 0 3.8 -1.55q1.55 -1.6 1.55 -3.85" fill="#5582b7" style=""></path></g><g transform="matrix(1.005,0,0,1,189.9,-146.65)" token="134" class="shape"><path d="M 265 161.85q0 -2.25 -1.55 -3.8q-1.6 -1.6 -3.8 -1.6q-2.25 0 -3.8 1.6q-1.6 1.55 -1.6 3.8q0 2.25 1.6 3.85q1.55 1.55 3.8 1.55q2.2 0 3.8 -1.55q1.55 -1.6 1.55 -3.85" fill="#5582b7" style=""></path></g><g transform="matrix(1.005,0,0,1,199.65,-156.45)" token="133" class="shape"><path d="M 265 161.85q0 -2.25 -1.55 -3.8q-1.6 -1.6 -3.8 -1.6q-2.25 0 -3.8 1.6q-1.6 1.55 -1.6 3.8q0 2.25 1.6 3.85q1.55 1.55 3.8 1.55q2.2 0 3.8 -1.55q1.55 -1.6 1.55 -3.85" fill="#5582b7" style=""></path></g><g transform="matrix(1.005,0,0,1,209.5,-146.65)" token="132" class="shape"><path d="M 265 161.85q0 -2.25 -1.55 -3.8q-1.6 -1.6 -3.8 -1.6q-2.25 0 -3.8 1.6q-1.6 1.55 -1.6 3.8q0 2.25 1.6 3.85q1.55 1.55 3.8 1.55q2.2 0 3.8 -1.55q1.55 -1.6 1.55 -3.85" fill="#5582b7" style=""></path></g><g transform="matrix(1.005,0,0,1,219.35,-156.45)" token="131" class="shape"><path d="M 265 161.85q0 -2.25 -1.55 -3.8q-1.6 -1.6 -3.8 -1.6q-2.25 0 -3.8 1.6q-1.6 1.55 -1.6 3.8q0 2.25 1.6 3.85q1.55 1.55 3.8 1.55q2.2 0 3.8 -1.55q1.55 -1.6 1.55 -3.85" fill="#5582b7" style=""></path></g><g transform="matrix(1,0,0,1,230.4,-146.65)" token="130" class="shape"><path d="M 265 161.85q0 -2.25 -1.55 -3.8q-1.6 -1.6 -3.8 -1.6q-2.25 0 -3.8 1.6q-1.6 1.55 -1.6 3.8q0 2.25 1.6 3.85q1.55 1.55 3.8 1.55q2.2 0 3.8 -1.55q1.55 -1.6 1.55 -3.85" fill="#5582b7" style=""></path></g><g transform="matrix(1.005,0,0,1,238.95,-156.45)" token="129" class="shape"><path d="M 265 161.85q0 -2.25 -1.55 -3.8q-1.6 -1.6 -3.8 -1.6q-2.25 0 -3.8 1.6q-1.6 1.55 -1.6 3.8q0 2.25 1.6 3.85q1.55 1.55 3.8 1.55q2.2 0 3.8 -1.55q1.55 -1.6 1.55 -3.85" fill="#5582b7" style=""></path></g><g transform="matrix(1.005,0,0,1,248.8,-146.65)" token="128" class="shape"><path d="M 265 161.85q0 -2.25 -1.55 -3.8q-1.6 -1.6 -3.8 -1.6q-2.25 0 -3.8 1.6q-1.6 1.55 -1.6 3.8q0 2.25 1.6 3.85q1.55 1.55 3.8 1.55q2.2 0 3.8 -1.55q1.55 -1.6 1.55 -3.85" fill="#5582b7" style=""></path></g><g transform="matrix(1.005,0,0,1,258.85,-156.45)" token="127" class="shape"><path d="M 265 161.85q0 -2.25 -1.55 -3.8q-1.6 -1.6 -3.8 -1.6q-2.25 0 -3.8 1.6q-1.6 1.55 -1.6 3.8q0 2.25 1.6 3.85q1.55 1.55 3.8 1.55q2.2 0 3.8 -1.55q1.55 -1.6 1.55 -3.85" fill="#5582b7" style=""></path></g><g transform="matrix(1.005,0,0,1,268.7,-146.65)" token="126" class="shape"><path d="M 265 161.85q0 -2.25 -1.55 -3.8q-1.6 -1.6 -3.8 -1.6q-2.25 0 -3.8 1.6q-1.6 1.55 -1.6 3.8q0 2.25 1.6 3.85q1.55 1.55 3.8 1.55q2.2 0 3.8 -1.55q1.55 -1.6 1.55 -3.85" fill="#5582b7" style=""></path></g><g transform="matrix(1.005,0,0,1,278.5,-156.45)" token="125" class="shape"><path d="M 265 161.85q0 -2.25 -1.55 -3.8q-1.6 -1.6 -3.8 -1.6q-2.25 0 -3.8 1.6q-1.6 1.55 -1.6 3.8q0 2.25 1.6 3.85q1.55 1.55 3.8 1.55q2.2 0 3.8 -1.55q1.55 -1.6 1.55 -3.85" fill="#5582b7" style=""></path></g><g transform="matrix(1.005,0,0,1,160.15,-136.9)" token="124" class="shape"><path d="M 265 161.85q0 -2.25 -1.55 -3.8q-1.6 -1.6 -3.8 -1.6q-2.25 0 -3.8 1.6q-1.6 1.55 -1.6 3.8q0 2.25 1.6 3.85q1.55 1.55 3.8 1.55q2.2 0 3.8 -1.55q1.55 -1.6 1.55 -3.85" fill="#5582b7" style=""></path></g><g transform="matrix(1,0,0,1,171.2,-127.1)" token="123" class="shape"><path d="M 265 161.85q0 -2.25 -1.55 -3.8q-1.6 -1.6 -3.8 -1.6q-2.25 0 -3.8 1.6q-1.6 1.55 -1.6 3.8q0 2.25 1.6 3.85q1.55 1.55 3.8 1.55q2.2 0 3.8 -1.55q1.55 -1.6 1.55 -3.85" fill="#5582b7" style=""></path></g><g transform="matrix(1.005,0,0,0.995,160.15,-116.6)" token="122" class="shape"><path d="M 265 161.85q0 -2.25 -1.55 -3.8q-1.6 -1.6 -3.8 -1.6q-2.25 0 -3.8 1.6q-1.6 1.55 -1.6 3.8q0 2.25 1.6 3.85q1.55 1.55 3.8 1.55q2.2 0 3.8 -1.55q1.55 -1.6 1.55 -3.85" fill="#5582b7" style=""></path></g><g transform="matrix(1,0,0,1,171.2,-107.55)" token="121" class="shape"><path d="M 265 161.85q0 -2.25 -1.55 -3.8q-1.6 -1.6 -3.8 -1.6q-2.25 0 -3.8 1.6q-1.6 1.55 -1.6 3.8q0 2.25 1.6 3.85q1.55 1.55 3.8 1.55q2.2 0 3.8 -1.55q1.55 -1.6 1.55 -3.85" fill="#5582b7" style=""></path></g><g transform="matrix(1.005,0,0,1,160.15,-97.75)" token="120" class="shape"><path d="M 265 161.85q0 -2.25 -1.55 -3.8q-1.6 -1.6 -3.8 -1.6q-2.25 0 -3.8 1.6q-1.6 1.55 -1.6 3.8q0 2.25 1.6 3.85q1.55 1.55 3.8 1.55q2.2 0 3.8 -1.55q1.55 -1.6 1.55 -3.85" fill="#5582b7" style=""></path></g><g transform="matrix(1,0,0,0.995,171.2,-87.25)" token="119" class="shape"><path d="M 265 161.85q0 -2.25 -1.55 -3.8q-1.6 -1.6 -3.8 -1.6q-2.25 0 -3.8 1.6q-1.6 1.55 -1.6 3.8q0 2.25 1.6 3.85q1.55 1.55 3.8 1.55q2.2 0 3.8 -1.55q1.55 -1.6 1.55 -3.85" fill="#5582b7" style=""></path></g><g transform="matrix(1.005,0,0,0.995,160.15,-77.5)" token="118" class="shape"><path d="M 265 161.85q0 -2.25 -1.55 -3.8q-1.6 -1.6 -3.8 -1.6q-2.25 0 -3.8 1.6q-1.6 1.55 -1.6 3.8q0 2.25 1.6 3.85q1.55 1.55 3.8 1.55q2.2 0 3.8 -1.55q1.55 -1.6 1.55 -3.85" fill="#5582b7" style=""></path></g><g transform="matrix(1,0,0,1,171.2,-68.45)" token="117" class="shape"><path d="M 265 161.85q0 -2.25 -1.55 -3.8q-1.6 -1.6 -3.8 -1.6q-2.25 0 -3.8 1.6q-1.6 1.55 -1.6 3.8q0 2.25 1.6 3.85q1.55 1.55 3.8 1.55q2.2 0 3.8 -1.55q1.55 -1.6 1.55 -3.85" fill="#5582b7" style=""></path></g><g transform="matrix(1.005,0,0,1,160.15,-58.7)" token="116" class="shape"><path d="M 265 161.85q0 -2.25 -1.55 -3.8q-1.6 -1.6 -3.8 -1.6q-2.25 0 -3.8 1.6q-1.6 1.55 -1.6 3.8q0 2.25 1.6 3.85q1.55 1.55 3.8 1.55q2.2 0 3.8 -1.55q1.55 -1.6 1.55 -3.85" fill="#5582b7" style=""></path></g><g transform="matrix(1,0,0,1,171.2,-48.9)" token="115" class="shape"><path d="M 265 161.85q0 -2.25 -1.55 -3.8q-1.6 -1.6 -3.8 -1.6q-2.25 0 -3.8 1.6q-1.6 1.55 -1.6 3.8q0 2.25 1.6 3.85q1.55 1.55 3.8 1.55q2.2 0 3.8 -1.55q1.55 -1.6 1.55 -3.85" fill="#5582b7" style=""></path></g><g transform="matrix(1.005,0,0,0.995,160.15,-38.4)" token="114" class="shape"><path d="M 265 161.85q0 -2.25 -1.55 -3.8q-1.6 -1.6 -3.8 -1.6q-2.25 0 -3.8 1.6q-1.6 1.55 -1.6 3.8q0 2.25 1.6 3.85q1.55 1.55 3.8 1.55q2.2 0 3.8 -1.55q1.55 -1.6 1.55 -3.85" fill="#5582b7" style=""></path></g><g transform="matrix(1,0,0,1,171.2,-29.35)" token="113" class="shape"><path d="M 265 161.85q0 -2.25 -1.55 -3.8q-1.6 -1.6 -3.8 -1.6q-2.25 0 -3.8 1.6q-1.6 1.55 -1.6 3.8q0 2.25 1.6 3.85q1.55 1.55 3.8 1.55q2.2 0 3.8 -1.55q1.55 -1.6 1.55 -3.85" fill="#5582b7" style=""></path></g><g transform="matrix(1.005,0,0,1,160.15,-19.55)" token="112" class="shape"><path d="M 265 161.85q0 -2.25 -1.55 -3.8q-1.6 -1.6 -3.8 -1.6q-2.25 0 -3.8 1.6q-1.6 1.55 -1.6 3.8q0 2.25 1.6 3.85q1.55 1.55 3.8 1.55q2.2 0 3.8 -1.55q1.55 -1.6 1.55 -3.85" fill="#5582b7" style=""></path></g><g transform="matrix(1,0,0,0.995,171.2,-9.05)" token="111" class="shape"><path d="M 265 161.85q0 -2.25 -1.55 -3.8q-1.6 -1.6 -3.8 -1.6q-2.25 0 -3.8 1.6q-1.6 1.55 -1.6 3.8q0 2.25 1.6 3.85q1.55 1.55 3.8 1.55q2.2 0 3.8 -1.55q1.55 -1.6 1.55 -3.85" fill="#5582b7" style=""></path></g><g transform="matrix(1.005,0,0,1,160.15,0)" token="110" class="shape"><path d="M 265 161.85q0 -2.25 -1.55 -3.8q-1.6 -1.6 -3.8 -1.6q-2.25 0 -3.8 1.6q-1.6 1.55 -1.6 3.8q0 2.25 1.6 3.85q1.55 1.55 3.8 1.55q2.2 0 3.8 -1.55q1.55 -1.6 1.55 -3.85" fill="#5582b7" style=""></path></g><g transform="matrix(1.005,0,0,1,180.05,-136.9)" token="109" class="shape"><path d="M 265 161.85q0 -2.25 -1.55 -3.8q-1.6 -1.6 -3.8 -1.6q-2.25 0 -3.8 1.6q-1.6 1.55 -1.6 3.8q0 2.25 1.6 3.85q1.55 1.55 3.8 1.55q2.2 0 3.8 -1.55q1.55 -1.6 1.55 -3.85" fill="#5582b7" style=""></path></g><g transform="matrix(1.005,0,0,1,189.9,-127.1)" token="108" class="shape"><path d="M 265 161.85q0 -2.25 -1.55 -3.8q-1.6 -1.6 -3.8 -1.6q-2.25 0 -3.8 1.6q-1.6 1.55 -1.6 3.8q0 2.25 1.6 3.85q1.55 1.55 3.8 1.55q2.2 0 3.8 -1.55q1.55 -1.6 1.55 -3.85" fill="#5582b7" style=""></path></g><g transform="matrix(1.005,0,0,0.995,180.05,-116.6)" token="107" class="shape"><path d="M 265 161.85q0 -2.25 -1.55 -3.8q-1.6 -1.6 -3.8 -1.6q-2.25 0 -3.8 1.6q-1.6 1.55 -1.6 3.8q0 2.25 1.6 3.85q1.55 1.55 3.8 1.55q2.2 0 3.8 -1.55q1.55 -1.6 1.55 -3.85" fill="#5582b7" style=""></path></g><g transform="matrix(1.005,0,0,1,189.9,-107.55)" token="106" class="shape"><path d="M 265 161.85q0 -2.25 -1.55 -3.8q-1.6 -1.6 -3.8 -1.6q-2.25 0 -3.8 1.6q-1.6 1.55 -1.6 3.8q0 2.25 1.6 3.85q1.55 1.55 3.8 1.55q2.2 0 3.8 -1.55q1.55 -1.6 1.55 -3.85" fill="#5582b7" style=""></path></g><g transform="matrix(1.005,0,0,1,180.05,-97.75)" token="105" class="shape"><path d="M 265 161.85q0 -2.25 -1.55 -3.8q-1.6 -1.6 -3.8 -1.6q-2.25 0 -3.8 1.6q-1.6 1.55 -1.6 3.8q0 2.25 1.6 3.85q1.55 1.55 3.8 1.55q2.2 0 3.8 -1.55q1.55 -1.6 1.55 -3.85" fill="#5582b7" style=""></path></g><g transform="matrix(1.005,0,0,0.995,189.9,-87.25)" token="104" class="shape"><path d="M 265 161.85q0 -2.25 -1.55 -3.8q-1.6 -1.6 -3.8 -1.6q-2.25 0 -3.8 1.6q-1.6 1.55 -1.6 3.8q0 2.25 1.6 3.85q1.55 1.55 3.8 1.55q2.2 0 3.8 -1.55q1.55 -1.6 1.55 -3.85" fill="#5582b7" style=""></path></g><g transform="matrix(1.005,0,0,0.995,180.05,-77.5)" token="103" class="shape"><path d="M 265 161.85q0 -2.25 -1.55 -3.8q-1.6 -1.6 -3.8 -1.6q-2.25 0 -3.8 1.6q-1.6 1.55 -1.6 3.8q0 2.25 1.6 3.85q1.55 1.55 3.8 1.55q2.2 0 3.8 -1.55q1.55 -1.6 1.55 -3.85" fill="#5582b7" style=""></path></g><g transform="matrix(1.005,0,0,1,189.9,-68.45)" token="102" class="shape"><path d="M 265 161.85q0 -2.25 -1.55 -3.8q-1.6 -1.6 -3.8 -1.6q-2.25 0 -3.8 1.6q-1.6 1.55 -1.6 3.8q0 2.25 1.6 3.85q1.55 1.55 3.8 1.55q2.2 0 3.8 -1.55q1.55 -1.6 1.55 -3.85" fill="#5582b7" style=""></path></g><g transform="matrix(1.005,0,0,1,180.05,-58.7)" token="101" class="shape"><path d="M 265 161.85q0 -2.25 -1.55 -3.8q-1.6 -1.6 -3.8 -1.6q-2.25 0 -3.8 1.6q-1.6 1.55 -1.6 3.8q0 2.25 1.6 3.85q1.55 1.55 3.8 1.55q2.2 0 3.8 -1.55q1.55 -1.6 1.55 -3.85" fill="#5582b7" style=""></path></g><g transform="matrix(1.005,0,0,1,189.9,-48.9)" token="100" class="shape"><path d="M 265 161.85q0 -2.25 -1.55 -3.8q-1.6 -1.6 -3.8 -1.6q-2.25 0 -3.8 1.6q-1.6 1.55 -1.6 3.8q0 2.25 1.6 3.85q1.55 1.55 3.8 1.55q2.2 0 3.8 -1.55q1.55 -1.6 1.55 -3.85" fill="#5582b7" style=""></path></g><g transform="matrix(1.005,0,0,0.995,180.05,-38.4)" token="99" class="shape"><path d="M 265 161.85q0 -2.25 -1.55 -3.8q-1.6 -1.6 -3.8 -1.6q-2.25 0 -3.8 1.6q-1.6 1.55 -1.6 3.8q0 2.25 1.6 3.85q1.55 1.55 3.8 1.55q2.2 0 3.8 -1.55q1.55 -1.6 1.55 -3.85" fill="#5582b7" style=""></path></g><g transform="matrix(1.005,0,0,1,189.9,-29.35)" token="98" class="shape"><path d="M 265 161.85q0 -2.25 -1.55 -3.8q-1.6 -1.6 -3.8 -1.6q-2.25 0 -3.8 1.6q-1.6 1.55 -1.6 3.8q0 2.25 1.6 3.85q1.55 1.55 3.8 1.55q2.2 0 3.8 -1.55q1.55 -1.6 1.55 -3.85" fill="#5582b7" style=""></path></g><g transform="matrix(1.005,0,0,1,180.05,-19.55)" token="97" class="shape"><path d="M 265 161.85q0 -2.25 -1.55 -3.8q-1.6 -1.6 -3.8 -1.6q-2.25 0 -3.8 1.6q-1.6 1.55 -1.6 3.8q0 2.25 1.6 3.85q1.55 1.55 3.8 1.55q2.2 0 3.8 -1.55q1.55 -1.6 1.55 -3.85" fill="#5582b7" style=""></path></g><g transform="matrix(1.005,0,0,0.995,189.9,-9.05)" token="96" class="shape"><path d="M 265 161.85q0 -2.25 -1.55 -3.8q-1.6 -1.6 -3.8 -1.6q-2.25 0 -3.8 1.6q-1.6 1.55 -1.6 3.8q0 2.25 1.6 3.85q1.55 1.55 3.8 1.55q2.2 0 3.8 -1.55q1.55 -1.6 1.55 -3.85" fill="#5582b7" style=""></path></g><g transform="matrix(1.005,0,0,1,180.05,0)" token="95" class="shape"><path d="M 265 161.85q0 -2.25 -1.55 -3.8q-1.6 -1.6 -3.8 -1.6q-2.25 0 -3.8 1.6q-1.6 1.55 -1.6 3.8q0 2.25 1.6 3.85q1.55 1.55 3.8 1.55q2.2 0 3.8 -1.55q1.55 -1.6 1.55 -3.85" fill="#5582b7" style=""></path></g><g transform="matrix(1.005,0,0,1,199.65,-136.9)" token="94" class="shape"><path d="M 265 161.85q0 -2.25 -1.55 -3.8q-1.6 -1.6 -3.8 -1.6q-2.25 0 -3.8 1.6q-1.6 1.55 -1.6 3.8q0 2.25 1.6 3.85q1.55 1.55 3.8 1.55q2.2 0 3.8 -1.55q1.55 -1.6 1.55 -3.85" fill="#5582b7" style=""></path></g><g transform="matrix(1.005,0,0,1,209.5,-127.1)" token="93" class="shape"><path d="M 265 161.85q0 -2.25 -1.55 -3.8q-1.6 -1.6 -3.8 -1.6q-2.25 0 -3.8 1.6q-1.6 1.55 -1.6 3.8q0 2.25 1.6 3.85q1.55 1.55 3.8 1.55q2.2 0 3.8 -1.55q1.55 -1.6 1.55 -3.85" fill="#5582b7" style=""></path></g><g transform="matrix(1.005,0,0,0.995,199.65,-116.6)" token="92" class="shape"><path d="M 265 161.85q0 -2.25 -1.55 -3.8q-1.6 -1.6 -3.8 -1.6q-2.25 0 -3.8 1.6q-1.6 1.55 -1.6 3.8q0 2.25 1.6 3.85q1.55 1.55 3.8 1.55q2.2 0 3.8 -1.55q1.55 -1.6 1.55 -3.85" fill="#5582b7" style=""></path></g><g transform="matrix(1.005,0,0,1,209.5,-107.55)" token="91" class="shape"><path d="M 265 161.85q0 -2.25 -1.55 -3.8q-1.6 -1.6 -3.8 -1.6q-2.25 0 -3.8 1.6q-1.6 1.55 -1.6 3.8q0 2.25 1.6 3.85q1.55 1.55 3.8 1.55q2.2 0 3.8 -1.55q1.55 -1.6 1.55 -3.85" fill="#5582b7" style=""></path></g><g transform="matrix(1.005,0,0,1,199.65,-97.75)" token="90" class="shape"><path d="M 265 161.85q0 -2.25 -1.55 -3.8q-1.6 -1.6 -3.8 -1.6q-2.25 0 -3.8 1.6q-1.6 1.55 -1.6 3.8q0 2.25 1.6 3.85q1.55 1.55 3.8 1.55q2.2 0 3.8 -1.55q1.55 -1.6 1.55 -3.85" fill="#5582b7" style=""></path></g><g transform="matrix(1.005,0,0,0.995,209.5,-87.25)" token="89" class="shape"><path d="M 265 161.85q0 -2.25 -1.55 -3.8q-1.6 -1.6 -3.8 -1.6q-2.25 0 -3.8 1.6q-1.6 1.55 -1.6 3.8q0 2.25 1.6 3.85q1.55 1.55 3.8 1.55q2.2 0 3.8 -1.55q1.55 -1.6 1.55 -3.85" fill="#5582b7" style=""></path></g><g transform="matrix(1.005,0,0,0.995,199.65,-77.5)" token="88" class="shape"><path d="M 265 161.85q0 -2.25 -1.55 -3.8q-1.6 -1.6 -3.8 -1.6q-2.25 0 -3.8 1.6q-1.6 1.55 -1.6 3.8q0 2.25 1.6 3.85q1.55 1.55 3.8 1.55q2.2 0 3.8 -1.55q1.55 -1.6 1.55 -3.85" fill="#5582b7" style=""></path></g><g transform="matrix(1.005,0,0,1,209.5,-68.45)" token="87" class="shape"><path d="M 265 161.85q0 -2.25 -1.55 -3.8q-1.6 -1.6 -3.8 -1.6q-2.25 0 -3.8 1.6q-1.6 1.55 -1.6 3.8q0 2.25 1.6 3.85q1.55 1.55 3.8 1.55q2.2 0 3.8 -1.55q1.55 -1.6 1.55 -3.85" fill="#5582b7" style=""></path></g><g transform="matrix(1.005,0,0,1,199.65,-58.7)" token="86" class="shape"><path d="M 265 161.85q0 -2.25 -1.55 -3.8q-1.6 -1.6 -3.8 -1.6q-2.25 0 -3.8 1.6q-1.6 1.55 -1.6 3.8q0 2.25 1.6 3.85q1.55 1.55 3.8 1.55q2.2 0 3.8 -1.55q1.55 -1.6 1.55 -3.85" fill="#5582b7" style=""></path></g><g transform="matrix(1.005,0,0,1,209.5,-48.9)" token="85" class="shape"><path d="M 265 161.85q0 -2.25 -1.55 -3.8q-1.6 -1.6 -3.8 -1.6q-2.25 0 -3.8 1.6q-1.6 1.55 -1.6 3.8q0 2.25 1.6 3.85q1.55 1.55 3.8 1.55q2.2 0 3.8 -1.55q1.55 -1.6 1.55 -3.85" fill="#5582b7" style=""></path></g><g transform="matrix(1.005,0,0,0.995,199.65,-38.4)" token="84" class="shape"><path d="M 265 161.85q0 -2.25 -1.55 -3.8q-1.6 -1.6 -3.8 -1.6q-2.25 0 -3.8 1.6q-1.6 1.55 -1.6 3.8q0 2.25 1.6 3.85q1.55 1.55 3.8 1.55q2.2 0 3.8 -1.55q1.55 -1.6 1.55 -3.85" fill="#5582b7" style=""></path></g><g transform="matrix(1.005,0,0,1,209.5,-29.35)" token="83" class="shape"><path d="M 265 161.85q0 -2.25 -1.55 -3.8q-1.6 -1.6 -3.8 -1.6q-2.25 0 -3.8 1.6q-1.6 1.55 -1.6 3.8q0 2.25 1.6 3.85q1.55 1.55 3.8 1.55q2.2 0 3.8 -1.55q1.55 -1.6 1.55 -3.85" fill="#5582b7" style=""></path></g><g transform="matrix(1.005,0,0,1,199.65,-19.55)" token="82" class="shape"><path d="M 265 161.85q0 -2.25 -1.55 -3.8q-1.6 -1.6 -3.8 -1.6q-2.25 0 -3.8 1.6q-1.6 1.55 -1.6 3.8q0 2.25 1.6 3.85q1.55 1.55 3.8 1.55q2.2 0 3.8 -1.55q1.55 -1.6 1.55 -3.85" fill="#5582b7" style=""></path></g><g transform="matrix(1.005,0,0,0.995,209.5,-9.05)" token="81" class="shape"><path d="M 265 161.85q0 -2.25 -1.55 -3.8q-1.6 -1.6 -3.8 -1.6q-2.25 0 -3.8 1.6q-1.6 1.55 -1.6 3.8q0 2.25 1.6 3.85q1.55 1.55 3.8 1.55q2.2 0 3.8 -1.55q1.55 -1.6 1.55 -3.85" fill="#5582b7" style=""></path></g><g transform="matrix(1.005,0,0,1,199.65,0)" token="80" class="shape"><path d="M 265 161.85q0 -2.25 -1.55 -3.8q-1.6 -1.6 -3.8 -1.6q-2.25 0 -3.8 1.6q-1.6 1.55 -1.6 3.8q0 2.25 1.6 3.85q1.55 1.55 3.8 1.55q2.2 0 3.8 -1.55q1.55 -1.6 1.55 -3.85" fill="#5582b7" style=""></path></g><g transform="matrix(1.005,0,0,1,219.35,-136.9)" token="79" class="shape"><path d="M 265 161.85q0 -2.25 -1.55 -3.8q-1.6 -1.6 -3.8 -1.6q-2.25 0 -3.8 1.6q-1.6 1.55 -1.6 3.8q0 2.25 1.6 3.85q1.55 1.55 3.8 1.55q2.2 0 3.8 -1.55q1.55 -1.6 1.55 -3.85" fill="#5582b7" style=""></path></g><g transform="matrix(1,0,0,1,230.4,-127.1)" token="78" class="shape"><path d="M 265 161.85q0 -2.25 -1.55 -3.8q-1.6 -1.6 -3.8 -1.6q-2.25 0 -3.8 1.6q-1.6 1.55 -1.6 3.8q0 2.25 1.6 3.85q1.55 1.55 3.8 1.55q2.2 0 3.8 -1.55q1.55 -1.6 1.55 -3.85" fill="#5582b7" style=""></path></g><g transform="matrix(1.005,0,0,0.995,219.35,-116.6)" token="77" class="shape"><path d="M 265 161.85q0 -2.25 -1.55 -3.8q-1.6 -1.6 -3.8 -1.6q-2.25 0 -3.8 1.6q-1.6 1.55 -1.6 3.8q0 2.25 1.6 3.85q1.55 1.55 3.8 1.55q2.2 0 3.8 -1.55q1.55 -1.6 1.55 -3.85" fill="#5582b7" style=""></path></g><g transform="matrix(1,0,0,1,230.4,-107.55)" token="76" class="shape"><path d="M 265 161.85q0 -2.25 -1.55 -3.8q-1.6 -1.6 -3.8 -1.6q-2.25 0 -3.8 1.6q-1.6 1.55 -1.6 3.8q0 2.25 1.6 3.85q1.55 1.55 3.8 1.55q2.2 0 3.8 -1.55q1.55 -1.6 1.55 -3.85" fill="#5582b7" style=""></path></g><g transform="matrix(1.005,0,0,1,219.35,-97.75)" token="75" class="shape"><path d="M 265 161.85q0 -2.25 -1.55 -3.8q-1.6 -1.6 -3.8 -1.6q-2.25 0 -3.8 1.6q-1.6 1.55 -1.6 3.8q0 2.25 1.6 3.85q1.55 1.55 3.8 1.55q2.2 0 3.8 -1.55q1.55 -1.6 1.55 -3.85" fill="#5582b7" style=""></path></g><g transform="matrix(1,0,0,0.995,230.4,-87.25)" token="74" class="shape"><path d="M 265 161.85q0 -2.25 -1.55 -3.8q-1.6 -1.6 -3.8 -1.6q-2.25 0 -3.8 1.6q-1.6 1.55 -1.6 3.8q0 2.25 1.6 3.85q1.55 1.55 3.8 1.55q2.2 0 3.8 -1.55q1.55 -1.6 1.55 -3.85" fill="#5582b7" style=""></path></g><g transform="matrix(1.005,0,0,0.995,219.35,-77.5)" token="73" class="shape"><path d="M 265 161.85q0 -2.25 -1.55 -3.8q-1.6 -1.6 -3.8 -1.6q-2.25 0 -3.8 1.6q-1.6 1.55 -1.6 3.8q0 2.25 1.6 3.85q1.55 1.55 3.8 1.55q2.2 0 3.8 -1.55q1.55 -1.6 1.55 -3.85" fill="#5582b7" style=""></path></g><g transform="matrix(1,0,0,1,230.4,-68.45)" token="72" class="shape"><path d="M 265 161.85q0 -2.25 -1.55 -3.8q-1.6 -1.6 -3.8 -1.6q-2.25 0 -3.8 1.6q-1.6 1.55 -1.6 3.8q0 2.25 1.6 3.85q1.55 1.55 3.8 1.55q2.2 0 3.8 -1.55q1.55 -1.6 1.55 -3.85" fill="#5582b7" style=""></path></g><g transform="matrix(1.005,0,0,1,219.35,-58.7)" token="71" class="shape"><path d="M 265 161.85q0 -2.25 -1.55 -3.8q-1.6 -1.6 -3.8 -1.6q-2.25 0 -3.8 1.6q-1.6 1.55 -1.6 3.8q0 2.25 1.6 3.85q1.55 1.55 3.8 1.55q2.2 0 3.8 -1.55q1.55 -1.6 1.55 -3.85" fill="#5582b7" style=""></path></g><g transform="matrix(1,0,0,1,230.4,-48.9)" token="70" class="shape"><path d="M 265 161.85q0 -2.25 -1.55 -3.8q-1.6 -1.6 -3.8 -1.6q-2.25 0 -3.8 1.6q-1.6 1.55 -1.6 3.8q0 2.25 1.6 3.85q1.55 1.55 3.8 1.55q2.2 0 3.8 -1.55q1.55 -1.6 1.55 -3.85" fill="#5582b7" style=""></path></g><g transform="matrix(1.005,0,0,0.995,219.35,-38.4)" token="69" class="shape"><path d="M 265 161.85q0 -2.25 -1.55 -3.8q-1.6 -1.6 -3.8 -1.6q-2.25 0 -3.8 1.6q-1.6 1.55 -1.6 3.8q0 2.25 1.6 3.85q1.55 1.55 3.8 1.55q2.2 0 3.8 -1.55q1.55 -1.6 1.55 -3.85" fill="#5582b7" style=""></path></g><g transform="matrix(1,0,0,1,230.4,-29.35)" token="68" class="shape"><path d="M 265 161.85q0 -2.25 -1.55 -3.8q-1.6 -1.6 -3.8 -1.6q-2.25 0 -3.8 1.6q-1.6 1.55 -1.6 3.8q0 2.25 1.6 3.85q1.55 1.55 3.8 1.55q2.2 0 3.8 -1.55q1.55 -1.6 1.55 -3.85" fill="#5582b7" style=""></path></g><g transform="matrix(1.005,0,0,1,219.35,-19.55)" token="67" class="shape"><path d="M 265 161.85q0 -2.25 -1.55 -3.8q-1.6 -1.6 -3.8 -1.6q-2.25 0 -3.8 1.6q-1.6 1.55 -1.6 3.8q0 2.25 1.6 3.85q1.55 1.55 3.8 1.55q2.2 0 3.8 -1.55q1.55 -1.6 1.55 -3.85" fill="#5582b7" style=""></path></g><g transform="matrix(1,0,0,0.995,230.4,-9.05)" token="66" class="shape"><path d="M 265 161.85q0 -2.25 -1.55 -3.8q-1.6 -1.6 -3.8 -1.6q-2.25 0 -3.8 1.6q-1.6 1.55 -1.6 3.8q0 2.25 1.6 3.85q1.55 1.55 3.8 1.55q2.2 0 3.8 -1.55q1.55 -1.6 1.55 -3.85" fill="#5582b7" style=""></path></g><g transform="matrix(1.005,0,0,1,219.35,0)" token="65" class="shape"><path d="M 265 161.85q0 -2.25 -1.55 -3.8q-1.6 -1.6 -3.8 -1.6q-2.25 0 -3.8 1.6q-1.6 1.55 -1.6 3.8q0 2.25 1.6 3.85q1.55 1.55 3.8 1.55q2.2 0 3.8 -1.55q1.55 -1.6 1.55 -3.85" fill="#5582b7" style=""></path></g><g transform="matrix(1.005,0,0,1,238.95,-136.9)" token="64" class="shape"><path d="M 265 161.85q0 -2.25 -1.55 -3.8q-1.6 -1.6 -3.8 -1.6q-2.25 0 -3.8 1.6q-1.6 1.55 -1.6 3.8q0 2.25 1.6 3.85q1.55 1.55 3.8 1.55q2.2 0 3.8 -1.55q1.55 -1.6 1.55 -3.85" fill="#5582b7" style=""></path></g><g transform="matrix(1.005,0,0,1,248.8,-127.1)" token="63" class="shape"><path d="M 265 161.85q0 -2.25 -1.55 -3.8q-1.6 -1.6 -3.8 -1.6q-2.25 0 -3.8 1.6q-1.6 1.55 -1.6 3.8q0 2.25 1.6 3.85q1.55 1.55 3.8 1.55q2.2 0 3.8 -1.55q1.55 -1.6 1.55 -3.85" fill="#5582b7" style=""></path></g><g transform="matrix(1.005,0,0,0.995,238.95,-116.6)" token="62" class="shape"><path d="M 265 161.85q0 -2.25 -1.55 -3.8q-1.6 -1.6 -3.8 -1.6q-2.25 0 -3.8 1.6q-1.6 1.55 -1.6 3.8q0 2.25 1.6 3.85q1.55 1.55 3.8 1.55q2.2 0 3.8 -1.55q1.55 -1.6 1.55 -3.85" fill="#5582b7" style=""></path></g><g transform="matrix(1.005,0,0,1,248.8,-107.55)" token="61" class="shape"><path d="M 265 161.85q0 -2.25 -1.55 -3.8q-1.6 -1.6 -3.8 -1.6q-2.25 0 -3.8 1.6q-1.6 1.55 -1.6 3.8q0 2.25 1.6 3.85q1.55 1.55 3.8 1.55q2.2 0 3.8 -1.55q1.55 -1.6 1.55 -3.85" fill="#5582b7" style=""></path></g><g transform="matrix(1.005,0,0,1,238.95,-97.75)" token="60" class="shape"><path d="M 265 161.85q0 -2.25 -1.55 -3.8q-1.6 -1.6 -3.8 -1.6q-2.25 0 -3.8 1.6q-1.6 1.55 -1.6 3.8q0 2.25 1.6 3.85q1.55 1.55 3.8 1.55q2.2 0 3.8 -1.55q1.55 -1.6 1.55 -3.85" fill="#5582b7" style=""></path></g><g transform="matrix(1.005,0,0,0.995,248.8,-87.25)" token="59" class="shape"><path d="M 265 161.85q0 -2.25 -1.55 -3.8q-1.6 -1.6 -3.8 -1.6q-2.25 0 -3.8 1.6q-1.6 1.55 -1.6 3.8q0 2.25 1.6 3.85q1.55 1.55 3.8 1.55q2.2 0 3.8 -1.55q1.55 -1.6 1.55 -3.85" fill="#5582b7" style=""></path></g><g transform="matrix(1.005,0,0,0.995,238.95,-77.5)" token="58" class="shape"><path d="M 265 161.85q0 -2.25 -1.55 -3.8q-1.6 -1.6 -3.8 -1.6q-2.25 0 -3.8 1.6q-1.6 1.55 -1.6 3.8q0 2.25 1.6 3.85q1.55 1.55 3.8 1.55q2.2 0 3.8 -1.55q1.55 -1.6 1.55 -3.85" fill="#5582b7" style=""></path></g><g transform="matrix(1.005,0,0,1,248.8,-68.45)" token="57" class="shape"><path d="M 265 161.85q0 -2.25 -1.55 -3.8q-1.6 -1.6 -3.8 -1.6q-2.25 0 -3.8 1.6q-1.6 1.55 -1.6 3.8q0 2.25 1.6 3.85q1.55 1.55 3.8 1.55q2.2 0 3.8 -1.55q1.55 -1.6 1.55 -3.85" fill="#5582b7" style=""></path></g><g transform="matrix(1.005,0,0,1,238.95,-58.7)" token="56" class="shape"><path d="M 265 161.85q0 -2.25 -1.55 -3.8q-1.6 -1.6 -3.8 -1.6q-2.25 0 -3.8 1.6q-1.6 1.55 -1.6 3.8q0 2.25 1.6 3.85q1.55 1.55 3.8 1.55q2.2 0 3.8 -1.55q1.55 -1.6 1.55 -3.85" fill="#5582b7" style=""></path></g><g transform="matrix(1.005,0,0,1,248.8,-48.9)" token="55" class="shape"><path d="M 265 161.85q0 -2.25 -1.55 -3.8q-1.6 -1.6 -3.8 -1.6q-2.25 0 -3.8 1.6q-1.6 1.55 -1.6 3.8q0 2.25 1.6 3.85q1.55 1.55 3.8 1.55q2.2 0 3.8 -1.55q1.55 -1.6 1.55 -3.85" fill="#5582b7" style=""></path></g><g transform="matrix(1.005,0,0,0.995,238.95,-38.4)" token="54" class="shape"><path d="M 265 161.85q0 -2.25 -1.55 -3.8q-1.6 -1.6 -3.8 -1.6q-2.25 0 -3.8 1.6q-1.6 1.55 -1.6 3.8q0 2.25 1.6 3.85q1.55 1.55 3.8 1.55q2.2 0 3.8 -1.55q1.55 -1.6 1.55 -3.85" fill="#5582b7" style=""></path></g><g transform="matrix(1.005,0,0,1,248.8,-29.35)" token="53" class="shape"><path d="M 265 161.85q0 -2.25 -1.55 -3.8q-1.6 -1.6 -3.8 -1.6q-2.25 0 -3.8 1.6q-1.6 1.55 -1.6 3.8q0 2.25 1.6 3.85q1.55 1.55 3.8 1.55q2.2 0 3.8 -1.55q1.55 -1.6 1.55 -3.85" fill="#5582b7" style=""></path></g><g transform="matrix(1.005,0,0,1,238.95,-19.55)" token="52" class="shape"><path d="M 265 161.85q0 -2.25 -1.55 -3.8q-1.6 -1.6 -3.8 -1.6q-2.25 0 -3.8 1.6q-1.6 1.55 -1.6 3.8q0 2.25 1.6 3.85q1.55 1.55 3.8 1.55q2.2 0 3.8 -1.55q1.55 -1.6 1.55 -3.85" fill="#5582b7" style=""></path></g><g transform="matrix(1.005,0,0,0.995,248.8,-9.05)" token="51" class="shape"><path d="M 265 161.85q0 -2.25 -1.55 -3.8q-1.6 -1.6 -3.8 -1.6q-2.25 0 -3.8 1.6q-1.6 1.55 -1.6 3.8q0 2.25 1.6 3.85q1.55 1.55 3.8 1.55q2.2 0 3.8 -1.55q1.55 -1.6 1.55 -3.85" fill="#5582b7" style=""></path></g><g transform="matrix(1.005,0,0,1,238.95,0)" token="50" class="shape"><path d="M 265 161.85q0 -2.25 -1.55 -3.8q-1.6 -1.6 -3.8 -1.6q-2.25 0 -3.8 1.6q-1.6 1.55 -1.6 3.8q0 2.25 1.6 3.85q1.55 1.55 3.8 1.55q2.2 0 3.8 -1.55q1.55 -1.6 1.55 -3.85" fill="#5582b7" style=""></path></g><g transform="matrix(1.005,0,0,1,258.85,-136.9)" token="49" class="shape"><path d="M 265 161.85q0 -2.25 -1.55 -3.8q-1.6 -1.6 -3.8 -1.6q-2.25 0 -3.8 1.6q-1.6 1.55 -1.6 3.8q0 2.25 1.6 3.85q1.55 1.55 3.8 1.55q2.2 0 3.8 -1.55q1.55 -1.6 1.55 -3.85" fill="#5582b7" style=""></path></g><g transform="matrix(1.005,0,0,1,268.7,-127.1)" token="48" class="shape"><path d="M 265 161.85q0 -2.25 -1.55 -3.8q-1.6 -1.6 -3.8 -1.6q-2.25 0 -3.8 1.6q-1.6 1.55 -1.6 3.8q0 2.25 1.6 3.85q1.55 1.55 3.8 1.55q2.2 0 3.8 -1.55q1.55 -1.6 1.55 -3.85" fill="#5582b7" style=""></path></g><g transform="matrix(1.005,0,0,0.995,258.85,-116.6)" token="47" class="shape"><path d="M 265 161.85q0 -2.25 -1.55 -3.8q-1.6 -1.6 -3.8 -1.6q-2.25 0 -3.8 1.6q-1.6 1.55 -1.6 3.8q0 2.25 1.6 3.85q1.55 1.55 3.8 1.55q2.2 0 3.8 -1.55q1.55 -1.6 1.55 -3.85" fill="#5582b7" style=""></path></g><g transform="matrix(1.005,0,0,1,268.7,-107.55)" token="46" class="shape"><path d="M 265 161.85q0 -2.25 -1.55 -3.8q-1.6 -1.6 -3.8 -1.6q-2.25 0 -3.8 1.6q-1.6 1.55 -1.6 3.8q0 2.25 1.6 3.85q1.55 1.55 3.8 1.55q2.2 0 3.8 -1.55q1.55 -1.6 1.55 -3.85" fill="#5582b7" style=""></path></g><g transform="matrix(1.005,0,0,1,258.85,-97.75)" token="45" class="shape"><path d="M 265 161.85q0 -2.25 -1.55 -3.8q-1.6 -1.6 -3.8 -1.6q-2.25 0 -3.8 1.6q-1.6 1.55 -1.6 3.8q0 2.25 1.6 3.85q1.55 1.55 3.8 1.55q2.2 0 3.8 -1.55q1.55 -1.6 1.55 -3.85" fill="#5582b7" style=""></path></g><g transform="matrix(1.005,0,0,0.995,268.7,-87.25)" token="44" class="shape"><path d="M 265 161.85q0 -2.25 -1.55 -3.8q-1.6 -1.6 -3.8 -1.6q-2.25 0 -3.8 1.6q-1.6 1.55 -1.6 3.8q0 2.25 1.6 3.85q1.55 1.55 3.8 1.55q2.2 0 3.8 -1.55q1.55 -1.6 1.55 -3.85" fill="#5582b7" style=""></path></g><g transform="matrix(1.005,0,0,0.995,258.85,-77.5)" token="43" class="shape"><path d="M 265 161.85q0 -2.25 -1.55 -3.8q-1.6 -1.6 -3.8 -1.6q-2.25 0 -3.8 1.6q-1.6 1.55 -1.6 3.8q0 2.25 1.6 3.85q1.55 1.55 3.8 1.55q2.2 0 3.8 -1.55q1.55 -1.6 1.55 -3.85" fill="#5582b7" style=""></path></g><g transform="matrix(1.005,0,0,1,268.7,-68.45)" token="42" class="shape"><path d="M 265 161.85q0 -2.25 -1.55 -3.8q-1.6 -1.6 -3.8 -1.6q-2.25 0 -3.8 1.6q-1.6 1.55 -1.6 3.8q0 2.25 1.6 3.85q1.55 1.55 3.8 1.55q2.2 0 3.8 -1.55q1.55 -1.6 1.55 -3.85" fill="#5582b7" style=""></path></g><g transform="matrix(1.005,0,0,1,258.85,-58.7)" token="41" class="shape"><path d="M 265 161.85q0 -2.25 -1.55 -3.8q-1.6 -1.6 -3.8 -1.6q-2.25 0 -3.8 1.6q-1.6 1.55 -1.6 3.8q0 2.25 1.6 3.85q1.55 1.55 3.8 1.55q2.2 0 3.8 -1.55q1.55 -1.6 1.55 -3.85" fill="#5582b7" style=""></path></g><g transform="matrix(1.005,0,0,1,268.7,-48.9)" token="40" class="shape"><path d="M 265 161.85q0 -2.25 -1.55 -3.8q-1.6 -1.6 -3.8 -1.6q-2.25 0 -3.8 1.6q-1.6 1.55 -1.6 3.8q0 2.25 1.6 3.85q1.55 1.55 3.8 1.55q2.2 0 3.8 -1.55q1.55 -1.6 1.55 -3.85" fill="#5582b7" style=""></path></g><g transform="matrix(1.005,0,0,0.995,258.85,-38.4)" token="39" class="shape"><path d="M 265 161.85q0 -2.25 -1.55 -3.8q-1.6 -1.6 -3.8 -1.6q-2.25 0 -3.8 1.6q-1.6 1.55 -1.6 3.8q0 2.25 1.6 3.85q1.55 1.55 3.8 1.55q2.2 0 3.8 -1.55q1.55 -1.6 1.55 -3.85" fill="#5582b7" style=""></path></g><g transform="matrix(1.005,0,0,1,268.7,-29.35)" token="38" class="shape"><path d="M 265 161.85q0 -2.25 -1.55 -3.8q-1.6 -1.6 -3.8 -1.6q-2.25 0 -3.8 1.6q-1.6 1.55 -1.6 3.8q0 2.25 1.6 3.85q1.55 1.55 3.8 1.55q2.2 0 3.8 -1.55q1.55 -1.6 1.55 -3.85" fill="#5582b7" style=""></path></g><g transform="matrix(1.005,0,0,1,258.85,-19.55)" token="37" class="shape"><path d="M 265 161.85q0 -2.25 -1.55 -3.8q-1.6 -1.6 -3.8 -1.6q-2.25 0 -3.8 1.6q-1.6 1.55 -1.6 3.8q0 2.25 1.6 3.85q1.55 1.55 3.8 1.55q2.2 0 3.8 -1.55q1.55 -1.6 1.55 -3.85" fill="#5582b7" style=""></path></g><g transform="matrix(1.005,0,0,0.995,268.7,-9.05)" token="36" class="shape"><path d="M 265 161.85q0 -2.25 -1.55 -3.8q-1.6 -1.6 -3.8 -1.6q-2.25 0 -3.8 1.6q-1.6 1.55 -1.6 3.8q0 2.25 1.6 3.85q1.55 1.55 3.8 1.55q2.2 0 3.8 -1.55q1.55 -1.6 1.55 -3.85" fill="#5582b7" style=""></path></g><g transform="matrix(1.005,0,0,1,258.85,0)" token="35" class="shape"><path d="M 265 161.85q0 -2.25 -1.55 -3.8q-1.6 -1.6 -3.8 -1.6q-2.25 0 -3.8 1.6q-1.6 1.55 -1.6 3.8q0 2.25 1.6 3.85q1.55 1.55 3.8 1.55q2.2 0 3.8 -1.55q1.55 -1.6 1.55 -3.85" fill="#5582b7" style=""></path></g><g transform="matrix(1.005,0,0,1,278.5,-136.9)" token="34" class="shape"><path d="M 265 161.85q0 -2.25 -1.55 -3.8q-1.6 -1.6 -3.8 -1.6q-2.25 0 -3.8 1.6q-1.6 1.55 -1.6 3.8q0 2.25 1.6 3.85q1.55 1.55 3.8 1.55q2.2 0 3.8 -1.55q1.55 -1.6 1.55 -3.85" fill="#5582b7" style=""></path></g><g transform="matrix(1.005,0,0,0.995,278.5,-116.6)" token="33" class="shape"><path d="M 265 161.85q0 -2.25 -1.55 -3.8q-1.6 -1.6 -3.8 -1.6q-2.25 0 -3.8 1.6q-1.6 1.55 -1.6 3.8q0 2.25 1.6 3.85q1.55 1.55 3.8 1.55q2.2 0 3.8 -1.55q1.55 -1.6 1.55 -3.85" fill="#5582b7" style=""></path></g><g transform="matrix(1.005,0,0,1,278.5,-97.75)" token="32" class="shape"><path d="M 265 161.85q0 -2.25 -1.55 -3.8q-1.6 -1.6 -3.8 -1.6q-2.25 0 -3.8 1.6q-1.6 1.55 -1.6 3.8q0 2.25 1.6 3.85q1.55 1.55 3.8 1.55q2.2 0 3.8 -1.55q1.55 -1.6 1.55 -3.85" fill="#5582b7" style=""></path></g><g transform="matrix(1.005,0,0,0.995,278.5,-77.5)" token="31" class="shape"><path d="M 265 161.85q0 -2.25 -1.55 -3.8q-1.6 -1.6 -3.8 -1.6q-2.25 0 -3.8 1.6q-1.6 1.55 -1.6 3.8q0 2.25 1.6 3.85q1.55 1.55 3.8 1.55q2.2 0 3.8 -1.55q1.55 -1.6 1.55 -3.85" fill="#5582b7" style=""></path></g><g transform="matrix(1.005,0,0,1,278.5,-58.7)" token="30" class="shape"><path d="M 265 161.85q0 -2.25 -1.55 -3.8q-1.6 -1.6 -3.8 -1.6q-2.25 0 -3.8 1.6q-1.6 1.55 -1.6 3.8q0 2.25 1.6 3.85q1.55 1.55 3.8 1.55q2.2 0 3.8 -1.55q1.55 -1.6 1.55 -3.85" fill="#5582b7" style=""></path></g><g transform="matrix(1.005,0,0,0.995,278.5,-38.4)" token="29" class="shape"><path d="M 265 161.85q0 -2.25 -1.55 -3.8q-1.6 -1.6 -3.8 -1.6q-2.25 0 -3.8 1.6q-1.6 1.55 -1.6 3.8q0 2.25 1.6 3.85q1.55 1.55 3.8 1.55q2.2 0 3.8 -1.55q1.55 -1.6 1.55 -3.85" fill="#5582b7" style=""></path></g><g transform="matrix(1.005,0,0,1,278.5,-19.55)" token="28" class="shape"><path d="M 265 161.85q0 -2.25 -1.55 -3.8q-1.6 -1.6 -3.8 -1.6q-2.25 0 -3.8 1.6q-1.6 1.55 -1.6 3.8q0 2.25 1.6 3.85q1.55 1.55 3.8 1.55q2.2 0 3.8 -1.55q1.55 -1.6 1.55 -3.85" fill="#5582b7" style=""></path></g><g transform="matrix(1.005,0,0,1,278.5,0)" token="27" class="shape"><path d="M 265 161.85q0 -2.25 -1.55 -3.8q-1.6 -1.6 -3.8 -1.6q-2.25 0 -3.8 1.6q-1.6 1.55 -1.6 3.8q0 2.25 1.6 3.85q1.55 1.55 3.8 1.55q2.2 0 3.8 -1.55q1.55 -1.6 1.55 -3.85" fill="#5582b7" style=""></path></g><g transform="matrix(0.96,0,0,0.96,19.2,3.3)" token="26" class="shape"><path d="M 539.1 9.25q0 -3.6 -2.05 -5.65q-2.05 -2.05 -5.65 -2.05l-24.15 0q-3.65 0 -5.65 2.05q-2.05 2.05 -2.05 5.65l0 56l-39.6 0l0 -56q0 -3.6 -2.05 -5.65q-2.05 -2.05 -5.65 -2.05l-24.15 0q-3.6 0 -5.65 2.05q-2.05 2.05 -2.05 5.65l0 147.6q0 3.65 2.05 5.7q2.05 2.05 5.65 2.05l24.15 0q3.6 0 5.65 -2.05q2.05 -2.05 2.05 -5.7l0 -58.85l39.6 0l0 58.85q0 3.65 2.05 5.7q2 2.05 5.65 2.05l24.15 0q3.6 0 5.65 -2.05q2.05 -2.05 2.05 -5.7l0 -147.6" fill="#f26163" style=""></path></g><g transform="matrix(1,0,0,1,-279.2,0)" token="25" class="shape"><path d="M 544.2 0.55l-10.5 0l-118.1 87.05l0 8.15l128.6 -94.75l0 -0.45" fill="#5582b7" style=""></path></g><g transform="matrix(1,0,0,1,-279.2,-39.5)" token="24" class="shape"><path d="M 544.2 60.4l0 -8.2l-128.6 94.8l0 8.15l128.6 -94.75" fill="#5582b7" style=""></path></g><g transform="matrix(1,0,0,1,-279.2,-19.7)" token="23" class="shape"><path d="M 544.2 60.4l0 -8.2l-128.6 94.8l0 8.15l128.6 -94.75" fill="#5582b7" style=""></path></g><g transform="matrix(1,0,0,1,-279.2,0)" token="22" class="shape"><path d="M 544.2 60.4l0 -8.2l-128.6 94.8l0 8.15l128.6 -94.75" fill="#5582b7" style=""></path></g><g transform="matrix(1,0,0,1,-279.2,0)" token="21" class="shape"><path d="M 437.35 0.55l-11.05 0l-10.7 7.9l0 8.15l21.75 -16.05" fill="#5582b7" style=""></path></g><g transform="matrix(1,0,0,1,-279.2,0)" token="20" class="shape"><path d="M 464.2 0.55l-11.05 0l-37.55 27.7l0 8.15l48.6 -35.85" fill="#5582b7" style=""></path></g><g transform="matrix(1,0,0,1,-279.2,0)" token="19" class="shape"><path d="M 415.6 48.05l0 8.15l75.45 -55.65l-11.05 0l-64.4 47.5" fill="#5582b7" style=""></path></g><g transform="matrix(1,0,0,1,-279.2,0)" token="18" class="shape"><path d="M 517.9 0.55l-11.05 0l-91.25 67.3l0 8.15l102.3 -75.45" fill="#5582b7" style=""></path></g><g transform="matrix(1,0,0,1,-279.2,0)" token="17" class="shape"><path d="M 544.2 80.15l0 -8.15l-128.5 94.7l11.05 0l117.45 -86.55" fill="#5582b7" style=""></path></g><g transform="matrix(1,0,0,1,-279.2,0)" token="16" class="shape"><path d="M 544.2 99.9l0 -8.15l-101.65 74.95l11.05 0l90.6 -66.8" fill="#5582b7" style=""></path></g><g transform="matrix(1,0,0,1,-279.2,0)" token="15" class="shape"><path d="M 544.2 119.7l0 -8.15l-74.8 55.15l11.05 0l63.75 -47" fill="#5582b7" style=""></path></g><g transform="matrix(1,0,0,1,-279.2,0)" token="14" class="shape"><path d="M 544.2 139.5l0 -8.15l-47.95 35.35l11.05 0l36.9 -27.2" fill="#5582b7" style=""></path></g><g transform="matrix(1,0,0,1,-279.2,0)" token="13" class="shape"><path d="M 544.2 159.3l0 -8.15l-21.1 15.55l11.05 0l10.05 -7.4" fill="#5582b7" style=""></path></g><g transform="matrix(0.996,0,0,1.005,0,-123.95)" token="12" class="shape"><path d="M 0 139.95l0 10.65l125.85 0l0 -10.65l-125.85 0" fill="#5582b7" style=""></path></g><g transform="matrix(0.994,0,0,0.995,0,-61.3)" token="11" class="shape"><path d="M 0 139.95l0 10.65l125.85 0l0 -10.65l-125.85 0" fill="#5582b7" style=""></path></g><g transform="matrix(1,0,0,1,0,0)" token="10" class="shape"><path d="M 0 139.95l0 10.65l125.85 0l0 -10.65l-125.85 0" fill="#5582b7" style=""></path></g><g transform="matrix(0.96,0,0,0.96,5.5,3.35)" token="9" class="shape"><path d="M 125.15 10.6q1.5 -3.7 0 -6.1q-1.55 -2.55 -5.8 -2.55l-29.9 0q-3.05 0 -5.4 1.45q-2.6 1.55 -3.3 4.35l-16.4 45.35l-18.35 -45.35q-1.35 -3.4 -3.6 -4.7q-1.85 -1.1 -5.05 -1.1l-28.95 0q-4.4 0 -6.15 2.55q-1.8 2.55 0.35 6.1l33.75 69.5l-34.75 76.2q-1.45 3.75 0 6.15q1.55 2.55 5.8 2.55l28 0q3.2 0 5.05 -1.1q2.3 -1.3 3.65 -4.7l20.25 -50.2l20.3 50.2q1.35 3.4 3.6 4.7q1.85 1.1 5.05 1.1l26.05 0q8.75 0 5.8 -8.7l-32.8 -76.2l32.8 -69.5" fill="#f26163" style=""></path></g><g transform="matrix(0.96,0,0,0.96,139.75,2.4)" token="8" class="shape"><path d="M 121.2 4.15q-2.05 -2.05 -5.7 -2.05l-23.15 0q-3.65 0 -5.65 2.05q-2.05 2.05 -2.05 5.65l0 103.2q0 11.2 -3.6 15.7q-4.45 5.55 -16.7 5.55q-12.2 0 -16.65 -5.55q-3.6 -4.5 -3.6 -15.7l0 -103.2q0 -3.6 -2.05 -5.65q-2.05 -2.05 -5.7 -2.05l-25.05 0q-3.65 0 -5.7 2.05q-2.05 2.05 -2.05 5.65l0 103.2q0 27.9 12.3 40.55q14.1 14.5 48.5 14.5q33.1 0 46.85 -14.5q12.05 -12.7 12.05 -40.55l0 -103.2q0 -3.6 -2.05 -5.65" fill="#f26163" style=""></path></g><g transform="matrix(0.97,0,0,0.97,554.2,3)" token="7" class="shape"><path d="M 104.3 4q-2.05 -2.05 -5.7 -2.05l-22.2 0q-3.15 0 -5.05 0.95q-2.25 1.15 -3.6 3.85l-57.9 93.6q-2.9 5.75 -2.9 9.65l0 14.45q0 3.65 2.05 5.7q2.05 2.05 5.65 2.05l53.1 0l0 25.05q0 3.65 2.05 5.7q2.05 2.05 5.65 2.05l23.15 0q3.65 0 5.7 -2.05q2.05 -2.05 2.05 -5.7l0 -25.05l5.8 0q3.6 0 5.65 -2.05q2.05 -2.05 2.05 -5.7l0 -17.35q0 -3.65 -2.05 -5.7q-2.05 -2.05 -5.65 -2.05l-5.8 0l0 -89.7q0 -3.6 -2.05 -5.65M 68.7 63.7l-0.95 9.65l0 26l-20.3 0l21.25 -35.65" fill="#f26163" style=""></path></g><g transform="matrix(0.97,0,0,0.97,279.85,3)" token="6" class="shape"><path d="M 117.9 44.9q0 -16.8 -11.45 -28.6q-14.4 -14.85 -42.55 -14.85q-28 0 -41.65 12.9q-13.4 12.7 -13.4 38.25q0 2.2 2.05 3.5q2.1 1.35 5.7 1.35l24.1 0q3.55 0 5.8 -2.05q2.15 -2 2.9 -5.7q0.65 -8.05 4.45 -12.05q3.25 -3.4 8.1 -3.4l1.95 0q6.7 0 10.45 4.45q4 4.75 4 13.9l0 2.9q0 4.65 -2.55 9.55q-1.95 3.8 -6.15 8.8l-56.95 64.6q-1.95 2.95 -2.65 4.45q-1.2 2.65 -1.2 5.2l0 9.65q0 3.65 2.05 5.7q2.05 2.05 5.7 2.05l93.6 0q3.65 0 5.65 -2.05q2.05 -2.05 2.05 -5.7l0 -17.35q0 -3.65 -2.05 -5.7q-2 -2.05 -5.65 -2.05l-46.3 0l35.7 -39.55q10.1 -10.8 13.85 -19.15q4.45 -9.8 4.45 -24.25l0 -4.8" fill="#f26163" style=""></path></g><g transform="matrix(0.96,0,0,0.96,833,3.3)" token="5" class="shape"><path d="M 85.95 9.65q0 -3.6 -2.05 -5.65q-2.05 -2.05 -5.65 -2.05l-17.4 0q-2.7 0 -4.7 0.7q-1.65 0.6 -4 2.2l-40.5 27.95q-3 2.25 -3.5 4.6q-0.55 2.5 1.55 6.05l9.65 15.45q2.1 3.45 5.45 3.85q3.1 0.35 6.15 -1.95l15.45 -11.55l0 82.95l-26.1 0q-3.6 0 -5.65 2.05q-2.05 2.05 -2.05 5.65l0 17.35q0 3.65 2.05 5.7q2.05 2.05 5.65 2.05l90.75 0q3.6 0 5.65 -2.05q2.05 -2.05 2.05 -5.7l0 -17.35q0 -3.6 -2.05 -5.65q-2.05 -2.05 -5.65 -2.05l-25.1 0l0 -122.55" fill="#f26163" style=""></path></g><g transform="matrix(0.96,0,0,0.96,696.85,3.3)" token="4" class="shape"><path d="M 117.9 42.45q0 -16.1 -11.45 -27.75q-14.5 -14.7 -42.55 -14.7q-29.35 0 -44.3 14.7q-11.7 11.55 -11.7 27.75l0 4.85q0 10.75 5.05 19.9q4.15 7.5 12.3 14.8q-17.35 12.15 -17.35 34.75l0 3.85q0 17.85 11.7 30.4q14.9 15.9 44.3 15.9q28.2 0 43.05 -15.9q11.95 -12.8 11.95 -30.4l0 -3.85q0 -11.8 -5.9 -21.35q-4.45 -7.2 -12.45 -13.4q8 -7.95 11.95 -14.8q5.4 -9.45 5.4 -19.9l0 -4.85M 46.5 48.25l0 -0.95q0 -6.35 4.95 -10.5q4.7 -4 11.45 -4l1 0q5.95 0 10.1 4q4.35 4.15 4.35 10.5l0 0.95q0 8.8 -3.25 12.55q-3.3 3.85 -11.2 3.85l-1 0q-7.6 0 -11.8 -3.85q-4.6 -4.2 -4.6 -12.55M 62.9 98.4l1 0q8.35 0 12.55 4q3.85 3.7 3.85 10.5l0 2.85q0 8.75 -5.3 13.9q-4.65 4.45 -11.1 4.45l-1 0q-7.15 0 -11.95 -4.45q-5.4 -5.05 -5.4 -13.9l0 -2.85q0 -6.4 5.05 -10.5q4.95 -4 12.3 -4" fill="#f26163" style=""></path></g><g transform="matrix(0.996,0,0,1.005,278,-123.95)" token="3" class="shape"><path d="M 0 139.95l0 10.65l125.85 0l0 -10.65l-125.85 0" fill="#5582b7" style=""></path></g><g transform="matrix(0.994,0,0,0.995,278,-61.3)" token="2" class="shape"><path d="M 0 139.95l0 10.65l125.85 0l0 -10.65l-125.85 0" fill="#5582b7" style=""></path></g><g transform="matrix(1,0,0,1,278,0)" token="1" class="shape"><path d="M 0 139.95l0 10.65l125.85 0l0 -10.65l-125.85 0" fill="#5582b7" style=""></path></g></g></svg>