<?xml version="1.0" encoding="UTF-8" standalone="no"?>
<svg width="19px" height="19px" viewBox="0 0 19 19" version="1.1" xmlns="http://www.w3.org/2000/svg" xmlns:xlink="http://www.w3.org/1999/xlink" xmlns:sketch="http://www.bohemiancoding.com/sketch/ns">
    <!-- Generator: Sketch 3.5.2 (25235) - http://www.bohemiancoding.com/sketch -->
    <title>Page 1</title>
    <desc>Created with Sketch.</desc>
    <defs>
        <path id="path-1" d="M0,0 L19,0 L19,19 L0,19 L0,0 Z"></path>
    </defs>
    <g id="Page-1" stroke="none" stroke-width="1" fill="none" fill-rule="evenodd" sketch:type="MSPage">
        <g id="Artboard-1" sketch:type="MSArtboardGroup">
            <g id="Page-1" sketch:type="MSLayerGroup">
                <mask id="mask-2" sketch:name="Clip 2" fill="white">
                    <use xlink:href="#path-1"></use>
                </mask>
                <g id="Clip-2"></g>
                <path d="M14.8121,13.7696 C14.8121,13.9646 14.6991,14.1016 14.5031,14.1016 C14.4021,14.1016 14.3071,14.0726 14.2241,14.0246 L11.6071,12.7186 L14.8121,7.5126 L14.8121,13.7696 Z M9.1731,8.4206 L11.0961,5.2926 C11.1621,5.1866 11.2801,5.1266 11.4051,5.1266 C11.4581,5.1266 11.5111,5.1386 11.5591,5.1636 L14.7701,6.7656 C14.7821,6.7716 14.7941,6.7836 14.7941,6.8006 C14.7941,6.8246 11.7251,11.8046 11.4881,12.1846 L9.1731,8.4206 Z M8.0981,10.9676 L8.0981,7.4066 L11.2681,12.5466 L8.0981,10.9676 Z M7.7181,13.7696 C7.7181,13.9536 7.6291,14.1246 7.4281,14.1246 C7.3571,14.1246 7.2911,14.1076 7.2321,14.0786 L4.4721,12.6956 C4.3051,12.6126 4.1751,12.3986 4.1751,12.2196 L4.1751,5.4536 C4.1751,5.3046 4.2471,5.1686 4.4071,5.1686 C4.5011,5.1686 4.5841,5.2156 4.6671,5.2576 L7.7011,6.7776 C7.7071,6.7836 7.7181,6.8006 7.7181,6.8066 L7.7181,13.7696 Z M9.5001,-0.0004 C4.2531,-0.0004 0.0001,4.2536 0.0001,9.4996 C0.0001,14.7466 4.2531,18.9996 9.5001,18.9996 C14.7471,18.9996 19.0001,14.7466 19.0001,9.4996 C19.0001,4.2536 14.7471,-0.0004 9.5001,-0.0004 L9.5001,-0.0004 Z" id="Fill-1" fill="#FEFEFE" sketch:type="MSShapeGroup" mask="url(#mask-2)"></path>
            </g>
        </g>
    </g>
</svg>