<?xml version="1.0" encoding="utf-8"?>
<!-- Generator: Adobe Illustrator 19.0.1, SVG Export Plug-In . SVG Version: 6.00 Build 0)  -->
<svg version="1.1" id="Layer_1" xmlns:sketch="http://www.bohemiancoding.com/sketch/ns"
	 xmlns="http://www.w3.org/2000/svg" xmlns:xlink="http://www.w3.org/1999/xlink" x="0px" y="0px" viewBox="-385 297 20 20"
	 style="enable-background:new -385 297 20 20;" xml:space="preserve">
<style type="text/css">
	.st0{fill:#FFFFFF;}
</style>
<path class="st0" d="M-375.7,297c-5.1,0-9.3,4.2-9.3,9.3c0,5.1,4.2,9.3,9.3,9.3c5.1,0,9.3-4.2,9.3-9.3
	C-366.4,301.2-370.5,297-375.7,297z M-377.7,306.3c0,0.1,0,0.1,0,0.2l3.6,2.1c0.3-0.2,0.7-0.3,1.2-0.3c0.6,0,1.1,0.2,1.4,0.6
	c0.4,0.4,0.6,0.9,0.6,1.4c0,0.6-0.2,1.1-0.6,1.4c-0.4,0.4-0.9,0.6-1.4,0.6c-0.6,0-1.1-0.2-1.4-0.6c-0.4-0.4-0.6-0.9-0.6-1.4
	c0-0.1,0-0.1,0-0.2l-3.6-2.1c-0.8,0.6-1.9,0.5-2.7-0.2c-0.4-0.4-0.6-0.9-0.6-1.5c0-0.6,0.2-1.1,0.6-1.5c0.7-0.7,1.9-0.8,2.7-0.2
	l3.6-2.1c0-0.1,0-0.2,0-0.2c0-0.6,0.2-1.1,0.6-1.5c0.8-0.8,2.1-0.8,2.9,0c0.4,0.4,0.6,0.9,0.6,1.5c0,0.6-0.2,1.1-0.6,1.5
	c-0.7,0.7-1.9,0.8-2.7,0.2l-3.6,2.1C-377.7,306.2-377.7,306.2-377.7,306.3z"/>
</svg>
