<?xml version="1.0" encoding="utf-8"?>
<!-- Generator: Adobe Illustrator 19.0.1, SVG Export Plug-In . SVG Version: 6.00 Build 0)  -->
<svg version="1.1" id="Layer_1" xmlns="http://www.w3.org/2000/svg" xmlns:xlink="http://www.w3.org/1999/xlink" x="0px" y="0px"
	 viewBox="0 0 959 540" enable-background="new 0 0 959 540" xml:space="preserve">
<g>
	<defs>
		<rect id="SVGID_1_" x="0.4" y="0.4" width="960" height="540"/>
	</defs>
	<clipPath id="SVGID_2_">
		<use xlink:href="#SVGID_1_"  overflow="visible"/>
	</clipPath>
	<g clip-path="url(#SVGID_2_)">
		<defs>
			<rect id="SVGID_3_" x="-196.5" y="-171.9" width="1636.6" height="914.1"/>
		</defs>
		<clipPath id="SVGID_4_">
			<use xlink:href="#SVGID_3_"  overflow="visible"/>
		</clipPath>
		<g clip-path="url(#SVGID_4_)">
			<polygon fill="#005189" points="500,-312.8 1440.1,953.3 1444.4,953.3 1444.4,850.3 580.9,-312.8 			"/>
			<polygon fill="#005189" points="303.7,-312.8 1243.8,953.3 1324.7,953.3 384.6,-312.8 			"/>
			<polygon fill="#005189" points="107.5,-312.8 1047.5,953.3 1128.4,953.3 188.3,-312.8 			"/>
			<polygon fill="#005189" points="-88.8,-312.8 851.3,953.3 932.1,953.3 -8,-312.8 			"/>
			<polygon fill="#005189" points="892.6,-312.8 1444.4,430.4 1444.4,321.6 973.4,-312.8 			"/>
			<polygon fill="#005189" points="696.3,-312.8 1444.4,694.8 1444.4,585.9 777.1,-312.8 			"/>
			<polygon fill="#005189" points="-203.4,-202.8 655,953.3 735.8,953.3 -203.4,-311.6 			"/>
			<polygon fill="#005189" points="-203.4,61.6 458.7,953.3 539.5,953.3 -203.4,-47.3 			"/>
			<polygon fill="#005189" points="-203.4,325.9 262.4,953.3 343.3,953.3 -203.4,217.1 			"/>
			<polygon fill="#005189" points="-203.4,590.3 66.1,953.3 147,953.3 -203.4,481.4 			"/>
		</g>
	</g>
</g>
</svg>
