<?xml version="1.0" encoding="utf-8"?>
<!-- Generator: Adobe Illustrator 19.0.1, SVG Export Plug-In . SVG Version: 6.00 Build 0)  -->
<svg version="1.1" id="Layer_1" xmlns="http://www.w3.org/2000/svg" xmlns:xlink="http://www.w3.org/1999/xlink" x="0px" y="0px"
	 viewBox="0 0 2040 1436" enable-background="new 0 0 2040 1436" xml:space="preserve">
<g>
	<polygon fill="#015289" points="1950.2,-0.1 1112.1,617.7 1112.1,617.3 1.7,1435.9 97.3,1435.9 929.4,822.5 929.4,822.8 
		2040.7,3.6 2040.7,-0.1 	"/>
	<polygon fill="#015289" points="929.4,138.6 1117.7,-0.1 1112.1,-0.1 1022.1,-0.1 1021.6,-0.1 0.7,752.4 0.7,822.8 929.4,138.3 	
		"/>
	<polygon fill="#015289" points="929.4,309.7 1349.7,-0.1 1254.1,-0.1 1112.1,104.6 1112.1,104.2 0.7,923.4 0.7,993.9 929.4,309.3 	
		"/>
	<polygon fill="#015289" points="929.4,480.7 1581.7,-0.1 1486.2,-0.1 1112.1,275.6 1112.1,275.3 0.7,1094.5 0.7,1164.9 
		929.4,480.4 	"/>
	<polygon fill="#015289" points="929.4,651.8 1813.8,-0.1 1718.2,-0.1 1112.1,446.7 1112.1,446.3 0.7,1265.5 0.7,1336 929.4,651.4 	
		"/>
	<polygon fill="#015289" points="1258,1435.9 2040.7,858.8 2040.7,788.4 1162.4,1435.9 	"/>
	<polygon fill="#015289" points="1490,1435.9 2040.7,1029.9 2040.7,959.4 1394.4,1435.9 	"/>
	<polygon fill="#015289" points="1722.1,1435.9 2040.7,1200.9 2040.7,1130.5 1626.5,1435.9 	"/>
	<polygon fill="#015289" points="1954.1,1435.9 2040.7,1372 2040.7,1301.5 1858.5,1435.9 	"/>
	<polygon fill="#015289" points="93.4,-0.1 0.7,68.2 0.7,138.6 189,-0.1 	"/>
	<polygon fill="#015289" points="325.5,-0.1 0.7,239.2 0.7,309.7 421,-0.1 	"/>
	<polygon fill="#015289" points="557.5,-0.1 0.7,410.3 0.7,480.7 653.1,-0.1 	"/>
	<polygon fill="#015289" points="789.5,-0.1 0.7,581.3 0.7,651.8 885.1,-0.1 	"/>
	<polygon fill="#015289" points="1112.1,788.4 233.8,1435.9 329.3,1435.9 929.4,993.5 929.4,993.9 2040.7,174.6 2040.7,104.2 
		1112.1,788.8 	"/>
	<polygon fill="#015289" points="1112.1,959.4 465.8,1435.9 561.4,1435.9 929.4,1164.6 929.4,1164.9 2040.7,345.7 2040.7,275.3 
		1112.1,959.8 	"/>
	<polygon fill="#015289" points="1112.1,1130.5 697.8,1435.9 793.4,1435.9 929.4,1335.6 929.4,1336 2040.7,516.7 2040.7,446.3 
		1112.1,1130.9 	"/>
	<polygon fill="#015289" points="1112.1,1301.5 929.9,1435.9 930.4,1435.9 1025.4,1435.9 1026,1435.9 2040.7,687.8 2040.7,617.3 
		1112.1,1301.9 	"/>
</g>
</svg>
