<?xml version="1.0" encoding="utf-8"?>
<!-- Generator: Adobe Illustrator 21.1.0, SVG Export Plug-In . SVG Version: 6.00 Build 0)  -->
<svg version="1.1" id="Layer_1" xmlns="http://www.w3.org/2000/svg" xmlns:xlink="http://www.w3.org/1999/xlink" x="0px" y="0px"
	 viewBox="0 0 684 180" style="enable-background:new 0 0 684 180;" xml:space="preserve">
<style type="text/css">
	.st0{fill:#00AE4D;}
</style>
<g>
	<g>
		<path class="st0" d="M134.8,157.8h38.9v-48.2h11.5l28.1,48.2h45l-34.2-55.6c16.2-8.4,27.5-25.3,27.5-45
			c0-28.1-22.9-50.8-50.8-50.8h-66v19.7C120.5,12.7,101.7,4.3,80.7,4.3C37.9,4.3,2.9,38.9,2.9,82.1s35,77.9,77.9,77.9
			c21,0,39.8-8.4,54.1-21.8V157.8z M108.4,109.6c-7.1,7.1-16.9,11.5-27.7,11.5c-21.4,0-38.9-17.5-38.9-38.9
			c0-21.4,17.5-38.9,38.9-38.9c10.8,0,20.5,4.3,27.7,11.5l26.4-26.4V136L108.4,109.6z M173.7,75.6V40.4h21.2c9.7,0,17.7,8,17.7,17.7
			c0,9.7-8,17.5-17.7,17.5H173.7z"/>
	</g>
	<g>
		<path d="M546,147.8l-2.9,4c4.4,3.9,10.3,6.5,17.9,6.5c8.9,0,16-4.8,16-13.3c0-6.7-3.3-9.6-13.8-13.2l-4-1.4
			c-5.9-2-9.1-3.9-9.1-8.3c0-5.4,5-7.5,9.7-7.5c4.4,0,9.2,2.4,12.6,5.4l3.1-4.2c-4.4-3.6-9.3-5.7-15.7-5.7
			c-8.1,0-14.7,4.3-14.7,12.3c0,6.1,3.7,10,12.6,13.1l4.5,1.6c6.7,2.4,9.8,3.7,9.8,7.9c0,6.1-5.3,8.8-11,8.8
			C555.1,153.8,549.8,151.3,546,147.8"/>
		<path d="M540,155.2l-1.4-4.1c-2.8,1.7-5.5,2.5-8.8,2.5c-4.6,0-6.8-2.8-6.8-7.8v-30.5h16.6v-4.8H523V94.1h-5.2v51.7
			c0,7.8,3.9,12.5,11.7,12.5C533.4,158.3,536.8,157.2,540,155.2"/>
		<path d="M493.7,157.8v-27.9c1.1-10.5,9.9-15.6,18.8-14.4v-5.3c-7.9-1.2-15.2,2.8-18.8,9.7l-0.1-9.4h-5v47.4H493.7z"/>
		<path d="M458.5,110c-13.3,0-24.1,10.9-24.1,24.2c0,13.3,10.8,24.2,24.1,24.2c13.3,0,24.2-10.9,24.2-24.2
			C482.7,120.8,471.9,110,458.5,110z M458.5,153.2c-10.5,0-19-8.6-19-19.1c0-10.5,8.5-19.1,19-19.1c10.6,0,19.1,8.6,19.1,19.1
			C477.6,144.6,469.1,153.2,458.5,153.2z"/>
		<path d="M405.8,110c-7.9,0-14.8,4.3-18.8,11v-10.5h-5.1v66.6h5.1v-29.8c4,6.7,11.1,11.1,19.1,11.1c12.9,0,23.6-10.9,23.6-24.2
			C429.7,120.8,418.9,110,405.8,110z M405.8,153.2c-10.4,0-18.8-8.6-18.8-19.1c0-10.5,8.4-19.1,18.8-19.1c10.4,0,18.8,8.6,18.8,19.1
			C424.6,144.6,416.2,153.2,405.8,153.2z"/>
		<path d="M376.1,132.1c0-13.2-9.7-22.1-21.7-22.1c-12.3,0-22.7,9.8-22.7,24c0,14,10.9,24.4,23.6,24.4c7.6,0,14.1-3.2,18.7-9
			l-3.7-3.1c-3.5,4.7-8.7,7.2-15,7.2c-9.8,0-17.7-7.6-18.4-18.1h39.2V132.1z M337,130.7c1.4-9.6,8.6-16,17.3-16
			c8.7,0,15.9,6.4,16.5,16H337z"/>
		<path d="M312.3,129.1c11.6-1.8,18.5-10.2,18.5-20c0-11.7-8-20.3-22.6-20.3h-23.1v69.1h5.4v-28.4h15.4l19.5,28.4h6.6L312.3,129.1z
			 M290.5,124.3V93.9h17.6c10.9,0,17.2,6.1,17.2,15.2c0,8.1-5.5,15.2-17.4,15.2H290.5z"/>
		<path d="M662.4,75.6V47.7c1.1-10.5,9.9-15.6,18.8-14.4V28c-7.9-1.2-15.2,2.8-18.8,9.7l-0.1-9.4h-5v47.4H662.4z"/>
		<path d="M651.4,49.9c0-13.2-9.7-22.1-21.7-22.1c-12.3,0-22.7,9.8-22.7,24c0,14,10.9,24.4,23.6,24.4c7.6,0,14.1-3.2,18.7-9
			l-3.7-3.1c-3.5,4.7-8.7,7.2-15,7.2c-9.8,0-17.7-7.6-18.4-18.1h39.2V49.9z M612.3,48.5c1.4-9.6,8.6-16,17.3-16
			c8.7,0,15.9,6.4,16.5,16H612.3z"/>
		<path d="M535.8,51.6c0.2-12.5,6.5-19.1,15.3-19.1c7.4,0,12.3,4.7,12.2,13.2v29.9h5.1V51.6c0.2-12.5,6.5-19.1,15.3-19.1
			c7.4,0,12.3,4.7,12.2,13.2v29.9h5.1V45.5c0.1-11.1-6.1-17.8-16.8-17.8c-7.6,0-14,4.5-16.8,11.3c-2.1-7-7.8-11.3-15.9-11.3
			c-7,0-13.1,4-15.9,10v-9.5h-5.1v47.4h5.1V51.6z"/>
		<path d="M517.9,75.6h5.1V28.3h-5.1v24.1c-0.2,12.5-7.1,19.1-16.7,19.1c-7.6,0-12.6-4.7-12.6-13.2V28.3h-5.1v30.1
			c0,11.1,6.3,17.8,17.2,17.8c7.8,0,14.4-4.2,17.3-10.5V75.6z"/>
		<path d="M446.6,65.6l-2.9,4c4.4,3.9,10.3,6.5,17.9,6.5c8.9,0,16-4.8,16-13.3c0-6.7-3.3-9.6-13.8-13.2l-4-1.4
			c-5.9-2-9.1-3.9-9.1-8.3c0-5.4,5-7.5,9.7-7.5c4.4,0,9.2,2.4,12.6,5.4l3.1-4.2c-4.4-3.6-9.3-5.7-15.7-5.7
			c-8.1,0-14.7,4.3-14.7,12.3c0,6.1,3.7,10,12.6,13.1l4.5,1.6c6.7,2.4,9.8,3.7,9.8,7.9c0,6.1-5.3,8.8-11,8.8
			C455.7,71.6,450.4,69.1,446.6,65.6"/>
		<path d="M404,51.6c0.2-12.5,7.1-19.1,16.7-19.1c7.6,0,12.6,4.7,12.6,13.2v29.9h5.1V45.5c0-11.1-6.3-17.8-17.2-17.8
			c-7.8,0-14.4,4.2-17.3,10.5v-10h-5.1v47.4h5.1V51.6z"/>
		<path d="M368.9,27.8c-13.3,0-24.1,10.9-24.1,24.2s10.8,24.2,24.1,24.2c13.3,0,24.2-10.9,24.2-24.2S382.2,27.8,368.9,27.8z
			 M368.9,71c-10.5,0-19-8.6-19-19.1s8.5-19.1,19-19.1c10.6,0,19.1,8.6,19.1,19.1S379.5,71,368.9,71z"/>
		<path d="M337,59.2c-5.4,7-13.9,11.4-23.4,11.4c-16.2,0-29.5-13.2-29.5-29.5c0-16.2,13.3-29.4,29.5-29.4c9.6,0,18,4.3,23.4,11.5
			l4.1-4c-6.5-7.9-16.5-13-27.5-13c-19.3,0-35.1,15.8-35.1,35c0,19.3,15.8,35.1,35.1,35.1c11.1,0,20.9-5.1,27.3-13.1L337,59.2z"/>
	</g>
</g>
<g>
	<path d="M575.2,97.5h-2.9v-0.7h6.5v0.7h-2.9v8.5h-0.7V97.5z"/>
	<path d="M589.3,96.8v9.2h-0.7v-7.8h0l-3.4,5.8h-0.5l-3.4-5.8h0v7.8h-0.7v-9.2h0.7l3.7,6.4h0l3.7-6.4H589.3z"/>
</g>
</svg>
