<?xml version="1.0" encoding="UTF-8" standalone="no"?>
<svg width="180px" height="40px" viewBox="0 0 180 40" version="1.1" xmlns="http://www.w3.org/2000/svg" xmlns:xlink="http://www.w3.org/1999/xlink" xmlns:sketch="http://www.bohemiancoding.com/sketch/ns">
    <!-- Generator: Sketch 3.4.4 (17249) - http://www.bohemiancoding.com/sketch -->
    <title>logo-privacyinternational</title>
    <desc>Created with Sketch.</desc>
    <defs>
        <path id="path-1" d="M0,0.743 L180,0.743 L180,40 L0,40 L0,0.743 Z"></path>
    </defs>
    <g id="Page-1" stroke="none" stroke-width="1" fill="none" fill-rule="evenodd" sketch:type="MSPage">
        <g id="logo-privacyinternational" sketch:type="MSLayerGroup">
            <mask id="mask-2" sketch:name="Clip 2" fill="white">
                <use xlink:href="#path-1"></use>
            </mask>
            <g id="Clip-2"></g>
            <path d="M7.1183,3.9831 L9.0573,3.9831 C10.3973,3.9831 11.1943,4.6221 11.5653,5.3981 L7.1183,5.3981 L7.1183,3.9831 Z M20.1473,3.9831 L22.3143,3.9831 C24.1403,3.9831 24.9383,4.5851 25.2293,5.3981 L20.1473,5.3981 L20.1473,3.9831 Z M3.6953,18.2211 L7.1183,18.2211 L7.1183,13.8851 L16.7243,13.8851 L16.7243,18.2211 L20.1473,18.2211 L20.1473,13.8851 L23.3633,13.8851 L25.5093,18.2211 L29.5933,18.2211 L27.2003,13.8851 L31.2133,13.8851 L31.2133,18.2211 L34.6363,18.2211 L34.6363,13.8851 L40.6623,13.8851 L42.0753,18.2211 L45.6803,18.2211 L47.0863,13.8851 L49.7463,13.8851 L48.1673,18.2211 L51.8633,18.2211 L52.7343,15.4291 L59.5123,15.4291 L60.4203,18.2211 L64.1843,18.2211 L62.6283,13.8851 L64.1193,13.8851 C65.3573,16.9161 68.0043,18.5391 71.3393,18.5391 C71.5813,18.5391 71.8183,18.5271 72.0533,18.5081 C72.0953,18.5041 72.1383,18.5021 72.1803,18.4981 C72.4053,18.4761 72.6263,18.4461 72.8443,18.4061 C72.8843,18.3991 72.9243,18.3911 72.9643,18.3821 C73.4143,18.2941 73.8483,18.1681 74.2623,18.0041 C74.2973,17.9901 74.3323,17.9771 74.3673,17.9631 C74.5663,17.8811 74.7603,17.7891 74.9503,17.6901 C74.9843,17.6721 75.0183,17.6521 75.0533,17.6341 C75.2463,17.5281 75.4363,17.4161 75.6203,17.2921 C75.6243,17.2891 75.6273,17.2861 75.6313,17.2831 C75.8093,17.1621 75.9813,17.0291 76.1493,16.8911 C76.1823,16.8641 76.2163,16.8371 76.2483,16.8091 C76.4083,16.6731 76.5633,16.5271 76.7133,16.3741 C76.7283,16.3591 76.7443,16.3461 76.7603,16.3301 L76.7563,16.3291 C76.8683,16.2131 76.9743,16.0901 77.0803,15.9651 L74.2073,14.3131 C74.0123,14.5101 73.8023,14.6851 73.5793,14.8341 C73.5433,14.8581 73.5073,14.8801 73.4713,14.9031 C73.3903,14.9531 73.3073,15.0001 73.2243,15.0431 C73.1923,15.0601 73.1613,15.0781 73.1283,15.0951 C73.0223,15.1471 72.9123,15.1931 72.8023,15.2351 C72.7643,15.2491 72.7253,15.2631 72.6863,15.2761 C72.5853,15.3101 72.4843,15.3411 72.3823,15.3671 C72.3623,15.3721 72.3423,15.3781 72.3223,15.3831 C72.2013,15.4121 72.0793,15.4321 71.9553,15.4481 C71.9233,15.4531 71.8913,15.4561 71.8583,15.4601 C71.7313,15.4731 71.6043,15.4821 71.4753,15.4821 C70.0633,15.4821 68.9103,14.9161 68.1163,13.8851 L83.1963,13.8851 L83.1963,18.2211 L86.6183,18.2211 L86.6183,13.8851 L94.5163,13.8851 L94.5163,5.3981 L90.1413,5.3981 L92.8693,1.0621 L89.1043,1.0621 L86.2023,5.3981 L83.6923,5.3981 L80.8703,1.0621 L76.8773,1.0621 L79.6353,5.3981 L68.2143,5.3981 C68.9793,4.4141 70.0553,3.8001 71.3843,3.8001 C71.5393,3.8001 71.6903,3.8091 71.8393,3.8221 C71.8903,3.8271 71.9383,3.8371 71.9883,3.8431 C72.0843,3.8561 72.1813,3.8691 72.2743,3.8881 C72.3333,3.8991 72.3903,3.9141 72.4473,3.9281 C72.5283,3.9481 72.6103,3.9701 72.6893,3.9951 C72.7493,4.0131 72.8073,4.0341 72.8653,4.0561 C72.9393,4.0831 73.0113,4.1121 73.0833,4.1431 C73.1403,4.1691 73.1983,4.1951 73.2553,4.2241 C73.3233,4.2581 73.3893,4.2961 73.4543,4.3341 C73.5093,4.3661 73.5643,4.3981 73.6173,4.4331 C73.6823,4.4761 73.7443,4.5231 73.8063,4.5701 C73.8553,4.6081 73.9053,4.6431 73.9513,4.6821 C74.0253,4.7441 74.0933,4.8111 74.1633,4.8801 L76.4963,2.5471 C76.3483,2.4111 76.1993,2.2761 76.0403,2.1571 C76.0373,2.1531 76.0333,2.1511 76.0293,2.1481 C75.9183,2.0651 75.8053,1.9861 75.6903,1.9111 C75.6773,1.9031 75.6653,1.8951 75.6523,1.8871 C75.5453,1.8181 75.4363,1.7531 75.3253,1.6911 C75.3053,1.6801 75.2853,1.6681 75.2653,1.6571 C75.1603,1.6011 75.0543,1.5461 74.9473,1.4951 C74.9213,1.4821 74.8943,1.4701 74.8673,1.4571 C74.7643,1.4101 74.6613,1.3651 74.5563,1.3231 C74.5243,1.3101 74.4913,1.2961 74.4583,1.2841 C74.3583,1.2451 74.2563,1.2081 74.1543,1.1741 C74.1163,1.1621 74.0783,1.1481 74.0393,1.1361 C73.9403,1.1051 73.8403,1.0761 73.7393,1.0481 C73.6963,1.0371 73.6533,1.0241 73.6103,1.0131 C73.5123,0.9891 73.4133,0.9671 73.3133,0.9451 C73.2663,0.9351 73.2193,0.9241 73.1723,0.9151 C73.0743,0.8951 72.9753,0.8791 72.8763,0.8631 C72.8263,0.8551 72.7753,0.8461 72.7243,0.8391 C72.6263,0.8251 72.5253,0.8141 72.4253,0.8031 C72.3733,0.7971 72.3223,0.7901 72.2703,0.7851 C72.1633,0.7761 72.0553,0.7691 71.9473,0.7631 C71.9003,0.7601 71.8543,0.7561 71.8083,0.7541 C71.6533,0.7471 71.4973,0.7431 71.3393,0.7431 C68.0483,0.7431 65.4713,2.5511 64.2073,5.3981 L59.5803,5.3981 L58.0243,1.0621 L54.4193,1.0621 L52.8393,5.3981 L49.8403,5.3981 L51.2473,1.0621 L47.5503,1.0621 L46.3193,5.3981 L41.5113,5.3981 L40.2493,1.0621 L36.4843,1.0621 L37.8963,5.3981 L34.6363,5.3981 L34.6363,1.0621 L31.2133,1.0621 L31.2133,5.3981 L28.7363,5.3981 C28.3933,2.9231 26.4063,1.0621 23.1363,1.0621 L16.7243,1.0621 L16.7243,5.3981 L15.1463,5.3981 C14.6153,2.0791 11.7213,1.0621 9.2863,1.0621 L3.6953,1.0621 L3.6953,5.3981 L0.0003,5.3981 L0.0003,13.8851 L3.6953,13.8851 L3.6953,18.2211 Z M120.8233,26.8581 C121.6193,25.8821 122.7673,25.2611 124.2773,25.2611 C125.7863,25.2611 126.9353,25.8821 127.7313,26.8581 L120.8233,26.8581 Z M124.2773,36.9431 C122.7673,36.9431 121.6193,36.3211 120.8233,35.3461 L127.7313,35.3461 C126.9353,36.3211 125.7863,36.9431 124.2773,36.9431 L124.2773,36.9431 Z M56.4813,26.8581 L56.4813,25.4431 L58.6483,25.4431 C60.4743,25.4431 61.2713,26.0451 61.5633,26.8581 L56.4813,26.8581 Z M180.0003,35.3461 L180.0003,26.8581 L170.1403,26.8581 L170.1403,22.5231 L166.7183,22.5231 L166.7183,26.8581 L160.4473,26.8581 L158.8903,22.5231 L155.2863,22.5231 L153.7063,26.8581 L147.8233,26.8581 L147.8233,22.5231 L144.5383,22.5231 L144.5383,26.8581 L140.1513,26.8581 L137.5333,22.5231 L133.8593,22.5231 L133.8593,26.8581 L131.7003,26.8581 C130.4293,24.1641 127.8853,22.2031 124.2773,22.2031 C120.6683,22.2031 118.1243,24.1641 116.8533,26.8581 L114.5693,26.8581 L114.5693,22.5231 L111.1473,22.5231 L111.1473,26.8581 L104.7353,26.8581 L104.7353,25.5801 L109.2533,25.5801 L109.2533,22.5231 L96.7953,22.5231 L96.7953,25.5801 L101.3123,25.5801 L101.3123,26.8581 L94.2173,26.8581 L92.6603,22.5231 L89.0553,22.5231 L87.4753,26.8581 L81.5933,26.8581 L81.5933,22.5231 L78.3073,22.5231 L78.3073,26.8581 L73.9203,26.8581 L71.3033,22.5231 L67.6293,22.5231 L67.6293,26.8581 L65.0693,26.8581 C64.7283,24.3841 62.7403,22.5231 59.4703,22.5231 L53.0583,22.5231 L53.0583,26.8581 L43.1233,26.8581 L43.1233,25.5801 L50.6533,25.5801 L50.6533,22.5231 L39.7013,22.5231 L39.7013,26.8581 L33.4713,26.8581 L33.4713,25.5801 L37.9893,25.5801 L37.9893,22.5231 L25.5313,22.5231 L25.5313,25.5801 L30.0493,25.5801 L30.0493,26.8581 L23.8193,26.8581 L23.8193,22.5231 L20.5333,22.5231 L20.5333,26.8581 L16.1473,26.8581 L13.5283,22.5231 L9.8553,22.5231 L9.8553,26.8581 L7.1183,26.8581 L7.1183,22.5231 L3.6953,22.5231 L3.6953,26.8581 L0.0003,26.8581 L0.0003,35.3461 L3.6953,35.3461 L3.6953,39.6811 L7.1183,39.6811 L7.1183,35.3461 L9.8553,35.3461 L9.8553,39.6811 L13.1413,39.6811 L13.1413,35.3461 L17.6543,35.3461 L20.2823,39.6811 L23.8193,39.6811 L23.8193,35.3461 L30.0493,35.3461 L30.0493,39.6811 L33.4713,39.6811 L33.4713,35.3461 L39.7013,35.3461 L39.7013,39.6811 L50.6533,39.6811 L50.6533,36.6231 L43.1233,36.6231 L43.1233,35.3461 L53.0583,35.3461 L53.0583,39.6811 L56.4813,39.6811 L56.4813,35.3461 L59.6963,35.3461 L61.8423,39.6811 L65.9273,39.6811 L63.5333,35.3461 L67.6293,35.3461 L67.6293,39.6811 L70.9153,39.6811 L70.9153,35.3461 L75.4283,35.3461 L78.0563,39.6811 L81.5933,39.6811 L81.5933,35.3461 L84.3823,35.3461 L82.8033,39.6811 L86.4993,39.6811 L87.4303,36.6971 L87.4303,36.8891 L94.1493,36.8891 L95.0563,39.6811 L98.8213,39.6811 L97.2643,35.3461 L101.3123,35.3461 L101.3123,39.6811 L104.7353,39.6811 L104.7353,35.3461 L111.1473,35.3461 L111.1473,39.6811 L114.5693,39.6811 L114.5693,35.3461 L116.8533,35.3461 C118.1243,38.0391 120.6683,40.0001 124.2773,40.0001 C127.8853,40.0001 130.4293,38.0391 131.7003,35.3461 L133.8593,35.3461 L133.8593,39.6811 L137.1463,39.6811 L137.1463,35.3461 L141.6583,35.3461 L144.2873,39.6811 L147.8233,39.6811 L147.8233,35.3461 L150.6133,35.3461 L149.0343,39.6811 L152.7303,39.6811 L153.6013,36.8891 L160.3803,36.8891 L161.2873,39.6811 L165.0513,39.6811 L163.4953,35.3461 L166.7183,35.3461 L166.7183,39.6811 L176.7343,39.6811 L176.7343,36.4861 L170.1403,36.4861 L170.1403,35.3461 L180.0003,35.3461 Z" id="Fill-1" fill="#000000" sketch:type="MSShapeGroup" mask="url(#mask-2)"></path>
        </g>
    </g>
</svg>