<?xml version="1.0" encoding="UTF-8" standalone="no"?>
<svg width="136px" height="56px" viewBox="0 0 136 56" version="1.1" xmlns="http://www.w3.org/2000/svg" xmlns:xlink="http://www.w3.org/1999/xlink" xmlns:sketch="http://www.bohemiancoding.com/sketch/ns">
    <!-- Generator: Sketch 3.4.4 (17249) - http://www.bohemiancoding.com/sketch -->
    <title>logo-advocacy</title>
    <desc>Created with Sketch.</desc>
    <defs>
        <path id="path-1" d="M0,0.555 L136,0.555 L136,56 L0,56 L0,0.555 Z"></path>
        <path id="path-3" d="M0,0.555 L136,0.555 L136,56 L0,56 L0,0.555 Z"></path>
    </defs>
    <g id="Page-1" stroke="none" stroke-width="1" fill="none" fill-rule="evenodd" sketch:type="MSPage">
        <g id="logo-advocacy" sketch:type="MSLayerGroup">
            <g id="Group-15" fill="#FFFFFF" sketch:type="MSShapeGroup">
                <path d="M2.318,4.4614 C2.477,4.7064 2.547,4.9254 2.636,5.3864 C3.257,4.7804 4.024,4.4614 4.859,4.4614 C5.615,4.4614 6.235,4.7064 6.715,5.2064 C6.843,5.3324 6.967,5.4944 7.076,5.6524 C7.911,4.7984 8.657,4.4614 9.659,4.4614 C10.372,4.4614 11.048,4.6734 11.461,5.0294 C11.976,5.4744 12.14,6.0104 12.14,7.2564 L12.14,13.7434 L9.822,13.7434 L9.822,7.7214 C9.822,6.6304 9.693,6.4194 9.072,6.4194 C8.626,6.4194 8,6.7224 7.486,7.1854 L7.486,13.7434 L5.226,13.7434 L5.226,7.8074 C5.226,6.6694 5.061,6.4014 4.397,6.4014 C3.956,6.4014 3.347,6.6304 2.833,7.0954 L2.833,13.7434 L0.5,13.7434 L0.5,7.3804 C0.5,6.0634 0.409,5.4944 0.159,5.0464 L2.318,4.4614 Z" id="Fill-1"></path>
                <path d="M16.376,7.1319 C16.213,7.6149 16.126,8.2549 16.126,9.1639 C16.126,10.2139 16.233,11.0009 16.428,11.4629 C16.643,11.9609 17.18,12.2109 17.639,12.2109 C18.673,12.2109 19.116,11.2849 19.116,9.1289 C19.116,7.8999 18.955,7.0949 18.636,6.6849 C18.407,6.3839 18.034,6.2049 17.605,6.2049 C17.033,6.2049 16.57,6.5599 16.376,7.1319 M20.669,5.8139 C21.398,6.6689 21.723,7.6659 21.723,9.1449 C21.723,10.7129 21.364,11.7839 20.578,12.6739 C19.886,13.4569 18.976,13.9389 17.57,13.9389 C15.09,13.9389 13.473,12.0859 13.473,9.2179 C13.473,6.3479 15.108,4.4409 17.57,4.4409 C18.871,4.4409 19.886,4.8879 20.669,5.8139" id="Fill-3"></path>
                <path d="M29.4038,4.6201 L29.4038,6.2591 L25.3728,12.0851 L29.5608,12.0851 L28.9898,13.7431 L22.2748,13.7431 L22.2748,12.2641 L26.5638,6.2951 L22.6328,6.2951 L22.6328,4.6201 L29.4038,4.6201 Z" id="Fill-5"></path>
                <path d="M33.1601,4.4051 L33.1601,13.7431 L30.7731,13.7431 L30.7731,4.7801 L33.1601,4.4051 Z M33.4411,2.1081 C33.4411,2.9281 32.7881,3.5841 31.9631,3.5841 C31.1651,3.5841 30.5071,2.9281 30.5071,2.1081 C30.5071,1.2891 31.1861,0.6281 32.0031,0.6281 C32.8041,0.6281 33.4411,1.2891 33.4411,2.1081 L33.4411,2.1081 Z" id="Fill-7"></path>
                <path d="M37.5078,2.9282 L37.5078,10.0362 C37.5078,11.6072 37.5268,11.8192 37.6698,12.0682 C37.7608,12.2302 37.9538,12.3162 38.1528,12.3162 C38.2388,12.3162 38.2898,12.3162 38.4198,12.2842 L38.8268,13.7082 C38.4198,13.8672 37.9198,13.9562 37.4028,13.9562 C36.3848,13.9562 35.5658,13.4772 35.2808,12.7122 C35.1018,12.2492 35.0648,11.9612 35.0648,10.6622 L35.0648,3.8522 C35.0648,2.6592 35.0328,1.9302 34.9438,1.1072 L37.3848,0.5552 C37.4708,1.0532 37.5078,1.6432 37.5078,2.9282" id="Fill-9"></path>
                <path d="M42.4596,2.9282 L42.4596,10.0362 C42.4596,11.6072 42.4806,11.8192 42.6276,12.0682 C42.7106,12.2302 42.9046,12.3162 43.1036,12.3162 C43.1926,12.3162 43.2476,12.3162 43.3736,12.2842 L43.7816,13.7082 C43.3736,13.8672 42.8736,13.9562 42.3556,13.9562 C41.3386,13.9562 40.5176,13.4772 40.2336,12.7122 C40.0516,12.2492 40.0216,11.9612 40.0216,10.6622 L40.0216,3.8522 C40.0216,2.6592 39.9856,1.9302 39.8936,1.1072 L42.3326,0.5552 C42.4296,1.0532 42.4596,1.6432 42.4596,2.9282" id="Fill-11"></path>
                <path d="M49.3012,9.7522 C47.6502,9.7522 47.0712,10.0532 47.0712,11.1442 C47.0712,11.8542 47.5222,12.3352 48.1282,12.3352 C48.5712,12.3352 49.0202,12.1032 49.3732,11.7122 L49.4122,9.7522 L49.3012,9.7522 Z M46.2062,4.9592 C47.0942,4.5842 47.8562,4.4252 48.6972,4.4252 C50.2332,4.4252 51.2822,4.9932 51.6422,6.0102 C51.7602,6.3842 51.8162,6.6692 51.8042,7.6502 L51.7462,10.7122 L51.7462,10.8752 C51.7462,11.8542 51.9082,12.2302 52.6062,12.7442 L51.3392,14.2092 C50.7822,13.9752 50.2842,13.5632 50.0522,13.1022 C49.8772,13.2822 49.6792,13.4562 49.4992,13.5822 C49.0562,13.9042 48.4102,14.0832 47.6622,14.0832 C45.6312,14.0832 44.5262,13.0472 44.5262,11.2332 C44.5262,9.0912 46.0092,8.0922 48.9112,8.0922 C49.0862,8.0922 49.2502,8.0922 49.4482,8.1122 L49.4482,7.7402 C49.4482,6.7232 49.2502,6.3842 48.3722,6.3842 C47.6152,6.3842 46.7172,6.7562 45.7392,7.4172 L44.7222,5.7062 C45.2062,5.4022 45.5632,5.2252 46.2062,4.9592 L46.2062,4.9592 Z" id="Fill-13"></path>
            </g>
            <g id="Group-18">
                <mask id="mask-2" sketch:name="Clip 17" fill="white">
                    <use xlink:href="#path-1"></use>
                </mask>
                <g id="Clip-17"></g>
                <path d="M10.6905,27.0139 L10.6535,27.0139 C10.6535,27.0139 8.0455,36.1619 7.4575,37.8519 L13.7035,37.8519 C13.4455,37.3009 10.8745,28.0059 10.6905,27.0139 L10.6905,27.0139 Z M16.7155,48.0649 L14.6585,41.3789 L6.4285,41.3789 L4.3715,48.0649 L-0.0005,48.0649 L8.3395,22.6049 L13.2255,22.6049 L21.3445,48.0649 L16.7155,48.0649 Z" id="Fill-16" fill="#FFFFFF" sketch:type="MSShapeGroup" mask="url(#mask-2)"></path>
            </g>
            <path d="M32.8068,33.8837 C31.8888,32.8917 30.7868,32.3777 29.4268,32.3777 C26.8558,32.3777 25.6798,34.4347 25.6798,38.9167 C25.6798,43.0317 26.4878,45.0887 29.5368,45.0887 C31.0438,45.0887 32.2558,44.2437 32.8068,43.3257 L32.8068,33.8837 Z M33.6888,48.0647 C33.5048,47.6607 33.4688,47.4027 33.3578,46.6317 C32.1088,47.8807 30.6398,48.4687 28.8028,48.4687 C24.0638,48.4687 21.1978,44.7577 21.1978,38.9537 C21.1978,33.1127 24.4308,29.1447 28.9128,29.1447 C30.4928,29.1447 31.7778,29.6587 32.9168,30.8347 C32.9168,30.8347 32.8068,29.4017 32.8068,27.7857 L32.8068,20.9887 L36.8118,21.6137 L36.8118,41.5987 C36.8118,45.2727 37.0318,47.1457 37.3988,48.0647 L33.6888,48.0647 Z" id="Fill-19" fill="#FFFFFF" sketch:type="MSShapeGroup"></path>
            <path d="M48.5052,48.1384 L44.9422,48.1384 L38.2552,29.6224 L42.4072,29.0344 L45.6392,39.0634 C46.2642,41.0114 46.7782,43.2154 46.7782,43.2154 L46.8522,43.2154 C46.8522,43.2154 47.2562,41.0114 47.9542,38.9164 L51.0402,29.4754 L55.2652,29.4754 L48.5052,48.1384 Z" id="Fill-21" fill="#FFFFFF" sketch:type="MSShapeGroup"></path>
            <path d="M59.4749,38.5497 C59.4749,43.9497 60.8339,45.5297 63.2589,45.5297 C65.6469,45.5297 66.9689,43.5827 66.9689,38.9167 C66.9689,33.6637 65.4999,32.0837 63.1489,32.0837 C60.5769,32.0837 59.4749,34.0307 59.4749,38.5497 M71.4149,38.8437 C71.4149,44.8317 68.2189,48.5427 63.1849,48.5427 C58.1519,48.5427 54.9929,44.7577 54.9929,38.8067 C54.9929,32.8557 58.1889,29.0347 63.1119,29.0347 C68.4019,29.0347 71.4149,32.9657 71.4149,38.8437" id="Fill-23" fill="#FFFFFF" sketch:type="MSShapeGroup"></path>
            <path d="M80.9009,48.5424 C75.8309,48.5424 73.0029,44.9784 73.0029,38.9904 C73.0029,32.2304 77.0429,28.9984 81.1949,28.9984 C83.2149,28.9984 84.6849,29.4754 86.3379,31.0184 L84.3179,33.7004 C83.2149,32.7084 82.2599,32.2674 81.1949,32.2674 C79.9089,32.2674 78.8439,32.9284 78.2559,34.1414 C77.7049,35.2804 77.4839,37.0064 77.4839,39.3214 C77.4839,41.8564 77.8889,43.4724 78.7339,44.3914 C79.3209,45.0524 80.2029,45.4564 81.1949,45.4564 C82.4809,45.4564 83.7299,44.8314 84.9419,43.6194 L86.8519,46.0814 C85.1629,47.7704 83.3989,48.5424 80.9009,48.5424" id="Fill-25" fill="#FFFFFF" sketch:type="MSShapeGroup"></path>
            <path d="M97.3739,39.2845 C93.3329,39.2845 92.1199,40.4605 92.1199,42.8115 C92.1199,44.5745 93.0759,45.6765 94.6919,45.6765 C95.9779,45.6765 97.2269,44.9055 98.0349,43.7295 L98.1089,39.3215 C98.1089,39.3215 97.6679,39.2845 97.3739,39.2845 L97.3739,39.2845 Z M101.5619,48.8365 C100.4229,48.3955 99.4679,47.5135 99.0269,46.3385 C97.5209,48.0275 95.9049,48.6155 93.9209,48.6155 C89.6589,48.6155 87.7489,46.2645 87.7489,43.0315 C87.7489,38.7335 90.9819,36.5655 96.9329,36.5655 L98.1819,36.5655 L98.1819,35.5735 C98.1819,33.4435 97.8149,32.3045 95.6109,32.3045 C92.9289,32.3045 90.0629,34.4355 90.0629,34.4355 L88.2629,31.5325 C91.0549,29.7695 93.3699,28.9975 96.1619,28.9975 C99.0639,28.9975 101.0109,30.0625 101.8189,32.0835 C102.1499,32.8915 102.1499,33.8835 102.1129,36.6395 L102.0399,41.9665 C102.0029,44.4645 102.2229,45.2725 103.6559,46.2645 L101.5619,48.8365 Z" id="Fill-27" fill="#FFFFFF" sketch:type="MSShapeGroup"></path>
            <path d="M112.5322,48.5424 C107.4622,48.5424 104.6342,44.9784 104.6342,38.9904 C104.6342,32.2304 108.6742,28.9984 112.8262,28.9984 C114.8462,28.9984 116.3162,29.4754 117.9692,31.0184 L115.9492,33.7004 C114.8462,32.7084 113.8912,32.2674 112.8262,32.2674 C111.5402,32.2674 110.4752,32.9284 109.8872,34.1414 C109.3362,35.2804 109.1152,37.0064 109.1152,39.3214 C109.1152,41.8564 109.5202,43.4724 110.3652,44.3914 C110.9522,45.0524 111.8342,45.4564 112.8262,45.4564 C114.1122,45.4564 115.3612,44.8314 116.5732,43.6194 L118.4842,46.0814 C116.7942,47.7704 115.0302,48.5424 112.5322,48.5424" id="Fill-29" fill="#FFFFFF" sketch:type="MSShapeGroup"></path>
            <g id="Group-33">
                <mask id="mask-4" sketch:name="Clip 32" fill="white">
                    <use xlink:href="#path-3"></use>
                </mask>
                <g id="Clip-32"></g>
                <path d="M129.4241,48.4687 C127.8811,52.9507 126.5581,55.1917 122.1871,55.9997 L120.8641,53.3917 C123.3991,52.6937 124.8321,51.6287 125.8971,48.0647 L124.6111,48.0647 C124.0971,45.9707 123.3991,43.9497 122.8481,42.2967 L118.6231,29.7687 L122.7381,29.0717 L126.1541,40.3867 C126.4851,41.5247 127.1831,44.5747 127.1831,44.5747 C127.1831,44.5747 127.8811,41.8187 128.5791,39.5417 L131.6651,29.4757 L136.0001,29.4757 L129.4241,48.4687 Z" id="Fill-31" fill="#FFFFFF" sketch:type="MSShapeGroup" mask="url(#mask-4)"></path>
            </g>
        </g>
    </g>
</svg>