<?xml version="1.0" encoding="UTF-8" standalone="no"?>
<svg width="190px" height="22px" viewBox="0 0 190 22" version="1.1" xmlns="http://www.w3.org/2000/svg" xmlns:xlink="http://www.w3.org/1999/xlink" xmlns:sketch="http://www.bohemiancoding.com/sketch/ns">
    <!-- Generator: Sketch 3.4.4 (17249) - http://www.bohemiancoding.com/sketch -->
    <title>logo-colorofchange</title>
    <desc>Created with Sketch.</desc>
    <defs>
        <path id="path-1" d="M0,0.409 L190,0.409 L190,22 L0,22 L0,0.409 Z"></path>
    </defs>
    <g id="Page-1" stroke="none" stroke-width="1" fill="none" fill-rule="evenodd" sketch:type="MSPage">
        <g id="logo-colorofchange" sketch:type="MSLayerGroup">
            <path d="M5.714,16.2739 C2.879,16.2739 1.476,13.6919 1.476,11.1109 C1.476,8.5289 2.879,5.9479 5.714,5.9479 C7.632,5.9479 8.732,7.0509 9.131,8.8579 L10.605,8.8579 C10.278,6.0879 8.289,4.7039 5.714,4.7039 C2.015,4.7039 0,7.6369 0,11.1109 C0,14.5839 2.015,17.5179 5.714,17.5179 C8.405,17.5179 10.302,15.7339 10.7,12.8249 L9.224,12.8249 C9.037,14.8419 7.538,16.2739 5.714,16.2739" id="Fill-1" fill="#000000" sketch:type="MSShapeGroup"></path>
            <path d="M17.8627,16.2739 C15.0287,16.2739 13.6247,13.6919 13.6247,11.1109 C13.6247,8.5289 15.0287,5.9479 17.8627,5.9479 C20.6937,5.9479 22.0987,8.5289 22.0987,11.1109 C22.0987,13.6919 20.6937,16.2739 17.8627,16.2739 M17.8627,4.7039 C14.1617,4.7039 12.1487,7.6369 12.1487,11.1109 C12.1487,14.5839 14.1617,17.5179 17.8627,17.5179 C21.5597,17.5179 23.5737,14.5839 23.5737,11.1109 C23.5737,7.6369 21.5597,4.7039 17.8627,4.7039" id="Fill-3" fill="#000000" sketch:type="MSShapeGroup"></path>
            <mask id="mask-2" sketch:name="Clip 6" fill="white">
                <use xlink:href="#path-1"></use>
            </mask>
            <g id="Clip-6"></g>
            <path d="M25.796,17.166 L27.27,17.166 L27.27,0.409 L25.796,0.409 L25.796,17.166 Z" id="Fill-5" fill="#000000" sketch:type="MSShapeGroup" mask="url(#mask-2)"></path>
            <path d="M35.2057,16.2739 C32.3727,16.2739 30.9697,13.6919 30.9697,11.1109 C30.9697,8.5289 32.3727,5.9479 35.2057,5.9479 C38.0387,5.9479 39.4437,8.5289 39.4437,11.1109 C39.4437,13.6919 38.0387,16.2739 35.2057,16.2739 M35.2057,4.7039 C31.5087,4.7039 29.4947,7.6369 29.4947,11.1109 C29.4947,14.5839 31.5087,17.5179 35.2057,17.5179 C38.9047,17.5179 40.9177,14.5839 40.9177,11.1109 C40.9177,7.6369 38.9047,4.7039 35.2057,4.7039" id="Fill-7" fill="#000000" sketch:type="MSShapeGroup" mask="url(#mask-2)"></path>
            <path d="M44.5217,7.8952 L44.4747,7.8952 L44.4747,5.0552 L43.1167,5.0552 L43.1167,17.1662 L44.5927,17.1662 L44.5927,10.7122 C44.5927,8.2012 46.4187,6.2292 49.0867,6.3702 L49.0867,4.8912 C46.9107,4.7972 45.2717,5.9482 44.5217,7.8952" id="Fill-8" fill="#000000" sketch:type="MSShapeGroup" mask="url(#mask-2)"></path>
            <path d="M76.0995,14.0908 C74.3205,14.0908 74.0615,12.5658 74.0615,11.0878 C74.0615,9.6088 74.3205,8.0598 76.0995,8.0598 C76.5915,8.0598 76.9885,8.2008 77.2685,8.4588 C77.5735,8.7168 77.7385,9.1158 77.7855,9.6088 L82.1865,9.6088 C81.9055,6.2528 79.1885,4.6808 76.0055,4.6808 C72.3535,4.6808 69.4275,7.2388 69.4275,11.0878 C69.4275,14.9358 72.3535,17.4708 76.0055,17.4708 C79.2825,17.4708 81.8815,15.6168 82.3265,12.3078 L77.9015,12.3078 C77.8075,13.2698 77.1065,14.0908 76.0995,14.0908" id="Fill-9" fill="#000000" sketch:type="MSShapeGroup" mask="url(#mask-2)"></path>
            <path d="M92.2504,4.6804 C90.2834,4.6804 89.2534,5.3614 88.4574,6.2994 L88.4114,6.2994 L88.4114,0.4084 L83.7744,0.4084 L83.7744,17.1664 L88.4114,17.1664 L88.4114,10.7344 C88.4114,8.7884 89.4644,8.3894 90.2594,8.3894 C91.6184,8.3894 91.7824,9.3744 91.7824,10.7824 L91.7824,17.1664 L96.4174,17.1664 L96.4174,8.8104 C96.4174,6.0184 94.4284,4.6804 92.2504,4.6804" id="Fill-10" fill="#000000" sketch:type="MSShapeGroup" mask="url(#mask-2)"></path>
            <path d="M105.8735,12.8244 C105.8025,14.0904 104.9825,14.7254 103.9295,14.7254 C103.0875,14.7254 102.4775,14.1614 102.4775,13.5984 C102.4775,12.7774 103.0165,12.5184 104.0475,12.2844 C104.6795,12.1434 105.3105,11.9794 105.8735,11.6974 L105.8735,12.8244 Z M110.3215,9.4444 C110.3215,7.0974 110.3675,4.6804 104.5615,4.6804 C101.6825,4.6804 98.4525,5.2434 98.3105,8.6694 L102.6195,8.6694 C102.6425,8.1534 102.9225,7.4254 104.3505,7.4254 C105.1005,7.4254 105.8735,7.7314 105.8735,8.5524 C105.8735,9.3274 105.2415,9.5154 104.6085,9.6334 C102.2435,10.0784 97.7495,9.9384 97.7495,13.7864 C97.7495,16.3444 99.6915,17.4714 102.0345,17.4714 C103.5315,17.4714 104.9605,17.1424 105.9425,16.0154 L105.9895,16.0154 C105.9675,16.3444 106.0385,16.8374 106.1545,17.1664 L110.8825,17.1664 C110.3675,16.3904 110.3215,15.3594 110.3215,14.4434 L110.3215,9.4444 Z" id="Fill-11" fill="#000000" sketch:type="MSShapeGroup" mask="url(#mask-2)"></path>
            <path d="M120.784,4.6804 C118.934,4.6804 117.693,5.3134 116.827,6.5344 L116.78,6.5344 L116.78,4.9854 L112.308,4.9854 L112.308,17.1664 L116.945,17.1664 L116.945,10.7344 C116.945,8.7884 117.998,8.3894 118.793,8.3894 C120.152,8.3894 120.316,9.3744 120.316,10.7824 L120.316,17.1664 L124.951,17.1664 L124.951,8.8104 C124.951,6.0184 122.962,4.6804 120.784,4.6804" id="Fill-12" fill="#000000" sketch:type="MSShapeGroup" mask="url(#mask-2)"></path>
            <path d="M132.51,13.4575 C130.848,13.4575 130.427,11.8625 130.427,10.4775 C130.427,9.1865 131.082,8.0595 132.394,8.0595 C133.75,8.0595 134.407,9.1155 134.407,10.4545 C134.407,11.8155 134.22,13.4575 132.51,13.4575 L132.51,13.4575 Z M134.289,6.4645 L134.243,6.4645 C133.704,5.2205 132.416,4.6805 131.058,4.6805 C127.595,4.6805 125.791,7.3325 125.791,10.5005 C125.791,13.7625 127.408,16.4385 130.989,16.4385 C132.37,16.4385 133.494,15.8275 134.243,14.7485 L134.289,14.7485 L134.289,15.8755 C134.289,16.8835 133.962,18.6685 132.463,18.6685 C131.879,18.6685 131.387,18.1985 131.105,17.7755 C131.013,17.6345 130.897,17.4715 130.848,17.3535 L126.259,17.3535 C126.68,20.6385 129.724,21.4135 132.604,21.4135 C138.293,21.4135 138.926,18.0105 138.926,15.5925 L138.926,4.9855 L134.289,4.9855 L134.289,6.4645 Z" id="Fill-13" fill="#000000" sketch:type="MSShapeGroup" mask="url(#mask-2)"></path>
            <path d="M147.1398,7.6613 C148.3338,7.6613 149.1768,8.5763 149.1768,9.7033 L144.7528,9.7033 C144.9618,8.3893 145.7588,7.6613 147.1398,7.6613 M147.0928,14.4903 C145.6408,14.4903 144.8458,13.5043 144.7278,12.1203 L153.6248,12.1203 C153.6248,7.3793 151.5408,4.6803 146.7188,4.6803 C142.8798,4.6803 140.3028,7.5673 140.3028,11.1103 C140.3028,15.1713 143.2298,17.4713 147.1178,17.4713 C149.8788,17.4713 152.4308,16.2503 153.3668,13.6223 L149.0348,13.6223 C148.6608,14.2083 147.8418,14.4903 147.0928,14.4903" id="Fill-14" fill="#000000" sketch:type="MSShapeGroup" mask="url(#mask-2)"></path>
            <path d="M56.1091,16.2739 C53.2761,16.2739 51.8731,13.6919 51.8731,11.1109 C51.8731,8.5289 53.2761,5.9479 56.1091,5.9479 C58.9421,5.9479 60.3471,8.5289 60.3471,11.1109 C60.3471,13.6919 58.9421,16.2739 56.1091,16.2739 M56.1091,4.7039 C52.4101,4.7039 50.3971,7.6369 50.3971,11.1109 C50.3971,14.5839 52.4101,17.5179 56.1091,17.5179 C59.8081,17.5179 61.8211,14.5839 61.8211,11.1109 C61.8211,7.6369 59.8081,4.7039 56.1091,4.7039" id="Fill-15" fill="#5E5E5E" sketch:type="MSShapeGroup" mask="url(#mask-2)"></path>
            <path d="M64.8169,3.9527 L64.8169,5.0557 L62.7549,5.0557 L62.7549,6.2997 L64.8169,6.2997 L64.8169,17.1657 L66.2909,17.1657 L66.2909,6.2997 L68.6789,6.2997 L68.6789,5.0557 L66.2909,5.0557 L66.2909,3.9997 C66.3139,2.6867 66.2669,1.6527 67.9059,1.6527 C68.2579,1.6527 68.5849,1.6997 68.9839,1.7707 L68.9839,0.5027 C68.5159,0.4327 68.1639,0.4087 67.7429,0.4087 C65.3779,0.4087 64.7929,1.8637 64.8169,3.9527" id="Fill-16" fill="#5E5E5E" sketch:type="MSShapeGroup" mask="url(#mask-2)"></path>
            <path d="M154.798,17.166 L157.586,17.166 L157.586,14.371 L154.798,14.371 L154.798,17.166 Z" id="Fill-17" fill="#5E5E5E" sketch:type="MSShapeGroup" mask="url(#mask-2)"></path>
            <path d="M164.5087,16.2739 C161.6757,16.2739 160.2707,13.6919 160.2707,11.1109 C160.2707,8.5289 161.6757,5.9479 164.5087,5.9479 C167.3417,5.9479 168.7447,8.5289 168.7447,11.1109 C168.7447,13.6919 167.3417,16.2739 164.5087,16.2739 M164.5087,4.7039 C160.8097,4.7039 158.7967,7.6369 158.7967,11.1109 C158.7967,14.5839 160.8097,17.5179 164.5087,17.5179 C168.2057,17.5179 170.2207,14.5839 170.2207,11.1109 C170.2207,7.6369 168.2057,4.7039 164.5087,4.7039" id="Fill-18" fill="#5E5E5E" sketch:type="MSShapeGroup" mask="url(#mask-2)"></path>
            <path d="M174.2925,7.8952 L174.2455,7.8952 L174.2455,5.0552 L172.8875,5.0552 L172.8875,17.1662 L174.3615,17.1662 L174.3615,10.7122 C174.3615,8.2012 176.1895,6.2292 178.8575,6.3702 L178.8575,4.8912 C176.6795,4.7972 175.0415,5.9482 174.2925,7.8952" id="Fill-19" fill="#5E5E5E" sketch:type="MSShapeGroup" mask="url(#mask-2)"></path>
            <path d="M184.6377,15.781 C181.9227,15.781 180.6597,13.411 180.6597,10.97 C180.6597,8.459 181.8287,5.948 184.6377,5.948 C187.4257,5.948 188.5257,8.6 188.5257,10.97 C188.5257,13.434 187.1897,15.781 184.6377,15.781 L184.6377,15.781 Z M188.5257,5.056 L188.5257,7.144 L188.4767,7.144 C187.8937,5.807 186.3947,4.704 184.6377,4.704 C181.1497,4.704 179.1837,7.473 179.1837,10.806 C179.1837,14.256 180.7757,17.025 184.6377,17.025 C186.3707,17.025 187.7977,16.016 188.4767,14.537 L188.5257,14.537 L188.5257,16.18 C188.5257,19.137 187.3547,20.757 184.6377,20.757 C182.9987,20.757 181.4327,20.122 181.1037,18.339 L179.6287,18.339 C179.8387,20.92 182.2277,22 184.6377,22 C188.5947,22 189.9757,19.794 189.9997,16.18 L189.9997,5.056 L188.5257,5.056 Z" id="Fill-20" fill="#5E5E5E" sketch:type="MSShapeGroup" mask="url(#mask-2)"></path>
        </g>
    </g>
</svg>