<?xml version="1.0" encoding="UTF-8" standalone="no"?>
<!-- Created with Inkscape (http://www.inkscape.org/) -->

<svg
   xmlns:i="http://ns.adobe.com/AdobeIllustrator/10.0/"
   xmlns:dc="http://purl.org/dc/elements/1.1/"
   xmlns:cc="http://creativecommons.org/ns#"
   xmlns:rdf="http://www.w3.org/1999/02/22-rdf-syntax-ns#"
   xmlns:svg="http://www.w3.org/2000/svg"
   xmlns="http://www.w3.org/2000/svg"
   version="1.0"
   width="280"
   height="72.375"
   viewBox="0 0 303.044 72.375"
   id="svg2"
   xml:space="preserve"><metadata
   id="metadata3085"><rdf:RDF><cc:Work
       rdf:about=""><dc:format>image/svg+xml</dc:format><dc:type
         rdf:resource="http://purl.org/dc/dcmitype/StillImage" /><dc:title></dc:title></cc:Work></rdf:RDF></metadata><defs
   id="defs56" />
	
		<g
   id="g3178"><path
     d="m 96.098691,48.652273 c -2.642119,-4.816911 -7.148756,-6.734099 -12.380324,-6.734099 -7.614167,0 -13.675048,5.386704 -13.675048,14.50436 0,9.271836 5.697937,14.503404 13.93361,14.503404 5.28328,0 9.789917,-2.900681 12.275941,-7.303893 l -5.801361,-2.952393 c -1.295682,3.108488 -3.263625,4.041226 -5.749649,4.041226 -4.299788,0 -6.26773,-3.5739 -6.26773,-8.287386 0,-4.714444 1.657668,-8.288343 6.26773,-8.288343 1.243012,0 3.729994,0.673218 5.179855,3.781706 l 6.216976,-3.264582 z"
     id="path17"
     style="fill-rule:evenodd" /><path
     d="m 110.90758,48.134191 c 4.61006,0 6.57896,3.573899 6.57896,7.977112 0,5.024718 -1.9689,8.598617 -6.57896,8.598617 -4.61006,0 -6.578,-3.573899 -6.578,-8.287386 0,-4.713486 1.96794,-8.288343 6.578,-8.288343 z m 0,-6.216017 c -8.59862,0 -14.658541,5.231567 -14.658541,14.50436 0,9.271836 6.059921,14.503404 14.658541,14.503404 8.59862,0 14.6595,-5.231568 14.6595,-14.503404 0,-9.271835 -6.06088,-14.50436 -14.6595,-14.50436 z"
     id="path19"
     style="fill-rule:evenodd" /><path
     d="m 127.22283,70.200049 8.08054,0 0,-17.144564 c 0,-2.486024 1.03616,-4.610062 4.29883,-4.610062 3.10848,0 3.93684,1.812806 3.93684,4.506637 l 0,17.248947 8.08054,0 0,-16.938673 c 0,-2.797256 1.39815,-4.816911 4.09198,-4.816911 3.05581,0 4.14369,1.761094 4.14369,5.646224 l 0,16.108402 8.08054,0 0,-21.029695 c 0,-6.319443 -5.80137,-7.25218 -8.4952,-7.25218 -3.21191,0 -6.21602,0.98445 -8.85718,3.677323 -1.81376,-2.434311 -4.14369,-3.677323 -7.30389,-3.677323 -2.48602,0 -5.90479,0.72493 -7.97711,3.1602 l 0,-2.434312 -8.08054,0 0,27.555987 9.6e-4,0 z"
     id="path21"
     style="fill-rule:evenodd" /><path
     d="m 170.5214,70.200049 8.08054,0 0,-17.144564 c 0,-2.486024 1.03616,-4.610062 4.29883,-4.610062 3.10849,0 3.93684,1.812806 3.93684,4.506637 l 0,17.248947 8.08054,0 0,-16.938673 c 0,-2.797256 1.39815,-4.816911 4.09102,-4.816911 3.05582,0 4.14465,1.761094 4.14465,5.646224 l 0,16.108402 8.08054,0 0,-21.029695 c 0,-6.319443 -5.80232,-7.25218 -8.4952,-7.25218 -3.21191,0 -6.21506,0.98445 -8.85717,3.677323 -1.81281,-2.434311 -4.1437,-3.677323 -7.3039,-3.677323 -2.48602,0 -5.90478,0.72493 -7.97711,3.1602 l 0,-2.434312 -8.08053,0 0,27.555987 9.5e-4,0 z"
     id="path23"
     style="fill-rule:evenodd" /><path
     d="m 227.54578,48.134191 c 4.6091,0 6.578,3.573899 6.578,7.977112 0,5.024718 -1.9689,8.598617 -6.578,8.598617 -4.61006,0 -6.57896,-3.573899 -6.57896,-8.287386 0,-4.713486 1.9689,-8.288343 6.57896,-8.288343 z m 0,-6.216017 c -8.59862,0 -14.6595,5.231567 -14.6595,14.50436 0,9.271836 6.05992,14.503404 14.6595,14.503404 8.59862,0 14.6595,-5.231568 14.6595,-14.503404 0,-9.271835 -6.06088,-14.50436 -14.6595,-14.50436 z"
     id="path25"
     style="fill-rule:evenodd" /><path
     d="m 244.37911,70.200049 8.08054,0 0,-17.144564 c 0,-2.486024 1.03616,-4.610062 4.29978,-4.610062 3.10753,0 3.93589,1.812806 3.93589,4.506637 l 0,17.248947 8.08054,0 0,-20.357435 c 0,-4.143692 -1.81377,-7.925398 -8.34006,-7.925398 -2.48602,0 -5.90479,0.72493 -7.97711,3.1602 l 0,-2.434312 -8.08054,0 0,27.555987 9.6e-4,0 z"
     id="path27"
     style="fill-rule:evenodd" /><path
     d="m 295.75822,45.907687 c -3.72999,-2.486024 -7.92444,-3.988556 -12.17252,-3.988556 -5.59547,0 -11.65539,2.693831 -11.65539,9.63478 0,9.789917 16.31621,6.371155 16.31621,10.670942 0,2.486982 -3.05486,2.797256 -4.40321,2.797256 -3.67733,0 -6.21506,-1.501574 -8.70205,-3.885131 l -5.02471,4.350543 c 4.04122,3.729993 7.45903,5.439374 13.46819,5.439374 6.00726,0 12.43108,-2.590406 12.43108,-9.841629 0,-10.307998 -16.31621,-6.422867 -16.31621,-11.136354 0,-1.398149 1.44987,-2.123079 3.46952,-2.123079 2.53869,0 6.00917,1.036162 7.61417,2.952393 l 4.97492,-4.870539 z"
     id="path29"
     style="fill-rule:evenodd" /><path
     d="m 96.098691,16.94972 c -2.642119,-4.816911 -7.148756,-6.734099 -12.380324,-6.734099 -7.614167,0 -13.675048,5.386704 -13.675048,14.503403 0,9.271835 5.697937,14.504361 13.93361,14.504361 5.28328,0 9.789917,-2.900681 12.275941,-7.303893 l -5.801361,-2.952393 c -1.295682,3.108488 -3.263625,4.040268 -5.749649,4.040268 -4.299788,0 -6.26773,-3.573899 -6.26773,-8.288343 0,-4.713487 1.657668,-8.287386 6.26773,-8.287386 1.243012,0 3.729994,0.673219 5.179855,3.781707 l 6.216976,-3.263625 z"
     id="path31"
     style="fill-rule:evenodd" /><path
     d="m 98.069506,38.497496 8.080534,0 0,-15.954222 c 0,-3.055818 1.91623,-3.885131 6.7341,-4.454925 l 0.88007,-0.103424 -0.0517,-7.147798 c -2.84897,0.207807 -5.80136,1.243012 -7.56246,2.90068 l 0,-2.797256 -8.080534,0 0,27.556945 z"
     id="path33"
     style="fill-rule:evenodd" /><path
     d="m 141.2072,26.376692 c -0.0517,-8.495192 -3.47048,-16.161071 -13.51992,-16.161071 -8.39176,0 -13.51991,5.594511 -13.51991,15.332716 0,7.769304 4.97301,13.675048 13.51991,13.675048 6.16431,0 10.56656,-2.434312 13.36382,-7.614167 l -6.06088,-3.1602 c -2.33089,3.315337 -3.72999,4.868623 -6.7341,4.868623 -2.58945,0 -5.9565,-1.657669 -6.00821,-6.940949 l 18.95929,0 0,0 z m -19.06176,-4.972048 c 0.36199,-3.626569 3.15925,-5.28328 5.49013,-5.28328 2.33089,0 5.23157,1.243012 5.49013,5.28328 l -10.98026,0 z"
     id="path35"
     style="fill-rule:evenodd" /><path
     d="m 159.74321,26.998198 c 0,4.195406 -2.3826,6.319443 -5.5428,6.319443 -1.9689,0 -3.78171,-0.932738 -3.78171,-3.10753 0,-2.227462 1.86452,-3.004105 3.88513,-3.573899 l 5.43938,-1.554244 0,1.91623 0,0 z m 7.7693,-8.805466 c -0.0517,-6.216018 -4.7652,-7.977111 -12.27594,-7.977111 -3.72999,0 -11.08464,0.72493 -11.34416,8.650329 l 7.77026,0 c 0.41466,-2.745543 1.65671,-3.677324 4.24712,-3.677324 2.17575,0 3.83342,0.880068 3.83342,2.952393 l 0,2.279175 -2.9524,0.414657 c -8.80546,1.243012 -14.14141,3.573899 -14.14141,10.204573 0,5.28328 3.93684,8.183961 9.22012,8.183961 2.90068,0 6.94095,-1.398149 8.28738,-3.573899 l 0.10343,0 c 0.0517,0.932738 0.20781,1.91623 0.51808,2.848968 l 7.45903,0 c -0.67322,-1.709381 -0.72493,-3.832461 -0.72493,-5.749649 l 0,-14.556073 0,0 z"
     id="path37"
     style="fill-rule:evenodd" /><path
     d="m 186.51585,11.458633 -4.81787,0 0,-7.9771116 -8.08054,0 0,7.9771116 -3.93588,0 0,4.972048 3.93588,0 0,14.504361 c 0,3.988555 0.98445,8.287385 7.87465,8.287385 1.76109,0 4.14369,-0.206849 5.17985,-0.311232 l 0,-6.371155 c -0.41561,0.05171 -1.55424,0.155137 -2.43431,0.155137 -1.45178,0 -2.53869,-0.569793 -2.53869,-2.745543 l 0,-13.517996 4.81786,0 0,-4.973005 -9.5e-4,0 z"
     id="path39"
     style="fill-rule:evenodd" /><path
     d="m 189.55826,10.940551 0,27.556945 8.08053,0 0,-27.556945 -8.08053,0 z m 8.08149,-3.1075298 0,-6.2160179 -8.08053,0 0,6.2160179 8.08053,0 z"
     id="path41"
     style="fill-rule:evenodd" /><path
     d="m 211.67,38.512 0,0 8.492,0 9.845,-28.776 -8.979,0 -4.977,20.338 -0.107,0 -4.978,-20.338 -9.032,0 z"
     transform="matrix(0.9576364,0,0,0.9576364,5.8108155,1.6170033)"
     id="polygon43"
     style="fill-rule:evenodd" /><path
     d="m 252.16853,26.376692 c -0.0517,-8.495192 -3.47048,-16.161071 -13.51896,-16.161071 -8.39272,0 -13.51895,5.594511 -13.51895,15.332716 0,7.769304 4.97109,13.675048 13.51895,13.675048 6.16431,0 10.56656,-2.434312 13.36382,-7.614167 l -6.06088,-3.1602 c -2.33089,3.315337 -3.73,4.868623 -6.73314,4.868623 -2.58945,0 -5.95746,-1.657669 -6.00821,-6.940949 l 18.95737,0 0,0 z m -19.06176,-4.972048 c 0.36295,-3.626569 3.15925,-5.28328 5.49013,-5.28328 2.33089,0 5.23253,1.243012 5.49109,5.28328 l -10.98122,0 z"
     id="path45"
     style="fill-rule:evenodd" /><path
     d="m 36.074041,9.7521245 c -8.314199,0 -15.630541,3.0768855 -21.284427,8.8131275 -5.819556,5.903829 -8.9787985,13.552471 -8.9787985,21.53437 0,8.064256 3.0759281,15.547227 8.8964425,21.367741 5.819556,5.819556 13.385841,8.978799 21.366783,8.978799 7.980942,0 15.713856,-3.159243 21.700041,-9.062113 5.653885,-5.570571 8.646499,-12.970228 8.646499,-21.284427 0,-8.230885 -2.992614,-15.713856 -8.729814,-21.451055 C 51.871211,12.82901 44.38824,9.7521245 36.074041,9.7521245 z m 0.08331,5.4882145 c 6.817414,0 12.886913,2.576999 17.626256,7.316342 4.65507,4.656028 7.149713,10.808842 7.149713,17.542941 0,6.817414 -2.411328,12.803599 -7.067356,17.37727 -4.905972,4.821699 -11.224457,7.399657 -17.70957,7.399657 -6.568428,0 -12.721242,-2.577 -17.459627,-7.316342 -4.739343,-4.740301 -7.399657,-10.975471 -7.399657,-17.460585 0,-6.568428 2.660314,-12.803599 7.399657,-17.626256 4.656028,-4.738384 10.643171,-7.233027 17.460584,-7.233027 z"
     id="path49"
     style="fill-rule:evenodd" /><path
     d="m 35.765682,35.056709 c -1.714169,-3.125725 -4.638791,-4.369695 -8.033612,-4.369695 -4.941403,0 -8.874416,3.495373 -8.874416,9.412608 0,6.01683 3.697434,9.412608 9.04296,9.412608 3.429296,0 6.35296,-1.882713 7.966578,-4.739342 l -3.765427,-1.916231 c -0.840805,2.016782 -2.117334,2.622009 -3.730951,2.622009 -2.790553,0 -4.067082,-2.319396 -4.067082,-5.378086 0,-3.058691 1.075426,-5.379044 4.067082,-5.379044 0.80633,0 2.419947,0.43764 3.361304,2.453464 l 4.033564,-2.118291 z"
     id="path51"
     style="fill-rule:evenodd" /><path
     d="m 53.273191,35.056709 c -1.715127,-3.125725 -4.638791,-4.369695 -8.033612,-4.369695 -4.941404,0 -8.875374,3.495373 -8.875374,9.412608 0,6.01683 3.698392,9.412608 9.04296,9.412608 3.429296,0 6.35296,-1.882713 7.966578,-4.739342 l -3.765427,-1.916231 c -0.839847,2.016782 -2.117334,2.622009 -3.730951,2.622009 -2.789595,0 -4.06804,-2.319396 -4.06804,-5.378086 0,-3.058691 1.076384,-5.379044 4.06804,-5.379044 0.80633,0 2.419947,0.43764 3.362261,2.453464 l 4.033565,-2.118291 z"
     id="path53"
     style="fill-rule:evenodd" /></g>

	</svg>
