<?xml version="1.0" encoding="UTF-8" standalone="no"?>
<svg width="136px" height="35px" viewBox="0 0 136 35" version="1.1" xmlns="http://www.w3.org/2000/svg" xmlns:xlink="http://www.w3.org/1999/xlink" xmlns:sketch="http://www.bohemiancoding.com/sketch/ns">
    <!-- Generator: Sketch 3.5.1 (25234) - http://www.bohemiancoding.com/sketch -->
    <title>logo-advocacy</title>
    <desc>Created with Sketch.</desc>
    <defs></defs>
    <g id="Page-1" stroke="none" stroke-width="1" fill="none" fill-rule="evenodd" sketch:type="MSPage">
        <g id="logo-advocacy" sketch:type="MSLayerGroup" transform="translate(-1.000000, -1.000000)" fill="#FFFFFF">
            <path d="M11.6905,7.0139 L11.6535,7.0139 C11.6535,7.0139 9.0455,16.1619 8.4575,17.8519 L14.7035,17.8519 C14.4455,17.3009 11.8745,8.0059 11.6905,7.0139 L11.6905,7.0139 Z M17.7155,28.0649 L15.6585,21.3789 L7.4285,21.3789 L5.3715,28.0649 L0.9995,28.0649 L9.3395,2.6049 L14.2255,2.6049 L22.3445,28.0649 L17.7155,28.0649 Z" id="Fill-16" sketch:type="MSShapeGroup"></path>
            <path d="M33.8068,13.8837 C32.8888,12.8917 31.7868,12.3777 30.4268,12.3777 C27.8558,12.3777 26.6798,14.4347 26.6798,18.9167 C26.6798,23.0317 27.4878,25.0887 30.5368,25.0887 C32.0438,25.0887 33.2558,24.2437 33.8068,23.3257 L33.8068,13.8837 Z M34.6888,28.0647 C34.5048,27.6607 34.4688,27.4027 34.3578,26.6317 C33.1088,27.8807 31.6398,28.4687 29.8028,28.4687 C25.0638,28.4687 22.1978,24.7577 22.1978,18.9537 C22.1978,13.1127 25.4308,9.1447 29.9128,9.1447 C31.4928,9.1447 32.7778,9.6587 33.9168,10.8347 C33.9168,10.8347 33.8068,9.4017 33.8068,7.7857 L33.8068,0.9887 L37.8118,1.6137 L37.8118,21.5987 C37.8118,25.2727 38.0318,27.1457 38.3988,28.0647 L34.6888,28.0647 Z" id="Fill-19" sketch:type="MSShapeGroup"></path>
            <path d="M49.5052,28.1384 L45.9422,28.1384 L39.2552,9.6224 L43.4072,9.0344 L46.6392,19.0634 C47.2642,21.0114 47.7782,23.2154 47.7782,23.2154 L47.8522,23.2154 C47.8522,23.2154 48.2562,21.0114 48.9542,18.9164 L52.0402,9.4754 L56.2652,9.4754 L49.5052,28.1384 Z" id="Fill-21" sketch:type="MSShapeGroup"></path>
            <path d="M60.4749,18.5497 C60.4749,23.9497 61.8339,25.5297 64.2589,25.5297 C66.6469,25.5297 67.9689,23.5827 67.9689,18.9167 C67.9689,13.6637 66.4999,12.0837 64.1489,12.0837 C61.5769,12.0837 60.4749,14.0307 60.4749,18.5497 M72.4149,18.8437 C72.4149,24.8317 69.2189,28.5427 64.1849,28.5427 C59.1519,28.5427 55.9929,24.7577 55.9929,18.8067 C55.9929,12.8557 59.1889,9.0347 64.1119,9.0347 C69.4019,9.0347 72.4149,12.9657 72.4149,18.8437" id="Fill-23" sketch:type="MSShapeGroup"></path>
            <path d="M81.9009,28.5424 C76.8309,28.5424 74.0029,24.9784 74.0029,18.9904 C74.0029,12.2304 78.0429,8.9984 82.1949,8.9984 C84.2149,8.9984 85.6849,9.4754 87.3379,11.0184 L85.3179,13.7004 C84.2149,12.7084 83.2599,12.2674 82.1949,12.2674 C80.9089,12.2674 79.8439,12.9284 79.2559,14.1414 C78.7049,15.2804 78.4839,17.0064 78.4839,19.3214 C78.4839,21.8564 78.8889,23.4724 79.7339,24.3914 C80.3209,25.0524 81.2029,25.4564 82.1949,25.4564 C83.4809,25.4564 84.7299,24.8314 85.9419,23.6194 L87.8519,26.0814 C86.1629,27.7704 84.3989,28.5424 81.9009,28.5424" id="Fill-25" sketch:type="MSShapeGroup"></path>
            <path d="M98.3739,19.2845 C94.3329,19.2845 93.1199,20.4605 93.1199,22.8115 C93.1199,24.5745 94.0759,25.6765 95.6919,25.6765 C96.9779,25.6765 98.2269,24.9055 99.0349,23.7295 L99.1089,19.3215 C99.1089,19.3215 98.6679,19.2845 98.3739,19.2845 L98.3739,19.2845 Z M102.5619,28.8365 C101.4229,28.3955 100.4679,27.5135 100.0269,26.3385 C98.5209,28.0275 96.9049,28.6155 94.9209,28.6155 C90.6589,28.6155 88.7489,26.2645 88.7489,23.0315 C88.7489,18.7335 91.9819,16.5655 97.9329,16.5655 L99.1819,16.5655 L99.1819,15.5735 C99.1819,13.4435 98.8149,12.3045 96.6109,12.3045 C93.9289,12.3045 91.0629,14.4355 91.0629,14.4355 L89.2629,11.5325 C92.0549,9.7695 94.3699,8.9975 97.1619,8.9975 C100.0639,8.9975 102.0109,10.0625 102.8189,12.0835 C103.1499,12.8915 103.1499,13.8835 103.1129,16.6395 L103.0399,21.9665 C103.0029,24.4645 103.2229,25.2725 104.6559,26.2645 L102.5619,28.8365 Z" id="Fill-27" sketch:type="MSShapeGroup"></path>
            <path d="M113.5322,28.5424 C108.4622,28.5424 105.6342,24.9784 105.6342,18.9904 C105.6342,12.2304 109.6742,8.9984 113.8262,8.9984 C115.8462,8.9984 117.3162,9.4754 118.9692,11.0184 L116.9492,13.7004 C115.8462,12.7084 114.8912,12.2674 113.8262,12.2674 C112.5402,12.2674 111.4752,12.9284 110.8872,14.1414 C110.3362,15.2804 110.1152,17.0064 110.1152,19.3214 C110.1152,21.8564 110.5202,23.4724 111.3652,24.3914 C111.9522,25.0524 112.8342,25.4564 113.8262,25.4564 C115.1122,25.4564 116.3612,24.8314 117.5732,23.6194 L119.4842,26.0814 C117.7942,27.7704 116.0302,28.5424 113.5322,28.5424" id="Fill-29" sketch:type="MSShapeGroup"></path>
            <path d="M130.4241,28.4687 C128.8811,32.9507 127.5581,35.1917 123.1871,35.9997 L121.8641,33.3917 C124.3991,32.6937 125.8321,31.6287 126.8971,28.0647 L125.6111,28.0647 C125.0971,25.9707 124.3991,23.9497 123.8481,22.2967 L119.6231,9.7687 L123.7381,9.0717 L127.1541,20.3867 C127.4851,21.5247 128.1831,24.5747 128.1831,24.5747 C128.1831,24.5747 128.8811,21.8187 129.5791,19.5417 L132.6651,9.4757 L137.0001,9.4757 L130.4241,28.4687 Z" id="Fill-31" sketch:type="MSShapeGroup"></path>
        </g>
    </g>
</svg>