<svg width="1079" height="425" viewBox="0 0 1079 425" xmlns="http://www.w3.org/2000/svg" xmlns:xlink="http://www.w3.org/1999/xlink"><title>BITS OF FREEDOM_LOGO_payoff_RGB_white</title><defs><path id="a" d="M539.207.013H.137V411.39h1078.14V.013z"/><path id="c" d="M110.638 64.142H.03V2.084h110.608v62.058z"/><path id="e" d="M2.142 64.142h65.386V2.084H2.142v62.058z"/></defs><g fill="none" fill-rule="evenodd"><g><mask id="b" fill="#fff"><use xlink:href="#a"/></mask><path d="M1078.277 30.096V2.25h-98.274v142.492h30.316V88.64h63.277V60.994h-63.277V30.096h67.958zm-122.28 43.297c0-21.139-7.123-38.62-21.363-52.443C920.39 6.926 902.891.013 882.14.013c-20.55 0-38.045 6.913-52.088 20.937-14.037 13.823-21.159 31.304-21.159 52.443 0 21.343 7.122 38.825 21.16 52.85 14.042 13.824 31.538 20.734 52.087 20.734 20.752 0 38.25-6.91 52.495-20.735 14.24-14.024 21.364-31.506 21.364-52.849zm-42.322 32.117c-7.525 8.742-17.902 13.01-30.72 13.01-13.226 0-23.604-4.268-31.334-13.01-7.732-8.74-11.6-19.31-11.6-32.117 0-12.603 3.868-23.173 11.6-31.912 7.935-8.74 18.312-13.01 31.334-13.01 12.409 0 22.38 4.474 30.314 13.212 7.934 8.742 12.004 19.311 12.004 31.71 0 12.808-3.865 23.377-11.598 32.117zM771.05 198.649c-14.04 13.822-21.159 31.304-21.159 52.443 0 21.345 7.119 38.824 21.159 52.851 14.037 13.823 31.536 20.735 52.088 20.735 20.752 0 38.248-6.912 52.493-20.735 14.24-14.027 21.363-31.506 21.363-52.851 0-21.14-7.124-38.62-21.363-52.443-14.245-14.025-31.741-20.937-52.493-20.937-20.552 0-38.05 6.912-52.088 20.937zm52.9 7.52c12.412 0 22.383 4.472 30.317 13.214 7.935 8.74 12.002 19.312 12.002 31.709 0 12.807-3.865 23.377-11.595 32.119-7.53 8.74-17.905 13.01-30.725 13.01-13.224 0-23.601-4.27-31.331-13.01-7.733-8.742-11.598-19.312-11.598-32.12 0-12.6 3.865-23.172 11.598-31.912 7.934-8.74 18.311-13.01 31.331-13.01zM703.706 195.6c-15.462-10.57-33.572-15.652-53.917-15.652h-47v142.494h47c20.143 0 38.657-5.691 54.12-16.467 15.464-11.18 25.432-30.691 25.432-55.696 0-24.594-9.968-44.11-25.635-54.679zm-58.396 98.993h-12.206v-86.796h12.004c35.606 0 53.51 14.229 53.51 42.482 0 29.474-17.7 44.314-53.308 44.314zm-250.477 27.849h174.87v-27.85H425.153v-31.101h141.092v-27.438H425.152v-28.256h144.553v-27.85h-174.87v142.495zm20.428-294.784c13.43 0 25.435 5.49 36.217 16.465l20.348-21.343C457.38 7.534 439.068.013 416.89.013c-14.446 0-26.857 3.862-37.234 11.791-10.377 7.723-15.463 18.088-15.463 31.302 0 23.581 17.092 38.012 44.965 42.688l17.498 3.05c13.225 2.437 19.94 7.52 19.94 15.04 0 8.945-9.36 15.448-24.825 15.448-16.276 0-29.704-6.91-40.284-20.53l-20.752 20.937c12.818 16.058 34.18 27.238 59.207 27.238 17.09 0 30.723-4.066 41.098-11.993 10.377-7.927 15.666-18.496 15.666-31.506 0-24.596-16.073-39.435-48.016-44.516l-14.038-2.236c-13.633-2.44-20.347-7.52-20.347-15.043 0-8.334 8.139-14.025 20.956-14.025zm-110.07 2.438h40.895V2.25H234.183v27.847h40.898v114.645h30.11V30.096zm-84.64 161.643c-9.97-7.93-23.601-11.791-40.49-11.791h-57.783v142.494h30.316v-50.82h15.871c15.665 0 24.617 5.285 28.078 12.401 1.829 3.453 3.458 8.74 5.085 15.448l5.494 22.97h32.148l-7.937-29.678c-3.863-14.635-8.342-22.766-21.16-30.693 15.668-6.708 25.638-21.548 25.638-37.808 0-14.027-5.087-24.8-15.26-32.523zm-40.084 52.24h-27.873v-36.182h27.873c16.076 0 25.23 6.097 25.23 17.684 0 12.805-7.934 18.499-25.23 18.499zm-38.655-99.238v-27.645h20.346V29.892h-20.346V2.249h70.805v27.643h-20.55v87.204h20.55v27.645h-70.805zM113.331 41.683c0-25.41-19.332-39.434-49.239-39.434H0v142.492h67.55c14.854 0 26.654-3.861 35.606-11.382 9.155-7.725 13.631-17.888 13.631-30.287 0-13.214-6.103-23.988-18.107-32.523 9.766-7.523 14.651-17.278 14.651-28.866zM59.21 59.369H30.316V30.096h27.67c17.701 0 24.825 3.864 24.825 14.635 0 9.76-7.937 14.638-23.602 14.638zm1.423 57.525H30.316V84.777h31.131c16.478 0 24.822 5.285 24.822 15.652 0 11.993-8.748 16.465-25.637 16.465zm37.641 63.054H0v142.494h30.316v-56.105h63.276v-27.642H30.316v-30.898h67.957v-27.85zm267.397 0H260.48v142.494h105.19v-27.85h-74.874v-31.101h71.415v-27.438h-71.415v-28.256h74.874v-27.85zm555.738 0v142.494h30.313V208.203h5.901l24.417 114.239h34.588l25.026-114.239h6.103v114.239h30.52V179.948h-61.447l-17.496 88.625-16.887-88.625h-61.038zM0 363.758h6.128l12.466 45.181h.818l12.464-45.181h6.129l-13.484 47.63H13.486L0 363.759" fill="#000" mask="url(#b)"/></g><path d="M60.685 407.307c1.636 0 3.145-.282 4.529-.85a10.58 10.58 0 0 0 3.644-2.483c1.046-1.09 1.861-2.392 2.452-3.914.59-1.52.885-3.233.885-5.136v-.82c0-1.813-.295-3.48-.885-5-.59-1.52-1.406-2.823-2.452-3.914a11.319 11.319 0 0 0-3.677-2.55 11.144 11.144 0 0 0-4.496-.919c-1.59 0-3.089.306-4.495.919a11.353 11.353 0 0 0-3.679 2.55c-1.043 1.09-1.861 2.395-2.452 3.914-.588 1.52-.885 3.187-.885 5v.82c0 1.903.297 3.616.885 5.136.59 1.522 1.409 2.823 2.452 3.914a10.602 10.602 0 0 0 3.644 2.484c1.386.567 2.896.849 4.53.849zm16.96-12.383c0 2.81-.466 5.294-1.397 7.45-.93 2.155-2.17 3.971-3.711 5.443-1.544 1.474-3.35 2.598-5.414 3.37a18.32 18.32 0 0 1-6.438 1.157c-2.27 0-4.426-.388-6.469-1.157a15.744 15.744 0 0 1-5.382-3.37c-1.544-1.472-2.782-3.288-3.71-5.443-.934-2.156-1.398-4.64-1.398-7.45v-.82c0-2.764.464-5.227 1.397-7.38.929-2.156 2.179-3.983 3.746-5.478a15.881 15.881 0 0 1 5.414-3.404 17.975 17.975 0 0 1 6.402-1.157c2.226 0 4.359.385 6.401 1.157a15.87 15.87 0 0 1 5.416 3.404c1.568 1.495 2.815 3.322 3.746 5.478.93 2.153 1.397 4.616 1.397 7.38v.82zM102.368 407.307c1.636 0 3.146-.282 4.529-.85a10.58 10.58 0 0 0 3.644-2.483c1.046-1.09 1.864-2.392 2.452-3.914.59-1.52.887-3.233.887-5.136v-.82c0-1.813-.296-3.48-.887-5-.588-1.52-1.406-2.823-2.452-3.914a11.319 11.319 0 0 0-3.676-2.55 11.144 11.144 0 0 0-4.497-.919c-1.588 0-3.086.306-4.495.919a11.319 11.319 0 0 0-3.676 2.55c-1.046 1.09-1.864 2.395-2.452 3.914-.59 1.52-.887 3.187-.887 5v.82c0 1.903.296 3.616.887 5.136.588 1.522 1.406 2.823 2.452 3.914a10.593 10.593 0 0 0 3.642 2.484c1.385.567 2.895.849 4.529.849zm16.96-12.383c0 2.81-.466 5.294-1.397 7.45-.93 2.155-2.166 3.971-3.71 5.443-1.545 1.474-3.351 2.598-5.414 3.37a18.32 18.32 0 0 1-6.44 1.157c-2.27 0-4.425-.388-6.468-1.157a15.788 15.788 0 0 1-5.381-3.37c-1.544-1.472-2.78-3.288-3.711-5.443-.933-2.156-1.397-4.64-1.397-7.45v-.82c0-2.764.464-5.227 1.397-7.38.93-2.156 2.178-3.983 3.745-5.478a15.881 15.881 0 0 1 5.414-3.404 17.985 17.985 0 0 1 6.402-1.157c2.227 0 4.361.385 6.402 1.157a15.87 15.87 0 0 1 5.416 3.404c1.567 1.495 2.815 3.322 3.745 5.478.931 2.153 1.398 4.616 1.398 7.38v.82z" fill="#000"/><g transform="translate(126.383 360.72)"><mask id="d" fill="#fff"><use xlink:href="#c"/></mask><path d="M.846 16.92h12.259v4.49h.818c.862-1.86 2.089-3.233 3.679-4.116 1.588-.887 3.403-1.33 5.448-1.33 3.405 0 6.151 1.114 8.24 3.336 2.089 2.222 3.201 5.468 3.339 9.731l-5.586.815c0-3.129-.75-5.385-2.248-6.77-1.498-1.384-3.338-2.075-5.517-2.075-1.406 0-2.622.27-3.644.817a7.35 7.35 0 0 0-2.553 2.246c-.683.952-1.181 2.063-1.498 3.333-.32 1.272-.478 2.63-.478 4.084v14.288h8.582v4.9H.03v-4.9h7.762V21.82H.846v-4.9M101.102 6.848c0-1.315.466-2.438 1.397-3.368.93-.93 2.054-1.396 3.37-1.396 1.32 0 2.441.467 3.374 1.396.93.93 1.395 2.053 1.395 3.368 0 1.316-.464 2.438-1.395 3.368-.933.93-2.054 1.396-3.373 1.396-1.317 0-2.44-.466-3.371-1.396-.93-.93-1.397-2.052-1.397-3.368zM89.799 16.92h18.796v42.053c0 1.54-.487 2.81-1.464 3.808-.976 1-2.238 1.5-3.78 1.5H88.162v-4.902h13.282c1.227 0 1.838-.682 1.838-2.04v-35.52H89.8V16.92z" fill="#000" mask="url(#d)"/></g><path d="M269.102 407.307c1.633 0 3.143-.282 4.529-.85a10.593 10.593 0 0 0 3.642-2.483c1.045-1.09 1.863-2.392 2.452-3.914.59-1.52.887-3.233.887-5.136v-.82c0-1.813-.297-3.48-.887-5-.589-1.52-1.407-2.823-2.452-3.914a11.319 11.319 0 0 0-3.677-2.55 11.141 11.141 0 0 0-4.494-.919c-1.59 0-3.089.306-4.497.919a11.343 11.343 0 0 0-3.677 2.55c-1.046 1.09-1.861 2.395-2.452 3.914-.59 1.52-.885 3.187-.885 5v.82c0 1.903.295 3.616.885 5.136.59 1.522 1.406 2.823 2.452 3.914a10.602 10.602 0 0 0 3.644 2.484c1.384.567 2.896.849 4.53.849zm16.958-12.383c0 2.81-.467 5.294-1.395 7.45-.933 2.155-2.17 3.971-3.713 5.443a15.707 15.707 0 0 1-5.414 3.37 18.307 18.307 0 0 1-6.436 1.157c-2.27 0-4.428-.388-6.471-1.157a15.788 15.788 0 0 1-5.382-3.37c-1.542-1.472-2.78-3.288-3.711-5.443-.93-2.156-1.397-4.64-1.397-7.45v-.82c0-2.764.466-5.227 1.397-7.38.93-2.156 2.18-3.983 3.746-5.478a15.87 15.87 0 0 1 5.416-3.404 17.966 17.966 0 0 1 6.402-1.157c2.224 0 4.359.385 6.401 1.157a15.86 15.86 0 0 1 5.414 3.404c1.567 1.495 2.815 3.322 3.748 5.478.928 2.153 1.395 4.616 1.395 7.38v.82zM319.979 377.64h5.312v33.749h-5.312v-6.123h-.818c-1.09 2.176-2.519 3.9-4.29 5.17-1.772 1.272-4.02 1.908-6.745 1.908-1.861 0-3.573-.308-5.14-.92a10.497 10.497 0 0 1-4.019-2.758c-1.114-1.224-1.976-2.743-2.59-4.557-.611-1.813-.919-3.926-.919-6.33v-20.14h5.313V397.1c0 3.538.726 6.123 2.18 7.758 1.453 1.632 3.677 2.449 6.674 2.449 3.223 0 5.756-1.1 7.596-3.299 1.839-2.201 2.758-5.14 2.758-8.813V377.64M366.77 411.389h-9.807l-4.086-31.3h-.818l-4.088 31.3h-9.807l-5.313-33.75h5.449l4.497 31.3h.815l3.953-31.3h9.807l3.95 31.3h.816l4.497-31.3h5.448l-5.313 33.75M431.405 367.568c0-1.315.466-2.438 1.397-3.367.93-.93 2.054-1.396 3.37-1.396 1.318 0 2.441.466 3.374 1.396.929.93 1.395 2.052 1.395 3.367 0 1.316-.466 2.439-1.395 3.368-.933.93-2.056 1.396-3.373 1.396-1.317 0-2.44-.466-3.371-1.396-.93-.93-1.397-2.052-1.397-3.368zm-9.672 38.922h11.853v-23.951H422.96v-4.9h15.938v28.85h11.035v4.9h-28.2v-4.9zM467.913 411.389h-5.312v-33.75h5.312v5.715h.818c2.087-4.442 5.72-6.67 10.897-6.67 3.904 0 7.015 1.215 9.332 3.642 2.316 2.429 3.474 6.07 3.474 10.923v20.14h-5.315v-19.052c0-3.54-.795-6.192-2.383-7.962-1.59-1.77-3.745-2.654-6.47-2.654-3.225 0-5.755 1.1-7.595 3.3-1.838 2.201-2.758 5.14-2.758 8.813v17.555M503.126 377.64h10.625v-13.882h5.313v13.882h13.075v4.899h-13.075v21.91c0 1.361.611 2.04 1.838 2.04h9.603v4.9h-11.51c-1.544 0-2.803-.498-3.78-1.495-.976-.998-1.464-2.27-1.464-3.813V382.54h-10.625v-4.9M561.154 381.721c-1.498 0-2.895.24-4.189.714a10.696 10.696 0 0 0-3.403 2.007 10.652 10.652 0 0 0-2.385 3.028 11.138 11.138 0 0 0-1.19 3.779h21.793c-.088-1.451-.442-2.767-1.055-3.947a9.647 9.647 0 0 0-2.385-2.996 10.971 10.971 0 0 0-3.337-1.903 11.168 11.168 0 0 0-3.849-.682zm-11.305 14.427c.138 3.356 1.18 6.056 3.134 8.097 1.95 2.043 4.674 3.062 8.171 3.062 1.588 0 2.974-.181 4.155-.546 1.18-.36 2.192-.859 3.03-1.495a8.144 8.144 0 0 0 2.046-2.213c.521-.838.942-1.735 1.259-2.686l5.04 1.36c-.954 3.13-2.715 5.681-5.277 7.655-2.566 1.972-6.03 2.962-10.388 2.962-2.409 0-4.621-.423-6.641-1.263a14.881 14.881 0 0 1-5.212-3.57c-1.452-1.542-2.587-3.379-3.403-5.512-.818-2.132-1.227-4.49-1.227-7.075v-1.634c0-2.358.418-4.56 1.262-6.6.838-2.041 2.008-3.8 3.506-5.274 1.498-1.474 3.258-2.63 5.278-3.47 2.02-.839 4.212-1.261 6.572-1.261 2.771 0 5.166.512 7.186 1.533 2.02 1.022 3.679 2.28 4.972 3.774 1.294 1.5 2.248 3.132 2.863 4.9.612 1.77.92 3.404.92 4.898v4.358h-27.246zM585.744 377.64h12.259v4.49h.818c.862-1.86 2.089-3.232 3.677-4.116 1.59-.886 3.405-1.33 5.45-1.33 3.406 0 6.151 1.114 8.24 3.336 2.089 2.223 3.203 5.469 3.34 9.732l-5.587.815c0-3.13-.75-5.386-2.247-6.77-1.499-1.385-3.34-2.076-5.518-2.076-1.406 0-2.621.271-3.642.818a7.336 7.336 0 0 0-2.555 2.245c-.682.953-1.183 2.064-1.498 3.333-.32 1.272-.478 2.631-.478 4.084v14.289h8.582v4.899h-21.66v-4.9h7.765v-23.95h-6.946v-4.9M634.647 411.389h-5.313v-33.75h5.313v5.715h.816c2.086-4.442 5.724-6.67 10.899-6.67 3.904 0 7.015 1.215 9.331 3.642 2.314 2.429 3.472 6.07 3.472 10.923v20.14h-5.31v-19.052c0-3.54-.797-6.192-2.385-7.962-1.59-1.77-3.748-2.654-6.471-2.654-3.226 0-5.756 1.1-7.594 3.3-1.839 2.201-2.758 5.14-2.758 8.813v17.555M686.204 381.721c-1.498 0-2.895.24-4.189.714a10.732 10.732 0 0 0-3.405 2.007 10.733 10.733 0 0 0-2.385 3.028 11.135 11.135 0 0 0-1.188 3.779h21.793c-.09-1.451-.444-2.767-1.055-3.947a9.68 9.68 0 0 0-2.385-2.996 11.01 11.01 0 0 0-3.339-1.903 11.155 11.155 0 0 0-3.847-.682zM674.9 396.148c.138 3.356 1.181 6.056 3.132 8.097 1.953 2.043 4.676 3.062 8.173 3.062 1.588 0 2.974-.181 4.155-.546 1.179-.36 2.192-.859 3.03-1.495a8.134 8.134 0 0 0 2.044-2.213c.521-.838.942-1.735 1.259-2.686l5.041 1.36c-.953 3.13-2.713 5.681-5.278 7.655-2.566 1.972-6.027 2.962-10.386 2.962-2.408 0-4.621-.423-6.641-1.263a14.881 14.881 0 0 1-5.212-3.57c-1.452-1.542-2.587-3.379-3.405-5.512-.816-2.132-1.227-4.49-1.227-7.075v-1.634c0-2.358.42-4.56 1.264-6.6.836-2.041 2.008-3.8 3.504-5.274 1.5-1.474 3.258-2.63 5.28-3.47 2.018-.839 4.213-1.261 6.572-1.261 2.772 0 5.166.512 7.186 1.533 2.02 1.022 3.679 2.28 4.972 3.774 1.294 1.5 2.248 3.132 2.861 4.9.614 1.77.92 3.404.92 4.898v4.358h-27.244zM711.54 377.64h10.626v-13.882h5.313v13.882h13.077v4.899h-13.077v21.91c0 1.361.611 2.04 1.838 2.04h9.603v4.9h-11.51c-1.544 0-2.804-.498-3.78-1.495-.977-.998-1.464-2.27-1.464-3.813V382.54h-10.625v-4.9M774.475 411.389h-10.488l-11.783-33.75h6.266l10.354 31.3h.816l10.352-31.3h6.269l-11.786 33.75M794.16 377.64h12.26v4.49h.816c.864-1.86 2.088-3.232 3.676-4.116 1.593-.886 3.408-1.33 5.453-1.33 3.403 0 6.15 1.114 8.238 3.336 2.091 2.223 3.203 5.469 3.339 9.732l-5.586.815c0-3.13-.75-5.386-2.245-6.77-1.5-1.385-3.34-2.076-5.518-2.076-1.408 0-2.624.271-3.644.818a7.336 7.336 0 0 0-2.555 2.245c-.68.953-1.181 2.064-1.498 3.333-.318 1.272-.476 2.631-.476 4.084v14.289H815v4.899h-21.66v-4.9h7.767v-23.95h-6.946v-4.9" fill="#000"/><g transform="translate(836.426 360.72)"><mask id="f" fill="#fff"><use xlink:href="#e"/></mask><path d="M11.811 6.848c0-1.315.467-2.438 1.4-3.368.928-.93 2.051-1.396 3.368-1.396 1.317 0 2.443.467 3.373 1.396.929.93 1.395 2.053 1.395 3.368 0 1.316-.466 2.438-1.395 3.368-.93.93-2.054 1.396-3.373 1.396-1.317 0-2.44-.466-3.369-1.396-.932-.93-1.399-2.052-1.399-3.368zM2.141 45.77h11.85V21.82H3.367v-4.9h15.938v28.85H30.34v4.9H2.142v-4.9zM57.991 6.848c0-1.315.465-2.438 1.395-3.368.93-.93 2.055-1.396 3.373-1.396 1.315 0 2.439.467 3.37 1.396.932.93 1.399 2.053 1.399 3.368 0 1.316-.467 2.438-1.4 3.368-.93.93-2.054 1.396-3.369 1.396-1.318 0-2.442-.466-3.373-1.396-.93-.93-1.395-2.052-1.395-3.368zM46.684 16.92h18.798v42.053c0 1.54-.487 2.81-1.463 3.808-.977 1-2.238 1.5-3.783 1.5H45.05v-4.902H58.33c1.225 0 1.839-.682 1.839-2.04v-35.52H46.684V16.92z" fill="#000" mask="url(#f)"/></g><path d="M926.429 411.389h-5.313v-47.631h5.313v20.004h.815c1.044-2.178 2.51-3.9 4.394-5.17 1.882-1.271 4.189-1.907 6.914-1.907 3.677 0 6.662 1.214 8.955 3.64 2.291 2.43 3.44 6.07 3.44 10.924v20.14h-5.313v-19.052c0-3.54-.795-6.192-2.383-7.962-1.59-1.77-3.748-2.654-6.47-2.654-3.227 0-5.757 1.1-7.595 3.3-1.84 2.201-2.757 5.14-2.757 8.813v17.555M977.988 381.721c-1.498 0-2.895.24-4.189.714a10.732 10.732 0 0 0-3.405 2.007 10.733 10.733 0 0 0-2.385 3.028 11.138 11.138 0 0 0-1.19 3.779h21.795c-.092-1.451-.444-2.767-1.057-3.947a9.673 9.673 0 0 0-2.383-2.996 11.038 11.038 0 0 0-3.34-1.903 11.164 11.164 0 0 0-3.846-.682zm-11.308 14.427c.138 3.356 1.182 6.056 3.135 8.097 1.953 2.043 4.676 3.062 8.173 3.062 1.588 0 2.974-.181 4.155-.546 1.179-.36 2.19-.859 3.03-1.495a8.17 8.17 0 0 0 2.044-2.213c.521-.838.942-1.735 1.259-2.686l5.041 1.36c-.953 3.13-2.714 5.681-5.278 7.655-2.567 1.972-6.03 2.962-10.386 2.962-2.408 0-4.624-.423-6.641-1.263-2.022-.835-3.76-2.027-5.212-3.57-1.452-1.542-2.587-3.379-3.405-5.512-.818-2.132-1.227-4.49-1.227-7.075v-1.634c0-2.358.42-4.56 1.261-6.6.839-2.041 2.009-3.8 3.507-5.274 1.5-1.474 3.258-2.63 5.278-3.47 2.02-.839 4.212-1.261 6.574-1.261 2.77 0 5.164.512 7.186 1.533 2.02 1.022 3.676 2.28 4.97 3.774 1.294 1.5 2.25 3.132 2.863 4.9.611 1.77.92 3.404.92 4.898v4.358H966.68zM1014.97 367.568c0-1.315.467-2.438 1.397-3.367.931-.93 2.055-1.396 3.371-1.396 1.317 0 2.44.466 3.374 1.396.928.93 1.394 2.052 1.394 3.367 0 1.316-.466 2.439-1.394 3.368-.933.93-2.057 1.396-3.374 1.396-1.316 0-2.44-.466-3.37-1.396-.931-.93-1.398-2.052-1.398-3.368zm-9.672 38.922h11.853v-23.951h-10.625v-4.9h15.938v28.85h11.034v4.9h-28.2v-4.9zM1061.013 407.307c1.59 0 3.065-.296 4.428-.884 1.36-.59 2.553-1.43 3.575-2.518 1.02-1.088 1.827-2.392 2.418-3.914.59-1.518.884-3.207.884-5.067v-.82c0-1.813-.294-3.48-.884-5-.591-1.52-1.398-2.823-2.418-3.914a11.043 11.043 0 0 0-3.61-2.55 10.745 10.745 0 0 0-4.393-.919c-1.59 0-3.077.297-4.46.884a10.604 10.604 0 0 0-3.61 2.519c-1.023 1.088-1.818 2.38-2.386 3.88-.567 1.494-.85 3.151-.85 4.965v1.09c0 1.904.283 3.607.85 5.102.568 1.499 1.363 2.78 2.386 3.847a10.504 10.504 0 0 0 3.575 2.45c1.36.567 2.86.849 4.495.849zm11.305-1.09h-.816a9.822 9.822 0 0 1-2.08 2.722 12.211 12.211 0 0 1-2.722 1.906c-.977.5-2.008.872-3.098 1.122a14.172 14.172 0 0 1-3.134.377c-2.27 0-4.384-.388-6.335-1.157a15.175 15.175 0 0 1-5.14-3.336c-1.476-1.45-2.634-3.255-3.475-5.41-.84-2.152-1.26-4.615-1.26-7.382v-1.09c0-2.72.43-5.158 1.295-7.314.861-2.156 2.02-3.97 3.474-5.443a14.61 14.61 0 0 1 5.106-3.37c1.95-.772 4.019-1.157 6.197-1.157 2.316 0 4.486.512 6.505 1.533 2.023 1.022 3.576 2.597 4.667 4.73h.816v-19.19h5.313v47.63h-5.313v-5.171z" fill="#000"/></g></svg>