<?xml version="1.0" encoding="UTF-8" standalone="no"?>
<svg width="180px" height="30px" viewBox="0 0 180 30" version="1.1" xmlns="http://www.w3.org/2000/svg" xmlns:xlink="http://www.w3.org/1999/xlink" xmlns:sketch="http://www.bohemiancoding.com/sketch/ns">
    <!-- Generator: Sketch 3.4.4 (17249) - http://www.bohemiancoding.com/sketch -->
    <title>logo-datasociety</title>
    <desc>Created with Sketch.</desc>
    <defs>
        <path id="path-1" d="M0,0.48 L180,0.48 L180,30 L0,30"></path>
        <path id="path-3" d="M0,0.48 L180,0.48 L180,30 L0,30"></path>
        <path id="path-5" d="M0,0.48 L180,0.48 L180,30 L0,30 L0,0.48 Z"></path>
    </defs>
    <g id="Page-1" stroke="none" stroke-width="1" fill="none" fill-rule="evenodd" sketch:type="MSPage">
        <g id="logo-datasociety" sketch:type="MSLayerGroup">
            <path d="M73.8161,18.9071 C73.4801,19.2331 73.1131,19.5231 72.7161,19.7781 C72.3191,20.0331 71.8911,20.2421 71.4321,20.4041 C70.9741,20.5681 70.4801,20.6491 69.9501,20.6491 C69.4201,20.6491 68.9161,20.5521 68.4381,20.3591 C67.9591,20.1651 67.5251,19.8951 67.1391,19.5491 C66.7521,19.2031 66.4461,18.8001 66.2221,18.3421 C65.9981,17.8831 65.8861,17.3901 65.8861,16.8601 C65.8861,16.3101 65.9931,15.8161 66.2071,15.3781 C66.4211,14.9401 66.7011,14.5481 67.0471,14.2011 C67.3931,13.8551 67.7851,13.5391 68.2241,13.2541 C68.6611,12.9691 69.0951,12.7041 69.5221,12.4591 L74.7481,17.8991 C74.4621,18.2451 74.1521,18.5811 73.8161,18.9071 L73.8161,18.9071 Z M68.9421,3.8871 C69.5121,3.4491 70.1841,3.2301 70.9591,3.2301 C71.7331,3.2301 72.3641,3.4391 72.8531,3.8571 C73.3421,4.2751 73.5871,4.8401 73.5871,5.5531 C73.5871,6.0421 73.4801,6.4751 73.2661,6.8521 C73.0521,7.2291 72.7821,7.5701 72.4561,7.8751 C72.1301,8.1811 71.7691,8.4561 71.3711,8.7001 C70.9741,8.9451 70.5921,9.1691 70.2251,9.3731 C69.9811,9.1281 69.7361,8.8741 69.4921,8.6091 C69.2481,8.3441 69.0181,8.0591 68.8041,7.7531 C68.5901,7.4471 68.4171,7.1321 68.2851,6.8061 C68.1521,6.4801 68.0861,6.1331 68.0861,5.7671 C68.0861,4.9521 68.3711,4.3261 68.9421,3.8871 L68.9421,3.8871 Z M78.1711,17.6241 L82.3571,11.1451 L79.0261,11.1451 L76.3071,15.5761 L72.0281,11.1151 C72.5781,10.8291 73.1181,10.5091 73.6481,10.1521 C74.1771,9.7961 74.6561,9.3881 75.0841,8.9301 C75.5121,8.4711 75.8581,7.9621 76.1231,7.4021 C76.3881,6.8421 76.5211,6.2251 76.5211,5.5531 C76.5211,4.7381 76.3721,4.0251 76.0771,3.4141 C75.7821,2.8021 75.3791,2.2941 74.8701,1.8861 C74.3611,1.4781 73.7651,1.1731 73.0831,0.9691 C72.4001,0.7661 71.6821,0.6631 70.9281,0.6631 C70.1541,0.6631 69.4201,0.7761 68.7281,0.9991 C68.0351,1.2241 67.4241,1.5501 66.8941,1.9771 C66.3641,2.4051 65.9421,2.9351 65.6261,3.5661 C65.3101,4.1981 65.1521,4.9221 65.1521,5.7361 C65.1521,6.7961 65.4021,7.7121 65.9011,8.4861 C66.4001,9.2611 66.9961,10.0141 67.6891,10.7481 C67.0371,11.0531 66.4101,11.4101 65.8101,11.8171 C65.2081,12.2251 64.6841,12.6841 64.2361,13.1921 C63.7871,13.7021 63.4311,14.2671 63.1661,14.8891 C62.9011,15.5101 62.7691,16.1981 62.7691,16.9511 C62.7691,17.7461 62.9061,18.5151 63.1811,19.2581 C63.4561,20.0021 63.8841,20.6691 64.4651,21.2601 C65.0461,21.8511 65.7841,22.3251 66.6811,22.6811 C67.5771,23.0371 68.6361,23.2161 69.8581,23.2161 C71.3051,23.2161 72.5431,22.9201 73.5711,22.3301 C74.6001,21.7391 75.5731,20.8931 76.4901,19.7931 L79.1481,22.6661 L83.0911,22.6661 L78.1711,17.6241 Z" id="Fill-1" fill="#5E5E5E" sketch:type="MSShapeGroup"></path>
            <g id="Group-5">
                <mask id="mask-2" sketch:name="Clip 4" fill="white">
                    <use xlink:href="#path-1"></use>
                </mask>
                <g id="Clip-4"></g>
                <path d="M15.0656,15.3776 C14.5766,16.3856 13.9146,17.2266 13.0796,17.8986 C12.2436,18.5706 11.2706,19.0756 10.1606,19.4116 C9.0506,19.7476 7.8736,19.9156 6.6316,19.9156 L2.9336,19.9156 L2.9336,3.7806 L7.3336,3.7806 C9.0856,3.7806 10.5126,4.0706 11.6126,4.6516 C12.7126,5.2316 13.5726,5.9396 14.1946,6.7756 C14.8156,7.6106 15.2386,8.4916 15.4626,9.4186 C15.6866,10.3456 15.7986,11.1556 15.7986,11.8476 C15.7986,13.1926 15.5546,14.3686 15.0656,15.3776 M17.9996,7.2646 C17.6726,6.4696 17.2296,5.6956 16.6696,4.9416 C16.1096,4.1886 15.4066,3.5206 14.5616,2.9406 C13.7156,2.3596 12.7176,1.8966 11.5666,1.5496 C10.4156,1.2036 9.0756,1.0306 7.5476,1.0306 L-0.0004,1.0306 L-0.0004,22.6656 L7.0586,22.6656 C8.9946,22.6656 10.7006,22.3606 12.1776,21.7496 C13.6546,21.1376 14.8926,20.3276 15.8906,19.3196 C16.8886,18.3116 17.6426,17.1606 18.1516,15.8666 C18.6606,14.5726 18.9156,13.2336 18.9156,11.8476 C18.9156,11.1756 18.8446,10.4426 18.7026,9.6476 C18.5596,8.8536 18.3246,8.0586 17.9996,7.2646" id="Fill-3" fill="#000000" sketch:type="MSShapeGroup" mask="url(#mask-2)"></path>
            </g>
            <path d="M30.4977,16.6152 C30.4977,17.1042 30.4257,17.5982 30.2837,18.0972 C30.1407,18.5972 29.9067,19.0502 29.5807,19.4572 C29.2547,19.8652 28.8267,20.1962 28.2977,20.4502 C27.7677,20.7052 27.1257,20.8322 26.3717,20.8322 C25.4147,20.8322 24.6557,20.6492 24.0957,20.2822 C23.5347,19.9152 23.2547,19.3152 23.2547,18.4792 C23.2547,17.9092 23.4337,17.4402 23.7897,17.0732 C24.1457,16.7072 24.6047,16.4222 25.1647,16.2182 C25.7257,16.0142 26.3467,15.8772 27.0287,15.8052 C27.7117,15.7342 28.3787,15.6982 29.0307,15.6982 L30.4977,15.6982 L30.4977,16.6152 Z M33.0647,20.0382 L33.0647,12.6422 C33.0647,12.0112 32.9477,11.4052 32.7137,10.8242 C32.4787,10.2432 32.1177,9.7292 31.6287,9.2812 C31.1397,8.8332 30.5127,8.4762 29.7487,8.2112 C28.9847,7.9472 28.0727,7.8142 27.0137,7.8142 C25.9947,7.8142 24.9767,7.9932 23.9577,8.3492 C22.9387,8.7052 22.0427,9.2402 21.2687,9.9532 L22.9187,11.6642 C23.1637,11.4812 23.4177,11.2882 23.6827,11.0842 C23.9477,10.8802 24.2427,10.7022 24.5697,10.5492 C24.8947,10.3962 25.2567,10.2692 25.6537,10.1672 C26.0517,10.0652 26.5147,10.0142 27.0447,10.0142 C27.6347,10.0142 28.1447,10.1012 28.5727,10.2742 C29.0007,10.4472 29.3567,10.6822 29.6417,10.9772 C29.9267,11.2722 30.1407,11.6032 30.2837,11.9702 C30.4257,12.3372 30.4977,12.7032 30.4977,13.0702 L30.4977,13.6812 L28.4807,13.6812 C27.3807,13.6812 26.3467,13.7682 25.3787,13.9412 C24.4107,14.1142 23.5657,14.3992 22.8427,14.7972 C22.1187,15.1942 21.5487,15.7092 21.1317,16.3402 C20.7137,16.9722 20.5047,17.7562 20.5047,18.6932 C20.5047,19.4062 20.6367,20.0332 20.9017,20.5722 C21.1667,21.1122 21.5287,21.5652 21.9867,21.9322 C22.4457,22.2992 22.9797,22.5742 23.5917,22.7572 C24.2027,22.9412 24.8447,23.0322 25.5167,23.0322 C26.6167,23.0322 27.5837,22.8382 28.4197,22.4522 C29.2547,22.0652 29.9777,21.4032 30.5897,20.4652 L30.6507,20.4652 C30.6507,21.1992 30.6807,21.9322 30.7417,22.6662 L33.1867,22.6662 C33.1457,22.2792 33.1147,21.8712 33.0947,21.4432 C33.0747,21.0152 33.0647,20.5472 33.0647,20.0382 L33.0647,20.0382 Z" id="Fill-6" fill="#000000" sketch:type="MSShapeGroup"></path>
            <path d="M42.9658,20.4657 C42.4358,20.4657 42.0338,20.3697 41.7588,20.1757 C41.4838,19.9817 41.2798,19.7277 41.1478,19.4117 C41.0148,19.0957 40.9388,18.7387 40.9188,18.3417 C40.8978,17.9447 40.8878,17.5427 40.8878,17.1347 L40.8878,10.5647 L44.8298,10.5647 L44.8298,8.1807 L40.8878,8.1807 L40.8878,4.1167 L38.1378,4.1167 L38.1378,8.1807 L34.9588,8.1807 L34.9588,10.5647 L38.1378,10.5647 L38.1378,18.1127 C38.1378,18.7037 38.1628,19.2887 38.2138,19.8697 C38.2648,20.4507 38.4278,20.9747 38.7028,21.4437 C38.9778,21.9127 39.4058,22.2947 39.9868,22.5897 C40.5668,22.8847 41.3868,23.0327 42.4458,23.0327 C42.7318,23.0327 43.1338,22.9967 43.6538,22.9257 C44.1728,22.8537 44.5958,22.7267 44.9218,22.5437 L44.9218,20.0377 C44.6358,20.2007 44.3198,20.3127 43.9738,20.3737 C43.6278,20.4347 43.2918,20.4657 42.9658,20.4657" id="Fill-8" fill="#000000" sketch:type="MSShapeGroup"></path>
            <path d="M57.0532,16.6152 C57.0532,17.1042 56.9812,17.5982 56.8392,18.0972 C56.6962,18.5972 56.4622,19.0502 56.1362,19.4572 C55.8102,19.8652 55.3822,20.1962 54.8532,20.4502 C54.3232,20.7052 53.6812,20.8322 52.9272,20.8322 C51.9702,20.8322 51.2112,20.6492 50.6512,20.2822 C50.0902,19.9152 49.8102,19.3152 49.8102,18.4792 C49.8102,17.9092 49.9892,17.4402 50.3452,17.0732 C50.7012,16.7072 51.1602,16.4222 51.7202,16.2182 C52.2812,16.0142 52.9022,15.8772 53.5842,15.8052 C54.2672,15.7342 54.9342,15.6982 55.5862,15.6982 L57.0532,15.6982 L57.0532,16.6152 Z M59.6202,20.0382 L59.6202,12.6422 C59.6202,12.0112 59.5032,11.4052 59.2692,10.8242 C59.0342,10.2432 58.6732,9.7292 58.1842,9.2812 C57.6952,8.8332 57.0682,8.4762 56.3042,8.2112 C55.5402,7.9472 54.6282,7.8142 53.5692,7.8142 C52.5502,7.8142 51.5322,7.9932 50.5132,8.3492 C49.4942,8.7052 48.5982,9.2402 47.8242,9.9532 L49.4742,11.6642 C49.7192,11.4812 49.9732,11.2882 50.2382,11.0842 C50.5032,10.8802 50.7982,10.7022 51.1252,10.5492 C51.4502,10.3962 51.8122,10.2692 52.2092,10.1672 C52.6072,10.0652 53.0702,10.0142 53.6002,10.0142 C54.1902,10.0142 54.7002,10.1012 55.1282,10.2742 C55.5562,10.4472 55.9122,10.6822 56.1972,10.9772 C56.4822,11.2722 56.6962,11.6032 56.8392,11.9702 C56.9812,12.3372 57.0532,12.7032 57.0532,13.0702 L57.0532,13.6812 L55.0362,13.6812 C53.9362,13.6812 52.9022,13.7682 51.9342,13.9412 C50.9662,14.1142 50.1212,14.3992 49.3982,14.7972 C48.6742,15.1942 48.1042,15.7092 47.6872,16.3402 C47.2692,16.9722 47.0602,17.7562 47.0602,18.6932 C47.0602,19.4062 47.1922,20.0332 47.4572,20.5722 C47.7222,21.1122 48.0842,21.5652 48.5422,21.9322 C49.0012,22.2992 49.5352,22.5742 50.1472,22.7572 C50.7582,22.9412 51.4002,23.0322 52.0722,23.0322 C53.1722,23.0322 54.1392,22.8382 54.9752,22.4522 C55.8102,22.0652 56.5332,21.4032 57.1452,20.4652 L57.2062,20.4652 C57.2062,21.1992 57.2362,21.9322 57.2972,22.6662 L59.7422,22.6662 C59.7012,22.2792 59.6702,21.8712 59.6502,21.4432 C59.6302,21.0152 59.6202,20.5472 59.6202,20.0382 L59.6202,20.0382 Z" id="Fill-10" fill="#000000" sketch:type="MSShapeGroup"></path>
            <g id="Group-14">
                <mask id="mask-4" sketch:name="Clip 13" fill="white">
                    <use xlink:href="#path-3"></use>
                </mask>
                <g id="Clip-13"></g>
                <path d="M95.8874,11.6799 C95.1024,11.2419 94.2474,10.9009 93.3204,10.6559 C92.3934,10.4119 91.5374,10.1369 90.7534,9.8309 C89.9694,9.5259 89.3124,9.1279 88.7824,8.6389 C88.2524,8.1509 87.9884,7.4479 87.9884,6.5309 C87.9884,6.2049 88.0534,5.8489 88.1864,5.4609 C88.3184,5.0749 88.5484,4.7129 88.8744,4.3759 C89.1994,4.0399 89.6334,3.7649 90.1734,3.5509 C90.7124,3.3369 91.3904,3.2299 92.2054,3.2299 C93.0604,3.2299 93.8244,3.4039 94.4964,3.7499 C95.1694,4.0969 95.6884,4.5549 96.0554,5.1249 L98.4394,2.9549 C97.6244,1.9569 96.6764,1.2949 95.5974,0.9689 C94.5174,0.6439 93.3864,0.4799 92.2054,0.4799 C90.9014,0.4799 89.7854,0.6789 88.8584,1.0759 C87.9314,1.4729 87.1724,1.9679 86.5824,2.5579 C85.9914,3.1489 85.5584,3.8009 85.2834,4.5139 C85.0084,5.2269 84.8704,5.8999 84.8704,6.5309 C84.8704,7.9369 85.1354,9.0519 85.6654,9.8769 C86.1954,10.7019 86.8524,11.3589 87.6364,11.8479 C88.4204,12.3369 89.2764,12.7189 90.2034,12.9939 C91.1304,13.2689 91.9864,13.5549 92.7704,13.8499 C93.5544,14.1449 94.2114,14.5119 94.7414,14.9499 C95.2714,15.3879 95.5364,16.0249 95.5364,16.8599 C95.5364,17.4509 95.4034,17.9699 95.1384,18.4179 C94.8734,18.8669 94.5324,19.2429 94.1154,19.5489 C93.6974,19.8549 93.2334,20.0839 92.7244,20.2369 C92.2154,20.3889 91.7164,20.4659 91.2274,20.4659 C90.3514,20.4659 89.5004,20.2779 88.6754,19.8999 C87.8504,19.5239 87.1724,18.9379 86.6434,18.1429 L84.2294,20.2209 C84.9624,21.2399 85.9504,21.9939 87.1934,22.4829 C88.4354,22.9719 89.7494,23.2159 91.1354,23.2159 C92.1744,23.2159 93.1524,23.0629 94.0694,22.7579 C94.9864,22.4519 95.7804,22.0139 96.4524,21.4439 C97.1254,20.8739 97.6594,20.1709 98.0574,19.3349 C98.4544,18.4999 98.6534,17.5629 98.6534,16.5239 C98.6534,15.2199 98.3884,14.1959 97.8584,13.4519 C97.3284,12.7089 96.6714,12.1179 95.8874,11.6799" id="Fill-12" fill="#000000" sketch:type="MSShapeGroup" mask="url(#mask-4)"></path>
            </g>
            <path d="M112.4962,17.4556 C112.2722,18.0776 111.9562,18.6066 111.5492,19.0446 C111.1412,19.4826 110.6422,19.8296 110.0512,20.0836 C109.4602,20.3386 108.7982,20.4656 108.0652,20.4656 C107.3322,20.4656 106.6692,20.3386 106.0792,20.0836 C105.4872,19.8296 104.9882,19.4826 104.5812,19.0446 C104.1742,18.6066 103.8582,18.0776 103.6342,17.4556 C103.4092,16.8346 103.2982,16.1566 103.2982,15.4236 C103.2982,14.6896 103.4092,14.0126 103.6342,13.3916 C103.8582,12.7706 104.1742,12.2406 104.5812,11.8026 C104.9882,11.3646 105.4872,11.0186 106.0792,10.7636 C106.6692,10.5086 107.3322,10.3816 108.0652,10.3816 C108.7982,10.3816 109.4602,10.5086 110.0512,10.7636 C110.6422,11.0186 111.1412,11.3646 111.5492,11.8026 C111.9562,12.2406 112.2722,12.7706 112.4962,13.3916 C112.7202,14.0126 112.8322,14.6896 112.8322,15.4236 C112.8322,16.1566 112.7202,16.8346 112.4962,17.4556 M113.5352,10.0446 C112.8422,9.3526 112.0272,8.8076 111.0902,8.4106 C110.1532,8.0126 109.1452,7.8146 108.0652,7.8146 C106.9852,7.8146 105.9762,8.0126 105.0402,8.4106 C104.1022,8.8076 103.2872,9.3526 102.5952,10.0446 C101.9022,10.7376 101.3572,11.5426 100.9602,12.4596 C100.5632,13.3756 100.3642,14.3646 100.3642,15.4236 C100.3642,16.4826 100.5632,17.4766 100.9602,18.4026 C101.3572,19.3306 101.9022,20.1346 102.5952,20.8166 C103.2872,21.4996 104.1022,22.0396 105.0402,22.4366 C105.9762,22.8336 106.9852,23.0326 108.0652,23.0326 C109.1452,23.0326 110.1532,22.8336 111.0902,22.4366 C112.0272,22.0396 112.8422,21.4996 113.5352,20.8166 C114.2272,20.1346 114.7732,19.3306 115.1702,18.4026 C115.5672,17.4766 115.7662,16.4826 115.7662,15.4236 C115.7662,14.3646 115.5672,13.3756 115.1702,12.4596 C114.7732,11.5426 114.2272,10.7376 113.5352,10.0446" id="Fill-15" fill="#000000" sketch:type="MSShapeGroup"></path>
            <path d="M121.3733,11.955 C121.7503,11.477 122.2183,11.099 122.7793,10.824 C123.3393,10.549 123.9963,10.412 124.7503,10.412 C125.5243,10.412 126.1913,10.549 126.7513,10.824 C127.3113,11.099 127.8463,11.502 128.3563,12.031 L130.4343,10.137 C129.7203,9.363 128.8803,8.787 127.9133,8.41 C126.9453,8.033 125.9313,7.845 124.8723,7.845 C123.7313,7.845 122.6973,8.033 121.7703,8.41 C120.8433,8.787 120.0483,9.312 119.3873,9.984 C118.7243,10.656 118.2103,11.461 117.8433,12.398 C117.4773,13.335 117.2933,14.364 117.2933,15.484 C117.2933,16.605 117.4773,17.629 117.8433,18.556 C118.2103,19.483 118.7303,20.277 119.4023,20.939 C120.0743,21.601 120.8743,22.116 121.8013,22.482 C122.7283,22.849 123.7513,23.033 124.8723,23.033 C125.9313,23.033 126.9353,22.859 127.8823,22.513 C128.8293,22.167 129.6593,21.596 130.3733,20.802 L128.4173,18.846 C127.9483,19.376 127.4393,19.778 126.8893,20.053 C126.3393,20.328 125.6773,20.466 124.9033,20.466 C124.1893,20.466 123.5483,20.339 122.9773,20.084 C122.4073,19.829 121.9183,19.478 121.5113,19.029 C121.1033,18.581 120.7873,18.057 120.5633,17.456 C120.3393,16.855 120.2273,16.218 120.2273,15.546 C120.2273,14.873 120.3233,14.227 120.5173,13.605 C120.7113,12.984 120.9963,12.434 121.3733,11.955" id="Fill-17" fill="#000000" sketch:type="MSShapeGroup"></path>
            <path d="M134.315,0.9691 C133.765,0.9691 133.291,1.1681 132.894,1.5651 C132.497,1.9621 132.298,2.4361 132.298,2.9861 C132.298,3.5361 132.497,4.0101 132.894,4.4071 C133.291,4.8041 133.765,5.0031 134.315,5.0031 C134.865,5.0031 135.339,4.8041 135.736,4.4071 C136.133,4.0101 136.332,3.5361 136.332,2.9861 C136.332,2.4361 136.133,1.9621 135.736,1.5651 C135.339,1.1681 134.865,0.9691 134.315,0.9691" id="Fill-19" fill="#000000" sketch:type="MSShapeGroup"></path>
            <mask id="mask-6" sketch:name="Clip 22" fill="white">
                <use xlink:href="#path-5"></use>
            </mask>
            <g id="Clip-22"></g>
            <path d="M132.94,22.666 L135.69,22.666 L135.69,8.181 L132.94,8.181 L132.94,22.666 Z" id="Fill-21" fill="#000000" sketch:type="MSShapeGroup" mask="url(#mask-6)"></path>
            <path d="M140.9153,14.2316 C140.9153,13.7426 141.0223,13.2486 141.2363,12.7496 C141.4503,12.2506 141.7503,11.7976 142.1373,11.3896 C142.5243,10.9826 142.9983,10.6516 143.5583,10.3966 C144.1183,10.1416 144.7353,10.0146 145.4073,10.0146 C146.0993,10.0146 146.7063,10.1216 147.2253,10.3356 C147.7453,10.5496 148.1773,10.8446 148.5243,11.2216 C148.8703,11.5986 149.1303,12.0416 149.3033,12.5506 C149.4763,13.0606 149.5733,13.6206 149.5943,14.2316 L140.9153,14.2316 Z M150.9083,10.2436 C150.3373,9.5206 149.6093,8.9346 148.7233,8.4866 C147.8373,8.0386 146.7523,7.8146 145.4683,7.8146 C144.3883,7.8146 143.3903,8.0086 142.4743,8.3946 C141.5573,8.7826 140.7673,9.3166 140.1053,9.9996 C139.4433,10.6816 138.9233,11.4866 138.5473,12.4136 C138.1703,13.3406 137.9813,14.3436 137.9813,15.4236 C137.9813,16.5036 138.1543,17.5066 138.5013,18.4336 C138.8473,19.3606 139.3413,20.1656 139.9833,20.8476 C140.6253,21.5306 141.4093,22.0656 142.3363,22.4516 C143.2633,22.8386 144.2973,23.0326 145.4383,23.0326 C148.1883,23.0326 150.3273,22.0446 151.8553,20.0686 L149.7773,18.4796 C149.2473,19.1316 148.6663,19.6556 148.0353,20.0526 C147.4033,20.4506 146.6603,20.6486 145.8043,20.6486 C145.1733,20.6486 144.5623,20.5476 143.9713,20.3436 C143.3803,20.1396 142.8603,19.8546 142.4123,19.4876 C141.9643,19.1206 141.6033,18.6776 141.3283,18.1586 C141.0533,17.6386 140.9153,17.0636 140.9153,16.4316 L152.5273,16.4316 L152.5273,15.4536 C152.5273,14.5176 152.4003,13.5956 152.1453,12.6886 C151.8903,11.7816 151.4783,10.9666 150.9083,10.2436 L150.9083,10.2436 Z" id="Fill-23" fill="#000000" sketch:type="MSShapeGroup" mask="url(#mask-6)"></path>
            <path d="M161.1148,20.4657 C160.5848,20.4657 160.1828,20.3697 159.9078,20.1757 C159.6328,19.9817 159.4288,19.7277 159.2968,19.4117 C159.1638,19.0957 159.0878,18.7387 159.0678,18.3417 C159.0468,17.9447 159.0368,17.5427 159.0368,17.1347 L159.0368,10.5647 L162.9788,10.5647 L162.9788,8.1807 L159.0368,8.1807 L159.0368,4.1167 L156.2868,4.1167 L156.2868,8.1807 L153.1088,8.1807 L153.1088,10.5647 L156.2868,10.5647 L156.2868,18.1127 C156.2868,18.7037 156.3118,19.2887 156.3628,19.8697 C156.4138,20.4507 156.5768,20.9747 156.8518,21.4437 C157.1268,21.9127 157.5548,22.2947 158.1358,22.5897 C158.7158,22.8847 159.5358,23.0327 160.5948,23.0327 C160.8808,23.0327 161.2828,22.9967 161.8028,22.9257 C162.3218,22.8537 162.7448,22.7267 163.0708,22.5437 L163.0708,20.0377 C162.7848,20.2007 162.4698,20.3127 162.1238,20.3737 C161.7768,20.4347 161.4408,20.4657 161.1148,20.4657" id="Fill-24" fill="#000000" sketch:type="MSShapeGroup" mask="url(#mask-6)"></path>
            <path d="M177.0664,8.1809 L172.9524,19.4879 L172.8914,19.4879 L168.6014,8.1809 L165.4234,8.1809 L171.4174,22.7579 L170.5264,25.0499 C170.3854,25.4159 170.2434,25.7419 170.1024,26.0269 C169.9604,26.3119 169.7824,26.5619 169.5704,26.7759 C169.3574,26.9899 169.1044,27.1529 168.8114,27.2649 C168.5174,27.3769 168.1584,27.4329 167.7334,27.4329 C167.1864,27.4329 166.6404,27.3209 166.0944,27.0969 L165.7594,29.6029 C166.1454,29.7659 166.5454,29.8729 166.9614,29.9239 C167.3774,29.9739 167.7884,29.9999 168.1944,29.9999 C168.9454,29.9999 169.5784,29.8979 170.0964,29.6939 C170.6134,29.4909 171.0554,29.2059 171.4204,28.8389 C171.7854,28.4719 172.0994,28.0289 172.3634,27.5099 C172.6264,26.9899 172.8814,26.4139 173.1244,25.7829 L180.0004,8.1809 L177.0664,8.1809 Z" id="Fill-25" fill="#000000" sketch:type="MSShapeGroup" mask="url(#mask-6)"></path>
        </g>
    </g>
</svg>