<?xml version="1.0" encoding="UTF-8" standalone="no"?>
<svg width="160px" height="51px" viewBox="0 0 160 51" version="1.1" xmlns="http://www.w3.org/2000/svg" xmlns:xlink="http://www.w3.org/1999/xlink" xmlns:sketch="http://www.bohemiancoding.com/sketch/ns">
    <!-- Generator: Sketch 3.4.4 (17249) - http://www.bohemiancoding.com/sketch -->
    <title>logo-derechos</title>
    <desc>Created with Sketch.</desc>
    <defs>
        <path id="path-1" d="M0,0.07 L160,0.07 L160,51 L0,51 L0,0.07 Z"></path>
        <path id="path-3" d="M0,0.07 L160,0.07 L160,51 L0,51 L0,0.07 Z"></path>
    </defs>
    <g id="Page-1" stroke="none" stroke-width="1" fill="none" fill-rule="evenodd" sketch:type="MSPage">
        <g id="logo-derechos" sketch:type="MSLayerGroup">
            <path d="M48.307,50.903 L49.918,50.903 L49.918,0.07 L48.307,0.07 L48.307,50.903 Z" id="Fill-1" fill="#5E5E5E" sketch:type="MSShapeGroup"></path>
            <g id="Group-44">
                <path d="M30.7431,35.4365 C27.9851,35.4365 26.7281,33.8195 27.5071,29.3865 L28.3841,24.5415 L30.4971,13.2335 C35.1471,15.8245 37.2751,20.6645 37.2751,25.6685 C37.2751,32.5025 34.8171,35.4365 30.7431,35.4365 L30.7431,35.4365 Z M24.6291,24.0515 C23.3121,30.7615 20.5561,35.3185 17.2591,35.3185 C15.6411,35.3185 14.9821,33.9395 14.9821,31.2445 C14.9821,27.1665 16.9591,21.2355 21.9341,21.2355 C23.1911,21.2355 24.2711,21.2955 25.1691,21.5325 L24.6291,24.0515 Z M31.1901,9.5195 L32.9431,0.1455 L29.6681,0.1455 L28.1261,8.4845 C26.3701,8.0485 24.4441,7.8115 22.3541,7.8115 C10.3671,7.8115 0.0001,17.3405 0.0001,30.5245 C0.0001,42.0885 7.5501,50.2405 19.7771,50.2405 C22.6531,50.2405 26.3691,49.8205 28.8251,49.0425 L28.8251,45.3855 C26.0081,46.2845 23.1911,46.7045 20.3151,46.7045 C10.0071,46.7045 4.0741,39.6925 4.0741,30.1655 C4.0741,19.1375 12.1661,11.2885 22.1721,11.2885 C24.1451,11.2885 25.9121,11.5355 27.4781,11.9865 L26.3071,18.3185 C25.1691,18.1945 23.9861,18.1195 22.8321,18.1195 C15.1021,18.1195 10.9661,24.4705 10.9661,32.0225 C10.9661,36.3355 12.3431,38.7935 16.2411,38.7935 C20.0751,38.7935 23.1911,35.6195 24.1501,32.9205 L24.3291,32.9205 C23.7921,35.7975 25.3501,38.7935 29.9031,38.7935 C36.5561,38.7935 41.2901,34.5415 41.2901,25.4905 C41.2901,18.6175 37.8161,12.4065 31.1901,9.5195 L31.1901,9.5195 Z" id="Fill-2" fill="#000000" sketch:type="MSShapeGroup"></path>
                <path d="M62.6667,47.7836 L64.1027,44.1256 L65.5397,47.7836 L62.6667,47.7836 Z M63.4727,42.6426 L60.1717,50.8806 L61.4197,50.8806 L62.2637,48.7876 L65.9427,48.7876 L66.7867,50.8806 L68.0217,50.8806 L64.7327,42.6426 L63.4727,42.6426 Z" id="Fill-4" fill="#000000" sketch:type="MSShapeGroup"></path>
                <path d="M76.1082,45.1774 C75.5282,45.1774 74.6092,45.3324 74.0672,46.3254 C73.7902,45.7154 73.2732,45.3444 72.5302,45.2364 C72.3282,45.2014 72.1142,45.1894 71.8872,45.2014 C71.4082,45.2364 70.5772,45.5124 70.2622,46.1334 L70.2622,45.2964 L69.1152,45.2964 L69.1152,50.8804 L70.2622,50.8804 L70.2622,47.8674 C70.2622,46.6954 71.0812,46.2414 71.9002,46.2414 C72.6682,46.2414 73.1722,46.7914 73.1722,47.7124 L73.1722,50.8804 L74.3192,50.8804 L74.3192,47.8674 C74.3192,46.9344 74.9112,46.2294 75.8812,46.2414 C76.7252,46.2414 77.2292,46.8034 77.2292,47.7244 L77.2292,50.8804 L78.3762,50.8804 L78.3762,47.6524 C78.3762,46.0864 77.5822,45.1774 76.1082,45.1774" id="Fill-6" fill="#000000" sketch:type="MSShapeGroup"></path>
                <path d="M81.9898,44.2568 L83.0858,44.2568 L84.5858,42.4158 L83.2118,42.4158 L81.9898,44.2568 Z" id="Fill-8" fill="#000000" sketch:type="MSShapeGroup"></path>
                <g id="Group-12">
                    <mask id="mask-2" sketch:name="Clip 11" fill="white">
                        <use xlink:href="#path-1"></use>
                    </mask>
                    <g id="Clip-11"></g>
                    <path d="M80.9692,47.6521 C81.1082,46.7201 81.8642,46.1581 82.8332,46.1581 C83.7792,46.1581 84.4842,46.7201 84.6232,47.6521 L80.9692,47.6521 Z M82.8332,45.1771 C81.1582,45.1771 79.8222,46.3011 79.8222,48.0711 C79.8222,49.8401 81.1582,51.0001 82.8332,51.0001 C83.9682,51.0001 85.0392,50.4981 85.5432,49.5171 C85.2282,49.3981 84.8622,49.2781 84.5602,49.1591 C84.2322,49.7091 83.5772,50.0201 82.8722,50.0201 C81.8762,50.0201 81.1082,49.4341 80.9692,48.5011 L85.7442,48.5011 C85.7572,48.3821 85.7572,48.2021 85.7572,48.0711 C85.7572,46.3011 84.5092,45.1771 82.8332,45.1771 L82.8332,45.1771 Z" id="Fill-10" fill="#000000" sketch:type="MSShapeGroup" mask="url(#mask-2)"></path>
                </g>
                <path d="M88.3639,46.5523 L88.3639,45.2973 L87.2169,45.2973 L87.2169,50.8803 L88.3639,50.8803 L88.3639,48.8483 C88.3639,47.3653 88.8419,46.2173 89.9769,46.2173 C90.2159,46.2173 90.5309,46.2653 90.8459,46.4093 L91.0219,45.3923 C90.8579,45.2853 90.4169,45.1773 90.0009,45.1773 C89.2329,45.1773 88.6659,45.5723 88.3639,46.5523" id="Fill-13" fill="#000000" sketch:type="MSShapeGroup"></path>
                <mask id="mask-4" sketch:name="Clip 16" fill="white">
                    <use xlink:href="#path-3"></use>
                </mask>
                <g id="Clip-16"></g>
                <path d="M92.192,50.88 L93.326,50.88 L93.326,45.297 L92.192,45.297 L92.192,50.88 Z" id="Fill-15" fill="#000000" sketch:type="MSShapeGroup" mask="url(#mask-4)"></path>
                <path d="M92.7596,42.5349 C92.3306,42.5349 91.9656,42.8339 91.9656,43.2409 C91.9656,43.6469 92.3306,43.9459 92.7596,43.9459 C93.2006,43.9459 93.5526,43.6469 93.5526,43.2409 C93.5526,42.8339 93.2006,42.5349 92.7596,42.5349" id="Fill-17" fill="#000000" sketch:type="MSShapeGroup" mask="url(#mask-4)"></path>
                <path d="M97.9623,49.9478 C96.9043,49.9478 95.9843,49.1948 95.9843,48.0708 C95.9843,46.9468 96.9043,46.2418 97.9623,46.2418 C98.5033,46.2418 99.0073,46.4328 99.3603,46.7678 L100.2303,46.0738 C99.6763,45.4998 98.8563,45.1778 97.9623,45.1778 C96.2863,45.1778 94.8503,46.3008 94.8503,48.0708 C94.8503,49.8398 96.2863,50.9998 97.9623,50.9998 C98.8693,50.9998 99.6883,50.6648 100.2433,50.0908 L99.3603,49.3978 C99.0073,49.7448 98.5033,49.9478 97.9623,49.9478" id="Fill-18" fill="#000000" sketch:type="MSShapeGroup" mask="url(#mask-4)"></path>
                <path d="M104.2479,49.9357 C103.1899,49.9357 102.3329,49.1707 102.3329,48.0707 C102.3329,46.9587 103.1899,46.2417 104.2479,46.2417 C105.1929,46.2417 106.2009,46.8747 106.2009,48.0707 C106.2009,49.2547 105.2939,49.9357 104.2479,49.9357 L104.2479,49.9357 Z M106.2139,46.1337 C105.8229,45.4997 104.9659,45.1777 104.1469,45.1777 C102.5339,45.1777 101.1609,46.3017 101.1609,48.0827 C101.1609,49.8517 102.5339,50.9997 104.1469,50.9997 C104.9659,50.9997 105.8229,50.6537 106.2139,50.0197 L106.2139,50.8807 L107.3479,50.8807 L107.3479,45.2967 L106.2139,45.2967 L106.2139,46.1337 Z" id="Fill-19" fill="#000000" sketch:type="MSShapeGroup" mask="url(#mask-4)"></path>
                <path d="M113.9343,42.6428 L112.7633,42.6428 L112.7633,50.8808 L117.4753,50.8808 L117.4753,49.8398 L113.9343,49.8398 L113.9343,42.6428 Z" id="Fill-20" fill="#000000" sketch:type="MSShapeGroup" mask="url(#mask-4)"></path>
                <path d="M121.2026,49.9357 C120.1446,49.9357 119.2876,49.1707 119.2876,48.0707 C119.2876,46.9587 120.1446,46.2417 121.2026,46.2417 C122.1476,46.2417 123.1556,46.8747 123.1556,48.0707 C123.1556,49.2547 122.2486,49.9357 121.2026,49.9357 L121.2026,49.9357 Z M123.1686,46.1337 C122.7776,45.4997 121.9206,45.1777 121.1016,45.1777 C119.4886,45.1777 118.1156,46.3017 118.1156,48.0827 C118.1156,49.8517 119.4886,50.9997 121.1016,50.9997 C121.9206,50.9997 122.7776,50.6537 123.1686,50.0197 L123.1686,50.8807 L124.3016,50.8807 L124.3016,45.2967 L123.1686,45.2967 L123.1686,46.1337 Z" id="Fill-21" fill="#000000" sketch:type="MSShapeGroup" mask="url(#mask-4)"></path>
                <path d="M127.8036,43.1924 L126.6566,43.1924 L126.6566,45.2964 L125.5986,45.2964 L125.5986,46.2174 L126.6566,46.2174 L126.6566,50.8804 L127.8036,50.8804 L127.8036,46.2174 L129.0516,46.2174 L129.0516,45.2964 L127.8036,45.2964 L127.8036,43.1924 Z" id="Fill-22" fill="#000000" sketch:type="MSShapeGroup" mask="url(#mask-4)"></path>
                <path d="M130.9147,42.5349 C130.4857,42.5349 130.1207,42.8339 130.1207,43.2409 C130.1207,43.6469 130.4857,43.9459 130.9147,43.9459 C131.3557,43.9459 131.7077,43.6469 131.7077,43.2409 C131.7077,42.8339 131.3557,42.5349 130.9147,42.5349" id="Fill-23" fill="#000000" sketch:type="MSShapeGroup" mask="url(#mask-4)"></path>
                <path d="M130.347,50.88 L131.481,50.88 L131.481,45.297 L130.347,45.297 L130.347,50.88 Z" id="Fill-24" fill="#000000" sketch:type="MSShapeGroup" mask="url(#mask-4)"></path>
                <path d="M136.3811,45.1774 C135.7391,45.1774 134.8951,45.4644 134.5421,46.1334 L134.5421,45.2964 L133.3951,45.2964 L133.3951,50.8804 L134.5421,50.8804 L134.5421,47.8674 C134.5421,46.6834 135.3731,46.2414 136.2051,46.2414 C137.0121,46.2414 137.5031,46.7914 137.5031,47.7244 L137.5031,50.8804 L138.6491,50.8804 L138.6491,47.6524 C138.6491,46.0864 137.8431,45.1774 136.3811,45.1774" id="Fill-25" fill="#000000" sketch:type="MSShapeGroup" mask="url(#mask-4)"></path>
                <path d="M143.1836,49.9357 C142.1256,49.9357 141.2686,49.1707 141.2686,48.0707 C141.2686,46.9587 142.1256,46.2417 143.1836,46.2417 C144.1286,46.2417 145.1366,46.8747 145.1366,48.0707 C145.1366,49.2547 144.2296,49.9357 143.1836,49.9357 L143.1836,49.9357 Z M145.1496,46.1337 C144.7586,45.4997 143.9016,45.1777 143.0826,45.1777 C141.4696,45.1777 140.0966,46.3017 140.0966,48.0827 C140.0966,49.8517 141.4696,50.9997 143.0826,50.9997 C143.9016,50.9997 144.7586,50.6537 145.1496,50.0197 L145.1496,50.8807 L146.2836,50.8807 L146.2836,45.2967 L145.1496,45.2967 L145.1496,46.1337 Z" id="Fill-26" fill="#000000" sketch:type="MSShapeGroup" mask="url(#mask-4)"></path>
                <path d="M63.2807,4.1409 C63.2807,4.0589 63.3237,4.0189 63.4097,4.0189 L65.0677,4.0189 C66.5317,4.0189 67.4147,4.4269 67.7807,5.5509 C67.9317,5.9599 68.0177,6.4909 68.0177,8.2899 C68.0177,10.0879 67.9317,10.6189 67.7807,11.0279 C67.4147,12.1519 66.5317,12.5609 65.0677,12.5609 L63.4097,12.5609 C63.3237,12.5609 63.2807,12.5199 63.2807,12.4379 L63.2807,4.1409 Z M60.3307,15.2379 L65.7777,15.2379 C68.3407,15.2379 70.1277,14.1959 70.8377,12.1109 C71.0967,11.3339 71.2257,10.5579 71.2257,8.2899 C71.2257,6.0209 71.0967,5.2449 70.8377,4.4679 C70.1277,2.3839 68.3407,1.3419 65.7777,1.3419 L60.3307,1.3419 C60.2017,1.3419 60.1157,1.4229 60.1157,1.5459 L60.1157,15.0339 C60.1157,15.1559 60.2017,15.2379 60.3307,15.2379 L60.3307,15.2379 Z" id="Fill-27" fill="#000000" sketch:type="MSShapeGroup" mask="url(#mask-4)"></path>
                <path d="M73.5699,15.2378 L82.9569,15.2378 C83.0859,15.2378 83.1719,15.1558 83.1719,15.0338 L83.1719,12.8468 C83.1719,12.7238 83.0859,12.6418 82.9569,12.6418 L76.6489,12.6418 C76.5629,12.6418 76.5189,12.6018 76.5189,12.5198 L76.5189,9.6388 C76.5189,9.5568 76.5629,9.5158 76.6489,9.5158 L81.9019,9.5158 C82.0319,9.5158 82.1179,9.4338 82.1179,9.3118 L82.1179,7.1448 C82.1179,7.0228 82.0319,6.9408 81.9019,6.9408 L76.6489,6.9408 C76.5629,6.9408 76.5189,6.8998 76.5189,6.8178 L76.5189,4.0588 C76.5189,3.9778 76.5629,3.9368 76.6489,3.9368 L82.9569,3.9368 C83.0859,3.9368 83.1719,3.8548 83.1719,3.7318 L83.1719,1.5458 C83.1719,1.4228 83.0859,1.3418 82.9569,1.3418 L73.5699,1.3418 C73.4409,1.3418 73.3549,1.4228 73.3549,1.5458 L73.3549,15.0338 C73.3549,15.1558 73.4409,15.2378 73.5699,15.2378" id="Fill-28" fill="#000000" sketch:type="MSShapeGroup" mask="url(#mask-4)"></path>
                <path d="M88.359,4.0592 C88.359,3.9772 88.402,3.9372 88.488,3.9372 L91.072,3.9372 C92.277,3.9372 93.052,4.6112 93.052,5.6532 C93.052,6.7162 92.277,7.3902 91.072,7.3902 L88.488,7.3902 C88.402,7.3902 88.359,7.3492 88.359,7.2682 L88.359,4.0592 Z M85.409,15.2382 L88.143,15.2382 C88.273,15.2382 88.359,15.1562 88.359,15.0332 L88.359,10.0672 C88.359,9.9862 88.402,9.9452 88.488,9.9452 L90.447,9.9452 L92.966,15.0332 C93.031,15.1762 93.095,15.2382 93.289,15.2382 L96.346,15.2382 C96.497,15.2382 96.562,15.1152 96.497,14.9922 L93.612,9.5162 C95.227,8.8412 96.217,7.4312 96.217,5.6532 C96.217,3.1192 94.237,1.3412 91.244,1.3412 L85.409,1.3412 C85.28,1.3412 85.194,1.4232 85.194,1.5462 L85.194,15.0332 C85.194,15.1562 85.28,15.2382 85.409,15.2382 L85.409,15.2382 Z" id="Fill-29" fill="#000000" sketch:type="MSShapeGroup" mask="url(#mask-4)"></path>
                <path d="M98.54,15.2378 L107.928,15.2378 C108.057,15.2378 108.143,15.1558 108.143,15.0338 L108.143,12.8468 C108.143,12.7238 108.057,12.6418 107.928,12.6418 L101.619,12.6418 C101.533,12.6418 101.49,12.6018 101.49,12.5198 L101.49,9.6388 C101.49,9.5568 101.533,9.5158 101.619,9.5158 L106.872,9.5158 C107.002,9.5158 107.088,9.4338 107.088,9.3118 L107.088,7.1448 C107.088,7.0228 107.002,6.9408 106.872,6.9408 L101.619,6.9408 C101.533,6.9408 101.49,6.8998 101.49,6.8178 L101.49,4.0588 C101.49,3.9778 101.533,3.9368 101.619,3.9368 L107.928,3.9368 C108.057,3.9368 108.143,3.8548 108.143,3.7318 L108.143,1.5458 C108.143,1.4228 108.057,1.3418 107.928,1.3418 L98.54,1.3418 C98.411,1.3418 98.325,1.4228 98.325,1.5458 L98.325,15.0338 C98.325,15.1558 98.411,15.2378 98.54,15.2378" id="Fill-30" fill="#000000" sketch:type="MSShapeGroup" mask="url(#mask-4)"></path>
                <path d="M115.4179,15.4628 C117.8939,15.4628 119.7019,14.3178 120.5209,12.3768 C120.5849,12.2748 120.5419,12.1728 120.4129,12.1318 L118.0659,11.1308 C117.9369,11.0688 117.8289,11.1098 117.7649,11.2328 C117.3549,12.1318 116.6659,12.8058 115.4389,12.8058 C114.2979,12.8058 113.5659,12.2338 113.2429,11.2728 C113.0709,10.7618 113.0059,10.2718 113.0059,8.2898 C113.0059,6.3078 113.0709,5.8168 113.2429,5.3058 C113.5659,4.3458 114.2979,3.7738 115.4389,3.7738 C116.6659,3.7738 117.3549,4.4478 117.7649,5.3468 C117.8289,5.4698 117.9369,5.5108 118.0659,5.4488 L120.4129,4.4478 C120.5419,4.4068 120.5849,4.3048 120.5209,4.2028 C119.7019,2.2608 117.8939,1.1168 115.4179,1.1168 C112.8559,1.1168 110.9819,2.2608 110.2069,4.5298 C109.8849,5.4288 109.7979,6.1438 109.7979,8.2898 C109.7979,10.4348 109.8849,11.1508 110.2069,12.0498 C110.9819,14.3178 112.8559,15.4628 115.4179,15.4628" id="Fill-31" fill="#000000" sketch:type="MSShapeGroup" mask="url(#mask-4)"></path>
                <path d="M122.4558,15.2378 L125.1898,15.2378 C125.3188,15.2378 125.4058,15.1558 125.4058,15.0338 L125.4058,9.6788 C125.4058,9.5978 125.4488,9.5568 125.5348,9.5568 L130.3148,9.5568 C130.4008,9.5568 130.4438,9.5978 130.4438,9.6788 L130.4438,15.0338 C130.4438,15.1558 130.5298,15.2378 130.6588,15.2378 L133.3938,15.2378 C133.5228,15.2378 133.6088,15.1558 133.6088,15.0338 L133.6088,1.5458 C133.6088,1.4228 133.5228,1.3418 133.3938,1.3418 L130.6588,1.3418 C130.5298,1.3418 130.4438,1.4228 130.4438,1.5458 L130.4438,6.7568 C130.4438,6.8388 130.4008,6.8798 130.3148,6.8798 L125.5348,6.8798 C125.4488,6.8798 125.4058,6.8388 125.4058,6.7568 L125.4058,1.5458 C125.4058,1.4228 125.3188,1.3418 125.1898,1.3418 L122.4558,1.3418 C122.3268,1.3418 122.2408,1.4228 122.2408,1.5458 L122.2408,15.0338 C122.2408,15.1558 122.3268,15.2378 122.4558,15.2378" id="Fill-32" fill="#000000" sketch:type="MSShapeGroup" mask="url(#mask-4)"></path>
                <path d="M139.1604,5.306 C139.4834,4.346 140.2584,3.773 141.4644,3.773 C142.6704,3.773 143.4454,4.346 143.7684,5.306 C143.9404,5.796 144.0044,6.471 144.0044,8.29 C144.0044,10.108 143.9404,10.783 143.7684,11.273 C143.4454,12.234 142.6704,12.806 141.4644,12.806 C140.2584,12.806 139.4834,12.234 139.1604,11.273 C138.9884,10.783 138.9234,10.108 138.9234,8.29 C138.9234,6.471 138.9884,5.796 139.1604,5.306 M141.4644,15.463 C144.0264,15.463 146.0504,14.339 146.8044,12.091 C147.1274,11.13 147.2134,10.353 147.2134,8.29 C147.2134,6.226 147.1274,5.449 146.8044,4.488 C146.0504,2.241 144.0264,1.117 141.4644,1.117 C138.9024,1.117 136.8784,2.241 136.1244,4.488 C135.8024,5.449 135.7154,6.226 135.7154,8.29 C135.7154,10.353 135.8024,11.13 136.1244,12.091 C136.8784,14.339 138.9024,15.463 141.4644,15.463" id="Fill-33" fill="#000000" sketch:type="MSShapeGroup" mask="url(#mask-4)"></path>
                <path d="M155.3923,6.8797 L154.6173,6.7777 C152.9373,6.5527 152.3343,6.0417 152.3343,5.2447 C152.3343,4.3657 153.0023,3.7327 154.2943,3.7327 C155.5003,3.7327 156.5763,4.1007 157.6963,4.7947 C157.8033,4.8567 157.9113,4.8357 157.9973,4.7337 L159.3113,2.8747 C159.4183,2.7307 159.3973,2.6497 159.2673,2.5677 C158.0403,1.6687 156.2323,1.1167 154.2943,1.1167 C151.1293,1.1167 149.1053,2.8127 149.1053,5.3667 C149.1053,7.8197 150.7633,9.1477 153.7343,9.5357 L154.5093,9.6387 C156.2533,9.8627 156.7703,10.3737 156.7703,11.1917 C156.7703,12.1727 155.9093,12.8467 154.3803,12.8467 C152.8303,12.8467 151.5163,12.1517 150.5483,11.4167 C150.4403,11.3347 150.3103,11.3347 150.2243,11.4367 L148.5883,13.2147 C148.4813,13.3377 148.5243,13.4807 148.6103,13.5617 C149.7513,14.6037 151.9693,15.4627 154.2513,15.4627 C158.0403,15.4627 160.0003,13.6027 160.0003,11.0887 C160.0003,8.5757 158.4063,7.2677 155.3923,6.8797" id="Fill-34" fill="#000000" sketch:type="MSShapeGroup" mask="url(#mask-4)"></path>
                <path d="M68.2114,32.076 C67.7804,33.323 66.7904,33.833 65.1754,33.833 L63.0004,33.833 C62.9144,33.833 62.8714,33.793 62.8714,33.711 L62.8714,24.392 C62.8714,24.31 62.9144,24.27 63.0004,24.27 L65.1754,24.27 C66.7904,24.27 67.7804,24.78 68.2114,26.027 C68.3624,26.415 68.4694,27.029 68.4694,29.052 C68.4694,31.054 68.3624,31.688 68.2114,32.076 M65.7784,22.103 L60.5464,22.103 C60.4174,22.103 60.3314,22.185 60.3314,22.308 L60.3314,35.795 C60.3314,35.918 60.4174,36 60.5464,36 L65.7784,36 C68.2974,36 69.9774,34.937 70.6654,32.914 C70.9024,32.219 71.0314,31.463 71.0314,29.052 C71.0314,26.64 70.9024,25.884 70.6654,25.189 C69.9774,23.166 68.2974,22.103 65.7784,22.103" id="Fill-35" fill="#000000" sketch:type="MSShapeGroup" mask="url(#mask-4)"></path>
                <path d="M73.6989,22.1034 C73.5699,22.1034 73.4839,22.1854 73.4839,22.3074 L73.4839,35.7954 C73.4839,35.9184 73.5699,35.9994 73.6989,35.9994 L75.8089,35.9994 C75.9379,35.9994 76.0239,35.9184 76.0239,35.7954 L76.0239,22.3074 C76.0239,22.1854 75.9379,22.1034 75.8089,22.1034 L73.6989,22.1034 Z" id="Fill-36" fill="#000000" sketch:type="MSShapeGroup" mask="url(#mask-4)"></path>
                <path d="M84.1403,36.2243 C86.6593,36.2243 88.5973,34.9783 89.3073,32.8113 C89.5443,32.1173 89.6523,30.9113 89.6523,29.7663 L89.6523,28.5613 C89.6523,28.4383 89.5663,28.3563 89.4373,28.3563 L84.5923,28.3563 C84.4633,28.3563 84.3773,28.4383 84.3773,28.5613 L84.3773,30.1963 C84.3773,30.3183 84.4633,30.4003 84.5923,30.4003 L87.0033,30.4003 C87.0903,30.4003 87.1333,30.4413 87.1333,30.5233 C87.1333,31.3193 87.0473,31.8923 86.8963,32.3213 C86.5083,33.4453 85.4103,34.0583 84.1193,34.0583 C82.6333,34.0583 81.7713,33.3633 81.3633,32.2393 C81.1903,31.7283 81.1043,31.0133 81.1043,29.0513 C81.1043,27.0693 81.1903,26.3743 81.3633,25.8633 C81.7713,24.7393 82.6333,24.0443 84.1193,24.0443 C85.5393,24.0443 86.4223,24.6583 87.0683,25.7613 C87.1113,25.8433 87.2193,25.9043 87.3483,25.8633 L89.1563,25.1073 C89.2643,25.0463 89.2863,24.9233 89.2433,24.8213 C88.6403,23.2683 86.8743,21.8783 84.1403,21.8783 C81.5563,21.8783 79.6623,23.0233 78.9083,25.2303 C78.6073,26.0883 78.5203,26.8653 78.5203,29.0513 C78.5203,31.2383 78.6073,32.0153 78.9083,32.8733 C79.6623,35.0803 81.5563,36.2243 84.1403,36.2243" id="Fill-37" fill="#000000" sketch:type="MSShapeGroup" mask="url(#mask-4)"></path>
                <path d="M94.4725,22.1034 L92.3625,22.1034 C92.2325,22.1034 92.1465,22.1854 92.1465,22.3074 L92.1465,35.7954 C92.1465,35.9184 92.2325,35.9994 92.3625,35.9994 L94.4725,35.9994 C94.6015,35.9994 94.6875,35.9184 94.6875,35.7954 L94.6875,22.3074 C94.6875,22.1854 94.6015,22.1034 94.4725,22.1034" id="Fill-38" fill="#000000" sketch:type="MSShapeGroup" mask="url(#mask-4)"></path>
                <path d="M103.1908,35.7953 L103.1908,24.3923 C103.1908,24.3103 103.2338,24.2693 103.3208,24.2693 L107.1528,24.2693 C107.2818,24.2693 107.3678,24.1883 107.3678,24.0653 L107.3678,22.3073 C107.3678,22.1853 107.2818,22.1033 107.1528,22.1033 L96.6888,22.1033 C96.5598,22.1033 96.4738,22.1853 96.4738,22.3073 L96.4738,24.0653 C96.4738,24.1883 96.5598,24.2693 96.6888,24.2693 L100.5218,24.2693 C100.6078,24.2693 100.6508,24.3103 100.6508,24.3923 L100.6508,35.7953 C100.6508,35.9183 100.7368,36.0003 100.8658,36.0003 L102.9758,36.0003 C103.1048,36.0003 103.1908,35.9183 103.1908,35.7953" id="Fill-39" fill="#000000" sketch:type="MSShapeGroup" mask="url(#mask-4)"></path>
                <path d="M110.8759,30.9522 L112.8349,25.5572 L112.8999,25.5572 L114.8379,30.9522 L110.8759,30.9522 Z M116.5809,35.7952 C116.6239,35.9382 116.7109,36.0002 116.8609,36.0002 L118.9719,36.0002 C119.1219,36.0002 119.1649,35.9182 119.1219,35.7952 L114.1699,22.3082 C114.1269,22.1852 114.0409,22.1032 113.8899,22.1032 L111.9089,22.1032 C111.7589,22.1032 111.6729,22.1852 111.6299,22.3082 L106.6129,35.7952 C106.5699,35.9182 106.6129,36.0002 106.7639,36.0002 L108.8519,36.0002 C109.0029,36.0002 109.0889,35.9382 109.1319,35.7952 L110.1009,33.0982 L115.6129,33.0982 L116.5809,35.7952 Z" id="Fill-40" fill="#000000" sketch:type="MSShapeGroup" mask="url(#mask-4)"></path>
                <path d="M121.0354,35.9998 L130.2074,35.9998 C130.3364,35.9998 130.4224,35.9178 130.4224,35.7948 L130.4224,34.0378 C130.4224,33.9158 130.3364,33.8338 130.2074,33.8338 L123.4894,33.8338 C123.4034,33.8338 123.3604,33.7928 123.3604,33.7108 L123.3604,22.3078 C123.3604,22.1848 123.2744,22.1038 123.1454,22.1038 L121.0354,22.1038 C120.9054,22.1038 120.8194,22.1848 120.8194,22.3078 L120.8194,35.7948 C120.8194,35.9178 120.9054,35.9998 121.0354,35.9998" id="Fill-41" fill="#000000" sketch:type="MSShapeGroup" mask="url(#mask-4)"></path>
                <path d="M141.853,35.7953 L141.853,34.0383 C141.853,33.9153 141.767,33.8333 141.638,33.8333 L134.92,33.8333 C134.834,33.8333 134.791,33.7923 134.791,33.7113 L134.791,30.1963 C134.791,30.1143 134.834,30.0733 134.92,30.0733 L140.583,30.0733 C140.712,30.0733 140.798,29.9913 140.798,29.8693 L140.798,28.1113 C140.798,27.9893 140.712,27.9073 140.583,27.9073 L134.92,27.9073 C134.834,27.9073 134.791,27.8663 134.791,27.7843 L134.791,24.3923 C134.791,24.3103 134.834,24.2693 134.92,24.2693 L141.638,24.2693 C141.767,24.2693 141.853,24.1883 141.853,24.0653 L141.853,22.3073 C141.853,22.1853 141.767,22.1033 141.638,22.1033 L132.466,22.1033 C132.336,22.1033 132.25,22.1853 132.25,22.3073 L132.25,35.7953 C132.25,35.9183 132.336,36.0003 132.466,36.0003 L141.638,36.0003 C141.767,36.0003 141.853,35.9183 141.853,35.7953" id="Fill-42" fill="#000000" sketch:type="MSShapeGroup" mask="url(#mask-4)"></path>
                <path d="M149.9468,27.8864 L149.1718,27.7844 C147.1908,27.5194 146.4808,26.8654 146.4808,25.9044 C146.4808,24.8214 147.2988,24.0444 148.7838,24.0444 C150.0118,24.0444 151.1088,24.3924 152.2938,25.1274 C152.4008,25.1894 152.5088,25.1684 152.5948,25.0664 L153.6288,23.5544 C153.7148,23.4314 153.6928,23.3504 153.5858,23.2684 C152.4228,22.4304 150.6788,21.8784 148.8488,21.8784 C145.8348,21.8784 143.8968,23.5544 143.8968,26.0674 C143.8968,28.3774 145.4898,29.6644 148.3098,30.0324 L149.0848,30.1344 C151.1088,30.4004 151.7548,31.0544 151.7548,32.0554 C151.7548,33.2204 150.7438,34.0584 148.9988,34.0584 C147.3628,34.0584 145.9638,33.3024 145.0168,32.5874 C144.9298,32.5054 144.8008,32.5054 144.7148,32.6074 L143.3798,34.0784 C143.2938,34.1804 143.3368,34.3034 143.4228,34.3854 C144.5638,35.4064 146.6528,36.2244 148.8058,36.2244 C152.4438,36.2244 154.3178,34.3854 154.3178,31.9124 C154.3178,29.5214 152.7668,28.2544 149.9468,27.8864" id="Fill-43" fill="#000000" sketch:type="MSShapeGroup" mask="url(#mask-4)"></path>
            </g>
        </g>
    </g>
</svg>