<?xml version="1.0" encoding="UTF-8" standalone="no"?>
<svg width="53px" height="15px" viewBox="0 0 53 15" version="1.1" xmlns="http://www.w3.org/2000/svg" xmlns:xlink="http://www.w3.org/1999/xlink" xmlns:sketch="http://www.bohemiancoding.com/sketch/ns">
    <!-- Generator: Sketch 3.5.1 (25234) - http://www.bohemiancoding.com/sketch -->
    <title>logo-mozilla</title>
    <desc>Created with Sketch.</desc>
    <defs></defs>
    <g id="Page-1" stroke="none" stroke-width="1" fill="none" fill-rule="evenodd" sketch:type="MSPage">
        <g id="logo-mozilla" sketch:type="MSLayerGroup" fill="#FFFFFF">
            <path d="M2.318,4.4614 C2.477,4.7064 2.547,4.9254 2.636,5.3864 C3.257,4.7804 4.024,4.4614 4.859,4.4614 C5.615,4.4614 6.235,4.7064 6.715,5.2064 C6.843,5.3324 6.967,5.4944 7.076,5.6524 C7.911,4.7984 8.657,4.4614 9.659,4.4614 C10.372,4.4614 11.048,4.6734 11.461,5.0294 C11.976,5.4744 12.14,6.0104 12.14,7.2564 L12.14,13.7434 L9.822,13.7434 L9.822,7.7214 C9.822,6.6304 9.693,6.4194 9.072,6.4194 C8.626,6.4194 8,6.7224 7.486,7.1854 L7.486,13.7434 L5.226,13.7434 L5.226,7.8074 C5.226,6.6694 5.061,6.4014 4.397,6.4014 C3.956,6.4014 3.347,6.6304 2.833,7.0954 L2.833,13.7434 L0.5,13.7434 L0.5,7.3804 C0.5,6.0634 0.409,5.4944 0.159,5.0464 L2.318,4.4614 Z" id="Fill-1" sketch:type="MSShapeGroup"></path>
            <path d="M16.376,7.1319 C16.213,7.6149 16.126,8.2549 16.126,9.1639 C16.126,10.2139 16.233,11.0009 16.428,11.4629 C16.643,11.9609 17.18,12.2109 17.639,12.2109 C18.673,12.2109 19.116,11.2849 19.116,9.1289 C19.116,7.8999 18.955,7.0949 18.636,6.6849 C18.407,6.3839 18.034,6.2049 17.605,6.2049 C17.033,6.2049 16.57,6.5599 16.376,7.1319 M20.669,5.8139 C21.398,6.6689 21.723,7.6659 21.723,9.1449 C21.723,10.7129 21.364,11.7839 20.578,12.6739 C19.886,13.4569 18.976,13.9389 17.57,13.9389 C15.09,13.9389 13.473,12.0859 13.473,9.2179 C13.473,6.3479 15.108,4.4409 17.57,4.4409 C18.871,4.4409 19.886,4.8879 20.669,5.8139" id="Fill-3" sketch:type="MSShapeGroup"></path>
            <path d="M29.4038,4.6201 L29.4038,6.2591 L25.3728,12.0851 L29.5608,12.0851 L28.9898,13.7431 L22.2748,13.7431 L22.2748,12.2641 L26.5638,6.2951 L22.6328,6.2951 L22.6328,4.6201 L29.4038,4.6201 Z" id="Fill-5" sketch:type="MSShapeGroup"></path>
            <path d="M33.1601,4.4051 L33.1601,13.7431 L30.7731,13.7431 L30.7731,4.7801 L33.1601,4.4051 Z M33.4411,2.1081 C33.4411,2.9281 32.7881,3.5841 31.9631,3.5841 C31.1651,3.5841 30.5071,2.9281 30.5071,2.1081 C30.5071,1.2891 31.1861,0.6281 32.0031,0.6281 C32.8041,0.6281 33.4411,1.2891 33.4411,2.1081 L33.4411,2.1081 Z" id="Fill-7" sketch:type="MSShapeGroup"></path>
            <path d="M37.5078,2.9282 L37.5078,10.0362 C37.5078,11.6072 37.5268,11.8192 37.6698,12.0682 C37.7608,12.2302 37.9538,12.3162 38.1528,12.3162 C38.2388,12.3162 38.2898,12.3162 38.4198,12.2842 L38.8268,13.7082 C38.4198,13.8672 37.9198,13.9562 37.4028,13.9562 C36.3848,13.9562 35.5658,13.4772 35.2808,12.7122 C35.1018,12.2492 35.0648,11.9612 35.0648,10.6622 L35.0648,3.8522 C35.0648,2.6592 35.0328,1.9302 34.9438,1.1072 L37.3848,0.5552 C37.4708,1.0532 37.5078,1.6432 37.5078,2.9282" id="Fill-9" sketch:type="MSShapeGroup"></path>
            <path d="M42.4596,2.9282 L42.4596,10.0362 C42.4596,11.6072 42.4806,11.8192 42.6276,12.0682 C42.7106,12.2302 42.9046,12.3162 43.1036,12.3162 C43.1926,12.3162 43.2476,12.3162 43.3736,12.2842 L43.7816,13.7082 C43.3736,13.8672 42.8736,13.9562 42.3556,13.9562 C41.3386,13.9562 40.5176,13.4772 40.2336,12.7122 C40.0516,12.2492 40.0216,11.9612 40.0216,10.6622 L40.0216,3.8522 C40.0216,2.6592 39.9856,1.9302 39.8936,1.1072 L42.3326,0.5552 C42.4296,1.0532 42.4596,1.6432 42.4596,2.9282" id="Fill-11" sketch:type="MSShapeGroup"></path>
            <path d="M49.3012,9.7522 C47.6502,9.7522 47.0712,10.0532 47.0712,11.1442 C47.0712,11.8542 47.5222,12.3352 48.1282,12.3352 C48.5712,12.3352 49.0202,12.1032 49.3732,11.7122 L49.4122,9.7522 L49.3012,9.7522 Z M46.2062,4.9592 C47.0942,4.5842 47.8562,4.4252 48.6972,4.4252 C50.2332,4.4252 51.2822,4.9932 51.6422,6.0102 C51.7602,6.3842 51.8162,6.6692 51.8042,7.6502 L51.7462,10.7122 L51.7462,10.8752 C51.7462,11.8542 51.9082,12.2302 52.6062,12.7442 L51.3392,14.2092 C50.7822,13.9752 50.2842,13.5632 50.0522,13.1022 C49.8772,13.2822 49.6792,13.4562 49.4992,13.5822 C49.0562,13.9042 48.4102,14.0832 47.6622,14.0832 C45.6312,14.0832 44.5262,13.0472 44.5262,11.2332 C44.5262,9.0912 46.0092,8.0922 48.9112,8.0922 C49.0862,8.0922 49.2502,8.0922 49.4482,8.1122 L49.4482,7.7402 C49.4482,6.7232 49.2502,6.3842 48.3722,6.3842 C47.6152,6.3842 46.7172,6.7562 45.7392,7.4172 L44.7222,5.7062 C45.2062,5.4022 45.5632,5.2252 46.2062,4.9592 L46.2062,4.9592 Z" id="Fill-13" sketch:type="MSShapeGroup"></path>
        </g>
    </g>
</svg>