<?xml version="1.0" encoding="UTF-8" standalone="no"?>
<svg width="150px" height="76px" viewBox="0 0 150 76" version="1.1" xmlns="http://www.w3.org/2000/svg" xmlns:xlink="http://www.w3.org/1999/xlink" xmlns:sketch="http://www.bohemiancoding.com/sketch/ns">
    <!-- Generator: Sketch 3.4.4 (17249) - http://www.bohemiancoding.com/sketch -->
    <title>logo-cipit</title>
    <desc>Created with Sketch.</desc>
    <defs>
        <path id="path-1" d="M0,0.948 L150,0.948 L150,76 L0,76 L0,0.948 Z"></path>
    </defs>
    <g id="Page-1" stroke="none" stroke-width="1" fill="none" fill-rule="evenodd" sketch:type="MSPage">
        <g id="logo-cipit" sketch:type="MSLayerGroup">
            <path d="M29.326,17.6536 C31.361,17.6536 33.27,18.0936 35.051,18.9726 C36.832,19.8526 38.552,21.2046 40.21,23.0286 L45.092,18.4416 C42.958,15.9456 40.581,14.0826 37.962,12.8506 C35.343,11.6196 32.449,11.0036 29.28,11.0036 C23.943,11.0036 19.395,12.8596 15.635,16.5696 C11.875,20.2806 9.995,24.7716 9.995,30.0426 C9.995,35.3136 11.875,39.7996 15.635,43.5026 C19.395,47.2056 23.943,49.0566 29.28,49.0566 C32.202,49.0566 34.941,48.4856 37.494,47.3446 C40.047,46.2036 42.58,44.4186 45.092,41.9876 L40.418,37.0186 C38.693,38.8556 36.924,40.2136 35.109,41.0906 C33.294,41.9676 31.368,42.4066 29.332,42.4066 C25.85,42.4066 22.926,41.2206 20.562,38.8476 C18.196,36.4746 17.014,33.5396 17.014,30.0426 C17.014,26.5446 18.196,23.6056 20.56,21.2246 C22.923,18.8446 25.845,17.6536 29.326,17.6536" id="Fill-1" fill="#5E5E5E" sketch:type="MSShapeGroup"></path>
            <mask id="mask-2" sketch:name="Clip 4" fill="white">
                <use xlink:href="#path-1"></use>
            </mask>
            <g id="Clip-4"></g>
            <path d="M60.777,48.398 L70.546,48.398 L70.546,12.019 L60.777,12.019 L60.777,48.398 Z" id="Fill-3" fill="#5E5E5E" sketch:type="MSShapeGroup" mask="url(#mask-2)"></path>
            <path d="M89.1124,28.6971 C88.0864,28.6971 87.4394,28.6431 86.8994,28.5891 L86.8994,19.3051 C87.3854,19.1981 88.3564,19.0901 89.8134,19.0901 C93.4844,19.0901 95.3194,20.9251 95.3194,23.6231 C95.3194,26.7541 92.9444,28.6971 89.1124,28.6971 M100.7704,14.6101 C98.2334,12.6671 94.5094,11.7491 89.2744,11.7491 C83.7154,11.7491 79.8824,12.0731 77.2384,12.5051 L77.2384,48.3981 L86.8994,48.3981 L86.8994,36.0381 C87.4934,36.0911 88.3564,36.1451 89.2744,36.1451 C94.1854,36.1451 98.4494,35.0121 101.4184,32.3671 C103.6854,30.3161 104.9264,27.0781 104.9264,23.4081 C104.9264,19.6831 103.2534,16.4451 100.7704,14.6101" id="Fill-5" fill="#5E5E5E" sketch:type="MSShapeGroup" mask="url(#mask-2)"></path>
            <path d="M107.246,48.398 L117.015,48.398 L117.015,12.019 L107.246,12.019 L107.246,48.398 Z" id="Fill-6" fill="#5E5E5E" sketch:type="MSShapeGroup" mask="url(#mask-2)"></path>
            <path d="M121.4949,12.019 L121.4949,20.169 L130.7789,20.169 L130.7789,48.398 L140.5479,48.398 L140.5479,20.169 L149.9929,20.169 L149.9929,12.019 L121.4949,12.019 Z" id="Fill-7" fill="#5E5E5E" sketch:type="MSShapeGroup" mask="url(#mask-2)"></path>
            <path d="M28.92,6.2894 C41.921,6.2894 52.498,16.8664 52.498,29.8674 C52.498,42.8684 41.921,53.4464 28.92,53.4464 C15.919,53.4464 5.342,42.8684 5.342,29.8674 C5.342,16.8664 15.919,6.2894 28.92,6.2894 M28.92,58.7874 C44.867,58.7874 57.84,45.8144 57.84,29.8674 C57.84,13.9214 44.867,0.9474 28.92,0.9474 C12.973,0.9474 0,13.9214 0,29.8674 C0,45.8144 12.973,58.7874 28.92,58.7874" id="Fill-8" fill="#000000" sketch:type="MSShapeGroup" mask="url(#mask-2)"></path>
            <path d="M7.089,62.4802 C7.555,62.4802 7.921,62.5802 8.188,62.6962 L8.412,61.8812 C8.204,61.7732 7.722,61.6312 7.047,61.6312 C5.333,61.6312 4.051,62.7462 4.051,64.5942 C4.051,66.3012 5.133,67.4252 6.914,67.4252 C7.588,67.4252 8.121,67.2912 8.363,67.1672 L8.196,66.3592 C7.93,66.4842 7.497,66.5672 7.081,66.5672 C5.849,66.5672 5.125,65.7762 5.125,64.5442 C5.125,63.1962 5.949,62.4802 7.089,62.4802" id="Fill-9" fill="#000000" sketch:type="MSShapeGroup" mask="url(#mask-2)"></path>
            <path d="M12.6238,66.4926 L10.2598,66.4926 L10.2598,64.8446 L12.3738,64.8446 L12.3738,64.0116 L10.2598,64.0116 L10.2598,62.5636 L12.4988,62.5636 L12.4988,61.7226 L9.2358,61.7226 L9.2358,67.3336 L12.6238,67.3336 L12.6238,66.4926 Z" id="Fill-10" fill="#000000" sketch:type="MSShapeGroup" mask="url(#mask-2)"></path>
            <path d="M15.445,64.8609 L16.91,67.3329 L17.967,67.3329 L17.967,61.7229 L17.018,61.7229 L17.018,63.6789 C17.018,64.5359 17.043,65.2609 17.11,66.0099 L17.093,66.0099 C16.835,65.4019 16.51,64.7529 16.136,64.1289 L14.688,61.7229 L13.522,61.7229 L13.522,67.3329 L14.463,67.3329 L14.463,65.3269 C14.463,64.4029 14.455,63.6629 14.413,62.9379 L14.438,62.9299 C14.713,63.5619 15.087,64.2529 15.445,64.8609" id="Fill-11" fill="#000000" sketch:type="MSShapeGroup" mask="url(#mask-2)"></path>
            <path d="M18.624,62.5801 L20.222,62.5801 L20.222,67.3331 L21.246,67.3331 L21.246,62.5801 L22.861,62.5801 L22.861,61.7231 L18.624,61.7231 L18.624,62.5801 Z" id="Fill-12" fill="#000000" sketch:type="MSShapeGroup" mask="url(#mask-2)"></path>
            <path d="M24.5334,64.2784 L24.5334,62.5054 C24.6334,62.4804 24.8414,62.4554 25.1664,62.4554 C25.8324,62.4554 26.2644,62.7384 26.2644,63.3544 C26.2644,63.9124 25.8324,64.2784 25.1414,64.2784 L24.5334,64.2784 Z M26.0564,66.0094 C26.2154,66.7084 26.3484,67.1664 26.4314,67.3334 L27.4884,67.3334 C27.3724,67.1164 27.2224,66.4674 27.0474,65.7684 C26.9054,65.2274 26.6644,64.8364 26.2644,64.6864 L26.2644,64.6614 C26.7894,64.4694 27.2804,63.9784 27.2804,63.2544 C27.2804,62.7804 27.1054,62.3884 26.7974,62.1304 C26.4234,61.8144 25.8734,61.6814 25.0664,61.6814 C24.4754,61.6814 23.9004,61.7314 23.5174,61.7974 L23.5174,67.3334 L24.5334,67.3334 L24.5334,65.0274 L25.0494,65.0274 C25.6324,65.0444 25.8984,65.2774 26.0564,66.0094 L26.0564,66.0094 Z" id="Fill-13" fill="#000000" sketch:type="MSShapeGroup" mask="url(#mask-2)"></path>
            <path d="M31.5165,62.5634 L31.5165,61.7224 L28.2535,61.7224 L28.2535,67.3334 L31.6415,67.3334 L31.6415,66.4924 L29.2775,66.4924 L29.2775,64.8444 L31.3915,64.8444 L31.3915,64.0114 L29.2775,64.0114 L29.2775,62.5634 L31.5165,62.5634 Z" id="Fill-14" fill="#000000" sketch:type="MSShapeGroup" mask="url(#mask-2)"></path>
            <path d="M39.7784,62.5634 L39.7784,61.7224 L36.5404,61.7224 L36.5404,67.3334 L37.5644,67.3334 L37.5644,64.9524 L39.6284,64.9524 L39.6284,64.1114 L37.5644,64.1114 L37.5644,62.5634 L39.7784,62.5634 Z" id="Fill-15" fill="#000000" sketch:type="MSShapeGroup" mask="url(#mask-2)"></path>
            <path d="M43.124,66.6091 C42.142,66.6091 41.567,65.6931 41.567,64.5531 C41.567,63.3961 42.108,62.4471 43.124,62.4471 C44.148,62.4471 44.672,63.4541 44.672,64.5111 C44.672,65.6851 44.115,66.6091 43.124,66.6091 M43.149,61.6311 C41.567,61.6311 40.485,62.8461 40.485,64.5691 C40.485,66.2181 41.484,67.4251 43.066,67.4251 C44.614,67.4251 45.754,66.3511 45.754,64.4701 C45.754,62.8711 44.789,61.6311 43.149,61.6311" id="Fill-16" fill="#000000" sketch:type="MSShapeGroup" mask="url(#mask-2)"></path>
            <path d="M48.2591,64.2784 L47.6511,64.2784 L47.6511,62.5054 C47.7511,62.4804 47.9591,62.4554 48.2841,62.4554 C48.9501,62.4554 49.3831,62.7384 49.3831,63.3544 C49.3831,63.9124 48.9501,64.2784 48.2591,64.2784 M50.3981,63.2544 C50.3981,62.7804 50.2231,62.3884 49.9151,62.1304 C49.5411,61.8144 48.9911,61.6814 48.1841,61.6814 C47.5931,61.6814 47.0191,61.7314 46.6361,61.7974 L46.6361,67.3334 L47.6511,67.3334 L47.6511,65.0274 L48.1671,65.0274 C48.7501,65.0444 49.0161,65.2774 49.1751,66.0094 C49.3331,66.7084 49.4661,67.1664 49.5491,67.3334 L50.6061,67.3334 C50.4901,67.1164 50.3401,66.4674 50.1651,65.7684 C50.0241,65.2274 49.7821,64.8364 49.3831,64.6864 L49.3831,64.6614 C49.9071,64.4694 50.3981,63.9784 50.3981,63.2544" id="Fill-17" fill="#000000" sketch:type="MSShapeGroup" mask="url(#mask-2)"></path>
            <path d="M56.396,61.723 L55.372,61.723 L55.372,67.333 L56.396,67.333 L56.396,61.723 Z" id="Fill-18" fill="#000000" sketch:type="MSShapeGroup" mask="url(#mask-2)"></path>
            <path d="M57.5691,67.3333 L58.5101,67.3333 L58.5101,65.3273 C58.5101,64.4033 58.5011,63.6623 58.4601,62.9383 L58.4851,62.9293 C58.7591,63.5623 59.1341,64.2533 59.4921,64.8613 L60.9571,67.3333 L62.0141,67.3333 L62.0141,61.7233 L61.0651,61.7233 L61.0651,63.6793 C61.0651,64.5363 61.0901,65.2603 61.1571,66.0093 L61.1401,66.0093 C60.8821,65.4023 60.5571,64.7523 60.1831,64.1283 L58.7341,61.7233 L57.5691,61.7233 L57.5691,67.3333 Z" id="Fill-19" fill="#000000" sketch:type="MSShapeGroup" mask="url(#mask-2)"></path>
            <path d="M66.9078,61.7228 L62.6708,61.7228 L62.6708,62.5798 L64.2688,62.5798 L64.2688,67.3328 L65.2928,67.3328 L65.2928,62.5798 L66.9078,62.5798 L66.9078,61.7228 Z" id="Fill-20" fill="#000000" sketch:type="MSShapeGroup" mask="url(#mask-2)"></path>
            <path d="M68.5886,64.8444 L70.7026,64.8444 L70.7026,64.0124 L68.5886,64.0124 L68.5886,62.5634 L70.8276,62.5634 L70.8276,61.7224 L67.5646,61.7224 L67.5646,67.3334 L70.9526,67.3334 L70.9526,66.4924 L68.5886,66.4924 L68.5886,64.8444 Z" id="Fill-21" fill="#000000" sketch:type="MSShapeGroup" mask="url(#mask-2)"></path>
            <path d="M75.1808,66.4759 L72.8748,66.4759 L72.8748,61.7229 L71.8508,61.7229 L71.8508,67.3329 L75.1808,67.3329 L75.1808,66.4759 Z" id="Fill-22" fill="#000000" sketch:type="MSShapeGroup" mask="url(#mask-2)"></path>
            <path d="M79.2841,66.4759 L76.9781,66.4759 L76.9781,61.7229 L75.9541,61.7229 L75.9541,67.3329 L79.2841,67.3329 L79.2841,66.4759 Z" id="Fill-23" fill="#000000" sketch:type="MSShapeGroup" mask="url(#mask-2)"></path>
            <path d="M81.0814,64.8444 L83.1964,64.8444 L83.1964,64.0124 L81.0814,64.0124 L81.0814,62.5634 L83.3204,62.5634 L83.3204,61.7224 L80.0574,61.7224 L80.0574,67.3334 L83.4454,67.3334 L83.4454,66.4924 L81.0814,66.4924 L81.0814,64.8444 Z" id="Fill-24" fill="#000000" sketch:type="MSShapeGroup" mask="url(#mask-2)"></path>
            <path d="M86.916,67.4249 C87.59,67.4249 88.123,67.2919 88.364,67.1669 L88.198,66.3599 C87.932,66.4839 87.499,66.5679 87.083,66.5679 C85.851,66.5679 85.126,65.7769 85.126,64.5449 C85.126,63.1959 85.95,62.4799 87.091,62.4799 C87.557,62.4799 87.923,62.5799 88.19,62.6969 L88.414,61.8809 C88.206,61.7729 87.723,61.6309 87.049,61.6309 C85.335,61.6309 84.053,62.7469 84.053,64.5949 C84.053,66.3009 85.135,67.4249 86.916,67.4249" id="Fill-25" fill="#000000" sketch:type="MSShapeGroup" mask="url(#mask-2)"></path>
            <path d="M88.7134,62.5801 L90.3114,62.5801 L90.3114,67.3331 L91.3354,67.3331 L91.3354,62.5801 L92.9504,62.5801 L92.9504,61.7231 L88.7134,61.7231 L88.7134,62.5801 Z" id="Fill-26" fill="#000000" sketch:type="MSShapeGroup" mask="url(#mask-2)"></path>
            <path d="M96.9536,64.9941 C96.9536,66.0931 96.5126,66.6011 95.7716,66.6011 C95.0806,66.6011 94.6226,66.0931 94.6226,64.9941 L94.6226,61.7231 L93.5986,61.7231 L93.5986,64.9361 C93.5986,66.7001 94.4396,67.4251 95.7376,67.4251 C97.0866,67.4251 97.9776,66.6591 97.9776,64.9271 L97.9776,61.7231 L96.9536,61.7231 L96.9536,64.9941 Z" id="Fill-27" fill="#000000" sketch:type="MSShapeGroup" mask="url(#mask-2)"></path>
            <path d="M100.8732,63.5873 C100.9732,63.2543 101.0562,62.8633 101.1392,62.5383 L101.1562,62.5383 C101.2392,62.8633 101.3312,63.2463 101.4392,63.5873 L101.8802,64.9693 L100.4402,64.9693 L100.8732,63.5873 Z M100.2742,65.7433 L102.0552,65.7433 L102.5632,67.3333 L103.6622,67.3333 L101.8382,61.7223 L100.5322,61.7223 L98.7342,67.3333 L99.7912,67.3333 L100.2742,65.7433 Z" id="Fill-28" fill="#000000" sketch:type="MSShapeGroup" mask="url(#mask-2)"></path>
            <path d="M107.773,66.4759 L105.468,66.4759 L105.468,61.7229 L104.444,61.7229 L104.444,67.3329 L107.773,67.3329 L107.773,66.4759 Z" id="Fill-29" fill="#000000" sketch:type="MSShapeGroup" mask="url(#mask-2)"></path>
            <path d="M113.5626,62.5137 C113.6706,62.4887 113.8706,62.4637 114.1536,62.4637 C114.8606,62.4637 115.2936,62.7967 115.2936,63.4207 C115.2936,64.0787 114.8276,64.4527 114.0626,64.4527 C113.8536,64.4527 113.6876,64.4447 113.5626,64.4117 L113.5626,62.5137 Z M113.5626,65.2187 C113.6956,65.2437 113.8706,65.2527 114.0626,65.2527 C114.7866,65.2527 115.4266,65.0607 115.8346,64.6527 C116.1516,64.3537 116.3176,63.9117 116.3176,63.3787 C116.3176,62.8547 116.1016,62.4137 115.7686,62.1387 C115.4106,61.8397 114.8606,61.6807 114.1116,61.6807 C113.4206,61.6807 112.9136,61.7307 112.5466,61.7977 L112.5466,67.3337 L113.5626,67.3337 L113.5626,65.2187 Z" id="Fill-30" fill="#000000" sketch:type="MSShapeGroup" mask="url(#mask-2)"></path>
            <path d="M118.2147,62.5052 C118.3147,62.4802 118.5227,62.4552 118.8467,62.4552 C119.5127,62.4552 119.9457,62.7382 119.9457,63.3542 C119.9457,63.9122 119.5127,64.2782 118.8227,64.2782 L118.2147,64.2782 L118.2147,62.5052 Z M118.2147,65.0272 L118.7307,65.0272 C119.3137,65.0442 119.5797,65.2772 119.7387,66.0092 C119.8967,66.7092 120.0297,67.1662 120.1127,67.3332 L121.1697,67.3332 C121.0537,67.1172 120.9037,66.4672 120.7287,65.7682 C120.5867,65.2272 120.3457,64.8362 119.9457,64.6862 L119.9457,64.6612 C120.4707,64.4702 120.9617,63.9782 120.9617,63.2542 C120.9617,62.7802 120.7867,62.3892 120.4787,62.1302 C120.1047,61.8142 119.5547,61.6812 118.7477,61.6812 C118.1567,61.6812 117.5817,61.7312 117.1997,61.7972 L117.1997,67.3332 L118.2147,67.3332 L118.2147,65.0272 Z" id="Fill-31" fill="#000000" sketch:type="MSShapeGroup" mask="url(#mask-2)"></path>
            <path d="M124.282,66.6091 C123.3,66.6091 122.725,65.6931 122.725,64.5531 C122.725,63.3961 123.267,62.4471 124.282,62.4471 C125.306,62.4471 125.831,63.4541 125.831,64.5111 C125.831,65.6851 125.273,66.6091 124.282,66.6091 M124.307,61.6311 C122.725,61.6311 121.644,62.8461 121.644,64.5691 C121.644,66.2181 122.642,67.4251 124.224,67.4251 C125.772,67.4251 126.912,66.3511 126.912,64.4701 C126.912,62.8711 125.947,61.6311 124.307,61.6311" id="Fill-32" fill="#000000" sketch:type="MSShapeGroup" mask="url(#mask-2)"></path>
            <path d="M129.309,64.453 C129.101,64.453 128.935,64.445 128.809,64.411 L128.809,62.514 C128.918,62.489 129.117,62.464 129.401,62.464 C130.108,62.464 130.541,62.797 130.541,63.421 C130.541,64.078 130.075,64.453 129.309,64.453 M129.359,61.681 C128.668,61.681 128.16,61.731 127.794,61.798 L127.794,67.333 L128.809,67.333 L128.809,65.219 C128.943,65.244 129.117,65.252 129.309,65.252 C130.033,65.252 130.674,65.061 131.082,64.653 C131.399,64.353 131.565,63.912 131.565,63.379 C131.565,62.855 131.348,62.414 131.015,62.139 C130.658,61.839 130.108,61.681 129.359,61.681" id="Fill-33" fill="#000000" sketch:type="MSShapeGroup" mask="url(#mask-2)"></path>
            <path d="M135.8344,66.4926 L133.4704,66.4926 L133.4704,64.8446 L135.5844,64.8446 L135.5844,64.0116 L133.4704,64.0116 L133.4704,62.5636 L135.7094,62.5636 L135.7094,61.7226 L132.4464,61.7226 L132.4464,67.3336 L135.8344,67.3336 L135.8344,66.4926 Z" id="Fill-34" fill="#000000" sketch:type="MSShapeGroup" mask="url(#mask-2)"></path>
            <path d="M137.7481,62.5052 C137.8481,62.4802 138.0561,62.4552 138.3811,62.4552 C139.0471,62.4552 139.4801,62.7382 139.4801,63.3542 C139.4801,63.9122 139.0471,64.2782 138.3561,64.2782 L137.7481,64.2782 L137.7481,62.5052 Z M137.7481,65.0272 L138.2641,65.0272 C138.8471,65.0442 139.1131,65.2772 139.2721,66.0092 C139.4301,66.7092 139.5631,67.1662 139.6461,67.3332 L140.7031,67.3332 C140.5871,67.1172 140.4371,66.4672 140.2621,65.7682 C140.1201,65.2272 139.8791,64.8362 139.4801,64.6862 L139.4801,64.6612 C140.0041,64.4702 140.4951,63.9782 140.4951,63.2542 C140.4951,62.7802 140.3201,62.3892 140.0121,62.1302 C139.6381,61.8142 139.0881,61.6812 138.2811,61.6812 C137.6901,61.6812 137.1151,61.7312 136.7331,61.7972 L136.7331,67.3332 L137.7481,67.3332 L137.7481,65.0272 Z" id="Fill-35" fill="#000000" sketch:type="MSShapeGroup" mask="url(#mask-2)"></path>
            <path d="M143.5657,67.3333 L143.5657,62.5803 L145.1807,62.5803 L145.1807,61.7233 L140.9437,61.7233 L140.9437,62.5803 L142.5417,62.5803 L142.5417,67.3333 L143.5657,67.3333 Z" id="Fill-36" fill="#000000" sketch:type="MSShapeGroup" mask="url(#mask-2)"></path>
            <path d="M147.1114,67.3333 L148.1354,67.3333 L148.1354,64.9693 L150.0004,61.7233 L148.8434,61.7233 L148.1684,63.1633 C147.9774,63.5703 147.8184,63.9203 147.6774,64.2783 L147.6604,64.2783 C147.5114,63.8953 147.3694,63.5793 147.1784,63.1633 L146.5034,61.7233 L145.3384,61.7233 L147.1114,64.9943 L147.1114,67.3333 Z" id="Fill-37" fill="#000000" sketch:type="MSShapeGroup" mask="url(#mask-2)"></path>
            <path d="M5.6323,73.5444 L6.0653,72.1624 C6.1653,71.8294 6.2483,71.4384 6.3313,71.1134 L6.3483,71.1134 C6.4313,71.4384 6.5233,71.8214 6.6313,72.1624 L7.0723,73.5444 L5.6323,73.5444 Z M5.7243,70.2984 L3.9263,75.9084 L4.9833,75.9084 L5.4653,74.3184 L7.2473,74.3184 L7.7553,75.9084 L8.8533,75.9084 L7.0303,70.2984 L5.7243,70.2984 Z" id="Fill-38" fill="#000000" sketch:type="MSShapeGroup" mask="url(#mask-2)"></path>
            <path d="M13.2563,72.254 C13.2563,73.111 13.2813,73.836 13.3473,74.585 L13.3313,74.585 C13.0733,73.977 12.7483,73.328 12.3743,72.704 L10.9253,70.298 L9.7603,70.298 L9.7603,75.908 L10.7003,75.908 L10.7003,73.902 C10.7003,72.978 10.6923,72.238 10.6513,71.513 L10.6753,71.505 C10.9503,72.137 11.3253,72.828 11.6833,73.436 L13.1483,75.908 L14.2053,75.908 L14.2053,70.298 L13.2563,70.298 L13.2563,72.254 Z" id="Fill-39" fill="#000000" sketch:type="MSShapeGroup" mask="url(#mask-2)"></path>
            <path d="M17.1011,75.1508 C16.8931,75.1508 16.6761,75.1508 16.5351,75.1258 L16.5351,71.1138 C16.6761,71.0808 16.9101,71.0558 17.2341,71.0558 C18.5161,71.0558 19.2321,71.7628 19.2241,73.0038 C19.2241,74.4268 18.4331,75.1588 17.1011,75.1508 M17.1431,70.2568 C16.5351,70.2568 15.9611,70.2978 15.5111,70.3728 L15.5111,75.8918 C15.8441,75.9328 16.2941,75.9668 16.8931,75.9668 C17.9831,75.9668 18.8741,75.7088 19.4321,75.2008 C19.9641,74.7178 20.3061,73.9688 20.3061,72.9698 C20.3061,72.0128 19.9731,71.3468 19.4321,70.9058 C18.9161,70.4728 18.1911,70.2568 17.1431,70.2568" id="Fill-40" fill="#000000" sketch:type="MSShapeGroup" mask="url(#mask-2)"></path>
            <path d="M23.321,75.908 L24.345,75.908 L24.345,70.298 L23.321,70.298 L23.321,75.908 Z" id="Fill-41" fill="#000000" sketch:type="MSShapeGroup" mask="url(#mask-2)"></path>
            <path d="M29.139,72.254 C29.139,73.111 29.164,73.836 29.231,74.585 L29.214,74.585 C28.956,73.977 28.631,73.328 28.257,72.704 L26.808,70.298 L25.643,70.298 L25.643,75.908 L26.583,75.908 L26.583,73.902 C26.583,72.978 26.575,72.238 26.534,71.513 L26.558,71.505 C26.833,72.137 27.208,72.828 27.566,73.436 L29.031,75.908 L30.088,75.908 L30.088,70.298 L29.139,70.298 L29.139,72.254 Z" id="Fill-42" fill="#000000" sketch:type="MSShapeGroup" mask="url(#mask-2)"></path>
            <path d="M31.3937,75.9084 L32.4177,75.9084 L32.4177,73.5274 L34.4817,73.5274 L34.4817,72.6874 L32.4177,72.6874 L32.4177,71.1384 L34.6317,71.1384 L34.6317,70.2984 L31.3937,70.2984 L31.3937,75.9084 Z" id="Fill-43" fill="#000000" sketch:type="MSShapeGroup" mask="url(#mask-2)"></path>
            <path d="M38.1023,75.1843 C37.1203,75.1843 36.5453,74.2683 36.5453,73.1283 C36.5453,71.9713 37.0863,71.0223 38.1023,71.0223 C39.1263,71.0223 39.6503,72.0293 39.6503,73.0863 C39.6503,74.2603 39.0923,75.1843 38.1023,75.1843 M38.1273,70.2063 C36.5453,70.2063 35.4633,71.4213 35.4633,73.1443 C35.4633,74.7933 36.4623,76.0003 38.0443,76.0003 C39.5923,76.0003 40.7323,74.9263 40.7323,73.0453 C40.7323,71.4463 39.7673,70.2063 38.1273,70.2063" id="Fill-44" fill="#000000" sketch:type="MSShapeGroup" mask="url(#mask-2)"></path>
            <path d="M43.3623,72.8535 L42.7543,72.8535 L42.7543,71.0805 C42.8543,71.0555 43.0623,71.0305 43.3873,71.0305 C44.0533,71.0305 44.4863,71.3135 44.4863,71.9295 C44.4863,72.4875 44.0533,72.8535 43.3623,72.8535 M44.4863,73.2615 L44.4863,73.2365 C45.0103,73.0445 45.5013,72.5535 45.5013,71.8295 C45.5013,71.3555 45.3263,70.9635 45.0183,70.7055 C44.6443,70.3895 44.0943,70.2565 43.2873,70.2565 C42.6963,70.2565 42.1223,70.3065 41.7393,70.3725 L41.7393,75.9085 L42.7543,75.9085 L42.7543,73.6025 L43.2703,73.6025 C43.8533,73.6195 44.1193,73.8525 44.2783,74.5845 C44.4363,75.2835 44.5693,75.7415 44.6523,75.9085 L45.7093,75.9085 C45.5933,75.6915 45.4433,75.0425 45.2683,74.3435 C45.1273,73.8025 44.8853,73.4115 44.4863,73.2615" id="Fill-45" fill="#000000" sketch:type="MSShapeGroup" mask="url(#mask-2)"></path>
            <path d="M50.7866,70.2979 L50.0126,72.5449 C49.7956,73.2029 49.6046,73.8939 49.4546,74.5019 L49.4296,74.5019 C49.2886,73.8769 49.1136,73.2109 48.9136,72.5539 L48.1806,70.2979 L46.8326,70.2979 L46.4576,75.9079 L47.4156,75.9079 L47.5396,73.6529 C47.5816,72.8869 47.6146,71.9959 47.6396,71.2549 L47.6566,71.2549 C47.8066,71.9629 48.0066,72.7289 48.2226,73.4439 L48.9716,75.8419 L49.7626,75.8419 L50.5786,73.4109 C50.8286,72.7039 51.0616,71.9459 51.2446,71.2549 L51.2696,71.2549 C51.2606,72.0209 51.3026,72.8949 51.3356,73.6189 L51.4446,75.9079 L52.4426,75.9079 L52.1186,70.2979 L50.7866,70.2979 Z" id="Fill-46" fill="#000000" sketch:type="MSShapeGroup" mask="url(#mask-2)"></path>
            <path d="M54.8976,73.5444 L55.3306,72.1624 C55.4306,71.8294 55.5136,71.4384 55.5966,71.1134 L55.6136,71.1134 C55.6966,71.4384 55.7886,71.8214 55.8966,72.1624 L56.3376,73.5444 L54.8976,73.5444 Z M54.9896,70.2984 L53.1916,75.9084 L54.2486,75.9084 L54.7306,74.3184 L56.5126,74.3184 L57.0206,75.9084 L58.1186,75.9084 L56.2956,70.2984 L54.9896,70.2984 Z" id="Fill-47" fill="#000000" sketch:type="MSShapeGroup" mask="url(#mask-2)"></path>
            <path d="M58.5012,71.1553 L60.0992,71.1553 L60.0992,75.9083 L61.1232,75.9083 L61.1232,71.1553 L62.7382,71.1553 L62.7382,70.2983 L58.5012,70.2983 L58.5012,71.1553 Z" id="Fill-48" fill="#000000" sketch:type="MSShapeGroup" mask="url(#mask-2)"></path>
            <path d="M63.52,75.908 L64.544,75.908 L64.544,70.298 L63.52,70.298 L63.52,75.908 Z" id="Fill-49" fill="#000000" sketch:type="MSShapeGroup" mask="url(#mask-2)"></path>
            <path d="M68.1895,75.1843 C67.2075,75.1843 66.6325,74.2683 66.6325,73.1283 C66.6325,71.9713 67.1735,71.0223 68.1895,71.0223 C69.2135,71.0223 69.7375,72.0293 69.7375,73.0863 C69.7375,74.2603 69.1795,75.1843 68.1895,75.1843 M68.2145,70.2063 C66.6325,70.2063 65.5505,71.4213 65.5505,73.1443 C65.5505,74.7933 66.5495,76.0003 68.1315,76.0003 C69.6795,76.0003 70.8195,74.9263 70.8195,73.0453 C70.8195,71.4463 69.8545,70.2063 68.2145,70.2063" id="Fill-50" fill="#000000" sketch:type="MSShapeGroup" mask="url(#mask-2)"></path>
            <path d="M75.3224,72.254 C75.3224,73.111 75.3474,73.836 75.4144,74.585 L75.3974,74.585 C75.1394,73.977 74.8144,73.328 74.4404,72.704 L72.9914,70.298 L71.8264,70.298 L71.8264,75.908 L72.7664,75.908 L72.7664,73.902 C72.7664,72.978 72.7584,72.238 72.7174,71.513 L72.7414,71.505 C73.0164,72.137 73.3914,72.828 73.7494,73.436 L75.2144,75.908 L76.2714,75.908 L76.2714,70.298 L75.3224,70.298 L75.3224,72.254 Z" id="Fill-51" fill="#000000" sketch:type="MSShapeGroup" mask="url(#mask-2)"></path>
            <path d="M79.0531,71.1553 L80.6511,71.1553 L80.6511,75.9083 L81.6751,75.9083 L81.6751,71.1553 L83.2901,71.1553 L83.2901,70.2983 L79.0531,70.2983 L79.0531,71.1553 Z" id="Fill-52" fill="#000000" sketch:type="MSShapeGroup" mask="url(#mask-2)"></path>
            <path d="M85.0956,73.4195 L87.2096,73.4195 L87.2096,72.5875 L85.0956,72.5875 L85.0956,71.1385 L87.3346,71.1385 L87.3346,70.2975 L84.0716,70.2975 L84.0716,75.9085 L87.4596,75.9085 L87.4596,75.0675 L85.0956,75.0675 L85.0956,73.4195 Z" id="Fill-53" fill="#000000" sketch:type="MSShapeGroup" mask="url(#mask-2)"></path>
            <path d="M91.2296,71.0553 C91.6956,71.0553 92.0626,71.1553 92.3286,71.2713 L92.5536,70.4563 C92.3456,70.3483 91.8626,70.2063 91.1886,70.2063 C89.4736,70.2063 88.1916,71.3213 88.1916,73.1703 C88.1916,74.8763 89.2736,76.0003 91.0546,76.0003 C91.7296,76.0003 92.2616,75.8663 92.5036,75.7423 L92.3366,74.9343 C92.0706,75.0593 91.6376,75.1423 91.2216,75.1423 C89.9896,75.1423 89.2656,74.3513 89.2656,73.1193 C89.2656,71.7713 90.0896,71.0553 91.2296,71.0553" id="Fill-54" fill="#000000" sketch:type="MSShapeGroup" mask="url(#mask-2)"></path>
            <path d="M96.8977,72.5454 L94.5257,72.5454 L94.5257,70.2984 L93.5017,70.2984 L93.5017,75.9084 L94.5257,75.9084 L94.5257,73.4364 L96.8977,73.4364 L96.8977,75.9084 L97.9217,75.9084 L97.9217,70.2984 L96.8977,70.2984 L96.8977,72.5454 Z" id="Fill-55" fill="#000000" sketch:type="MSShapeGroup" mask="url(#mask-2)"></path>
            <path d="M102.7155,72.254 C102.7155,73.111 102.7405,73.836 102.8075,74.585 L102.7905,74.585 C102.5325,73.977 102.2075,73.328 101.8335,72.704 L100.3845,70.298 L99.2195,70.298 L99.2195,75.908 L100.1595,75.908 L100.1595,73.902 C100.1595,72.978 100.1515,72.238 100.1105,71.513 L100.1345,71.505 C100.4095,72.137 100.7845,72.828 101.1425,73.436 L102.6075,75.908 L103.6645,75.908 L103.6645,70.298 L102.7155,70.298 L102.7155,72.254 Z" id="Fill-56" fill="#000000" sketch:type="MSShapeGroup" mask="url(#mask-2)"></path>
            <path d="M107.3179,75.1843 C106.3359,75.1843 105.7609,74.2683 105.7609,73.1283 C105.7609,71.9713 106.3019,71.0223 107.3179,71.0223 C108.3419,71.0223 108.8659,72.0293 108.8659,73.0863 C108.8659,74.2603 108.3089,75.1843 107.3179,75.1843 M107.3429,70.2063 C105.7609,70.2063 104.6789,71.4213 104.6789,73.1443 C104.6789,74.7933 105.6779,76.0003 107.2599,76.0003 C108.8079,76.0003 109.9479,74.9263 109.9479,73.0453 C109.9479,71.4463 108.9829,70.2063 107.3429,70.2063" id="Fill-57" fill="#000000" sketch:type="MSShapeGroup" mask="url(#mask-2)"></path>
            <path d="M111.9783,70.2979 L110.9543,70.2979 L110.9543,75.9079 L114.2843,75.9079 L114.2843,75.0509 L111.9783,75.0509 L111.9783,70.2979 Z" id="Fill-58" fill="#000000" sketch:type="MSShapeGroup" mask="url(#mask-2)"></path>
            <path d="M117.53,75.1843 C116.548,75.1843 115.973,74.2683 115.973,73.1283 C115.973,71.9713 116.514,71.0223 117.53,71.0223 C118.554,71.0223 119.078,72.0293 119.078,73.0863 C119.078,74.2603 118.521,75.1843 117.53,75.1843 M117.555,70.2063 C115.973,70.2063 114.891,71.4213 114.891,73.1443 C114.891,74.7933 115.89,76.0003 117.472,76.0003 C119.02,76.0003 120.16,74.9263 120.16,73.0453 C120.16,71.4463 119.195,70.2063 117.555,70.2063" id="Fill-59" fill="#000000" sketch:type="MSShapeGroup" mask="url(#mask-2)"></path>
            <path d="M123.6805,73.6193 L124.6715,73.6193 L124.6715,75.0173 C124.5375,75.0843 124.2635,75.1343 123.8965,75.1343 C122.7315,75.1343 121.9495,74.3763 121.9495,73.1033 C121.9495,71.7963 122.7895,71.0893 123.9885,71.0893 C124.5795,71.0893 124.9535,71.1973 125.2625,71.3303 L125.4865,70.5063 C125.2285,70.3813 124.6875,70.2393 123.9965,70.2393 C122.1405,70.2393 120.8755,71.3803 120.8755,73.1533 C120.8665,74.0023 121.1585,74.7433 121.6575,75.2173 C122.1905,75.7253 122.9065,75.9663 123.8555,75.9663 C124.6045,75.9663 125.3035,75.7833 125.6615,75.6503 L125.6615,72.8123 L123.6805,72.8123 L123.6805,73.6193 Z" id="Fill-60" fill="#000000" sketch:type="MSShapeGroup" mask="url(#mask-2)"></path>
            <path d="M129.1651,71.738 C128.9731,72.146 128.8151,72.495 128.6741,72.853 L128.6571,72.853 C128.5071,72.47 128.3661,72.154 128.1741,71.738 L127.5001,70.298 L126.3351,70.298 L128.1081,73.569 L128.1081,75.908 L129.1321,75.908 L129.1321,73.544 L130.9961,70.298 L129.8391,70.298 L129.1651,71.738 Z" id="Fill-61" fill="#000000" sketch:type="MSShapeGroup" mask="url(#mask-2)"></path>
            <path d="M134.7689,70.2979 L133.7449,70.2979 L133.7449,75.9079 L137.0739,75.9079 L137.0739,75.0509 L134.7689,75.0509 L134.7689,70.2979 Z" id="Fill-62" fill="#000000" sketch:type="MSShapeGroup" mask="url(#mask-2)"></path>
            <path d="M139.2629,73.5444 L139.6959,72.1624 C139.7959,71.8294 139.8789,71.4384 139.9619,71.1134 L139.9789,71.1134 C140.0619,71.4384 140.1539,71.8214 140.2619,72.1624 L140.7029,73.5444 L139.2629,73.5444 Z M139.3549,70.2984 L137.5569,75.9084 L138.6139,75.9084 L139.0959,74.3184 L140.8779,74.3184 L141.3859,75.9084 L142.4849,75.9084 L140.6609,70.2984 L139.3549,70.2984 Z" id="Fill-63" fill="#000000" sketch:type="MSShapeGroup" mask="url(#mask-2)"></path>
            <path d="M148.3188,72.8368 C148.1688,73.5188 148.0358,74.1608 147.9358,74.7768 L147.9188,74.7768 C147.8358,74.1688 147.7198,73.5448 147.5778,72.8788 L147.0198,70.2978 L145.9468,70.2978 L145.3388,72.8368 C145.1808,73.5448 145.0218,74.2098 144.9308,74.8008 L144.9138,74.8008 C144.8228,74.2438 144.6898,73.5278 144.5478,72.8448 L144.0148,70.2978 L142.9248,70.2978 L144.2978,75.9088 L145.4048,75.9088 L146.0548,73.2698 C146.2218,72.6288 146.3288,72.0878 146.4288,71.4878 L146.4458,71.4878 C146.5128,72.0958 146.6128,72.6288 146.7538,73.2698 L147.3368,75.9088 L148.4348,75.9088 L149.9418,70.2978 L148.9018,70.2978 L148.3188,72.8368 Z" id="Fill-64" fill="#000000" sketch:type="MSShapeGroup" mask="url(#mask-2)"></path>
        </g>
    </g>
</svg>