<?xml version="1.0" encoding="UTF-8" standalone="no"?>
<svg width="180px" height="25px" viewBox="0 0 180 25" version="1.1" xmlns="http://www.w3.org/2000/svg" xmlns:xlink="http://www.w3.org/1999/xlink" xmlns:sketch="http://www.bohemiancoding.com/sketch/ns">
    <!-- Generator: Sketch 3.4.4 (17249) - http://www.bohemiancoding.com/sketch -->
    <title>Page 1</title>
    <desc>Created with Sketch.</desc>
    <defs>
        <path id="path-1" d="M0,0.213 L180,0.213 L180,25 L0,25"></path>
    </defs>
    <g id="Page-1" stroke="none" stroke-width="1" fill="none" fill-rule="evenodd" sketch:type="MSPage">
        <g sketch:type="MSLayerGroup">
            <path d="M10.3335,0.602 L2.4815,0.602 C2.1255,0.602 1.7415,0.578 1.3305,0.529 C0.9195,0.48 0.4755,0.407 0.0005,0.31 L0.0005,6.118 L0.9575,6.118 C1.3355,6.118 1.5895,5.782 1.7195,5.112 C1.7735,4.831 1.8165,4.614 1.8495,4.463 C2.0335,3.727 2.2765,3.206 2.5795,2.897 C2.8825,2.589 3.2935,2.435 3.8125,2.435 L4.5095,2.435 L4.5095,21.366 L4.5095,21.804 C4.5095,22.086 4.4665,22.299 4.3805,22.445 C4.2935,22.591 4.1425,22.74 3.9255,22.891 C3.8825,22.924 3.8175,22.962 3.7315,23.005 C3.4285,23.178 3.2765,23.4 3.2765,23.67 L3.2765,24.594 L9.5225,24.594 L9.5225,23.67 C9.5225,23.4 9.3715,23.178 9.0685,23.005 C8.9925,22.962 8.9385,22.929 8.9065,22.907 C8.6785,22.745 8.5215,22.591 8.4355,22.445 C8.3495,22.299 8.3055,22.086 8.3055,21.804 L8.3055,2.435 L9.0035,2.435 C9.5115,2.435 9.9175,2.589 10.2195,2.897 C10.5225,3.206 10.7665,3.727 10.9495,4.463 C10.9935,4.625 11.0415,4.852 11.0955,5.144 C11.2145,5.793 11.4685,6.118 11.8585,6.118 L12.8155,6.118 L12.8155,0.31 C12.3395,0.407 11.8935,0.48 11.4765,0.529 C11.0605,0.578 10.6795,0.602 10.3335,0.602" id="Fill-1" fill="#000000" sketch:type="MSShapeGroup"></path>
            <path d="M27.3018,23.0047 C27.2258,22.9617 27.1778,22.9287 27.1558,22.9077 C26.9508,22.7557 26.8068,22.6017 26.7258,22.4447 C26.6448,22.2887 26.6038,22.0857 26.6038,21.8367 L26.6038,3.7977 L26.6038,3.3277 C26.6038,3.0677 26.6418,2.8627 26.7178,2.7107 C26.7938,2.5597 26.9128,2.4137 27.0748,2.2727 C27.0968,2.2517 27.1398,2.2187 27.2048,2.1757 C27.4208,2.0347 27.5348,1.8247 27.5448,1.5427 L27.5448,0.6017 L21.8838,0.6017 L21.8838,1.5427 C21.8948,1.8247 22.0078,2.0347 22.2238,2.1757 C22.2888,2.2187 22.3328,2.2517 22.3538,2.2727 C22.5168,2.4137 22.6348,2.5597 22.7108,2.7107 C22.7868,2.8627 22.8248,3.0677 22.8248,3.3277 L22.8248,11.0657 L19.2068,11.0657 L19.2068,3.7977 L19.2068,3.3277 C19.2068,3.0677 19.2418,2.8627 19.3118,2.7107 C19.3828,2.5597 19.4988,2.4137 19.6608,2.2727 C19.6828,2.2517 19.7318,2.2187 19.8068,2.1757 C20.0448,2.0237 20.1638,1.8137 20.1638,1.5427 L20.1638,0.6017 L14.5188,0.6017 L14.5188,1.5427 C14.5188,1.8137 14.6268,2.0237 14.8438,2.1757 C14.8968,2.2077 14.9458,2.2407 14.9888,2.2727 C15.1518,2.4137 15.2678,2.5597 15.3378,2.7107 C15.4078,2.8627 15.4438,3.0677 15.4438,3.3277 L15.4438,21.3657 L15.4438,21.5767 C15.4438,21.9447 15.4028,22.2157 15.3218,22.3877 C15.2398,22.5617 15.0978,22.7287 14.8918,22.8907 C14.8488,22.9237 14.7838,22.9667 14.6978,23.0207 C14.4488,23.1727 14.3238,23.3887 14.3238,23.6697 L14.3238,24.5947 L20.1638,24.5947 L20.1638,23.6697 C20.1638,23.3997 20.0348,23.1727 19.7748,22.9887 C19.7208,22.9457 19.6878,22.9177 19.6778,22.9077 C19.5048,22.7667 19.3828,22.6177 19.3118,22.4617 C19.2418,22.3047 19.2068,22.0967 19.2068,21.8367 L19.2068,13.2067 L22.8248,13.2067 L22.8248,21.3657 L22.8248,21.8367 C22.8248,22.0967 22.7868,22.3047 22.7108,22.4617 C22.6348,22.6177 22.5218,22.7617 22.3698,22.8907 C22.3268,22.9237 22.2838,22.9557 22.2408,22.9887 C22.0138,23.1507 21.8948,23.3777 21.8838,23.6697 L21.8838,24.5947 L27.7078,24.5947 L27.7078,23.6697 C27.7078,23.3887 27.5718,23.1667 27.3018,23.0047" id="Fill-3" fill="#000000" sketch:type="MSShapeGroup"></path>
            <path d="M39.2737,19.4196 C39.2197,20.0576 39.1057,20.5766 38.9327,20.9766 C38.6737,21.5176 38.2597,21.9236 37.6917,22.1936 C37.1237,22.4636 36.4077,22.5996 35.5427,22.5996 L34.7477,22.5996 L34.7477,13.1256 L35.2997,13.1256 C35.6997,13.1256 36.0187,13.2036 36.2567,13.3606 C36.4947,13.5176 36.6787,13.7636 36.8077,14.0986 C36.8507,14.2176 36.8997,14.3806 36.9537,14.5856 C37.1057,15.1266 37.3537,15.3966 37.7007,15.3966 L38.6897,15.3966 L38.6897,8.8426 L37.7007,8.8426 C37.3537,8.8426 37.1057,9.1136 36.9537,9.6536 C36.8997,9.8596 36.8507,10.0216 36.8077,10.1406 C36.6677,10.4866 36.4837,10.7356 36.2567,10.8866 C36.0297,11.0386 35.7107,11.1136 35.2997,11.1136 L34.7477,11.1136 L34.7477,2.5976 L35.5097,2.5976 C36.4187,2.5976 37.1107,2.7376 37.5867,3.0196 C38.0627,3.3006 38.4087,3.7596 38.6247,4.3976 C38.6897,4.5816 38.7487,4.8416 38.8037,5.1766 C38.9217,5.8686 39.3167,6.2146 39.9877,6.2146 L40.7177,6.2146 L40.7177,0.3746 C40.3607,0.4506 39.9467,0.5076 39.4757,0.5456 C39.0057,0.5836 38.3927,0.6016 37.6357,0.6016 L30.0597,0.6016 L30.0597,1.5426 C30.0597,1.8136 30.1677,2.0246 30.3837,2.1756 C30.4377,2.2076 30.4867,2.2406 30.5297,2.2726 C30.6917,2.4136 30.8077,2.5596 30.8787,2.7106 C30.9487,2.8626 30.9837,3.0676 30.9837,3.3276 L30.9837,21.3666 L30.9837,21.5776 C30.9837,21.9446 30.9437,22.2156 30.8617,22.3886 C30.7807,22.5616 30.6387,22.7286 30.4327,22.8906 C30.3897,22.9236 30.3247,22.9666 30.2377,23.0206 C29.9897,23.1726 29.8647,23.3886 29.8647,23.6696 L29.8647,24.5946 L41.1877,24.5946 L41.1877,18.3166 L40.1177,18.3166 C39.6307,18.3166 39.3497,18.6846 39.2737,19.4196" id="Fill-5" fill="#000000" sketch:type="MSShapeGroup"></path>
            <g id="Group-9">
                <mask id="mask-2" sketch:name="Clip 8" fill="white">
                    <use xlink:href="#path-1"></use>
                </mask>
                <g id="Clip-8"></g>
                <path d="M58.3423,21.4554 C57.9473,22.1744 57.3453,22.5344 56.5343,22.5344 C55.5393,22.5344 54.8363,21.7614 54.4253,20.2144 C54.0143,18.6684 53.8083,15.8504 53.8083,11.7624 C53.8083,8.2484 53.9923,5.7824 54.3603,4.3654 C54.7273,2.9484 55.3443,2.2404 56.2093,2.2404 C56.7723,2.2404 57.2123,2.4264 57.5313,2.8004 C57.8503,3.1734 58.1613,3.9384 58.4643,5.0954 C58.5073,5.2574 58.5613,5.4794 58.6263,5.7604 C58.8213,6.5934 59.1563,7.0154 59.6323,7.0254 L60.4273,7.0254 L60.4273,0.5044 L59.6323,0.5044 C59.5463,0.5044 59.3733,0.5614 59.1133,0.6754 C58.8533,0.7884 58.6373,0.8454 58.4643,0.8454 C58.3023,0.8454 57.9293,0.7394 57.3453,0.5294 C56.7613,0.3184 56.2473,0.2124 55.8043,0.2124 C53.9003,0.2124 52.3783,1.3234 51.2373,3.5464 C50.0963,5.7684 49.5263,8.7884 49.5263,12.6064 C49.5263,16.4894 50.0993,19.5254 51.2453,21.7154 C52.3923,23.9054 53.9713,25.0004 55.9823,25.0004 C57.5613,25.0004 58.7693,24.4484 59.6073,23.3454 C60.4463,22.2424 60.8653,20.6414 60.8653,18.5434 L60.8653,18.0894 L58.9673,18.0894 C58.9453,19.6144 58.7373,20.7364 58.3423,21.4554" id="Fill-7" fill="#000000" sketch:type="MSShapeGroup" mask="url(#mask-2)"></path>
            </g>
            <path d="M62.5199,1.5428 C62.5199,1.8128 62.6339,2.0238 62.8609,2.1758 C62.9259,2.2188 62.9689,2.2508 62.9899,2.2728 C63.1529,2.4138 63.2689,2.5598 63.3389,2.7108 C63.4089,2.8628 63.4449,3.0678 63.4449,3.3268 L63.4449,21.3658 L63.4449,21.5768 C63.4449,21.9448 63.4039,22.2148 63.3229,22.3878 C63.2419,22.5608 63.0929,22.7348 62.8769,22.9078 C62.8439,22.9288 62.7849,22.9668 62.6979,23.0208 C62.4499,23.1728 62.3249,23.3888 62.3249,23.6698 L62.3249,24.5948 L68.1329,24.5948 L68.1329,23.6698 C68.1329,23.3888 68.0079,23.1558 67.7599,22.9718 C67.7159,22.9398 67.6889,22.9178 67.6789,22.9078 C67.5059,22.7668 67.3839,22.6178 67.3129,22.4608 C67.2429,22.3048 67.2079,22.0958 67.2079,21.8368 L67.2079,21.3658 L67.2079,3.7978 L67.2079,3.3268 C67.2079,3.0678 67.2429,2.8628 67.3129,2.7108 C67.3839,2.5598 67.4999,2.4138 67.6619,2.2728 C67.7059,2.2408 67.7539,2.2078 67.8079,2.1758 C68.0249,2.0238 68.1329,1.8128 68.1329,1.5428 L68.1329,0.6018 L62.5199,0.6018 L62.5199,1.5428 Z" id="Fill-10" fill="#000000" sketch:type="MSShapeGroup"></path>
            <path d="M80.1694,0.602 L72.3184,0.602 C71.9614,0.602 71.5774,0.578 71.1664,0.529 C70.7554,0.48 70.3114,0.407 69.8364,0.31 L69.8364,6.118 L70.7934,6.118 C71.1714,6.118 71.4254,5.782 71.5554,5.112 C71.6094,4.831 71.6524,4.614 71.6854,4.463 C71.8694,3.727 72.1124,3.206 72.4154,2.897 C72.7184,2.589 73.1294,2.435 73.6484,2.435 L74.3454,2.435 L74.3454,21.366 L74.3454,21.804 C74.3454,22.086 74.3024,22.299 74.2164,22.445 C74.1294,22.591 73.9784,22.74 73.7614,22.891 C73.7184,22.924 73.6534,22.962 73.5674,23.005 C73.2644,23.178 73.1124,23.4 73.1124,23.67 L73.1124,24.594 L79.3584,24.594 L79.3584,23.67 C79.3584,23.4 79.2074,23.178 78.9044,23.005 C78.8284,22.962 78.7744,22.929 78.7424,22.907 C78.5144,22.745 78.3584,22.591 78.2714,22.445 C78.1854,22.299 78.1414,22.086 78.1414,21.804 L78.1414,2.435 L78.8394,2.435 C79.3474,2.435 79.7534,2.589 80.0554,2.897 C80.3584,3.206 80.6024,3.727 80.7854,4.463 C80.8294,4.625 80.8774,4.852 80.9314,5.144 C81.0504,5.793 81.3054,6.118 81.6944,6.118 L82.6514,6.118 L82.6514,0.31 C82.1754,0.407 81.7294,0.48 81.3124,0.529 C80.8964,0.578 80.5154,0.602 80.1694,0.602" id="Fill-12" fill="#000000" sketch:type="MSShapeGroup"></path>
            <path d="M84.517,1.5428 C84.517,1.8128 84.631,2.0238 84.858,2.1758 C84.923,2.2188 84.966,2.2508 84.988,2.2728 C85.15,2.4138 85.266,2.5598 85.336,2.7108 C85.406,2.8628 85.442,3.0678 85.442,3.3268 L85.442,21.3658 L85.442,21.5768 C85.442,21.9448 85.401,22.2148 85.32,22.3878 C85.239,22.5608 85.09,22.7348 84.874,22.9078 C84.841,22.9288 84.782,22.9668 84.695,23.0208 C84.447,23.1728 84.322,23.3888 84.322,23.6698 L84.322,24.5948 L90.13,24.5948 L90.13,23.6698 C90.13,23.3888 90.006,23.1558 89.757,22.9718 C89.714,22.9398 89.687,22.9178 89.676,22.9078 C89.503,22.7668 89.381,22.6178 89.311,22.4608 C89.24,22.3048 89.205,22.0958 89.205,21.8368 L89.205,21.3658 L89.205,3.7978 L89.205,3.3268 C89.205,3.0678 89.24,2.8628 89.311,2.7108 C89.381,2.5598 89.497,2.4138 89.659,2.2728 C89.703,2.2408 89.751,2.2078 89.805,2.1758 C90.022,2.0238 90.13,1.8128 90.13,1.5428 L90.13,0.6018 L84.517,0.6018 L84.517,1.5428 Z" id="Fill-14" fill="#000000" sketch:type="MSShapeGroup"></path>
            <path d="M100.9662,19.2411 C100.8792,19.7281 100.7882,20.1171 100.6902,20.4091 C100.4522,21.2091 100.0712,21.7741 99.5462,22.1041 C99.0222,22.4341 98.2082,22.5991 97.1052,22.5991 L95.6782,22.5991 L102.5882,2.5971 L102.5882,0.6021 L94.8502,0.6021 C94.4722,0.6021 94.0742,0.5861 93.6582,0.5531 C93.2412,0.5211 92.7952,0.4721 92.3202,0.4071 L92.3202,6.2151 L93.2282,6.2151 C93.7472,6.2151 94.0772,5.8851 94.2182,5.2251 C94.2932,4.8471 94.3692,4.5381 94.4452,4.3001 C94.6392,3.6951 94.9692,3.2601 95.4342,2.9951 C95.8992,2.7301 96.5812,2.5971 97.4782,2.5971 L98.8082,2.5971 L91.8652,22.5991 L91.8652,24.5941 L102.7832,24.5941 L102.7832,18.1871 L101.6962,18.1871 C101.3392,18.1871 101.0962,18.5381 100.9662,19.2411" id="Fill-16" fill="#000000" sketch:type="MSShapeGroup"></path>
            <path d="M113.8951,19.4196 C113.8411,20.0576 113.7271,20.5766 113.5541,20.9766 C113.2951,21.5176 112.8811,21.9236 112.3131,22.1936 C111.7461,22.4636 111.0291,22.5996 110.1641,22.5996 L109.3691,22.5996 L109.3691,13.1256 L109.9211,13.1256 C110.3211,13.1256 110.6401,13.2036 110.8781,13.3606 C111.1161,13.5176 111.2991,13.7636 111.4291,14.0986 C111.4731,14.2176 111.5211,14.3806 111.5751,14.5856 C111.7271,15.1266 111.9751,15.3966 112.3211,15.3966 L113.3111,15.3966 L113.3111,8.8426 L112.3211,8.8426 C111.9751,8.8426 111.7271,9.1136 111.5751,9.6536 C111.5211,9.8596 111.4731,10.0216 111.4291,10.1406 C111.2891,10.4866 111.1051,10.7356 110.8781,10.8866 C110.6511,11.0386 110.3321,11.1136 109.9211,11.1136 L109.3691,11.1136 L109.3691,2.5976 L110.1311,2.5976 C111.0401,2.5976 111.7321,2.7376 112.2081,3.0196 C112.6841,3.3006 113.0301,3.7596 113.2461,4.3976 C113.3111,4.5816 113.3701,4.8416 113.4251,5.1766 C113.5441,5.8686 113.9381,6.2146 114.6091,6.2146 L115.3391,6.2146 L115.3391,0.3746 C114.9821,0.4506 114.5691,0.5076 114.0971,0.5456 C113.6281,0.5836 113.0141,0.6016 112.2571,0.6016 L104.6811,0.6016 L104.6811,1.5426 C104.6811,1.8136 104.7891,2.0246 105.0051,2.1756 C105.0591,2.2076 105.1081,2.2406 105.1511,2.2726 C105.3141,2.4136 105.4291,2.5596 105.5001,2.7106 C105.5701,2.8626 105.6061,3.0676 105.6061,3.3276 L105.6061,21.3666 L105.6061,21.5776 C105.6061,21.9446 105.5651,22.2156 105.4841,22.3886 C105.4021,22.5616 105.2601,22.7286 105.0541,22.8906 C105.0111,22.9236 104.9461,22.9666 104.8591,23.0206 C104.6111,23.1726 104.4861,23.3886 104.4861,23.6696 L104.4861,24.5946 L115.8091,24.5946 L115.8091,18.3166 L114.7391,18.3166 C114.2521,18.3166 113.9711,18.6846 113.8951,19.4196" id="Fill-18" fill="#000000" sketch:type="MSShapeGroup"></path>
            <path d="M126.597,1.5428 C126.608,1.8238 126.721,2.0348 126.938,2.1758 C127.003,2.2188 127.04,2.2458 127.051,2.2568 C127.224,2.4078 127.349,2.5598 127.424,2.7108 C127.5,2.8628 127.538,3.0678 127.538,3.3268 L127.538,15.0238 L122.087,0.6018 L117.967,0.6018 L117.967,1.5428 C117.967,1.8128 118.075,2.0238 118.291,2.1758 C118.345,2.2078 118.394,2.2408 118.437,2.2728 C118.6,2.4138 118.715,2.5598 118.786,2.7108 C118.856,2.8628 118.892,3.0678 118.892,3.3268 L118.892,21.3658 L118.892,21.5768 C118.892,21.9448 118.851,22.2148 118.77,22.3878 C118.688,22.5608 118.545,22.7288 118.34,22.8908 C118.297,22.9238 118.232,22.9668 118.145,23.0208 C117.897,23.1728 117.772,23.3888 117.772,23.6698 L117.772,24.5948 L122.249,24.5948 L122.249,23.6698 C122.249,23.3998 122.125,23.1728 121.876,22.9888 C121.811,22.9458 121.774,22.9178 121.763,22.9078 C121.59,22.7668 121.468,22.6178 121.398,22.4608 C121.327,22.3048 121.292,22.0958 121.292,21.8368 L121.292,7.3828 L127.797,24.5948 L129.923,24.5948 L129.923,3.7978 L129.923,3.4568 C129.923,3.1328 129.963,2.8918 130.044,2.7348 C130.126,2.5788 130.274,2.4248 130.49,2.2728 C130.534,2.2408 130.593,2.2028 130.669,2.1588 C130.928,2.0188 131.058,1.8128 131.058,1.5428 L131.058,0.6018 L126.597,0.6018 L126.597,1.5428 Z" id="Fill-20" fill="#000000" sketch:type="MSShapeGroup"></path>
            <path d="M149.1782,19.4196 C149.1242,20.0576 149.0102,20.5766 148.8372,20.9766 C148.5782,21.5176 148.1642,21.9236 147.5962,22.1936 C147.0292,22.4636 146.3122,22.5996 145.4472,22.5996 L144.6522,22.5996 L144.6522,3.7976 L144.6522,3.3276 C144.6522,3.0676 144.6872,2.8626 144.7582,2.7106 C144.8272,2.5596 144.9442,2.4136 145.1062,2.2726 C145.1282,2.2516 145.1772,2.2186 145.2522,2.1756 C145.4902,2.0246 145.6092,1.8136 145.6092,1.5426 L145.6092,0.6016 L139.9642,0.6016 L139.9642,1.5426 C139.9642,1.8136 140.0722,2.0246 140.2882,2.1756 C140.3422,2.2076 140.3912,2.2406 140.4342,2.2726 C140.5962,2.4136 140.7122,2.5596 140.7832,2.7106 C140.8532,2.8626 140.8882,3.0676 140.8882,3.3276 L140.8882,3.7976 L140.8882,21.3666 L140.8882,21.5776 C140.8882,21.9446 140.8472,22.2156 140.7672,22.3886 C140.6852,22.5616 140.5422,22.7286 140.3372,22.8906 C140.2942,22.9236 140.2292,22.9666 140.1422,23.0206 C139.8942,23.1726 139.7692,23.3886 139.7692,23.6696 L139.7692,24.5946 L151.0922,24.5946 L151.0922,18.3166 L150.0222,18.3166 C149.5352,18.3166 149.2542,18.6846 149.1782,19.4196" id="Fill-22" fill="#000000" sketch:type="MSShapeGroup"></path>
            <path d="M156.7214,16.0941 L158.4084,7.1561 L160.1444,16.0941 L156.7214,16.0941 Z M164.9294,21.3661 L160.6144,0.5861 C160.5934,0.4781 160.5444,0.3941 160.4684,0.3341 C160.3934,0.2751 160.3064,0.2451 160.2094,0.2451 C160.1654,0.2451 159.8974,0.3611 159.4064,0.5941 C158.9134,0.8271 158.4194,1.0181 157.9214,1.1701 L157.8734,1.1861 C157.2134,1.3811 156.8834,1.6081 156.8834,1.8671 C156.8834,1.9321 156.8864,1.9811 156.8914,2.0131 C156.8964,2.0461 156.9054,2.0731 156.9164,2.0941 L157.1274,2.9701 L153.8014,20.2791 C153.6714,21.0041 153.5314,21.5691 153.3794,21.9741 C153.2284,22.3801 153.0444,22.6911 152.8284,22.9071 C152.8174,22.9181 152.7744,22.9511 152.6984,23.0051 C152.5034,23.1561 152.4064,23.3781 152.4064,23.6701 L152.4064,24.5941 L156.7214,24.5941 L156.7214,23.6701 C156.7214,23.4321 156.5614,23.1671 156.2424,22.8751 C155.9234,22.5831 155.7644,22.2261 155.7644,21.8041 C155.7644,21.6531 155.7964,21.3661 155.8614,20.9441 C155.8724,20.8581 155.8834,20.7881 155.8944,20.7331 L156.3484,18.2521 L160.5824,18.2521 L161.0684,20.7011 C161.1124,20.9061 161.1444,21.1071 161.1664,21.3011 C161.1884,21.4961 161.1984,21.6741 161.1984,21.8371 C161.1984,22.2151 161.0384,22.5501 160.7194,22.8421 C160.4004,23.1341 160.2414,23.4101 160.2414,23.6701 L160.2414,24.5941 L165.9194,24.5941 L165.9194,23.6701 C165.9194,23.4861 165.7814,23.1911 165.5064,22.7861 C165.2294,22.3801 165.0374,21.9071 164.9294,21.3661 L164.9294,21.3661 Z" id="Fill-24" fill="#000000" sketch:type="MSShapeGroup"></path>
            <path d="M174.979,21.4798 C174.347,22.1938 173.29,22.5668 171.808,22.5988 L171.808,13.0928 C173.29,13.1468 174.347,13.5338 174.979,14.2528 C175.612,14.9718 175.928,16.1698 175.928,17.8458 C175.928,19.5548 175.612,20.7658 174.979,21.4798 L174.979,21.4798 Z M171.808,2.5978 C173.073,2.6408 173.971,2.9808 174.501,3.6188 C175.031,4.2578 175.296,5.3338 175.296,6.8478 C175.296,8.3828 175.031,9.4728 174.501,10.1158 C173.971,10.7598 173.073,11.0978 171.808,11.1298 L171.808,2.5978 Z M178.662,14.2448 C177.769,13.2288 176.448,12.5148 174.695,12.1038 C176.253,11.6058 177.41,10.8928 178.167,9.9618 C178.924,9.0318 179.302,7.8528 179.302,6.4258 C179.302,5.3448 179.092,4.3848 178.67,3.5468 C178.248,2.7088 177.653,2.0618 176.885,1.6078 C176.28,1.2508 175.577,0.9938 174.777,0.8368 C173.976,0.6808 172.608,0.6018 170.672,0.6018 L167.12,0.6018 L167.12,1.5428 C167.12,1.8128 167.228,2.0238 167.444,2.1758 C167.498,2.2078 167.547,2.2408 167.59,2.2728 C167.752,2.4138 167.868,2.5598 167.939,2.7108 C168.009,2.8628 168.044,3.0678 168.044,3.3268 L168.044,21.3658 L168.044,21.5768 C168.044,21.9448 168.003,22.2158 167.923,22.3878 C167.841,22.5608 167.698,22.7288 167.493,22.8908 C167.45,22.9238 167.385,22.9668 167.298,23.0208 C167.049,23.1728 166.925,23.3888 166.925,23.6698 L166.925,24.5948 L170.672,24.5948 C174.025,24.5948 176.417,24.0918 177.851,23.0858 C179.283,22.0798 180,20.4248 180,18.1218 C180,16.5538 179.554,15.2608 178.662,14.2448 L178.662,14.2448 Z" id="Fill-26" fill="#000000" sketch:type="MSShapeGroup"></path>
        </g>
    </g>
</svg>