<svg id="_1170px_grid" data-name="1170px grid" xmlns="http://www.w3.org/2000/svg" viewBox="0 0 190 47.89"><defs><style>.cls-1{fill:#786c90;}.cls-2{fill:#b3a700;}.cls-3{fill:#5796ae;}.cls-4{fill:#3c5775;}.cls-5{fill:#009cea;}.cls-6{fill:#005d90;}.cls-7{fill:#d67324;}.cls-8{fill:#73452b;}.cls-9{fill:#00702f;}.cls-10{fill:#919167;}.cls-11{fill:#00756a;}.cls-12{fill:#4e6583;}.cls-13{fill:#3f514b;}.cls-14{fill:#5a4e1e;}.cls-15{fill:#868f70;}.cls-16{fill:#609733;}.cls-17{fill:#958783;}.cls-18{fill:#59533a;}.cls-19{fill:#005437;}.cls-20{fill:#573518;}</style></defs><title>logo-ford</title><path class="cls-1" d="M5899.24,2687.63a6.77,6.77,0,0,0,4.45,5.21,5.7,5.7,0,0,1,4.46,0,6.76,6.76,0,0,0,4.45-5.21,5.31,5.31,0,0,1,0-2.36,6.77,6.77,0,0,0-4.79-5.32,5.23,5.23,0,0,1-3.79,0,6.77,6.77,0,0,0-4.79,5.32A5.22,5.22,0,0,1,5899.24,2687.63Zm6.68-4.45a3.27,3.27,0,1,1-3.28,3.27A3.28,3.28,0,0,1,5905.92,2683.18Z" transform="translate(-5881.98 -2674.19)"/><path class="cls-2" d="M5912.6,2687.63a5.54,5.54,0,1,0,0-2.36A6,6,0,0,1,5912.6,2687.63Zm5.4-5.72a4.53,4.53,0,1,1-4.53,4.53A4.54,4.54,0,0,1,5918,2681.92Z" transform="translate(-5881.98 -2674.19)"/><path class="cls-3" d="M5893.84,2692a5.54,5.54,0,0,0,5.4-4.36,5.87,5.87,0,0,1,0-2.35A5.54,5.54,0,1,0,5893.84,2692Zm0-10.07a4.53,4.53,0,1,1-4.53,4.53A4.54,4.54,0,0,1,5893.84,2681.92Z" transform="translate(-5881.98 -2674.19)"/><path class="cls-4" d="M5899.24,2687.63a5.22,5.22,0,0,0,0-2.35A5.87,5.87,0,0,0,5899.24,2687.63Z" transform="translate(-5881.98 -2674.19)"/><path class="cls-5" d="M5903.69,2692.84a5.74,5.74,0,1,0,4.46,0A6.37,6.37,0,0,1,5903.69,2692.84Zm6.57,5.29a4.33,4.33,0,1,1-4.33-4.33A4.34,4.34,0,0,1,5910.26,2698.13Z" transform="translate(-5881.98 -2674.19)"/><path class="cls-6" d="M5903.69,2692.84a6.37,6.37,0,0,0,4.46,0A5.7,5.7,0,0,0,5903.69,2692.84Z" transform="translate(-5881.98 -2674.19)"/><path class="cls-7" d="M5907.81,2680a5.54,5.54,0,0,0,3.65-5.19c0-.12,0-0.24,0-0.36l-1-.22a4.11,4.11,0,0,1,.06.58,4.53,4.53,0,0,1-9.06,0,4.44,4.44,0,0,1,.06-0.58c-0.35.06-.69,0.14-1,0.22,0,0.12,0,.23,0,0.36A5.52,5.52,0,0,0,5904,2680,6.07,6.07,0,0,1,5907.81,2680Z" transform="translate(-5881.98 -2674.19)"/><path class="cls-8" d="M5907.81,2680a6.07,6.07,0,0,0-3.79,0A5.23,5.23,0,0,0,5907.81,2680Z" transform="translate(-5881.98 -2674.19)"/><path class="cls-5" d="M5915.37,2715.22a6.8,6.8,0,0,0-4,5.09,5.69,5.69,0,0,1,.13,1.18c0,0.12,0,.24,0,0.36a24.61,24.61,0,0,0,3.38-1,3.26,3.26,0,0,1,3.19-2.58,3.16,3.16,0,0,1,1.29.27,24.63,24.63,0,0,0,2.93-2.29,6.86,6.86,0,0,0-1.59-1A5.83,5.83,0,0,1,5915.37,2715.22Z" transform="translate(-5881.98 -2674.19)"/><path class="cls-2" d="M5911.33,2720.32a5.53,5.53,0,0,0-10.94,1.18c0,0.12,0,.24,0,0.36,0.34,0.08.68,0.15,1,.22a4.52,4.52,0,1,1,9-.58,4.12,4.12,0,0,1-.06.58l0.85-.18c0-.14,0-0.26,0-0.4A6.92,6.92,0,0,1,5911.33,2720.32Z" transform="translate(-5881.98 -2674.19)"/><path class="cls-9" d="M5911.33,2720.32a6.92,6.92,0,0,0-.12,1.18c0,0.14,0,.27,0,0.4l0.18,0c0-.12,0-0.24,0-0.36A5.69,5.69,0,0,0,5911.33,2720.32Z" transform="translate(-5881.98 -2674.19)"/><path class="cls-10" d="M5896.07,2716.2a6.78,6.78,0,0,0,.4-12.66,5.85,5.85,0,0,1-5.27,0,6.81,6.81,0,0,0-4.05,5.08,5.1,5.1,0,0,1,0,2.37,6.79,6.79,0,0,0,4.45,5.21A5.78,5.78,0,0,1,5896.07,2716.2Zm-5.51-6.39a3.27,3.27,0,1,1,3.28,3.27A3.28,3.28,0,0,1,5890.56,2709.81Z" transform="translate(-5881.98 -2674.19)"/><path class="cls-5" d="M5887.15,2708.63a5.51,5.51,0,0,0-4.77-4.29c0.09,0.34.16,0.7,0.26,1a4.54,4.54,0,0,1,3.63,4.44,4.48,4.48,0,0,1-.5,2c0.21,0.3.44,0.59,0.66,0.89a5.38,5.38,0,0,0,.71-1.73A6.32,6.32,0,0,1,5887.15,2708.63Z" transform="translate(-5881.98 -2674.19)"/><path class="cls-11" d="M5887.15,2708.63a6.32,6.32,0,0,0,0,2.37A5.1,5.1,0,0,0,5887.15,2708.63Z" transform="translate(-5881.98 -2674.19)"/><path class="cls-12" d="M5896.07,2716.2a6.37,6.37,0,0,1-4.47,0,5.7,5.7,0,0,0-1.2.72c0.38,0.32.78,0.6,1.18,0.89a4.29,4.29,0,0,1,6.55,3.4c0.47,0.16.94,0.3,1.43,0.43,0,0,0-.09,0-0.14A5.74,5.74,0,0,0,5896.07,2716.2Z" transform="translate(-5881.98 -2674.19)"/><path class="cls-13" d="M5896.07,2716.2a5.78,5.78,0,0,0-4.47,0A6.37,6.37,0,0,0,5896.07,2716.2Z" transform="translate(-5881.98 -2674.19)"/><path class="cls-12" d="M5918,2680.31a5.5,5.5,0,0,0,3.28-1.09c-0.28-.22-0.57-0.42-0.85-0.64a4.5,4.5,0,0,1-6.93-3.61l-1-.3s0,0.06,0,.09A5.54,5.54,0,0,0,5918,2680.31Z" transform="translate(-5881.98 -2674.19)"/><path class="cls-5" d="M5899.12,2674.77s0,0,0,0l-0.51.14a4.77,4.77,0,0,1-7.42,3.87l-0.42.32A5.27,5.27,0,0,0,5899.12,2674.77Z" transform="translate(-5881.98 -2674.19)"/><path class="cls-5" d="M5929.6,2692.44c-0.17-.72-0.38-1.44-0.61-2.14a4,4,0,0,1-2.61-5.4c-0.41-.62-0.84-1.23-1.3-1.82A6,6,0,0,0,5929.6,2692.44Z" transform="translate(-5881.98 -2674.19)"/><path class="cls-14" d="M5912.6,2687.63a6,6,0,0,0,0-2.36A5.31,5.31,0,0,0,5912.6,2687.63Z" transform="translate(-5881.98 -2674.19)"/><path class="cls-15" d="M5887,2686.45a5.24,5.24,0,0,0-.77-2.7c-0.11.15-.23,0.29-0.33,0.44a4.72,4.72,0,0,1,.59,2.26,4.77,4.77,0,0,1-4,4.7c0,0.17-.08.35-0.13,0.52A5.27,5.27,0,0,0,5887,2686.45Z" transform="translate(-5881.98 -2674.19)"/><path class="cls-3" d="M5925.56,2698.13a4.53,4.53,0,0,1,4.3-4.51c-0.06-.33-0.13-0.66-0.21-1a5.51,5.51,0,0,0,0,11c0.07-.33.15-0.66,0.21-1A4.53,4.53,0,0,1,5925.56,2698.13Z" transform="translate(-5881.98 -2674.19)"/><path class="cls-12" d="M5918,2692.84a5.29,5.29,0,1,0,5.29,5.29A5.29,5.29,0,0,0,5918,2692.84Zm0,10.07a4.78,4.78,0,1,1,4.79-4.79A4.79,4.79,0,0,1,5918,2702.91Z" transform="translate(-5881.98 -2674.19)"/><path class="cls-7" d="M5887.29,2698.13a5.52,5.52,0,0,0-5.1-5.5c-0.08.33-.15,0.66-0.21,1a4.51,4.51,0,0,1,0,9c0.06,0.33.14,0.66,0.21,1A5.52,5.52,0,0,0,5887.29,2698.13Z" transform="translate(-5881.98 -2674.19)"/><path class="cls-5" d="M5924.35,2709.81a5.74,5.74,0,0,0,.91,3.1c0.32-.41.63-0.82,0.92-1.25a4.29,4.29,0,0,1,2.93-6.06c0.15-.48.27-1,0.4-1.47A5.72,5.72,0,0,0,5924.35,2709.81Z" transform="translate(-5881.98 -2674.19)"/><path class="cls-16" d="M5905.92,2715.1a5.29,5.29,0,1,0-5.29-5.28A5.28,5.28,0,0,0,5905.92,2715.1Zm0-10.07a4.79,4.79,0,1,1-4.79,4.79A4.79,4.79,0,0,1,5905.92,2705Z" transform="translate(-5881.98 -2674.19)"/><path class="cls-17" d="M5896.47,2703.54a6,6,0,1,0-5.27,0A6.82,6.82,0,0,1,5896.47,2703.54Zm-6.66-5.41a4,4,0,1,1,4,4A4,4,0,0,1,5889.81,2698.13Z" transform="translate(-5881.98 -2674.19)"/><path class="cls-18" d="M5896.47,2703.54a6.82,6.82,0,0,0-5.27,0A5.85,5.85,0,0,0,5896.47,2703.54Z" transform="translate(-5881.98 -2674.19)"/><path class="cls-7" d="M5924.05,2709.81a6,6,0,1,0-8.68,5.41,6.83,6.83,0,0,1,5.27,0A6,6,0,0,0,5924.05,2709.81Zm-6.05,4a4,4,0,1,1,4-4A4,4,0,0,1,5918,2713.84Z" transform="translate(-5881.98 -2674.19)"/><path class="cls-19" d="M5915.37,2715.22a5.83,5.83,0,0,0,5.27,0A6.83,6.83,0,0,0,5915.37,2715.22Z" transform="translate(-5881.98 -2674.19)"/><path class="cls-20" d="M5981.16,2708.21c0,3.61-2.24,4.27-4.23,4.27s-4.22-.66-4.22-4.27v-8.52h-1.4v8.68c0,2.31.87,5.51,5.62,5.51s5.63-3.19,5.63-5.51v-8.68h-1.41v8.52Z" transform="translate(-5881.98 -2674.19)"/><polygon class="cls-20" points="61.73 39.35 63.13 39.35 63.13 32.8 70.72 32.8 70.72 31.51 63.13 31.51 63.13 26.79 71.2 26.79 71.2 25.5 61.73 25.5 61.73 39.35"/><polygon class="cls-20" points="61.72 22.38 63.6 22.38 63.6 16.39 71.08 16.39 71.08 14.63 63.6 14.63 63.6 10.29 71.55 10.29 71.55 8.53 61.72 8.53 61.72 22.38"/><path class="cls-20" d="M5962.32,2682.37a7.27,7.27,0,1,0,7.22,7.27A7,7,0,0,0,5962.32,2682.37Zm0,12.78a5.52,5.52,0,1,1,5.22-5.51A5.2,5.2,0,0,1,5962.32,2695.15Z" transform="translate(-5881.98 -2674.19)"/><path class="cls-20" d="M5961.69,2699.34a7.27,7.27,0,1,0,7.21,7.27A7,7,0,0,0,5961.69,2699.34Zm0,13.25c-3.56,0-5.69-2.79-5.69-6s2.13-6,5.69-6,5.69,2.8,5.69,6S5965.25,2712.59,5961.69,2712.59Z" transform="translate(-5881.98 -2674.19)"/><path class="cls-20" d="M5991.76,2682.72h-4.83v13.85h4.51c5,0,7.59-3.39,7.59-6.92C5999,2687.08,5997.6,2682.72,5991.76,2682.72Zm-0.59,12.08h-2.36v-10.32h2.81c4.5,0,5.41,3.41,5.41,5.17C5997,2693.07,5994.34,2694.8,5991.16,2694.8Z" transform="translate(-5881.98 -2674.19)"/><path class="cls-20" d="M6050.5,2699.34a7.27,7.27,0,1,0,7.21,7.27A7,7,0,0,0,6050.5,2699.34Zm0,13.25c-3.56,0-5.69-2.79-5.69-6s2.13-6,5.69-6,5.69,2.8,5.69,6S6054.05,2712.59,6050.5,2712.59Z" transform="translate(-5881.98 -2674.19)"/><rect class="cls-20" x="156.9" y="25.5" width="1.4" height="13.85"/><polygon class="cls-20" points="188.59 25.5 188.59 37.24 188.56 37.24 180.31 25.5 178.55 25.5 178.55 39.35 179.95 39.35 179.95 27.5 179.99 27.5 188.24 39.35 190 39.35 190 25.5 188.59 25.5"/><polygon class="cls-20" points="144.07 26.79 148.71 26.79 148.71 39.35 150.12 39.35 150.12 26.79 154.75 26.79 154.75 25.5 144.07 25.5 144.07 26.79"/><path class="cls-20" d="M5983.56,2686.59c0-1.74-.91-3.87-4.44-3.87H5972v13.85h1.88v-6.1h4.35l3.51,6.1h2.35l-3.94-6.31A3.71,3.71,0,0,0,5983.56,2686.59Zm-9.68,2.23v-4.46h4.71c1.48,0,3,.35,3,2.23s-1.49,2.23-3,2.23h-4.71Z" transform="translate(-5881.98 -2674.19)"/><polygon class="cls-20" points="114.15 37.24 114.11 37.24 105.86 25.5 104.1 25.5 104.1 39.35 105.51 39.35 105.51 27.5 105.54 27.5 113.79 39.35 115.56 39.35 115.56 25.5 114.15 25.5 114.15 37.24"/><path class="cls-20" d="M6019.72,2699.69l-6,13.85h1.64l1.52-3.63h7.08l1.53,3.63h1.64l-6-13.85h-1.37Zm-2.33,8.92,3-7.28,3,7.28h-6Z" transform="translate(-5881.98 -2674.19)"/><path class="cls-20" d="M6005.7,2699.69h-4.6v13.85h4.6c3.46,0,7.27-2.31,7.27-6.92S6009.15,2699.69,6005.7,2699.69Zm-0.45,12.55h-2.74V2701h2.74c4.22,0,6.2,2.78,6.2,5.64S6009.47,2712.24,6005.25,2712.24Z" transform="translate(-5881.98 -2674.19)"/></svg>