<?xml version="1.0" encoding="utf-8"?>
<!-- Generator: Adobe Illustrator 19.2.0, SVG Export Plug-In . SVG Version: 6.00 Build 0)  -->
<svg version="1.1" id="Layer_1" xmlns="http://www.w3.org/2000/svg" xmlns:xlink="http://www.w3.org/1999/xlink" x="0px" y="0px"
	 viewBox="0 0 150 83.4" style="enable-background:new 0 0 150 83.4;" xml:space="preserve">
<style type="text/css">
	.st0{fill:url(#SVGID_1_);}
	.st1{fill:url(#SVGID_2_);}
</style>
<linearGradient id="SVGID_1_" gradientUnits="userSpaceOnUse" x1="0" y1="28.2507" x2="53.8483" y2="28.2507">
	<stop  offset="0" style="stop-color:#808080"/>
	<stop  offset="1" style="stop-color:#0D0D0D"/>
</linearGradient>
<polygon class="st0" points="26.9,0 0,26.9 0,56.5 26.9,29.6 39,41.7 53.8,26.9 "/>
<linearGradient id="SVGID_2_" gradientUnits="userSpaceOnUse" x1="-130.1189" y1="-514.2356" x2="-76.2705" y2="-514.2356" gradientTransform="matrix(-1 0 0 -1 -76.2705 -459.0599)">
	<stop  offset="0" style="stop-color:#808080"/>
	<stop  offset="1" style="stop-color:#0D0D0D"/>
</linearGradient>
<polygon class="st1" points="26.9,83.4 53.8,56.5 53.8,26.9 27,53.8 14.8,41.7 0,56.5 "/>
<g>
	<path d="M68.2,56.5c-0.3,0-0.7,0-1-0.3c-0.3-0.3-0.3-0.7-0.3-1v-27c0-0.3,0-0.7,0.3-1c0.3-0.3,0.7-0.3,1-0.3h15.4
		c0.6,0,0.8,0.1,1,0.2c0.3,0.2,0.4,0.5,0.4,0.8c0,0.3-0.1,0.6-0.4,0.8c-0.2,0.1-0.5,0.2-1,0.2H69.1v11.7h12.1c0.6,0,0.8,0.1,1,0.2
		c0.3,0.2,0.4,0.5,0.4,0.8c0,0.3-0.1,0.6-0.4,0.8c-0.2,0.1-0.5,0.2-1,0.2H69.1v11.9h14.5c0.6,0,0.8,0.1,1,0.2
		c0.3,0.2,0.4,0.5,0.4,0.8c0,0.3-0.1,0.6-0.4,0.8c-0.2,0.1-0.5,0.2-1,0.2H68.2z"/>
	<path d="M93.1,56.5c-0.3,0-0.7,0-1-0.3c-0.3-0.3-0.3-0.7-0.3-1v-27c0-0.3,0-0.7,0.3-1c0.3-0.3,0.7-0.3,1-0.3h8.6
		c3.1,0,5.6,0.9,7.4,2.7c2.8,2.8,2.9,7.7,2.9,12.1c0,4.4,0,9.3-2.9,12.1c-1.8,1.8-4.3,2.7-7.4,2.7H93.1z M101.1,54.5
		c2.4,0,4.7-0.5,6.4-2.3c2.2-2.3,2.2-6.6,2.2-10.5c0-3.9,0-8.2-2.2-10.5c-1.7-1.8-4-2.3-6.4-2.3H94v25.6H101.1z"/>
	<path d="M129.4,42.9h-8.1v12.3c0,0.6-0.1,0.9-0.3,1.1c-0.2,0.3-0.5,0.4-0.9,0.4c-0.4,0-0.7-0.1-0.9-0.4c-0.2-0.3-0.2-0.5-0.2-1.1
		V28.2c0-0.3,0-0.7,0.3-1c0.3-0.3,0.7-0.3,1-0.3h9.9c4.8,0,8.5,2.8,8.5,7.9c0,4.5-2.7,7.3-6.8,8l6.7,11.8c0.2,0.4,0.4,0.7,0.4,1
		c0,0.4-0.2,0.7-0.5,0.9c-0.2,0.1-0.4,0.2-0.6,0.2c-0.6,0-1-0.5-1.2-1L129.4,42.9z M130.1,40.9c3.8,0,6.5-1.9,6.5-6
		c0-4.1-2.7-6-6.5-6h-8.7v12H130.1z"/>
	<path d="M146.9,28.2c0-0.9,0.7-1.5,1.5-1.5c0.9,0,1.5,0.7,1.5,1.5c0,0.9-0.7,1.5-1.5,1.5C147.6,29.7,146.9,29,146.9,28.2z
		 M147.4,37.7c0-0.6,0.1-0.8,0.2-1c0.2-0.2,0.5-0.4,0.9-0.4c0.4,0,0.7,0.2,0.9,0.4c0.2,0.2,0.2,0.5,0.2,1v17.5c0,0.6-0.1,0.8-0.2,1
		c-0.2,0.3-0.5,0.4-0.9,0.4c-0.4,0-0.7-0.2-0.9-0.4c-0.2-0.3-0.2-0.5-0.2-1V37.7z"/>
</g>
</svg>
