<?xml version="1.0" encoding="utf-8"?>
<!-- Generator: Adobe Illustrator 19.0.1, SVG Export Plug-In . SVG Version: 6.00 Build 0)  -->
<svg version="1.1" id="Layer_1" xmlns="http://www.w3.org/2000/svg" xmlns:xlink="http://www.w3.org/1999/xlink" x="0px" y="0px"
	 viewBox="0 0 140 35" enable-background="new 0 0 140 35" xml:space="preserve">
<g>
	<rect x="28.7" y="5.2" fill="#005288" width="82.7" height="21.5"/>
	<g>
		<path fill="#FFFFFF" d="M97.1,19.5c0,0.9,0.6,1.6,1.4,1.6c0.6,0,1.2-0.3,1.6-0.8l0-2.6H100C97.8,17.7,97.1,18.1,97.1,19.5z"/>
		<path fill="#FFFFFF" d="M58.2,13c-0.8,0-1.4,0.5-1.6,1.2c-0.2,0.6-0.3,1.5-0.3,2.7c0,1.4,0.1,2.4,0.4,3c0.3,0.7,1,1,1.6,1
			c1.4,0,2-1.2,2-4.1c0-1.6-0.2-2.7-0.6-3.2C59.3,13.3,58.8,13,58.2,13z"/>
		<path fill="#FFFFFF" d="M2,0.6v0.3c5.1,2,10.7,5.6,12.6,11.8c3.8,12.6,7.1,21.4,26.9,21.4c0.7,0,57.4,0,58.1,0
			c19.8,0,23.1-8.8,26.9-21.4c1.9-6.3,7.5-9.8,12.6-11.8V0.6H2z M51,23h-3.1V15c0-1.4-0.2-1.7-1-1.7c-0.6,0-1.4,0.4-2.1,1V23h-3
			v-7.8c0-1.5-0.2-1.9-1.1-1.9c-0.6,0-1.4,0.3-2.1,0.9V23h-3.1v-8.4c0-1.7-0.1-2.5-0.4-3.1l2.8-0.8c0.2,0.3,0.3,0.6,0.4,1.2
			c0.8-0.8,1.8-1.2,2.9-1.2c1,0,1.8,0.3,2.4,1c0.2,0.2,0.3,0.4,0.5,0.6c1.1-1.1,2.1-1.6,3.4-1.6c0.9,0,1.8,0.3,2.4,0.8
			c0.7,0.6,0.9,1.3,0.9,2.9V23z M62.1,21.6c-0.9,1-2.1,1.7-4,1.7c-3.3,0-5.4-2.4-5.4-6.2c0-3.8,2.2-6.3,5.4-6.3
			c1.7,0,3.1,0.6,4.1,1.8c1,1.1,1.4,2.4,1.4,4.4C63.6,19,63.2,20.4,62.1,21.6z M73.2,23h-8.9V21l5.7-7.9h-5.2v-2.2h8.9v2.2l-5.3,7.7
			H74L73.2,23z M78.7,23h-3.2V11.1l3.2-0.5V23z M77.2,9.6c-1.1,0-1.9-0.9-1.9-1.9c0-1.1,0.9-2,2-2c1.1,0,1.9,0.9,1.9,2
			C79.1,8.7,78.2,9.6,77.2,9.6z M84.3,23.2c-1.3,0-2.4-0.6-2.8-1.6c-0.2-0.6-0.3-1-0.3-2.7v-9c0-1.6,0-2.5-0.2-3.6l3.2-0.7
			c0.1,0.7,0.2,1.4,0.2,3.1v9.4c0,2.1,0,2.3,0.2,2.7c0.1,0.2,0.4,0.3,0.6,0.3c0.1,0,0.2,0,0.4,0l0.5,1.9
			C85.7,23.1,85,23.2,84.3,23.2z M90.8,23.2c-1.3,0-2.4-0.6-2.8-1.6c-0.2-0.6-0.3-1-0.3-2.7v-9c0-1.6,0-2.5-0.2-3.6l3.2-0.7
			C90.9,6.2,91,7,91,8.7v9.4c0,2.1,0,2.3,0.2,2.7c0.1,0.2,0.4,0.3,0.6,0.3c0.1,0,0.2,0,0.4,0l0.5,1.9C92.2,23.1,91.5,23.2,90.8,23.2
			z M102.7,23.6c-0.7-0.3-1.4-0.8-1.7-1.5c-0.2,0.2-0.5,0.5-0.7,0.6c-0.6,0.4-1.4,0.7-2.4,0.7c-2.7,0-4.1-1.4-4.1-3.8
			c0-2.8,2-4.1,5.8-4.1c0.2,0,0.4,0,0.7,0V15c0-1.3-0.3-1.8-1.4-1.8c-1,0-2.2,0.5-3.5,1.4L94,12.4c0.6-0.4,1.1-0.6,2-1
			c1.2-0.5,2.2-0.7,3.3-0.7c2,0,3.4,0.8,3.9,2.1c0.2,0.5,0.2,0.9,0.2,2.2l-0.1,4c0,0.1,0,0.1,0,0.2c0,1.3,0.2,1.8,1.1,2.5
			L102.7,23.6z"/>
	</g>
</g>
</svg>
