<svg id="Layer_1" data-name="Layer 1" xmlns="http://www.w3.org/2000/svg" viewBox="0 0 24 24">
    <defs>
        <style>
            .cls-1{fill:#ab5da4;}
        </style>
    </defs>
    <title>
        all-icons
    </title>
    <path class="cls-1" d="M23.27 19.84l-6.79-6.71V4a2 2 0 0 0-.14-4H7.66a2 2 0 0 0-.14 4v5.55a.48.48 0 0 0 0 .81v2.77L.73 19.84a2.39 2.39 0 0 0-.54 2.64A2.42 2.42 0 0 0 2.47 24h19.07a2.42 2.42 0 0 0 2.28-1.52 2.38 2.38 0 0 0-.55-2.64zM6.64 2a1 1 0 0 1 1-1h8.68a1 1 0 1 1 0 2H16a.5.5 0 0 0-.5.5v6h-7v-6A.5.5 0 0 0 8 3h-.34a1 1 0 0 1-1.02-1zm16.25 20.1a1.44 1.44 0 0 1-1.36.9H2.47a1.44 1.44 0 0 1-1.36-.9 1.4 1.4 0 0 1 .32-1.55l6.94-6.86a.5.5 0 0 0 .15-.36v-2.87h7v2.88a.5.5 0 0 0 .15.36l6.94 6.86a1.38 1.38 0 0 1 .28 1.54z"/>
    <path class="cls-1" d="M10 15.48l-5.49 5.45a.5.5 0 1 0 .7.71l5.52-5.45a.5.5 0 1 0-.73-.71z"/>
</svg>
