<svg id="Layer_1" data-name="Layer 1" xmlns="http://www.w3.org/2000/svg" viewBox="0 0 28 22">
    <defs>
        <style>
            .cls-1{fill:#ba75b2;}
        </style>
    </defs>
    <title>
        all-icons
    </title>
    <path class="cls-1" d="M27.5 8h-.37V3a.5.5 0 0 0-.5-.5h-2.55v-2a.5.5 0 0 0-.5-.5H2.68A2.64 2.64 0 0 0 0 2.6a.49.49 0 0 0 0 .21A.49.49 0 0 0 0 3v18.5a.5.5 0 0 0 .5.5h26.13a.5.5 0 0 0 .5-.5v-5h.37a.5.5 0 0 0 .5-.5V8.48a.5.5 0 0 0-.5-.48zm-.5 7.55h-8.16a3.36 3.36 0 0 1-3.42-3.29A3.36 3.36 0 0 1 18.84 9H27v6.57zM2.68 1h20.4v1.52H1A1.64 1.64 0 0 1 2.68 1zm23.45 20H1V3.52h25.13V8h-7.29a4.36 4.36 0 0 0-4.42 4.29 4.36 4.36 0 0 0 4.42 4.29h7.28V21z"/>
    <path class="cls-1" d="M19.23 10.5A1.76 1.76 0 1 0 21 12.26a1.79 1.79 0 0 0-1.77-1.76zm0 2.52a.76.76 0 1 1 .77-.76.79.79 0 0 1-.77.74z"/>
</svg>
