<svg id="Layer_1" data-name="Layer 1" xmlns="http://www.w3.org/2000/svg" viewBox="0 0 22.96 30.38">
    <defs>
        <style>
            .cls-1{fill:#ab5da4;}
        </style>
    </defs>
    <title>
        all-icons
    </title>
    <path class="cls-1" d="M23 13.09A13.45 13.45 0 0 0 9.85 0a.5.5 0 0 0 0 1A12.42 12.42 0 0 1 22 13.09a12.43 12.43 0 0 1-11.67 12.07.49.49 0 0 0-1 0c-3.89-.16-5.15-1.63-5.16-1.64a.5.5 0 0 0-.8.6c.06.08 1.51 1.92 6 2.05v2.74h-4.2a.5.5 0 0 0 0 1h4.18a.49.49 0 0 0 1 0h4.18a.5.5 0 1 0 0-1h-4.18v-2.76A13.45 13.45 0 0 0 23 13.09z"/>
    <path class="cls-1" d="M19.69 13.09a9.85 9.85 0 1 0-9.85 9.83 9.85 9.85 0 0 0 9.85-9.83zM1 13.09a8.85 8.85 0 1 1 8.85 8.83A8.85 8.85 0 0 1 1 13.09z"/>
</svg>
