<svg id="Layer_1" data-name="Layer 1" xmlns="http://www.w3.org/2000/svg" viewBox="0 0 20.38 24.96">
    <defs>
        <style>
            .cls-1{fill:#fff;}
        </style>
    </defs>
    <title>
        all-icons
    </title>
    <path class="cls-1" d="M10.19 12a6.08 6.08 0 0 0 6.14-6 6.08 6.08 0 0 0-6.14-6 6.08 6.08 0 0 0-6.14 6 6.08 6.08 0 0 0 6.14 6zm0-11a5.08 5.08 0 0 1 5.14 5 5.08 5.08 0 0 1-5.14 5 5.08 5.08 0 0 1-5.14-5 5.08 5.08 0 0 1 5.14-5zM13.88 14.92H6.5a6.51 6.51 0 0 0-6.5 6.5V25h1v-3.58a5.51 5.51 0 0 1 5.5-5.5h7.38a5.51 5.51 0 0 1 5.5 5.5V25h1v-3.58a6.51 6.51 0 0 0-6.5-6.5z"/>
</svg>
