<svg id="Layer_1" data-name="Layer 1" xmlns="http://www.w3.org/2000/svg" viewBox="0 0 19.83 29.88">
    <defs>
        <style>
            .cls-1{fill:#ab5da4;}
        </style>
    </defs>
    <title>
        all-icons
    </title>
    <path class="cls-1" d="M16.16 17.6a9.92 9.92 0 1 0-12.48 0l-2.49 6.74a.5.5 0 0 0 .59.66l3.15-.75 1.91 2.62a.5.5 0 0 0 .4.21h.07a.5.5 0 0 0 .4-.32l2.21-6 3.25 8.79a.5.5 0 0 0 .4.32h.07a.5.5 0 0 0 .4-.21l1.91-2.62 3.15.75a.51.51 0 0 0 .49-.15.5.5 0 0 0 .09-.5zM1 9.91a8.91 8.91 0 1 1 8.91 8.91A8.92 8.92 0 0 1 1 9.91zm6.1 15.61l-1.56-2.13A.5.5 0 0 0 5 23.2l-2.57.61 2.07-5.6a9.85 9.85 0 0 0 4.69 1.57zm8.76.48a.5.5 0 0 0-.52.19l-1.55 2.13-3.15-8.54a9.85 9.85 0 0 0 4.69-1.58l3.1 8.41z"/>
    <path class="cls-1" d="M15.06 6.26a.5.5 0 0 0-.71 0l-5.89 5.89-3-3a.5.5 0 0 0-.71.71l3.33 3.33a.5.5 0 0 0 .71 0L15.06 7a.5.5 0 0 0 0-.74z"/>
</svg>
