<svg id="Layer_1" data-name="Layer 1" xmlns="http://www.w3.org/2000/svg" viewBox="0 0 28 28">
    <defs>
        <style>
            .cls-1{fill:#ab5da4;}
        </style>
    </defs>
    <title>
        all-icons
    </title>
    <path class="cls-1" d="M28 .54a.49.49 0 0 0 0-.07.49.49 0 0 0 0-.11.5.5 0 0 0-.09-.15.49.49 0 0 0-.1-.1.5.5 0 0 0-.18-.11h-.17a.5.5 0 0 0-.17 0l-27 12.63a.5.5 0 0 0 0 .9l9.43 4.72 4.72 9.43a.5.5 0 0 0 .45.28.5.5 0 0 0 .45-.29L28 .71a.5.5 0 0 0 0-.17zm-2.87 1.62l-15 15-.2.2-8.28-4.22zM14.86 26.35L10.69 18l.2-.2 15-15z"/>
</svg>
