<svg id="Layer_1" data-name="Layer 1" xmlns="http://www.w3.org/2000/svg" viewBox="0 0 28 28.14"><defs><style>.cls-1{fill:#b876b2;}</style></defs><title>icon</title><path class="cls-1" d="M27.93,13.75L24,7h0a0.48,0.48,0,0,0-.08-0.08,0.46,0.46,0,0,0-.2-0.13,0.48,0.48,0,0,0-.15,0h0l-7.08.1L12.6,0.25A0.5,0.5,0,0,0,12.18,0h0l-7.38.11a0.5,0.5,0,0,0-.42.24L0.23,7.06h0a0.48,0.48,0,0,0,0,.12,0.5,0.5,0,0,0,0,.12,0.5,0.5,0,0,0,0,.13,0.48,0.48,0,0,0,0,.12h0l3.82,6.55-4,6.46h0a0.48,0.48,0,0,0,0,.12A0.27,0.27,0,0,0,0,21a0.48,0.48,0,0,0,0,.12h0l4,6.8a0.5,0.5,0,0,0,.43.25h0l7.38-.1,0.07,0a0.5,0.5,0,0,0,.17,0l0.07-.06a0.49,0.49,0,0,0,.11-0.1l4-6.49,7.1-.1,0.07,0a0.5,0.5,0,0,0,.18-0.05l0.06-.06A0.48,0.48,0,0,0,23.79,21l4.14-6.71A0.5,0.5,0,0,0,27.93,13.75ZM16.27,20.32l-3.38-5.79,3.44,0,2.68,0,3.47,5.67Zm-14.88,0,3.53-5.72,5.65-.08h0.54l-0.18.29L7.5,20.38l-3.08,0ZM12,13.07L8.52,7.37l3.63-5.9,3.4,5.83ZM11.85,26.58l-3.49-5.7L12,15l3.4,5.83Zm7.16-13-3.08,0-3,0L16.43,7.8l6.19-.09-2,3.27ZM5.08,1.1L11.27,1,9.7,3.56l-2,3.31-3.07,0-3,0ZM4.94,7.85l2.71,0L8.47,9.19l2.66,4.34H10.18l-5.26.07L1.53,7.83ZM4.75,27.14L1.37,21.35l3.41,0,2.71,0L11,27.05Zm18.61-7.37-3.49-5.7,1.35-2.19,2.28-3.7L26.91,14Z"/></svg>