<svg id="Layer_1" data-name="Layer 1" xmlns="http://www.w3.org/2000/svg" viewBox="0 0 28 30.56">
    <defs>
        <style>
            .cls-1{fill:#ba75b2;}
        </style>
    </defs>
    <title>
        all-icons
    </title>
    <path class="cls-1" d="M16.87 3v-.13a2.89 2.89 0 0 0-5.77 0V3a14 14 0 1 0 5.77 0zM14 1a1.88 1.88 0 0 1 1.88 1.85A14.06 14.06 0 0 0 14 2.71a14.06 14.06 0 0 0-1.88.14A1.88 1.88 0 0 1 14 1zm.5 28.53v-2a.5.5 0 1 0-1 0v2A13 13 0 0 1 1 17.13h2a.5.5 0 0 0 0-1H1a13 13 0 0 1 12.5-12.4v2a.5.5 0 0 0 1 0v-2A13 13 0 0 1 27 16.13h-2a.5.5 0 0 0 0 1h2a13 13 0 0 1-12.5 12.4z"/>
    <path class="cls-1" d="M20 9.53l-9.07 3.8-.09.06h-.07a.51.51 0 0 0-.06.09.5.5 0 0 0-.05.08l-3.33 8.59a.5.5 0 0 0 .47.68.51.51 0 0 0 .18 0l8.59-3.32.08-.05.09-.06a.49.49 0 0 0 .06-.1v-.06l3.81-9a.5.5 0 0 0-.61-.71zm-8.68 5.15l4.16 4.14-6.8 2.63zm4.89 3.45L12 14l7.25-3z"/>
</svg>
