<svg id="Layer_1" data-name="Layer 1" xmlns="http://www.w3.org/2000/svg" viewBox="0 0 12.13 27.16">
    <defs>
        <style>
            .cls-1{fill:#fff;}
        </style>
    </defs>
    <title>
        all-icons
    </title>
    <path class="cls-1" d="M6.72 12.32c-3.33-1-4.31-1.85-4.31-3.75S4 5.43 6.22 5.43a5.82 5.82 0 0 1 4.34 1.71l1-1A7.13 7.13 0 0 0 7 4.06V0H5.57v4.06C2.66 4.28.73 6.13.73 8.62s1.6 3.92 5.29 5.1c3.33 1 4.42 1.93 4.42 4.17 0 2.52-1.9 3.95-4.54 3.95a6.83 6.83 0 0 1-4.93-2l-1 1a8.14 8.14 0 0 0 5.57 2.32v3.92H7v-4c3.14-.39 5.13-2.46 5.13-5.35 0-3.17-2.05-4.35-5.41-5.41z"/>
</svg>
