<svg id="Layer_1" data-name="Layer 1" xmlns="http://www.w3.org/2000/svg" viewBox="0 0 26 26">
    <defs>
        <style>
            .cls-1{fill:#ab5da4;}
        </style>
    </defs>
    <title>
        all-icons
    </title>
    <path class="cls-1" d="M20.66 10.68a5.36 5.36 0 1 0-4.46-2.43l-8.6 5.47a4.53 4.53 0 1 0 .84 5.58l7.3 2.92v.06a3.8 3.8 0 1 0 .18-1.07l-7.08-2.83a4.36 4.36 0 0 0-.57-3.9L16.82 9a5.31 5.31 0 0 0 3.84 1.68zm-1.21 8.87a2.73 2.73 0 1 1-2.73 2.73 2.73 2.73 0 0 1 2.73-2.73zM7.83 18.28a.45.45 0 0 0-.16.35 3.44 3.44 0 1 1 .16-.35zM20.66 1a4.34 4.34 0 1 1-4.34 4.34A4.34 4.34 0 0 1 20.66 1z"/>
</svg>
