<svg id="Layer_1" data-name="Layer 1" xmlns="http://www.w3.org/2000/svg" viewBox="0 0 28.22 22.2">
    <defs>
        <style>
            .cls-1{fill:#ab5da4;}
        </style>
    </defs>
    <title>
        all-icons
    </title>
    <path class="cls-1" d="M14.11 22.2a1.58 1.58 0 0 1-1.11-.45L1.81 10.57a6.19 6.19 0 0 1 8.76-8.76.5.5 0 0 1-.71.71 5.19 5.19 0 1 0-7.34 7.34L13.7 21a.61.61 0 0 0 .83 0L25.7 9.86a5.19 5.19 0 0 0-7.34-7.34l-4 4a.5.5 0 0 1-.71-.71l4-4a6.19 6.19 0 0 1 8.76 8.76L15.23 21.75a1.58 1.58 0 0 1-1.12.45z"/>
</svg>
