<svg id="Layer_1" data-name="Layer 1" xmlns="http://www.w3.org/2000/svg" viewBox="0 0 20 33.35">
    <defs>
        <style>
            .cls-1{fill:#ab5da4;}
        </style>
    </defs>
    <title>
        all-icons
    </title>
    <path class="cls-1" d="M19.5 12.58H18a8.51 8.51 0 0 0-7.5 4.51v-2.46l2.84-2.4a6.23 6.23 0 0 0 2.34-4.78 6.23 6.23 0 0 0-2.34-4.78l-3-2.55a.5.5 0 0 0-.64 0l-3 2.55a6.23 6.23 0 0 0-2.38 4.78 6.23 6.23 0 0 0 2.34 4.78l2.84 2.4v2.46A8.51 8.51 0 0 0 2 12.58H.5a.51.51 0 0 0-.5.51 8.51 8.51 0 0 0 8.5 8.5h1v11.26a.5.5 0 0 0 1 0V21.6h1a8.51 8.51 0 0 0 8.5-8.52.5.5 0 0 0-.5-.5zM7.3 11.47a5.25 5.25 0 0 1-2-4 5.25 5.25 0 0 1 2-4L10 1.15l2.7 2.27a5.25 5.25 0 0 1 2 4 5.25 5.25 0 0 1-2 4l-2.2 1.85V8a.5.5 0 1 0-1 0v5.37zm1.2 9.13a7.51 7.51 0 0 1-7.48-7H2a7.51 7.51 0 0 1 7.49 7h-1zm3 0h-1a7.51 7.51 0 0 1 7.48-7h1a7.51 7.51 0 0 1-7.48 7z"/>
</svg>
