<?xml version="1.0" encoding="UTF-8" standalone="no"?>
<svg width="140px" height="140px" viewBox="0 0 140 140" version="1.1" xmlns="http://www.w3.org/2000/svg" xmlns:xlink="http://www.w3.org/1999/xlink" xmlns:sketch="http://www.bohemiancoding.com/sketch/ns">
    <!-- Generator: Sketch 3.5.1 (25234) - http://www.bohemiancoding.com/sketch -->
    <title>Page 1</title>
    <desc>Created with Sketch.</desc>
    <defs>
        <path id="path-1" d="M0,0 L140,0 L140,140 L0,140 L0,0 Z"></path>
    </defs>
    <g id="Page-1" stroke="none" stroke-width="1" fill="none" fill-rule="evenodd" sketch:type="MSPage">
        <g sketch:type="MSLayerGroup">
            <g id="Group-3">
                <mask id="mask-2" sketch:name="Clip 2" fill="white">
                    <use xlink:href="#path-1"></use>
                </mask>
                <g id="Clip-2"></g>
                <path d="M69.9945,69.9941 L130.4035,105.3481 C149.9295,71.9861 138.7125,29.1111 105.3495,9.5851 C94.2395,3.0831 83.2805,0.0771 70.4075,0.0011 L69.9945,69.9941 Z" id="Fill-1" fill="#667EB0" sketch:type="MSShapeGroup" mask="url(#mask-2)"></path>
            </g>
            <path d="M70.4079,0.0013 L69.9949,69.9943 L130.4039,105.3483 C123.9009,116.4583 115.8189,124.4463 104.6329,130.8163 C71.0419,149.9463 28.3019,138.2233 9.1719,104.6323 C2.8019,93.4463 -0.0741,82.4533 0.0019,69.5803 C0.2299,30.9243 31.7519,-0.2267 70.4079,0.0013" id="Fill-4" fill="#7E4A7E" sketch:type="MSShapeGroup"></path>
        </g>
    </g>
</svg>