<?xml version="1.0" encoding="UTF-8" standalone="no"?>
<svg width="140px" height="140px" viewBox="0 0 140 140" version="1.1" xmlns="http://www.w3.org/2000/svg" xmlns:xlink="http://www.w3.org/1999/xlink" xmlns:sketch="http://www.bohemiancoding.com/sketch/ns">
    <!-- Generator: Sketch 3.5.1 (25234) - http://www.bohemiancoding.com/sketch -->
    <title>Page 1</title>
    <desc>Created with Sketch.</desc>
    <defs>
        <path id="path-1" d="M0,0 L140,0 L140,140 L0,140"></path>
    </defs>
    <g id="Page-1" stroke="none" stroke-width="1" fill="none" fill-rule="evenodd" sketch:type="MSPage">
        <g sketch:type="MSLayerGroup">
            <g id="Group-3">
                <mask id="mask-2" sketch:name="Clip 2" fill="white">
                    <use xlink:href="#path-1"></use>
                </mask>
                <g id="Clip-2"></g>
                <path d="M35.3432,9.1659 C68.8622,-9.9231 111.4622,1.8439 130.4942,35.4479 C149.5272,69.0519 137.7832,111.7679 104.2652,130.8569 C70.7462,149.9449 28.1452,138.1779 9.1132,104.5739 C-9.9188,70.9699 1.8242,28.2549 35.3432,9.1659" id="Fill-1" fill="#073F61" sketch:type="MSShapeGroup" mask="url(#mask-2)"></path>
            </g>
            <path d="M70.2105,69.9823 L130.4005,105.4023 C110.8925,138.7363 68.1295,149.9003 34.8875,130.3383 C23.8175,123.8243 15.8635,115.7343 9.5245,104.5423 L70.2105,69.9823 Z" id="Fill-4" fill="#1397A4" sketch:type="MSShapeGroup"></path>
            <path d="M9.5247,104.5424 L70.2107,69.9824 L130.4007,105.4024 C136.8977,94.3024 139.9067,83.3494 139.9977,70.4794 C140.2717,31.8304 109.2487,0.2764 70.7057,0.0024 C57.8707,-0.0886 46.9057,2.7734 35.7457,9.1294 C2.2287,28.2164 -9.5103,70.9344 9.5247,104.5424" id="Fill-6" fill="#073F61" sketch:type="MSShapeGroup"></path>
        </g>
    </g>
</svg>