<?xml version="1.0" encoding="UTF-8" standalone="no"?>
<svg width="20px" height="20px" viewBox="0 0 20 20" version="1.1" xmlns="http://www.w3.org/2000/svg" xmlns:xlink="http://www.w3.org/1999/xlink">
    <!-- Generator: Sketch 3.7.1 (28215) - http://www.bohemiancoding.com/sketch -->
    <title>clock</title>
    <desc>Created with Sketch.</desc>
    <defs>
        <polygon id="path-1" points="0 20 20 20 20 0 0 0"/>
    </defs>
    <g id="Page-1" stroke="none" stroke-width="1" fill="none" fill-rule="evenodd">
        <g id="clock">
            <g id="Page-1">
                <mask id="mask-2" fill="white">
                    <use xlink:href="#path-1"/>
                </mask>
                <g id="Clip-4"/>
                <polygon id="Fill-3" fill="#38B68D" mask="url(#mask-2)" points="9 10.625 11 10.625 11 3.75 9 3.75"/>
                <polygon id="Fill-5" fill="#38B68D" mask="url(#mask-2)" points="5 11 11 11 11 9 5 9"/>
            </g>
            <path d="M10,0 C4.477,0 0,4.477 0,10 C0,15.523 4.477,20 10,20 C15.523,20 20,15.523 20,10 C20,4.477 15.523,0 10,0 M10,2 C14.411,2 18,5.589 18,10 C18,14.411 14.411,18 10,18 C5.589,18 2,14.411 2,10 C2,5.589 5.589,2 10,2" id="Page-1" fill="#38B68D"/>
        </g>
    </g>
</svg>